<svg width="23" height="23" viewBox="0 0 23 23" fill="none" xmlns="http://www.w3.org/2000/svg">
<path fill-rule="evenodd" clip-rule="evenodd" d="M12.2571 0.848192C12.2571 0.623135 12.1677 0.407297 12.0085 0.248159C11.8494 0.0890211 11.6336 -0.000381633 11.4085 -0.000380611C11.1835 -0.000380943 10.9676 0.0890218 10.8085 0.24816C10.6493 0.407298 10.5599 0.623135 10.5599 0.848191L10.5599 10.5596L0.8485 10.5596C0.623445 10.5596 0.407607 10.649 0.248469 10.8082C0.0893306 10.9673 -7.23143e-05 11.1831 -7.2309e-05 11.4082C-7.23143e-05 11.6333 0.0893306 11.8491 0.248469 12.0082C0.407607 12.1674 0.623445 12.2568 0.8485 12.2568L10.5599 12.2568L10.5599 21.9682C10.5599 22.1933 10.6493 22.4091 10.8085 22.5682C10.9676 22.7274 11.1835 22.8168 11.4085 22.8168C11.6336 22.8168 11.8494 22.7274 12.0085 22.5682C12.1677 22.4091 12.2571 22.1933 12.2571 21.9682L12.2571 12.2568H21.9685C22.1936 12.2568 22.4094 12.1674 22.5686 12.0082C22.7277 11.8491 22.8171 11.6333 22.8171 11.4082C22.8171 11.1831 22.7277 10.9673 22.5686 10.8082C22.4094 10.649 22.1936 10.5596 21.9685 10.5596H12.2571L12.2571 0.848192Z" fill="#FEFAED"/>
</svg>
