<svg width="24" height="24" viewBox="0 0 24 24" fill="none" xmlns="http://www.w3.org/2000/svg">
<path d="M19.5 6H19V2.5C19 1.121 17.879 0 16.5 0H4.5C2.019 0 0 2.019 0 4.5V13.5C0 15.981 2.019 18 4.5 18H5V19.5C5 21.981 7.019 24 9.5 24H19.5C21.981 24 24 21.981 24 19.5V10.5C24 8.019 21.981 6 19.5 6ZM18 6H7.776L17.59 1.471C17.844 1.74 18 2.102 18 2.5V6ZM4.5 17C2.57 17 1 15.43 1 13.5V4.5C1 2.57 2.57 1 4.5 1H16.223L7.033 5.241C5.798 5.811 5 7.058 5 8.42V17H4.5ZM23 19.5C23 21.43 21.43 23 19.5 23H9.5C7.57 23 6 21.43 6 19.5V8.42C6 7.902 6.161 7.408 6.445 6.997C6.464 6.999 6.481 7 6.5 7H19.5C21.43 7 23 8.57 23 10.5V19.5ZM20 12C20 12.276 19.776 12.5 19.5 12.5H15.5C15.224 12.5 15 12.276 15 12C15 11.724 15.224 11.5 15.5 11.5H19.5C19.776 11.5 20 11.724 20 12ZM11.5 10H10.5C9.673 10 9 10.673 9 11.5V12.5C9 13.327 9.673 14 10.5 14H11.5C12.327 14 13 13.327 13 12.5V11.5C13 10.673 12.327 10 11.5 10ZM12 12.5C12 12.775 11.775 13 11.5 13H10.5C10.225 13 10 12.775 10 12.5V11.5C10 11.225 10.225 11 10.5 11H11.5C11.775 11 12 11.225 12 11.5V12.5ZM20 18C20 18.276 19.776 18.5 19.5 18.5H15.5C15.224 18.5 15 18.276 15 18C15 17.724 15.224 17.5 15.5 17.5H19.5C19.776 17.5 20 17.724 20 18ZM11.5 16H10.5C9.673 16 9 16.673 9 17.5V18.5C9 19.327 9.673 20 10.5 20H11.5C12.327 20 13 19.327 13 18.5V17.5C13 16.673 12.327 16 11.5 16ZM12 18.5C12 18.775 11.775 19 11.5 19H10.5C10.225 19 10 18.775 10 18.5V17.5C10 17.225 10.225 17 10.5 17H11.5C11.775 17 12 17.225 12 17.5V18.5Z" fill="#A1A1A1"/>
</svg>
