<svg width="24" height="24" viewBox="0 0 24 24" fill="none" xmlns="http://www.w3.org/2000/svg">
<path d="M19.5 7H6.678C6.247 7.644 6 8.409 6 9.219V19.5C6 21.985 8.015 24 10.5 24H19.5C21.985 24 24 21.985 24 19.5V11.5C24 9.015 21.985 7 19.5 7ZM13 20C13 20.552 12.552 21 12 21H10C9.448 21 9 20.552 9 20V18C9 17.448 9.448 17 10 17H12C12.552 17 13 17.448 13 18V20ZM13 13C13 13.552 12.552 14 12 14H10C9.448 14 9 13.552 9 13V11C9 10.448 9.448 10 10 10H12C12.552 10 13 10.448 13 11V13ZM20 20H16C15.448 20 15 19.552 15 19C15 18.448 15.448 18 16 18H20C20.552 18 21 18.448 21 19C21 19.552 20.552 20 20 20ZM20 13H16C15.448 13 15 12.552 15 12C15 11.448 15.448 11 16 11H20C20.552 11 21 11.448 21 12C21 12.552 20.552 13 20 13ZM19 5H9.472L17.91 0.705C18.57 1.255 19 2.074 19 3V5ZM14.884 0L7.278 3.872C5.267 4.896 4 6.962 4 9.219V17.899C1.718 17.436 0 15.419 0 13V5C0 2.239 2.239 0 5 0H14.884Z" fill="#6B38B2"/>
</svg>
