<svg width="16" height="10" viewBox="0 0 16 10" fill="none" xmlns="http://www.w3.org/2000/svg">
<path d="M8.48665 8.81652L15.7879 1.15365C15.9098 1.02579 15.9778 0.855919 15.9778 0.679272C15.9778 0.502625 15.9098 0.332757 15.7879 0.204898L15.7797 0.196647C15.7206 0.134449 15.6494 0.0849218 15.5706 0.0510778C15.4918 0.0172338 15.4069 -0.000218391 15.3211 -0.000218391C15.2353 -0.000218391 15.1504 0.0172338 15.0716 0.0510778C14.9927 0.0849218 14.9216 0.134449 14.8625 0.196647L7.98753 7.41265L1.11528 0.196647C1.05619 0.134449 0.985065 0.0849218 0.906232 0.0510778C0.827399 0.0172338 0.742505 -0.000218391 0.656714 -0.000218391C0.570924 -0.000218391 0.486031 0.0172338 0.407198 0.0510778C0.328364 0.0849218 0.25724 0.134449 0.198153 0.196647L0.189901 0.204898C0.0680151 0.332757 2.00272e-05 0.502625 2.00272e-05 0.679272C2.00272e-05 0.855919 0.0680151 1.02579 0.189901 1.15365L7.49115 8.81652C7.55536 8.88391 7.63259 8.93757 7.71815 8.97422C7.80371 9.01088 7.89582 9.02979 7.9889 9.02979C8.08198 9.02979 8.1741 9.01088 8.25966 8.97422C8.34522 8.93757 8.42244 8.88391 8.48665 8.81652Z" fill="#6B38B2"/>
</svg>
