<svg width="60" height="60" viewBox="0 0 60 60" fill="none" xmlns="http://www.w3.org/2000/svg">
<g clip-path="url(#clip0_1_3719)">
<path d="M5.01946 6.64842C5.18419 6.64799 5.34891 6.64745 5.51363 6.64682C5.96464 6.64539 6.41564 6.64541 6.86666 6.64569C7.35372 6.64574 7.84077 6.64444 8.32783 6.64333C9.28143 6.64139 10.235 6.64074 11.1886 6.64061C11.9639 6.6405 12.7392 6.64002 13.5145 6.63927C15.7138 6.63721 17.913 6.63613 20.1123 6.6363C20.2308 6.63631 20.3493 6.63632 20.4714 6.63633C20.59 6.63634 20.7087 6.63635 20.8309 6.63636C22.7537 6.63646 24.6764 6.63421 26.5991 6.63091C28.5745 6.62754 30.5499 6.62593 32.5253 6.62613C33.6339 6.62621 34.7424 6.62556 35.851 6.62304C36.7948 6.6209 37.7387 6.6204 38.6825 6.62199C39.1637 6.62275 39.645 6.62277 40.1262 6.62073C40.5674 6.61888 41.0085 6.61923 41.4497 6.62127C41.6836 6.62179 41.9175 6.62003 42.1513 6.61816C43.4541 6.62811 44.634 6.91592 45.5858 7.85164C46.6879 9.11336 46.8109 10.4365 46.7976 12.0618C46.7975 12.234 46.7976 12.4062 46.7978 12.5784C46.7979 13.042 46.7958 13.5056 46.7934 13.9692C46.7911 14.4551 46.7909 14.941 46.7905 15.4269C46.7894 16.3454 46.7866 17.2638 46.783 18.1822C46.7791 19.2285 46.7772 20.2749 46.7754 21.3212C46.7717 23.472 46.7655 25.6228 46.7577 27.7735C46.8241 27.7727 46.8905 27.772 46.9589 27.7711C47.6548 27.7633 48.3506 27.758 49.0465 27.7542C49.3057 27.7524 49.5648 27.75 49.8239 27.747C50.198 27.7427 50.5721 27.7407 50.9462 27.7392C51.0607 27.7374 51.1751 27.7356 51.293 27.7337C52.6505 27.7334 53.7149 28.1278 54.7237 29.0369C55.5934 29.9399 55.8187 30.9111 55.8104 32.1314C55.8045 32.437 55.794 32.7416 55.7811 33.047C55.8579 33.0439 55.9346 33.0408 56.0137 33.0377C56.3658 33.0254 56.7179 33.0178 57.0702 33.0103C57.2513 33.003 57.2513 33.003 57.436 32.9955C58.2611 32.9823 58.7911 33.0799 59.414 33.6329C60.1863 34.4305 60.0813 35.4476 60.0695 36.4829C60.0693 36.6691 60.0693 36.8552 60.0695 37.0414C60.0693 37.4301 60.0671 37.8187 60.0634 38.2074C60.0588 38.7044 60.0582 39.2013 60.0591 39.6984C60.0595 40.0822 60.0581 40.466 60.0561 40.8499C60.0552 41.0331 60.0549 41.2164 60.055 41.3996C60.0548 41.6559 60.0522 41.9121 60.0491 42.1684C60.0481 42.3139 60.0471 42.4594 60.0461 42.6093C59.9602 43.3498 59.6157 43.8145 59.0624 44.297C58.985 44.297 58.9077 44.297 58.828 44.297C58.8291 44.3859 58.8301 44.4748 58.8312 44.5665C58.8406 45.4078 58.8477 46.249 58.8523 47.0903C58.8547 47.5228 58.858 47.9552 58.8634 48.3876C58.8685 48.8056 58.8713 49.2234 58.8725 49.6414C58.8738 49.8771 58.8774 50.1129 58.8811 50.3486C58.8813 51.2606 58.8457 51.98 58.1938 52.677C57.5826 53.224 57.0491 53.3496 56.2453 53.3517C56.1636 53.3523 56.0819 53.3528 55.9978 53.3533C55.7249 53.3548 55.452 53.3546 55.179 53.3544C54.983 53.3551 54.7871 53.3559 54.5911 53.3568C54.0591 53.3589 53.5272 53.3594 52.9952 53.3596C52.6627 53.3598 52.3302 53.3603 51.9976 53.3609C50.837 53.363 49.6765 53.364 48.5159 53.3638C47.4349 53.3637 46.3539 53.3661 45.273 53.3699C44.3442 53.3729 43.4155 53.3742 42.4867 53.374C41.9323 53.374 41.3779 53.3746 40.8235 53.3771C40.3019 53.3794 39.7803 53.3794 39.2586 53.3777C39.0676 53.3774 38.8766 53.378 38.6855 53.3794C36.6697 53.3934 36.6698 53.3934 35.9177 52.6862C35.4399 52.1556 35.2613 51.7167 35.2683 51.0155C35.269 50.9205 35.2697 50.8255 35.2705 50.7275C35.2714 50.655 35.2724 50.5826 35.2733 50.5079C35.172 50.5081 35.172 50.5081 35.0687 50.5083C31.0643 50.5162 27.0599 50.5222 23.0556 50.5258C22.5746 50.5263 22.0936 50.5267 21.6127 50.5272C21.469 50.5273 21.469 50.5273 21.3225 50.5275C19.7728 50.529 18.223 50.5318 16.6733 50.535C15.0827 50.5383 13.4922 50.5402 11.9017 50.541C10.9205 50.5414 9.93927 50.543 8.95807 50.5458C8.28493 50.5477 7.61181 50.5482 6.93868 50.5478C6.55049 50.5476 6.16234 50.5481 5.77415 50.5498C5.35268 50.5515 4.93126 50.5511 4.50978 50.5502C4.38792 50.5512 4.26605 50.5522 4.1405 50.5533C2.87666 50.5455 1.97751 50.2051 1.05458 49.336C0.099888 48.296 -0.0523068 47.3002 -0.0455412 45.9281C-0.0461723 45.7745 -0.0468034 45.6209 -0.0474536 45.4627C-0.0491434 45.0381 -0.0486515 44.6136 -0.0477858 44.1891C-0.0472305 43.7306 -0.0486979 43.272 -0.0498971 42.8135C-0.0519105 41.9159 -0.0520099 41.0182 -0.0513956 40.1206C-0.0509216 39.3908 -0.0510917 38.6611 -0.0517179 37.9313C-0.0518056 37.8274 -0.0518931 37.7234 -0.0519834 37.6164C-0.0521629 37.4052 -0.0523433 37.194 -0.0525244 36.9829C-0.0541325 35.0034 -0.0534957 33.024 -0.0521511 31.0445C-0.0509873 29.2346 -0.0525032 27.4247 -0.0553071 25.6148C-0.0581663 23.7553 -0.0592912 21.8957 -0.0585119 20.0362C-0.0581029 18.9927 -0.0583632 17.9492 -0.0604163 16.9056C-0.0621425 16.0172 -0.0622151 15.1289 -0.060174 14.2405C-0.0591773 13.7875 -0.0589234 13.3345 -0.060719 12.8815C-0.0626437 12.3899 -0.0609164 11.8982 -0.058845 11.4065C-0.0599706 11.2642 -0.0610962 11.1219 -0.0622559 10.9753C-0.0507547 9.64737 0.337527 8.56506 1.28895 7.61726C2.46474 6.72152 3.5858 6.645 5.01946 6.64842ZM2.35829 9.46297C1.45811 10.8397 1.87489 12.8405 1.87489 14.297C16.0288 14.297 30.1827 14.297 44.7655 14.297C45.0352 11.765 45.0352 11.765 44.1869 9.34258C44.1071 9.27837 44.0274 9.21417 43.9452 9.14803C43.8654 9.08171 43.7857 9.01539 43.7035 8.94707C43.2959 8.66356 42.9493 8.65707 42.4675 8.65622C42.261 8.65544 42.261 8.65544 42.0503 8.65464C41.8983 8.65466 41.7463 8.65468 41.5896 8.6547C41.4271 8.65432 41.2646 8.65388 41.1021 8.6534C40.6544 8.65222 40.2067 8.65179 39.759 8.65148C39.2766 8.65102 38.7942 8.6499 38.3118 8.64888C37.1462 8.64656 35.9806 8.64538 34.815 8.64434C34.2663 8.64382 33.7176 8.64319 33.1688 8.64258C31.3449 8.64059 29.521 8.63889 27.6972 8.63804C27.2238 8.63782 26.7504 8.63759 26.277 8.63736C26.1005 8.63728 26.1005 8.63728 25.9204 8.63719C24.0141 8.63622 22.1078 8.63325 20.2014 8.62944C18.2447 8.62557 16.288 8.62346 14.3313 8.62308C13.2325 8.62283 12.1337 8.6218 11.0349 8.61881C10.0991 8.61627 9.1634 8.61532 8.22765 8.61646C7.75024 8.61699 7.27286 8.61677 6.79545 8.6145C6.35816 8.61243 5.92093 8.61254 5.48364 8.61437C5.251 8.61478 5.01835 8.61288 4.78571 8.6109C3.76771 8.61825 3.11582 8.73837 2.35829 9.46297ZM1.87489 16.2891C1.87006 21.2391 1.86522 26.1891 1.86024 31.2891C1.85811 32.8529 1.85597 34.4167 1.85378 36.0279C1.85299 37.4279 1.85299 37.4279 1.85252 38.828C1.8523 39.4523 1.85144 40.0765 1.85015 40.7008C1.8485 41.4969 1.84806 42.293 1.84839 43.0892C1.84832 43.3815 1.84785 43.6738 1.84695 43.966C1.84578 44.3608 1.84606 44.7555 1.84671 45.1502C1.84602 45.2646 1.84534 45.3791 1.84464 45.4969C1.84841 46.3616 1.88536 47.1938 2.50477 47.8565C2.60765 47.9703 2.60765 47.9703 2.7126 48.0863C3.10547 48.4394 3.42901 48.545 3.95381 48.5445C4.12176 48.5452 4.12176 48.5452 4.2931 48.546C4.41576 48.5453 4.53842 48.5446 4.66479 48.5439C4.86064 48.5442 4.86064 48.5442 5.06044 48.5445C5.49949 48.5449 5.93852 48.5436 6.37757 48.5423C6.69167 48.5422 7.00578 48.5423 7.31988 48.5424C7.99693 48.5425 8.67397 48.5418 9.35101 48.5405C10.3299 48.5386 11.3088 48.538 12.2877 48.5377C13.8758 48.5372 15.464 48.5356 17.0522 48.5334C18.595 48.5312 20.1378 48.5296 21.6806 48.5286C21.8232 48.5285 21.8232 48.5285 21.9688 48.5284C22.4458 48.5281 22.9228 48.5278 23.3998 48.5275C27.3577 48.5251 31.3155 48.5209 35.2733 48.5157C35.2937 47.9278 35.3085 47.3401 35.3184 46.7519C35.3225 46.552 35.3281 46.3522 35.3352 46.1524C35.4222 45.042 35.4222 45.042 35.0953 44.0261C34.8891 43.8592 34.6805 43.7289 34.453 43.5938C34.1847 43.1332 34.1872 42.7088 34.1827 42.1817C34.1818 42.1008 34.1808 42.02 34.1798 41.9366C34.177 41.6704 34.1759 41.4042 34.1752 41.1379C34.1741 40.9518 34.173 40.7658 34.1719 40.5797C34.17 40.1899 34.1691 39.8001 34.1688 39.4103C34.1681 38.9126 34.1637 38.415 34.1584 37.9174C34.1549 37.533 34.154 37.1487 34.1539 36.7643C34.1534 36.5809 34.152 36.3976 34.1495 36.2142C34.1263 34.3314 34.1263 34.3314 34.8046 33.6329C35.495 33.0806 36.1618 33.088 37.0238 33.0762C37.1487 33.0728 37.2735 33.0693 37.4022 33.0657C37.7082 33.0575 38.0141 33.0513 38.3202 33.047C38.3232 32.9167 38.3262 32.7865 38.3294 32.6524C38.3762 31.2682 38.5434 30.0461 39.5498 28.9976C41.037 27.62 42.7597 27.8537 44.7655 27.7735C44.7655 23.9837 44.7655 20.1938 44.7655 16.2891C30.6116 16.2891 16.4577 16.2891 1.87489 16.2891ZM40.664 30.7032C40.3365 31.2473 40.2725 31.639 40.2904 32.2706C40.2936 32.4165 40.2968 32.5624 40.3 32.7128C40.3041 32.8231 40.3082 32.9333 40.3124 33.047C40.5057 33.047 40.6991 33.047 40.8983 33.047C40.9027 32.9451 40.9071 32.8433 40.9116 32.7384C40.9904 31.3564 40.9904 31.3564 41.3671 30.8204C41.8213 30.5176 42.2011 30.5505 42.7282 30.5501C42.8313 30.5491 42.9344 30.5482 43.0407 30.5472C43.3822 30.5443 43.7236 30.5433 44.0651 30.5425C44.3023 30.5415 44.5395 30.5404 44.7767 30.5393C45.2742 30.5374 45.7717 30.5365 46.2692 30.5361C46.9067 30.5355 47.5441 30.5311 48.1815 30.5257C48.6715 30.5223 49.1615 30.5214 49.6515 30.5213C49.8865 30.5208 50.1216 30.5193 50.3566 30.5169C50.6854 30.5138 51.014 30.5143 51.3428 30.5158C51.4399 30.514 51.537 30.5123 51.637 30.5105C52.1369 30.5169 52.3265 30.5419 52.7333 30.8614C53.0915 31.3341 53.1116 31.7282 53.1517 32.3072C53.1616 32.4454 53.1714 32.5836 53.1815 32.7261C53.1886 32.832 53.1957 32.9378 53.203 33.047C53.3964 33.047 53.5897 33.047 53.789 33.047C53.8884 31.6715 53.8884 31.6715 53.3202 30.4688C52.6185 29.8209 52.0135 29.7482 51.0766 29.7468C50.9807 29.7462 50.8847 29.7457 50.7859 29.7451C50.469 29.7433 50.1521 29.7425 49.8352 29.7419C49.6146 29.7412 49.3939 29.7405 49.1732 29.7399C48.7105 29.7386 48.2478 29.738 47.7851 29.7375C47.1932 29.7369 46.6014 29.7341 46.0095 29.7308C45.5536 29.7286 45.0977 29.728 44.6418 29.7278C44.4236 29.7274 44.2055 29.7265 43.9873 29.7249C43.6816 29.7229 43.376 29.7232 43.0703 29.7239C42.9808 29.7229 42.8914 29.7218 42.7992 29.7207C41.9003 29.7276 41.2559 29.9961 40.664 30.7032ZM42.8905 32.3438C42.8905 32.5759 42.8905 32.8079 42.8905 33.047C43.5093 33.047 44.128 33.047 44.7655 33.047C44.7655 32.8149 44.7655 32.5829 44.7655 32.3438C44.1468 32.3438 43.528 32.3438 42.8905 32.3438ZM46.7577 32.3438C46.7577 32.5759 46.7577 32.8079 46.7577 33.047C48.2272 33.047 49.6968 33.047 51.2108 33.047C51.2108 32.8149 51.2108 32.5829 51.2108 32.3438C49.7413 32.3438 48.2718 32.3438 46.7577 32.3438ZM36.0936 35.1563C36.0826 35.3864 36.0799 35.617 36.0803 35.8473C36.0803 35.9951 36.0804 36.143 36.0804 36.2952C36.081 36.4577 36.0816 36.6202 36.0822 36.7828C36.0824 36.9481 36.0826 37.1135 36.0827 37.2788C36.0831 37.7148 36.0843 38.1508 36.0856 38.5868C36.0868 39.0313 36.0873 39.4759 36.0879 39.9205C36.0892 40.7934 36.0912 41.6663 36.0936 42.5391C36.9669 42.788 37.8514 42.8918 38.751 43.0015C38.9169 43.0221 39.0829 43.0428 39.2489 43.0635C39.5948 43.1066 39.9408 43.1493 40.2869 43.1917C40.7304 43.2461 41.1738 43.3011 41.6172 43.3565C41.9591 43.3991 42.301 43.4414 42.6429 43.4837C42.8065 43.504 42.9701 43.5242 43.1337 43.5446C43.3616 43.5728 43.5896 43.6008 43.8176 43.6287C44.0121 43.6526 44.0121 43.6526 44.2104 43.677C44.5357 43.7172 44.5357 43.7172 44.8827 43.711C44.8857 43.643 44.8887 43.5751 44.8919 43.505C44.9384 42.864 45.0461 42.4627 45.4686 41.9532C46.183 41.4769 47.1147 41.5175 47.9447 41.6378C48.4179 41.7533 48.6798 41.9316 48.9843 42.3048C49.0813 42.6582 49.0813 42.6582 49.1307 43.0372C49.1483 43.1635 49.1658 43.2898 49.1838 43.4199C49.1953 43.5159 49.2068 43.612 49.2186 43.711C51.1132 43.5158 53.0028 43.2857 54.8916 43.0411C55.1383 43.0091 55.385 42.9773 55.6318 42.9457C55.9821 42.9007 56.3323 42.855 56.6825 42.8092C56.7892 42.7956 56.8958 42.7819 57.0057 42.7678C57.1524 42.7484 57.1524 42.7484 57.3021 42.7286C57.3878 42.7174 57.4735 42.7063 57.5618 42.6947C57.7842 42.6645 57.7842 42.6645 58.0077 42.5391C58.13 42.1723 58.1405 41.9142 58.1419 41.5293C58.1427 41.3944 58.1434 41.2595 58.1442 41.1205C58.1443 40.9747 58.1444 40.829 58.1446 40.6788C58.145 40.5293 58.1454 40.3797 58.1458 40.2257C58.1464 39.9092 58.1467 39.5928 58.1466 39.2764C58.1466 38.8709 58.1482 38.4655 58.1502 38.06C58.1518 37.6731 58.1518 37.2863 58.1519 36.8995C58.1532 36.6809 58.1532 36.6809 58.1544 36.4578C58.1541 36.3229 58.1537 36.188 58.1534 36.049C58.1535 35.9301 58.1537 35.8112 58.1539 35.6886C58.1458 35.3621 58.1457 35.3621 57.8905 35.0391C57.5975 35.0043 57.3334 34.9928 57.0401 34.9961C56.9514 34.9957 56.8628 34.9953 56.7714 34.9949C56.4728 34.9941 56.1743 34.9957 55.8756 34.9974C55.6622 34.9973 55.4488 34.997 55.2353 34.9966C54.6545 34.996 54.0737 34.9976 53.4929 34.9996C52.8862 35.0014 52.2796 35.0013 51.673 35.0014C50.6542 35.0018 49.6355 35.0035 48.6167 35.0062C47.3073 35.0096 45.9978 35.0108 44.6883 35.0113C43.5648 35.0118 42.4413 35.0132 41.3178 35.0149C40.9556 35.0153 40.5933 35.0157 40.231 35.016C39.6629 35.0166 39.0947 35.0178 38.5265 35.0195C38.3174 35.02 38.1083 35.0203 37.8991 35.0204C37.6149 35.0206 37.3306 35.0216 37.0464 35.0227C36.9625 35.0226 36.8787 35.0225 36.7923 35.0224C36.41 34.992 36.41 34.992 36.0936 35.1563ZM46.8749 43.4766C46.8749 44.4434 46.8749 45.4102 46.8749 46.4063C46.9909 46.4063 47.1069 46.4063 47.2265 46.4063C47.2265 45.4395 47.2265 44.4727 47.2265 43.4766C47.1104 43.4766 46.9944 43.4766 46.8749 43.4766ZM37.2655 44.7657C37.2596 45.6626 37.2555 46.5595 37.2526 47.4565C37.2515 47.7618 37.2499 48.0672 37.2478 48.3725C37.245 48.8105 37.2437 49.2486 37.2426 49.6867C37.2414 49.8239 37.2402 49.9611 37.239 50.1024C37.2389 50.2291 37.2389 50.3558 37.2389 50.4863C37.2384 50.5982 37.2379 50.7101 37.2373 50.8254C37.2395 51.117 37.2395 51.117 37.4999 51.3282C37.8423 51.364 37.8423 51.364 38.2517 51.358C38.3297 51.3583 38.4077 51.3587 38.4881 51.3591C38.7509 51.36 39.0135 51.3593 39.2762 51.3585C39.4641 51.3588 39.6519 51.3593 39.8398 51.3598C40.3509 51.3608 40.862 51.3604 41.3731 51.3597C41.9071 51.3591 42.4411 51.3596 42.9751 51.36C43.872 51.3604 44.7689 51.3599 45.6658 51.3588C46.7038 51.3575 47.7419 51.3579 48.7799 51.3592C49.6699 51.3602 50.56 51.3604 51.45 51.3598C51.9821 51.3594 52.5142 51.3594 53.0463 51.3601C53.5465 51.3608 54.0466 51.3604 54.5468 51.359C54.7308 51.3587 54.9147 51.3588 55.0987 51.3593C55.349 51.3599 55.5993 51.3591 55.8497 51.358C56.0602 51.3578 56.0602 51.3578 56.275 51.3577C56.6178 51.3619 56.6178 51.3619 56.8358 51.0938C56.8701 50.8142 56.8701 50.8142 56.8624 50.4863C56.8624 50.3596 56.8624 50.233 56.8624 50.1024C56.8612 49.9652 56.86 49.828 56.8587 49.6867C56.8584 49.5465 56.8581 49.4064 56.8577 49.262C56.8564 48.813 56.8535 48.3641 56.8505 47.9151C56.8493 47.6113 56.8482 47.3075 56.8473 47.0037C56.8447 46.2577 56.8408 45.5117 56.8358 44.7657C55.905 44.8374 54.9791 44.9298 54.0526 45.044C53.9283 45.0592 53.8039 45.0743 53.6758 45.09C53.4158 45.1217 53.1559 45.1537 52.8959 45.1857C52.4977 45.2347 52.0994 45.2831 51.7011 45.3315C51.4473 45.3626 51.1936 45.3937 50.9398 45.4249C50.8211 45.4393 50.7023 45.4537 50.5799 45.4685C50.4695 45.4822 50.3591 45.4959 50.2454 45.51C50.1003 45.5278 50.1003 45.5278 49.9523 45.546C49.702 45.5838 49.4629 45.6373 49.2186 45.7032C49.2156 45.8135 49.2126 45.9238 49.2095 46.0374C49.1418 47.5233 49.1418 47.5233 48.6327 48.047C48.1218 48.3536 47.6462 48.3244 47.0653 48.3253C46.9671 48.3281 46.8689 48.331 46.7678 48.334C46.1228 48.337 45.7366 48.2558 45.2343 47.8126C44.9382 47.4144 44.9536 46.9786 44.9266 46.4942C44.9135 46.2722 44.9135 46.2722 44.9001 46.0456C44.8944 45.9326 44.8886 45.8196 44.8827 45.7032C43.2883 45.4452 41.6877 45.2383 40.0853 45.0367C39.9271 45.0166 39.9271 45.0166 39.7658 44.9961C39.4611 44.9575 39.1564 44.9194 38.8517 44.8815C38.7596 44.8698 38.6675 44.8581 38.5726 44.8461C38.1335 44.7921 37.7076 44.7607 37.2655 44.7657Z" fill="#6B38B2"/>
<path d="M18.0206 20.7791C19.6608 22.0814 20.8297 23.9432 21.1776 26.0272C21.4216 28.5106 20.9467 30.7335 19.3726 32.7321C17.9422 34.3573 16.0791 35.326 13.9454 35.6251C11.5941 35.758 9.59177 35.2301 7.73444 33.7501C7.65861 33.6936 7.58278 33.6371 7.50465 33.5789C5.97179 32.379 5.07314 30.3696 4.80476 28.4767C4.58649 26.2435 5.10941 23.957 6.54334 22.1893C9.43496 18.8473 14.4145 18.1112 18.0206 20.7791ZM8.27506 23.2806C7.07006 24.7924 6.61996 26.4468 6.79694 28.3595C6.96568 29.1564 7.24348 29.8642 7.61726 30.5861C7.98156 30.4233 8.23646 30.2297 8.52546 29.9562C9.13587 29.4094 9.79224 29.1268 10.5469 28.8283C10.4989 28.7518 10.4509 28.6754 10.4014 28.5966C9.73218 27.5112 9.38696 26.606 9.69001 25.3232C10.0167 24.3336 10.4446 23.7043 11.3746 23.2179C12.3547 22.7503 13.331 22.7355 14.3528 23.0751C15.2584 23.4676 15.7827 24.0315 16.1866 24.9222C16.5603 25.9182 16.502 26.8729 16.0859 27.8454C15.9032 28.1899 15.6894 28.5071 15.4688 28.8283C15.5947 28.8864 15.7205 28.9446 15.8501 29.0045C16.7624 29.4368 17.4897 29.8153 18.1641 30.5861C18.2415 30.5861 18.3188 30.5861 18.3985 30.5861C19.2045 28.9403 19.5173 27.3572 18.995 25.547C18.4196 23.9633 17.4011 22.636 15.9032 21.8222C13.2761 20.6432 10.2401 21.0904 8.27506 23.2806ZM12.0704 25.0783C11.634 25.5413 11.634 25.5413 11.4822 26.1316C11.5359 26.7349 11.6113 27.1063 12.0704 27.5392C12.4272 27.8068 12.798 27.8233 13.2391 27.8102C13.6438 27.7478 13.8772 27.5722 14.1798 27.3048C14.4894 26.8301 14.6136 26.463 14.5313 25.8986C14.2865 25.4527 14.0455 25.0891 13.5938 24.8439C12.9623 24.6802 12.6146 24.7154 12.0704 25.0783ZM9.91706 31.2599C9.84364 31.3149 9.77023 31.3699 9.69459 31.4265C9.43434 31.7021 9.29691 32.0008 9.14069 32.3439C10.8269 33.3853 12.4166 33.9468 14.4141 33.5011C15.2769 33.2624 16.2684 32.9131 16.8751 32.2267C16.4355 31.5406 16.0232 31.0771 15.2344 30.8204C14.4973 30.6782 13.7782 30.6817 13.0299 30.6813C12.8965 30.6799 12.7632 30.6784 12.6259 30.6769C11.1887 30.6648 11.1887 30.6648 9.91706 31.2599Z" fill="#6B38B2"/>
<path d="M6.62281 38.3031C6.77957 38.3024 6.77957 38.3024 6.9395 38.3018C7.29179 38.3005 7.64409 38.3 7.99638 38.2996C8.24812 38.2989 8.49986 38.2981 8.7516 38.2973C9.43706 38.2952 10.1225 38.294 10.808 38.293C11.236 38.2924 11.6639 38.2917 12.0919 38.291C13.4302 38.2887 14.7684 38.2871 16.1067 38.2861C17.653 38.2849 19.1992 38.2819 20.7455 38.2771C21.9397 38.2736 23.1338 38.2718 24.328 38.2715C25.0417 38.2712 25.7554 38.2701 26.4691 38.2672C27.1404 38.2645 27.8118 38.264 28.4832 38.2652C28.7297 38.2652 28.9762 38.2645 29.2227 38.2629C29.5591 38.2608 29.8954 38.2616 30.2318 38.2632C30.3783 38.2612 30.3783 38.2612 30.5277 38.2593C31.1468 38.2661 31.5013 38.3775 31.9922 38.7891C32.1346 39.0737 32.1266 39.2605 32.1302 39.5786C32.1324 39.7517 32.1324 39.7517 32.1347 39.9283C32.1356 40.0535 32.1365 40.1786 32.1374 40.3075C32.1383 40.4358 32.1392 40.5642 32.1402 40.6964C32.1418 40.9684 32.1431 41.2404 32.144 41.5123C32.146 41.9283 32.1512 42.3441 32.1564 42.76C32.1575 43.024 32.1585 43.2881 32.1593 43.5521C32.1614 43.6765 32.1634 43.8009 32.1655 43.9291C32.163 44.7942 32.163 44.7942 31.8866 45.2516C31.4214 45.6623 30.9921 45.6033 30.3989 45.6032C30.2933 45.6036 30.1878 45.6041 30.079 45.6045C29.7232 45.6058 29.3674 45.6063 29.0116 45.6067C28.7574 45.6074 28.5031 45.6082 28.2489 45.609C27.5567 45.6111 26.8644 45.6123 26.1722 45.6133C25.74 45.6139 25.3079 45.6146 24.8758 45.6153C23.5247 45.6176 22.1736 45.6192 20.8225 45.6202C19.261 45.6213 17.6996 45.6244 16.1381 45.6292C14.9324 45.6327 13.7267 45.6344 12.521 45.6348C11.8003 45.6351 11.0796 45.6362 10.3589 45.6391C9.68111 45.6418 9.00332 45.6423 8.32548 45.6411C8.07648 45.6411 7.82747 45.6418 7.57846 45.6434C7.23892 45.6455 6.8995 45.6447 6.55996 45.6431C6.4116 45.645 6.4116 45.645 6.26025 45.647C5.79551 45.6419 5.56141 45.6189 5.15647 45.37C4.81593 45.003 4.78961 44.7017 4.78214 44.2205C4.78026 44.1102 4.77838 43.9999 4.77644 43.8862C4.77121 43.3823 4.76642 42.8784 4.76372 42.3745C4.76177 42.1089 4.75858 41.8432 4.7541 41.5776C4.74768 41.1942 4.74512 40.8109 4.7434 40.4274C4.74075 40.3091 4.73809 40.1908 4.73535 40.0689C4.73696 39.5311 4.74015 39.1452 5.0869 38.716C5.58554 38.2589 5.97392 38.3029 6.62281 38.3031ZM6.79693 40.3125C6.79693 41.3953 6.79693 42.4781 6.79693 43.5938C14.4926 43.5938 22.1883 43.5938 30.1172 43.5938C30.1172 42.511 30.1172 41.4281 30.1172 40.3125C22.4215 40.3125 14.7258 40.3125 6.79693 40.3125Z" fill="#6B38B2"/>
<path d="M20.523 10.3994C20.6072 10.3989 20.6914 10.3985 20.7781 10.398C21.0604 10.3968 21.3425 10.3972 21.6248 10.3977C21.8271 10.3972 22.0294 10.3966 22.2317 10.3959C22.7813 10.3943 23.3309 10.3943 23.8806 10.3946C24.3392 10.3947 24.7979 10.3941 25.2566 10.3936C26.3386 10.3923 27.4206 10.3922 28.5027 10.3929C29.6193 10.3936 30.7358 10.3922 31.8524 10.3897C32.8108 10.3876 33.7693 10.3869 34.7277 10.3873C35.3002 10.3875 35.8727 10.3872 36.4452 10.3856C36.9836 10.3841 37.5219 10.3843 38.0603 10.3858C38.2579 10.3861 38.4555 10.3858 38.6531 10.3848C38.9229 10.3836 39.1925 10.3846 39.4622 10.386C39.6132 10.386 39.7641 10.386 39.9196 10.386C40.3447 10.4335 40.5613 10.5231 40.8985 10.7815C41.1421 11.1469 41.1658 11.196 41.1182 11.6018C41.1106 11.6815 41.1031 11.7613 41.0953 11.8435C40.9815 12.1679 40.8439 12.2494 40.5469 12.4221C40.1611 12.4667 40.1611 12.4667 39.6929 12.4675C39.5636 12.4685 39.5636 12.4685 39.4317 12.4694C39.1427 12.4711 38.8538 12.4703 38.5648 12.4694C38.3577 12.4701 38.1505 12.4709 37.9434 12.4719C37.3807 12.474 36.8181 12.4738 36.2554 12.4732C35.7859 12.4728 35.3164 12.4735 34.847 12.4742C33.7397 12.4759 32.6324 12.4757 31.5251 12.4744C30.382 12.473 29.2389 12.4747 28.0958 12.4778C27.1149 12.4804 26.134 12.4812 25.1531 12.4805C24.567 12.4801 23.981 12.4804 23.3949 12.4824C22.8439 12.4842 22.293 12.4837 21.742 12.4815C21.5396 12.4811 21.3372 12.4815 21.1349 12.4827C20.8589 12.4842 20.5831 12.4829 20.3072 12.4808C20.1527 12.4808 19.9982 12.4808 19.839 12.4807C19.3891 12.4124 19.2529 12.3137 18.9844 11.9533C18.85 11.5322 18.8302 11.3361 19.0064 10.9279C19.4361 10.3945 19.8598 10.4004 20.523 10.3994Z" fill="#6B38B2"/>
<path d="M27.973 21.139C28.1812 21.138 28.1812 21.138 28.3936 21.137C28.7733 21.1359 29.1528 21.1374 29.5325 21.1401C29.9301 21.1425 30.3278 21.1418 30.7255 21.1415C31.3931 21.1415 32.0607 21.1438 32.7283 21.1476C33.4999 21.1519 34.2714 21.153 35.043 21.1521C35.7858 21.1514 36.5286 21.1527 37.2714 21.1549C37.5873 21.1559 37.9032 21.1562 38.2191 21.156C38.6601 21.1562 39.1011 21.1587 39.5421 21.1619C39.6732 21.1616 39.8043 21.1612 39.9393 21.1609C40.0594 21.1622 40.1795 21.1635 40.3032 21.1649C40.4075 21.1653 40.5117 21.1658 40.6191 21.1662C40.9563 21.2204 41.1179 21.3332 41.3672 21.5627C41.4918 21.873 41.5135 22.1678 41.4844 22.5002C41.2776 22.8353 41.1333 23.0273 40.7812 23.2033C40.5952 23.2146 40.4087 23.2186 40.2223 23.219C40.1044 23.2195 39.9864 23.22 39.8649 23.2205C39.735 23.2204 39.605 23.2204 39.4712 23.2203C39.3347 23.2207 39.1983 23.2211 39.0577 23.2215C38.6047 23.2226 38.1517 23.2229 37.6987 23.223C37.4641 23.2233 37.2295 23.2235 36.995 23.2239C36.257 23.2248 35.5191 23.2251 34.7812 23.225C34.0198 23.2249 33.2584 23.2262 32.497 23.228C31.8435 23.2296 31.1901 23.2302 30.5366 23.2301C30.1462 23.2301 29.7558 23.2305 29.3655 23.2317C28.93 23.2328 28.4946 23.2325 28.0591 23.2318C27.9297 23.2324 27.8003 23.2331 27.6669 23.2338C27.4889 23.233 27.4889 23.233 27.3074 23.2323C27.2044 23.2323 27.1015 23.2324 26.9954 23.2325C26.6941 23.2007 26.5064 23.1279 26.25 22.9689C25.9805 22.5916 25.9508 22.2511 26.0156 21.7971C26.5251 21.0444 27.145 21.1292 27.973 21.139Z" fill="#6B38B2"/>
<path d="M27.8132 26.3484C27.9129 26.3478 28.0126 26.3473 28.1153 26.3467C28.4454 26.345 28.7755 26.3442 29.1055 26.3435C29.3348 26.3428 29.5641 26.3422 29.7934 26.3415C30.2744 26.3402 30.7553 26.3396 31.2362 26.3392C31.8524 26.3385 32.4686 26.3357 33.0848 26.3324C33.5585 26.3302 34.0322 26.3296 34.5059 26.3294C34.7331 26.329 34.9602 26.3281 35.1874 26.3266C35.5052 26.3246 35.823 26.3248 36.1408 26.3255C36.2346 26.3245 36.3284 26.3234 36.425 26.3223C36.9596 26.3263 37.3107 26.3836 37.7344 26.7189C37.9177 27.0856 37.9332 27.4936 37.8516 27.8907C37.6787 28.1364 37.6787 28.1364 37.3828 28.3595C37.0243 28.4063 36.7078 28.4248 36.3492 28.422C36.2449 28.423 36.1406 28.424 36.0332 28.4251C35.6885 28.4277 35.3439 28.4269 34.9992 28.4259C34.7596 28.4265 34.5199 28.4272 34.2803 28.4281C33.778 28.4293 33.2757 28.4288 32.7734 28.427C32.1297 28.425 31.4862 28.4278 30.8425 28.4319C30.3476 28.4345 29.8527 28.4343 29.3577 28.4333C29.1204 28.4332 28.8831 28.4341 28.6458 28.4358C28.3139 28.4378 27.9822 28.4361 27.6503 28.4335C27.5524 28.4348 27.4544 28.4362 27.3535 28.4376C26.8509 28.4294 26.6574 28.4029 26.2472 28.0839C26.0156 27.7736 26.0156 27.7736 25.9497 27.422C26.0306 26.9905 26.176 26.7929 26.4844 26.4845C26.93 26.3359 27.3488 26.3491 27.8132 26.3484Z" fill="#6B38B2"/>
<path d="M27.8472 31.567C27.9675 31.5668 28.0878 31.5665 28.2118 31.5662C28.4656 31.5663 28.7194 31.5679 28.9732 31.5708C29.3619 31.5748 29.7503 31.5732 30.139 31.5709C30.3858 31.5717 30.6326 31.5729 30.8794 31.5744C30.9956 31.5738 31.1118 31.5732 31.2316 31.5726C32.0315 31.5863 32.0315 31.5863 32.4143 31.8536C32.6448 32.2134 32.6802 32.5057 32.6954 32.9298C32.6013 33.2461 32.5317 33.3558 32.25 33.5261C31.9674 33.6432 31.769 33.6633 31.4642 33.6651C31.3606 33.6662 31.2569 33.6674 31.1501 33.6685C31.039 33.6684 30.9279 33.6683 30.8135 33.6682C30.6985 33.6687 30.5835 33.6692 30.465 33.6697C30.222 33.6704 29.979 33.6704 29.736 33.6699C29.3646 33.6696 28.9933 33.6723 28.6219 33.6753C28.3857 33.6755 28.1494 33.6756 27.9131 33.6755C27.7468 33.6771 27.7468 33.6771 27.5772 33.6788C27.0033 33.6747 26.5939 33.665 26.1329 33.2814C25.9489 32.9136 25.9744 32.6323 26.0157 32.2267C26.51 31.5111 27.049 31.5564 27.8472 31.567Z" fill="#6B38B2"/>
<path d="M7.4781 10.5763C7.75468 10.7976 7.8718 10.9106 7.96882 11.2501C7.95245 11.6431 7.88748 11.8914 7.6905 12.2316C7.1885 12.5424 6.66703 12.5083 6.09382 12.422C5.74611 12.1985 5.66436 12.0528 5.51521 11.6749C5.50512 11.2513 5.63173 11.0176 5.85945 10.6642C6.33575 10.29 6.94658 10.3401 7.4781 10.5763Z" fill="#6B38B2"/>
<path d="M14.6483 10.5468C15.0023 10.8489 15.0977 11.0294 15.183 11.4843C15.1171 11.8358 15.1171 11.8358 14.9047 12.1728C14.3611 12.5351 13.8773 12.5244 13.2421 12.4218C12.9271 12.246 12.9271 12.246 12.7733 11.953C12.7111 11.6265 12.7057 11.3415 12.7733 11.0155C13.2682 10.35 13.8968 10.3501 14.6483 10.5468Z" fill="#6B38B2"/>
<path d="M11.0155 10.5471C11.3158 10.7302 11.3158 10.7302 11.4843 11.0158C11.5744 11.4779 11.55 11.8281 11.3305 12.2463C10.8152 12.5339 10.3007 12.5198 9.72645 12.4221C9.35292 12.1731 9.35292 12.1731 9.14051 11.8361C9.05402 11.3749 9.09817 11.1987 9.35292 10.8034C9.84459 10.3118 10.3814 10.4029 11.0155 10.5471Z" fill="#6B38B2"/>
</g>
<defs>
<clipPath id="clip0_1_3719">
<rect width="60" height="60" fill="white"/>
</clipPath>
</defs>
</svg>
