<svg width="60" height="60" viewBox="0 0 60 60" fill="none" xmlns="http://www.w3.org/2000/svg">
<path d="M4.72886 1.81587C4.88157 1.81392 4.88157 1.81392 5.03737 1.81194C5.14868 1.81291 5.26 1.81388 5.37469 1.81487C5.49335 1.81406 5.61202 1.81324 5.73428 1.8124C6.13311 1.81025 6.53186 1.81147 6.9307 1.81267C7.21614 1.81184 7.50159 1.81082 7.78703 1.80961C8.4826 1.80724 9.17815 1.80709 9.87371 1.80804C10.439 1.80878 11.0043 1.80865 11.5696 1.80789C11.6903 1.80773 11.6903 1.80773 11.8133 1.80757C11.9767 1.80736 12.1401 1.80714 12.3035 1.80692C13.836 1.80497 15.3685 1.806 16.9011 1.80797C18.3033 1.80969 19.7056 1.80798 21.1078 1.8046C22.5474 1.80116 23.987 1.79987 25.4266 1.80099C25.5894 1.80111 25.7522 1.80122 25.9151 1.80134C26.0352 1.80142 26.0352 1.80142 26.1578 1.80151C26.7224 1.80176 27.287 1.80061 27.8516 1.7989C28.6115 1.79664 29.3715 1.79744 30.1314 1.80033C30.4107 1.80092 30.6899 1.80051 30.9692 1.79903C31.3498 1.79717 31.7302 1.7989 32.1108 1.80157C32.2219 1.80018 32.3329 1.79879 32.4473 1.79736C32.9758 1.8049 33.2044 1.81359 33.6287 2.15278C33.7075 2.25453 33.7862 2.35628 33.8674 2.46112C33.9671 2.56656 34.0668 2.672 34.1695 2.78064C34.7886 3.45228 35.3825 4.1342 35.9557 4.84607C36.2085 5.15324 36.4705 5.44841 36.7385 5.74237C37.2311 6.28378 37.7094 6.83745 38.1529 7.42025C38.3252 7.63221 38.3252 7.63221 38.5766 7.84422C39.2955 8.55188 39.472 9.09756 39.4949 10.0855C39.4985 10.5551 39.4891 11.0238 39.4782 11.4933C39.4762 11.7436 39.4747 11.994 39.4737 12.2444C39.4697 12.8997 39.4593 13.5548 39.4476 14.21C39.4368 14.8801 39.432 15.5502 39.4267 16.2204C39.4154 17.5325 39.3974 18.8444 39.3752 20.1564C39.4601 20.1324 39.545 20.1084 39.6325 20.0836C41.9659 19.4334 44.6728 19.4046 46.9924 20.1564C47.0723 20.1815 47.1521 20.2067 47.2344 20.2325C48.9018 20.7696 50.354 21.5846 51.6799 22.7346C51.7746 22.8124 51.8693 22.8902 51.9669 22.9703C54.3328 24.9797 55.8768 27.9799 56.2502 31.0549C56.2867 31.6241 56.2949 32.1911 56.2941 32.7614C56.294 32.8773 56.294 32.8773 56.2939 32.9955C56.2891 34.2823 56.1781 35.456 55.7814 36.6799C55.7438 36.7997 55.7438 36.7997 55.7053 36.9219C55.1683 38.5893 54.3533 40.0415 53.2033 41.3674C53.1255 41.4621 53.0477 41.5568 52.9676 41.6544C50.961 44.017 47.9561 45.5706 44.883 45.9377C44.3064 45.9715 43.732 45.9767 43.1545 45.9743C43.0386 45.9742 43.0386 45.9742 42.9204 45.9741C40.3739 45.9683 40.3739 45.9683 39.3752 45.4689C39.3762 45.6206 39.3773 45.7722 39.3783 45.9285C39.3878 47.3562 39.3949 48.784 39.3995 50.2118C39.4019 50.9459 39.4052 51.6799 39.4105 52.414C39.4156 53.1222 39.4184 53.8303 39.4197 54.5385C39.4205 54.8089 39.4222 55.0794 39.4247 55.3498C39.4281 55.728 39.4286 56.1062 39.4284 56.4844C39.4309 56.6529 39.4309 56.6529 39.4335 56.8247C39.4325 56.9795 39.4325 56.9795 39.4316 57.1374C39.432 57.2268 39.4324 57.3163 39.4329 57.4084C39.3506 57.7621 39.1832 57.8955 38.9064 58.1252C38.6263 58.1839 38.6263 58.1839 38.3083 58.1842C38.1261 58.186 38.1261 58.186 37.9402 58.1879C37.807 58.1868 37.6737 58.1858 37.5364 58.1847C37.3238 58.1858 37.3238 58.1858 37.1069 58.1869C36.7133 58.1885 36.3199 58.1879 35.9263 58.1865C35.502 58.1854 35.0776 58.187 34.6533 58.1883C33.8219 58.1904 32.9906 58.19 32.1593 58.1886C31.4837 58.1875 30.8082 58.1874 30.1327 58.1879C29.9885 58.188 29.9885 58.188 29.8415 58.1881C29.6464 58.1883 29.4512 58.1884 29.2561 58.1886C27.4252 58.1899 25.5944 58.1884 23.7635 58.1859C22.1919 58.1838 20.6203 58.1841 19.0486 58.1863C17.2244 58.1888 15.4003 58.1898 13.5761 58.1884C13.3816 58.1882 13.1872 58.1881 12.9927 58.1879C12.897 58.1878 12.8014 58.1878 12.7028 58.1877C12.0279 58.1873 11.353 58.188 10.6782 58.1891C9.85592 58.1904 9.03371 58.19 8.21148 58.1875C7.79179 58.1863 7.37215 58.1858 6.95246 58.1874C6.49796 58.189 6.04352 58.1871 5.58902 58.1847C5.3891 58.1863 5.3891 58.1863 5.18514 58.1879C5.06366 58.1867 4.94219 58.1854 4.81703 58.1842C4.71209 58.1841 4.60715 58.184 4.49903 58.1839C4.10766 58.1018 3.97857 57.9844 3.75019 57.6564C3.70424 57.334 3.68715 57.0585 3.6912 56.7362C3.69018 56.5955 3.69018 56.5955 3.68913 56.452C3.68741 56.1358 3.68905 55.8196 3.69066 55.5033C3.69012 55.2751 3.68938 55.0469 3.68845 54.8187C3.68648 54.19 3.68746 53.5613 3.68891 52.9326C3.68997 52.2552 3.68833 51.5778 3.68704 50.9004C3.68495 49.5727 3.68541 48.2451 3.68677 46.9174C3.68782 45.8387 3.68797 44.7601 3.68746 43.6814C3.68739 43.5281 3.68732 43.3748 3.68724 43.2168C3.68709 42.9054 3.68694 42.594 3.68679 42.2826C3.68544 39.4433 3.68684 36.6041 3.68929 33.7648C3.69151 31.1717 3.69132 28.5787 3.68907 25.9856C3.68656 23.0737 3.68558 20.1618 3.68702 17.2499C3.68717 16.9396 3.68731 16.6293 3.68746 16.319C3.68753 16.1663 3.6876 16.0136 3.68768 15.8563C3.68808 14.7785 3.6874 13.7006 3.6863 12.6228C3.68498 11.3099 3.68533 9.99709 3.68783 8.68422C3.68907 8.01392 3.68954 7.34363 3.688 6.67333C3.68661 6.06035 3.68736 5.44742 3.68986 4.83445C3.69039 4.61207 3.69012 4.38969 3.68898 4.16731C3.68757 3.8662 3.68901 3.56524 3.6912 3.26414C3.6901 3.17676 3.689 3.08939 3.68787 2.99936C3.69364 2.60503 3.72437 2.38001 3.95638 2.05575C4.24672 1.85607 4.38074 1.81642 4.72886 1.81587ZM5.62519 3.75018C5.62519 21.0752 5.62519 38.4002 5.62519 56.2502C16.1439 56.2502 26.6627 56.2502 37.5002 56.2502C37.5002 52.4217 37.5002 48.5932 37.5002 44.6486C36.9201 44.3392 36.34 44.0299 35.7424 43.7111C35.2953 43.3665 34.8744 43.0277 34.4533 42.6564C34.382 42.6019 34.3107 42.5474 34.2372 42.4912C33.6058 42.0042 33.1384 41.3655 32.6543 40.7384C32.5792 40.6418 32.5792 40.6418 32.5025 40.5433C32.3439 40.3127 32.3439 40.3127 32.2419 40.0698C32.1115 39.7783 31.9937 39.5926 31.758 39.3752C31.2254 39.2343 30.7011 39.2568 30.1532 39.2688C29.988 39.269 29.8228 39.2689 29.6576 39.2683C29.2099 39.2681 28.7624 39.2736 28.3147 39.2801C27.8466 39.286 27.3785 39.2865 26.9104 39.2877C26.0243 39.2906 25.1382 39.2983 24.2522 39.3077C23.2433 39.3181 22.2344 39.3233 21.2254 39.328C19.1503 39.3378 17.0752 39.3545 15.0002 39.3752C15.0002 38.7564 15.0002 38.1377 15.0002 37.5002C20.2209 37.5002 25.4416 37.5002 30.8205 37.5002C30.6271 36.7654 30.4338 36.0307 30.2346 35.2736C29.889 33.2002 29.9819 30.9587 30.5861 28.9455C30.6635 28.6748 30.7408 28.4041 30.8205 28.1252C25.5998 28.1252 20.3791 28.1252 15.0002 28.1252C15.0002 27.5064 15.0002 26.8877 15.0002 26.2502C15.3124 26.2545 15.3124 26.2545 15.6309 26.2589C17.5914 26.285 19.5519 26.3044 21.5125 26.317C22.5206 26.3236 23.5285 26.3327 24.5364 26.3474C25.4151 26.3603 26.2936 26.3686 27.1724 26.3715C27.6377 26.3731 28.1026 26.3771 28.5678 26.3865C29.006 26.3953 29.4439 26.3979 29.8822 26.396C30.119 26.3965 30.3558 26.4034 30.5925 26.4106C31.0186 26.4053 31.3546 26.3884 31.758 26.2502C32.1318 25.8623 32.346 25.4426 32.5783 24.9611C33.8375 23.175 35.5653 21.9442 37.5002 20.9767C37.5301 19.5343 37.553 18.0919 37.567 16.6492C37.5737 15.9791 37.5828 15.3093 37.5974 14.6393C37.6115 13.992 37.6192 13.3448 37.6225 12.6972C37.6249 12.4511 37.6295 12.2049 37.6365 11.9589C37.7144 10.4162 37.7144 10.4162 37.0566 9.08012C36.7899 8.80921 36.5008 8.56647 36.2111 8.32049C36.0259 8.1046 35.8445 7.88531 35.6691 7.66131C35.3335 7.2445 34.9896 6.84096 34.6291 6.44549C34.1703 5.94188 33.7367 5.4218 33.3094 4.89139C33.2228 4.78549 33.1362 4.6796 33.0471 4.57049C33.0006 4.50208 32.9541 4.43367 32.9063 4.36318C32.6743 4.04598 32.4876 3.79532 32.104 3.6748C31.8148 3.64679 31.5355 3.64472 31.245 3.65154C31.1356 3.65083 31.0261 3.65013 30.9134 3.64941C30.5459 3.64805 30.1788 3.65258 29.8114 3.65706C29.5438 3.65731 29.2762 3.6572 29.0086 3.65676C28.2919 3.65657 27.5752 3.66133 26.8585 3.6671C26.186 3.67177 25.5136 3.67199 24.841 3.67258C22.8742 3.67688 20.9074 3.68833 18.9406 3.69891C12.3495 3.72429 12.3495 3.72429 5.62519 3.75018ZM35.6252 24.4924C35.5229 24.5866 35.4207 24.6809 35.3153 24.778C33.5402 26.4812 32.1166 28.9947 31.9735 31.503C31.9112 33.7689 31.9112 33.7689 32.3439 35.9767C32.3838 36.1015 32.4237 36.2263 32.4648 36.3549C33.5127 39.3216 35.6375 41.6136 38.4322 43.0245C41.1138 44.304 44.216 44.3404 46.9924 43.3596C49.9469 42.1553 52.2686 39.958 53.5439 37.0195C54.6143 34.1831 54.6151 31.0019 53.3681 28.2227C51.9177 25.3017 49.6455 23.2328 46.5905 22.1193C42.7914 20.9261 38.5551 21.7694 35.6252 24.4924Z" fill="#6B38B2"/>
<path d="M28.125 10.3125C28.7437 10.3125 29.3625 10.3125 30 10.3125C30 12.4781 30 14.6437 30 16.875C30.6187 16.875 31.2375 16.875 31.875 16.875C31.875 17.4938 31.875 18.1125 31.875 18.75C25.0687 18.75 18.2625 18.75 11.25 18.75C11.25 18.1312 11.25 17.5125 11.25 16.875C11.8688 16.875 12.4875 16.875 13.125 16.875C13.125 15.6375 13.125 14.4 13.125 13.125C13.7438 13.125 14.3625 13.125 15 13.125C15 14.3625 15 15.6 15 16.875C15.9281 16.875 16.8562 16.875 17.8125 16.875C17.8125 15.0188 17.8125 13.1625 17.8125 11.25C18.4313 11.25 19.05 11.25 19.6875 11.25C19.6875 13.1063 19.6875 14.9625 19.6875 16.875C20.925 16.875 22.1625 16.875 23.4375 16.875C23.4375 15.6375 23.4375 14.4 23.4375 13.125C24.0562 13.125 24.675 13.125 25.3125 13.125C25.3125 14.3625 25.3125 15.6 25.3125 16.875C26.2406 16.875 27.1687 16.875 28.125 16.875C28.125 14.7094 28.125 12.5438 28.125 10.3125Z" fill="#6B38B2"/>
<path d="M41.2571 29.9395C41.3956 29.9373 41.3956 29.9373 41.5368 29.9351C41.6355 29.936 41.7341 29.937 41.8357 29.9379C41.938 29.9375 42.0403 29.937 42.1457 29.9366C42.3616 29.9363 42.5775 29.9371 42.7934 29.9391C43.1237 29.9416 43.4537 29.9391 43.784 29.9361C43.9939 29.9364 44.2039 29.937 44.4139 29.9379C44.5125 29.937 44.6112 29.936 44.7128 29.9351C44.8051 29.9365 44.8974 29.938 44.9925 29.9395C45.1137 29.9401 45.1137 29.9401 45.2374 29.9407C45.5999 30.034 45.7222 30.1614 45.9373 30.4689C46.0066 30.8283 46.0013 31.1824 45.998 31.5474C45.9988 31.6565 45.9996 31.7655 46.0005 31.8779C46.0025 32.2383 46.0011 32.5987 45.9996 32.9592C45.9999 33.2096 46.0003 33.46 46.0009 33.7105C46.0016 34.2354 46.0006 34.7602 45.9984 35.2851C45.9957 35.9582 45.9973 36.6312 46.0001 37.3043C46.0018 37.8214 46.0012 38.3385 46 38.8557C45.9997 39.1039 46.0001 39.3521 46.0012 39.6003C46.0024 39.947 46.0006 40.2937 45.998 40.6404C45.9989 40.7432 45.9999 40.846 46.0008 40.9519C45.9946 41.4003 45.9907 41.6426 45.7289 42.0169C45.4517 42.1987 45.3197 42.2468 44.9925 42.2483C44.854 42.2506 44.854 42.2506 44.7128 42.2528C44.6141 42.2519 44.5155 42.2509 44.4139 42.2499C44.3116 42.2504 44.2093 42.2508 44.104 42.2513C43.8881 42.2516 43.6721 42.2508 43.4562 42.2488C43.1259 42.2463 42.7959 42.2488 42.4656 42.2518C42.2557 42.2515 42.0457 42.2509 41.8357 42.2499C41.6878 42.2514 41.6878 42.2514 41.5368 42.2528C41.3984 42.2506 41.3984 42.2506 41.2571 42.2483C41.1763 42.248 41.0955 42.2476 41.0122 42.2472C40.6497 42.1539 40.5274 42.0264 40.3123 41.7189C40.243 41.3596 40.2483 41.0055 40.2517 40.6404C40.2508 40.5314 40.25 40.4224 40.2492 40.31C40.2471 39.9495 40.2485 39.5892 40.2501 39.2287C40.2497 38.9783 40.2493 38.7278 40.2487 38.4774C40.248 37.9525 40.249 37.4277 40.2512 36.9028C40.2539 36.2297 40.2523 35.5567 40.2495 34.8836C40.2478 34.3665 40.2484 33.8493 40.2496 33.3322C40.2499 33.084 40.2495 32.8358 40.2484 32.5876C40.2472 32.2408 40.249 31.8942 40.2517 31.5474C40.2507 31.4447 40.2498 31.3419 40.2488 31.236C40.255 30.7876 40.2589 30.5453 40.5207 30.1709C40.7979 29.9891 40.9299 29.941 41.2571 29.9395ZM42.1873 31.8752C42.1873 34.6596 42.1873 37.4439 42.1873 40.3127C42.8061 40.3127 43.4248 40.3127 44.0623 40.3127C44.0623 37.5283 44.0623 34.7439 44.0623 31.8752C43.4436 31.8752 42.8248 31.8752 42.1873 31.8752Z" fill="#6B38B2"/>
<path d="M15 48.75C21.8063 48.75 28.6125 48.75 35.625 48.75C35.625 49.3688 35.625 49.9875 35.625 50.625C28.8187 50.625 22.0125 50.625 15 50.625C15 50.0063 15 49.3875 15 48.75Z" fill="#6B38B2"/>
<path d="M28.5938 5.74219C28.784 5.97297 28.9612 6.20314 29.1357 6.44531C29.185 6.51238 29.2342 6.57946 29.285 6.64856C29.4068 6.81469 29.5277 6.9815 29.6484 7.14844C29.4894 7.51431 29.3223 7.72636 29.0131 7.97653C28.9323 8.04247 28.8516 8.10841 28.7684 8.17635C28.6817 8.24561 28.5951 8.31487 28.5059 8.38623C28.4169 8.45836 28.3279 8.53049 28.2363 8.60481C27.9657 8.82358 27.694 9.04096 27.4219 9.25781C27.3429 9.32079 27.264 9.38376 27.1826 9.44864C26.8352 9.72504 26.4865 9.99949 26.1351 10.2708C25.9216 10.4374 25.7105 10.6071 25.5043 10.7826C25.3876 10.8798 25.3876 10.8798 25.2686 10.979C25.2072 11.0326 25.1459 11.0863 25.0827 11.1415C24.3795 11.4608 23.6052 11.1928 22.9207 10.9506C22.8303 10.92 22.74 10.8893 22.6468 10.8577C22.3606 10.7603 22.0751 10.661 21.7896 10.5615C21.5035 10.4633 21.2173 10.3655 20.931 10.2678C20.7537 10.2072 20.5766 10.1462 20.3996 10.0847C20.2385 10.029 20.0769 9.97432 19.915 9.92084C19.6968 9.8469 19.4816 9.76418 19.2666 9.68113C18.7541 9.58906 18.4879 9.7382 18.0684 10.0058C17.9958 10.0492 17.9232 10.0927 17.8484 10.1374C17.6175 10.2764 17.3892 10.4188 17.1606 10.5615C17.0068 10.6548 16.8527 10.7479 16.6985 10.8408C16.1538 11.1705 15.6121 11.5012 15.0902 11.8666C14.7656 12.0703 14.7656 12.0703 14.4141 12.0703C14.1047 11.5289 13.7953 10.9875 13.4766 10.4297C14.357 9.82662 15.2643 9.27448 16.1808 8.72867C16.4371 8.57573 16.6927 8.42159 16.9482 8.26744C17.1124 8.16948 17.2766 8.07159 17.4408 7.97379C17.5165 7.92789 17.5922 7.882 17.6702 7.83472C18.1493 7.55176 18.5615 7.32492 19.1258 7.43179C19.2126 7.46155 19.2994 7.49131 19.3888 7.52197C19.4882 7.55521 19.5875 7.58844 19.6898 7.62268C19.7956 7.65954 19.9013 7.6964 20.0102 7.73438C20.1201 7.77123 20.23 7.80809 20.3433 7.84607C20.694 7.96376 21.0441 8.08324 21.394 8.20312C21.7445 8.32294 22.095 8.44232 22.4461 8.56018C22.6644 8.63348 22.8824 8.70791 23.0999 8.78357C23.1988 8.8168 23.2978 8.85004 23.3998 8.88428C23.4865 8.91404 23.5732 8.9438 23.6625 8.97446C23.9468 9.03159 24.1041 9.00579 24.375 8.90625C24.6282 8.72693 24.8673 8.54509 25.1074 8.34961C25.1779 8.29326 25.2483 8.23692 25.3209 8.17886C25.5532 7.99257 25.7845 7.80502 26.0156 7.61719C26.0988 7.54974 26.182 7.48229 26.2677 7.4128C26.6008 7.14268 26.9339 6.8725 27.2659 6.60107C28.317 5.74219 28.317 5.74219 28.5938 5.74219Z" fill="#6B38B2"/>
<path d="M9.02363 44.9379C9.1259 44.9375 9.22817 44.937 9.33353 44.9366C9.54945 44.9363 9.76536 44.9371 9.98127 44.9391C10.3116 44.9416 10.6416 44.9391 10.9719 44.9361C11.1818 44.9364 11.3918 44.937 11.6018 44.9379C11.7004 44.937 11.799 44.936 11.9007 44.9351C12.3203 44.9418 12.5858 44.9591 12.9528 45.1725C13.2112 45.6168 13.1923 46.018 13.1874 46.5236C13.1879 46.6259 13.1883 46.7282 13.1888 46.8335C13.1891 47.0494 13.1883 47.2654 13.1863 47.4813C13.1838 47.8116 13.1863 48.1416 13.1893 48.4719C13.189 48.6818 13.1884 48.8918 13.1874 49.1018C13.1884 49.2004 13.1893 49.299 13.1903 49.4007C13.1836 49.8203 13.1662 50.0858 12.9528 50.4528C12.5086 50.7112 12.1074 50.6923 11.6018 50.6874C11.4995 50.6879 11.3972 50.6883 11.2918 50.6888C11.0759 50.6891 10.86 50.6883 10.6441 50.6863C10.3138 50.6838 9.9838 50.6863 9.65351 50.6893C9.44355 50.689 9.23359 50.6884 9.02363 50.6874C8.92498 50.6884 8.82634 50.6893 8.72471 50.6903C8.30511 50.6836 8.03953 50.6662 7.67254 50.4528C7.4142 50.0086 7.43307 49.6074 7.43793 49.1018C7.43749 48.9995 7.43704 48.8972 7.43657 48.7918C7.43626 48.5759 7.43712 48.36 7.43908 48.1441C7.44159 47.8138 7.4391 47.4838 7.4361 47.1535C7.43641 46.9435 7.43701 46.7336 7.43793 46.5236C7.43699 46.425 7.43604 46.3263 7.43506 46.2247C7.44178 45.8051 7.45914 45.5395 7.67254 45.1725C8.11682 44.9142 8.51795 44.9331 9.02363 44.9379ZM9.37519 46.8752C9.37519 47.4939 9.37519 48.1127 9.37519 48.7502C9.99394 48.7502 10.6127 48.7502 11.2502 48.7502C11.2502 48.1314 11.2502 47.5127 11.2502 46.8752C10.6314 46.8752 10.0127 46.8752 9.37519 46.8752Z" fill="#6B38B2"/>
<path d="M9.02363 33.6879C9.1259 33.6875 9.22817 33.687 9.33353 33.6866C9.54945 33.6863 9.76536 33.6871 9.98127 33.6891C10.3116 33.6916 10.6416 33.6891 10.9719 33.6861C11.1818 33.6864 11.3918 33.687 11.6018 33.6879C11.7004 33.687 11.799 33.686 11.9007 33.6851C12.3203 33.6918 12.5858 33.7091 12.9528 33.9225C13.2112 34.3668 13.1923 34.768 13.1874 35.2736C13.1879 35.3759 13.1883 35.4782 13.1888 35.5835C13.1891 35.7994 13.1883 36.0154 13.1863 36.2313C13.1838 36.5616 13.1863 36.8916 13.1893 37.2219C13.189 37.4318 13.1884 37.6418 13.1874 37.8518C13.1884 37.9504 13.1893 38.049 13.1903 38.1507C13.1836 38.5703 13.1662 38.8358 12.9528 39.2028C12.5086 39.4612 12.1074 39.4423 11.6018 39.4374C11.4995 39.4379 11.3972 39.4383 11.2918 39.4388C11.0759 39.4391 10.86 39.4383 10.6441 39.4363C10.3138 39.4338 9.9838 39.4363 9.65351 39.4393C9.44355 39.439 9.23359 39.4384 9.02363 39.4374C8.92498 39.4384 8.82634 39.4393 8.72471 39.4403C8.30511 39.4336 8.03953 39.4162 7.67254 39.2028C7.4142 38.7586 7.43307 38.3574 7.43793 37.8518C7.43749 37.7495 7.43704 37.6472 7.43657 37.5418C7.43626 37.3259 7.43712 37.11 7.43908 36.8941C7.44159 36.5638 7.4391 36.2338 7.4361 35.9035C7.43641 35.6935 7.43701 35.4836 7.43793 35.2736C7.43699 35.175 7.43604 35.0763 7.43506 34.9747C7.44178 34.5551 7.45914 34.2895 7.67254 33.9225C8.11682 33.6642 8.51795 33.6831 9.02363 33.6879ZM9.37519 35.6252C9.37519 36.2439 9.37519 36.8627 9.37519 37.5002C9.99394 37.5002 10.6127 37.5002 11.2502 37.5002C11.2502 36.8814 11.2502 36.2627 11.2502 35.6252C10.6314 35.6252 10.0127 35.6252 9.37519 35.6252Z" fill="#6B38B2"/>
<path d="M9.02363 22.4379C9.1259 22.4375 9.22817 22.437 9.33353 22.4366C9.54945 22.4363 9.76536 22.4371 9.98127 22.4391C10.3116 22.4416 10.6416 22.4391 10.9719 22.4361C11.1818 22.4364 11.3918 22.437 11.6018 22.4379C11.7004 22.437 11.799 22.436 11.9007 22.4351C12.3203 22.4418 12.5858 22.4591 12.9528 22.6725C13.2112 23.1168 13.1923 23.518 13.1874 24.0236C13.1879 24.1259 13.1883 24.2282 13.1888 24.3335C13.1891 24.5494 13.1883 24.7654 13.1863 24.9813C13.1838 25.3116 13.1863 25.6416 13.1893 25.9719C13.189 26.1818 13.1884 26.3918 13.1874 26.6018C13.1884 26.7004 13.1893 26.799 13.1903 26.9007C13.1836 27.3203 13.1662 27.5858 12.9528 27.9528C12.5086 28.2112 12.1074 28.1923 11.6018 28.1874C11.4995 28.1879 11.3972 28.1883 11.2918 28.1888C11.0759 28.1891 10.86 28.1883 10.6441 28.1863C10.3138 28.1838 9.9838 28.1863 9.65351 28.1893C9.44355 28.189 9.23359 28.1884 9.02363 28.1874C8.92498 28.1884 8.82634 28.1893 8.72471 28.1903C8.30511 28.1836 8.03953 28.1662 7.67254 27.9528C7.4142 27.5086 7.43307 27.1074 7.43793 26.6018C7.43749 26.4995 7.43704 26.3972 7.43657 26.2918C7.43626 26.0759 7.43712 25.86 7.43908 25.6441C7.44159 25.3138 7.4391 24.9838 7.4361 24.6535C7.43641 24.4435 7.43701 24.2336 7.43793 24.0236C7.43699 23.925 7.43604 23.8263 7.43506 23.7247C7.44178 23.3051 7.45914 23.0395 7.67254 22.6725C8.11682 22.4142 8.51795 22.4331 9.02363 22.4379ZM9.37519 24.3752C9.37519 24.9939 9.37519 25.6127 9.37519 26.2502C9.99394 26.2502 10.6127 26.2502 11.2502 26.2502C11.2502 25.6314 11.2502 25.0127 11.2502 24.3752C10.6314 24.3752 10.0127 24.3752 9.37519 24.3752Z" fill="#6B38B2"/>
<path d="M44.4654 23.6134C45.148 24.0259 45.7011 24.6669 45.9376 25.4299C46.0319 26.3481 46.0693 27.2602 45.4688 28.008C44.9058 28.5992 44.3952 29.0165 43.5622 29.102C42.5642 29.113 41.874 29.0765 41.137 28.3746C40.3891 27.5656 40.2563 26.9297 40.2769 25.8336C40.3583 24.9123 40.7869 24.4279 41.473 23.8414C42.3008 23.271 43.5462 23.2061 44.4654 23.6134ZM42.4952 25.6203C42.2477 25.982 42.233 26.1715 42.3047 26.6017C42.4805 26.8947 42.4805 26.8947 42.7735 27.0705C43.2038 27.1422 43.3932 27.1276 43.7549 26.88C44.0024 26.5183 44.0171 26.3289 43.9454 25.8986C43.7696 25.6056 43.7696 25.6056 43.4766 25.4299C43.0463 25.3581 42.8569 25.3728 42.4952 25.6203Z" fill="#6B38B2"/>
<path d="M15 45C17.475 45 19.95 45 22.5 45C22.5 45.6188 22.5 46.2375 22.5 46.875C20.025 46.875 17.55 46.875 15 46.875C15 46.2563 15 45.6375 15 45Z" fill="#6B38B2"/>
<path d="M15 33.75C17.475 33.75 19.95 33.75 22.5 33.75C22.5 34.3688 22.5 34.9875 22.5 35.625C20.025 35.625 17.55 35.625 15 35.625C15 35.0063 15 34.3875 15 33.75Z" fill="#6B38B2"/>
<path d="M15 22.5C17.475 22.5 19.95 22.5 22.5 22.5C22.5 23.1188 22.5 23.7375 22.5 24.375C20.025 24.375 17.55 24.375 15 24.375C15 23.7563 15 23.1375 15 22.5Z" fill="#6B38B2"/>
</svg>
