<svg width="22" height="19" viewBox="0 0 22 19" fill="none" xmlns="http://www.w3.org/2000/svg">
<path d="M17.4004 1.97949H19C20.6569 1.97949 22 3.32264 22 4.97949V16C21.9998 17.6567 20.6567 19 19 19H3C1.34325 19 0.000175288 17.6567 0 16V4.97949C0 3.32264 1.34315 1.97949 3 1.97949H4.6748L5.50879 0H16.5664L17.4004 1.97949ZM11 4.35449C7.85778 4.35461 5.31055 7.01287 5.31055 10.292C5.31072 13.571 7.85789 16.2294 11 16.2295C14.1421 16.2294 16.6893 13.571 16.6895 10.292C16.6895 7.01286 14.1422 4.35459 11 4.35449ZM11 6.33398C13.0948 6.33408 14.793 8.10593 14.793 10.292C14.7928 12.4779 13.0947 14.2499 11 14.25C8.90541 14.2498 7.20722 12.4778 7.20703 10.292C7.20703 8.10599 8.90529 6.33418 11 6.33398ZM18.5859 3.16699C17.9575 3.16705 17.4482 3.69869 17.4482 4.35449C17.4484 5.01012 17.9576 5.54193 18.5859 5.54199C19.2143 5.54199 19.7234 5.01016 19.7236 4.35449C19.7236 3.69865 19.2144 3.16699 18.5859 3.16699Z" fill="#6B38B2"/>
</svg>
