<svg width="21" height="21" viewBox="0 0 21 21" fill="none" xmlns="http://www.w3.org/2000/svg">
<g clip-path="url(#clip0_1_12524)">
<path d="M11.3583 4.96362L18.3749 3.617V4.51125L11.3583 5.85787V4.96362ZM11.3583 12.8999L18.3749 11.5532V10.659L11.3583 12.0056V12.8999ZM11.3583 9.39987L18.3749 8.05325V7.159L11.3583 8.50562V9.39987ZM20.9999 2.10762V19.2585L9.0964 21.0067L4.81327 18.4474L0.596648 20.9998H-0.000976562V3.38162C-0.000976562 2.5565 0.477648 1.7865 1.2179 1.42075L3.45615 0.315623C4.30577 -0.103502 5.31902 -0.103502 6.16865 0.315623L8.96952 1.699L18.5158 0.0338728C19.1318 -0.0798772 19.7618 0.0881229 20.243 0.489748C20.7243 0.891373 20.9999 1.48112 20.9999 2.10762ZM5.78015 1.1005C5.61127 1.0165 5.4319 0.957873 5.2499 0.920248V17.6896L8.7499 19.78V2.567L5.78015 1.1005ZM0.874898 19.8089L4.3749 17.6914V0.920248C4.19202 0.956998 4.01352 1.0165 3.84465 1.09962L1.6064 2.20475C1.1619 2.42437 0.874898 2.8855 0.874898 3.38162V19.8089ZM20.1249 2.10762C20.1249 1.741 19.963 1.39712 19.6821 1.16175C19.4013 0.926373 19.0311 0.829248 18.6715 0.894873H18.668L9.6249 2.4725V20.0443L20.1249 18.5025V2.10762ZM11.3583 16.3999L16.6249 15.3884V14.4941L11.3583 15.5056V16.3999Z" fill="#6B38B2"/>
</g>
<defs>
<clipPath id="clip0_1_12524">
<rect width="21" height="21" fill="white"/>
</clipPath>
</defs>
</svg>
