<svg width="14" height="13" viewBox="0 0 14 13" fill="none" xmlns="http://www.w3.org/2000/svg">
<path d="M3.65027 3.58575L5.65052 0.28425C5.71552 0.17875 5.79352 0.105 5.88452 0.0630001C5.97552 0.0210001 6.07152 0 6.17252 0C6.27352 0 6.36952 0.0210001 6.46052 0.0630001C6.55152 0.105 6.62952 0.17875 6.69452 0.28425L8.69477 3.58575C8.76027 3.68675 8.79302 3.79275 8.79302 3.90375C8.79302 4.01475 8.76652 4.117 8.71352 4.2105C8.66052 4.304 8.58952 4.37775 8.50052 4.43175C8.41152 4.48575 8.30702 4.513 8.18702 4.5135H4.15802C4.03752 4.5135 3.93202 4.48575 3.84152 4.43025C3.75102 4.37475 3.68102 4.3015 3.63152 4.2105C3.57852 4.1205 3.55202 4.0205 3.55202 3.9105C3.55202 3.8005 3.58452 3.69225 3.64952 3.58575M10.2975 12.7635C9.51402 12.7635 8.85177 12.493 8.31077 11.952C7.76977 11.411 7.49927 10.7488 7.49927 9.96525C7.49927 9.18175 7.76977 8.5195 8.31077 7.9785C8.85177 7.4375 9.51402 7.167 10.2975 7.167C11.081 7.167 11.7433 7.4375 12.2843 7.9785C12.8253 8.5195 13.0958 9.18175 13.0958 9.96525C13.0958 10.7488 12.8253 11.411 12.2843 11.952C11.7433 12.493 11.081 12.7635 10.2975 12.7635ZM1.75238e-05 11.7818V8.14425C1.75238e-05 7.97275 0.0577675 7.8295 0.173267 7.7145C0.289768 7.5995 0.433768 7.542 0.605268 7.542H4.24277C4.41477 7.542 4.55827 7.6 4.67327 7.716C4.78827 7.8325 4.84577 7.97675 4.84577 8.14875V11.7863C4.84577 11.9578 4.78752 12.101 4.67102 12.216C4.55502 12.331 4.41102 12.3885 4.23902 12.3885H0.601518C0.430018 12.3885 0.286768 12.3302 0.171768 12.2137C0.0567676 12.0977 1.75238e-05 11.9538 1.75238e-05 11.7818ZM10.2968 12.0135C10.8703 12.0135 11.3553 11.8155 11.7518 11.4195C12.1483 11.0235 12.3463 10.5388 12.3458 9.96525C12.3453 9.39175 12.1473 8.907 11.7518 8.511C11.3563 8.115 10.8715 7.917 10.2975 7.917C9.72352 7.917 9.23877 8.115 8.84327 8.511C8.44777 8.907 8.24977 9.39175 8.24927 9.96525C8.24877 10.5388 8.44677 11.0235 8.84327 11.4195C9.23977 11.8155 9.72427 12.0135 10.2968 12.0135ZM0.749268 11.6385H4.09577V8.292H0.749268V11.6385ZM4.39277 3.7635H7.95227L6.17252 0.9105L4.39277 3.7635Z" fill="#6B38B2"/>
</svg>
