<svg width="24" height="24" viewBox="0 0 24 24" fill="none" xmlns="http://www.w3.org/2000/svg">
<path d="M3.00011 17.5001H21.0001C21.1421 17.5001 21.2608 17.5481 21.3561 17.6441C21.4514 17.7401 21.4994 17.8591 21.5001 18.0011C21.5008 18.1431 21.4528 18.2617 21.3561 18.3571C21.2594 18.4524 21.1408 18.5001 21.0001 18.5001H3.00011C2.85811 18.5001 2.73944 18.4521 2.64411 18.3561C2.54877 18.2601 2.50077 18.1411 2.50011 17.9991C2.49944 17.8571 2.54744 17.7384 2.64411 17.6431C2.74077 17.5477 2.85944 17.5001 3.00011 17.5001ZM4.00011 10.8341L3.25611 12.1461C3.19677 12.2547 3.10844 12.3237 2.99111 12.3531C2.87244 12.3831 2.75911 12.3684 2.65111 12.3091C2.54377 12.2491 2.47544 12.1601 2.44611 12.0421C2.41677 11.9227 2.43277 11.8101 2.49411 11.7041L3.23811 10.3921H1.75011C1.62211 10.3921 1.51644 10.3504 1.43311 10.2671C1.34977 10.1837 1.30811 10.0784 1.30811 9.95105C1.30811 9.82372 1.34977 9.71805 1.43311 9.63405C1.51644 9.55005 1.62211 9.50805 1.75011 9.50805H3.23911L2.49411 8.24605C2.43277 8.13939 2.41677 8.02672 2.44611 7.90805C2.47544 7.78939 2.54411 7.70039 2.65211 7.64105C2.76011 7.58172 2.87311 7.56705 2.99111 7.59705C3.10911 7.62705 3.19744 7.69605 3.25611 7.80405L4.00011 9.06505L4.74411 7.80405C4.80344 7.69539 4.89211 7.62605 5.01011 7.59605C5.12811 7.56605 5.24077 7.58105 5.34811 7.64105C5.45544 7.70105 5.52411 7.79005 5.55411 7.90805C5.58411 8.02605 5.56811 8.13872 5.50611 8.24605L4.76011 9.50805H6.25011C6.37811 9.50805 6.48377 9.54972 6.56711 9.63305C6.65044 9.71639 6.69211 9.82172 6.69211 9.94905C6.69211 10.0764 6.65044 10.1821 6.56711 10.2661C6.48377 10.3501 6.37811 10.3921 6.25011 10.3921H4.76111L5.50611 11.7041C5.56744 11.8107 5.58344 11.9234 5.55411 12.0421C5.52477 12.1607 5.45611 12.2497 5.34811 12.3091C5.24077 12.3684 5.12811 12.3831 5.01011 12.3531C4.89211 12.3237 4.80344 12.2547 4.74411 12.1461L4.00011 10.8341ZM12.0001 10.8341L11.2561 12.1461C11.1968 12.2547 11.1081 12.3237 10.9901 12.3531C10.8721 12.3831 10.7594 12.3684 10.6521 12.3091C10.5441 12.2491 10.4754 12.1601 10.4461 12.0421C10.4168 11.9227 10.4328 11.8101 10.4941 11.7041L11.2381 10.3921H9.75011C9.62211 10.3921 9.51644 10.3504 9.43311 10.2671C9.34977 10.1837 9.3081 10.0784 9.3081 9.95105C9.3081 9.82372 9.34977 9.71805 9.43311 9.63405C9.51644 9.55005 9.62211 9.50805 9.75011 9.50805H11.2391L10.4941 8.24605C10.4328 8.13939 10.4168 8.02672 10.4461 7.90805C10.4754 7.78939 10.5441 7.70039 10.6521 7.64105C10.7601 7.58172 10.8731 7.56705 10.9911 7.59705C11.1091 7.62705 11.1974 7.69605 11.2561 7.80405L12.0001 9.06505L12.7441 7.80405C12.8034 7.69539 12.8921 7.62605 13.0101 7.59605C13.1281 7.56605 13.2408 7.58105 13.3481 7.64105C13.4561 7.70105 13.5248 7.79005 13.5541 7.90805C13.5834 8.02605 13.5674 8.13872 13.5061 8.24605L12.7621 9.50805H14.2501C14.3781 9.50805 14.4838 9.54972 14.5671 9.63305C14.6504 9.71639 14.6921 9.82172 14.6921 9.94905C14.6921 10.0764 14.6504 10.1821 14.5671 10.2661C14.4838 10.3501 14.3781 10.3921 14.2501 10.3921H12.7611L13.5061 11.7041C13.5674 11.8107 13.5834 11.9234 13.5541 12.0421C13.5248 12.1607 13.4561 12.2497 13.3481 12.3091C13.2401 12.3684 13.1271 12.3831 13.0091 12.3531C12.8911 12.3231 12.8028 12.2541 12.7441 12.1461L12.0001 10.8341ZM20.0001 10.8341L19.2561 12.1461C19.1968 12.2547 19.1081 12.3237 18.9901 12.3531C18.8721 12.3831 18.7594 12.3684 18.6521 12.3091C18.5441 12.2491 18.4754 12.1601 18.4461 12.0421C18.4168 11.9227 18.4328 11.8101 18.4941 11.7041L19.2381 10.3921H17.7501C17.6221 10.3921 17.5164 10.3504 17.4331 10.2671C17.3498 10.1837 17.3081 10.0784 17.3081 9.95105C17.3081 9.82372 17.3498 9.71805 17.4331 9.63405C17.5164 9.55005 17.6221 9.50805 17.7501 9.50805H19.2391L18.4941 8.24605C18.4328 8.13939 18.4168 8.02672 18.4461 7.90805C18.4754 7.78939 18.5441 7.70039 18.6521 7.64105C18.7601 7.58172 18.8728 7.56705 18.9901 7.59705C19.1074 7.62705 19.1961 7.69605 19.2561 7.80405L20.0001 9.06505L20.7441 7.80405C20.8034 7.69539 20.8921 7.62605 21.0101 7.59605C21.1281 7.56605 21.2408 7.58105 21.3481 7.64105C21.4554 7.70105 21.5241 7.79005 21.5541 7.90805C21.5841 8.02605 21.5681 8.13872 21.5061 8.24605L20.7621 9.50805H22.2501C22.3781 9.50805 22.4838 9.54972 22.5671 9.63305C22.6504 9.71639 22.6921 9.82172 22.6921 9.94905C22.6921 10.0764 22.6504 10.1821 22.5671 10.2661C22.4838 10.3501 22.3781 10.3921 22.2501 10.3921H20.7611L21.5061 11.7041C21.5674 11.8107 21.5834 11.9234 21.5541 12.0421C21.5248 12.1607 21.4561 12.2497 21.3481 12.3091C21.2401 12.3684 21.1274 12.3831 21.0101 12.3531C20.8928 12.3231 20.8041 12.2541 20.7441 12.1461L20.0001 10.8341Z" fill="#6B38B2"/>
</svg>
