<svg width="32" height="32" viewBox="0 0 32 32" fill="none" xmlns="http://www.w3.org/2000/svg">
<path d="M8.74919 10.7492H6.08252C5.55209 10.7492 5.04338 10.5385 4.66831 10.1634C4.29323 9.78833 4.08252 9.27962 4.08252 8.74919V6.08252C4.08252 5.55209 4.29323 5.04338 4.66831 4.66831C5.04338 4.29323 5.55209 4.08252 6.08252 4.08252H8.74919C9.27962 4.08252 9.78833 4.29323 10.1634 4.66831C10.5385 5.04338 10.7492 5.55209 10.7492 6.08252V8.74919C10.7492 9.27962 10.5385 9.78833 10.1634 10.1634C9.78833 10.5385 9.27962 10.7492 8.74919 10.7492ZM6.08252 5.41585C5.90571 5.41585 5.73614 5.48609 5.61111 5.61111C5.48609 5.73614 5.41585 5.90571 5.41585 6.08252V8.74919C5.41585 8.926 5.48609 9.09557 5.61111 9.22059C5.73614 9.34562 5.90571 9.41585 6.08252 9.41585H8.74919C8.926 9.41585 9.09557 9.34562 9.22059 9.22059C9.34562 9.09557 9.41585 8.926 9.41585 8.74919V6.08252C9.41585 5.90571 9.34562 5.73614 9.22059 5.61111C9.09557 5.48609 8.926 5.41585 8.74919 5.41585H6.08252ZM8.74919 27.9172H6.08252C5.55209 27.9172 5.04338 27.7065 4.66831 27.3314C4.29323 26.9563 4.08252 26.4476 4.08252 25.9172V23.2505C4.08252 22.7201 4.29323 22.2114 4.66831 21.8363C5.04338 21.4612 5.55209 21.2505 6.08252 21.2505H8.74919C9.27962 21.2505 9.78833 21.4612 10.1634 21.8363C10.5385 22.2114 10.7492 22.7201 10.7492 23.2505V25.9172C10.7492 26.4476 10.5385 26.9563 10.1634 27.3314C9.78833 27.7065 9.27962 27.9172 8.74919 27.9172ZM6.08252 22.5839C5.90571 22.5839 5.73614 22.6541 5.61111 22.7791C5.48609 22.9041 5.41585 23.0737 5.41585 23.2505V25.9172C5.41585 26.094 5.48609 26.2636 5.61111 26.3886C5.73614 26.5136 5.90571 26.5839 6.08252 26.5839H8.74919C8.926 26.5839 9.09557 26.5136 9.22059 26.3886C9.34562 26.2636 9.41585 26.094 9.41585 25.9172V23.2505C9.41585 23.0737 9.34562 22.9041 9.22059 22.7791C9.09557 22.6541 8.926 22.5839 8.74919 22.5839H6.08252ZM8.74919 19.3332H6.08252C5.55209 19.3332 5.04338 19.1225 4.66831 18.7474C4.29323 18.3723 4.08252 17.8636 4.08252 17.3332V14.6665C4.08252 14.1361 4.29323 13.6274 4.66831 13.2523C5.04338 12.8772 5.55209 12.6665 6.08252 12.6665H8.74919C9.27962 12.6665 9.78833 12.8772 10.1634 13.2523C10.5385 13.6274 10.7492 14.1361 10.7492 14.6665V17.3332C10.7492 17.8636 10.5385 18.3723 10.1634 18.7474C9.78833 19.1225 9.27962 19.3332 8.74919 19.3332ZM6.08252 13.9999C5.90571 13.9999 5.73614 14.0701 5.61111 14.1951C5.48609 14.3201 5.41585 14.4897 5.41585 14.6665V17.3332C5.41585 17.51 5.48609 17.6796 5.61111 17.8046C5.73614 17.9296 5.90571 17.9999 6.08252 17.9999H8.74919C8.926 17.9999 9.09557 17.9296 9.22059 17.8046C9.34562 17.6796 9.41585 17.51 9.41585 17.3332V14.6665C9.41585 14.4897 9.34562 14.3201 9.22059 14.1951C9.09557 14.0701 8.926 13.9999 8.74919 13.9999H6.08252ZM27.2505 8.08252H15.2505C15.0737 8.08252 14.9041 8.01228 14.7791 7.88726C14.6541 7.76223 14.5839 7.59266 14.5839 7.41585C14.5839 7.23904 14.6541 7.06947 14.7791 6.94445C14.9041 6.81942 15.0737 6.74919 15.2505 6.74919H27.2505C27.4273 6.74919 27.5969 6.81942 27.7219 6.94445C27.8469 7.06947 27.9172 7.23904 27.9172 7.41585C27.9172 7.59266 27.8469 7.76223 27.7219 7.88726C27.5969 8.01228 27.4273 8.08252 27.2505 8.08252ZM27.2505 16.6665H15.2505C15.0737 16.6665 14.9041 16.5963 14.7791 16.4713C14.6541 16.3462 14.5839 16.1767 14.5839 15.9999C14.5839 15.823 14.6541 15.6535 14.7791 15.5284C14.9041 15.4034 15.0737 15.3332 15.2505 15.3332H27.2505C27.4273 15.3332 27.5969 15.4034 27.7219 15.5284C27.8469 15.6535 27.9172 15.823 27.9172 15.9999C27.9172 16.1767 27.8469 16.3462 27.7219 16.4713C27.5969 16.5963 27.4273 16.6665 27.2505 16.6665ZM27.2505 25.2465H15.2505C15.0737 25.2465 14.9041 25.1763 14.7791 25.0513C14.6541 24.9262 14.5839 24.7567 14.5839 24.5799C14.5839 24.403 14.6541 24.2335 14.7791 24.1084C14.9041 23.9834 15.0737 23.9132 15.2505 23.9132H27.2505C27.4273 23.9132 27.5969 23.9834 27.7219 24.1084C27.8469 24.2335 27.9172 24.403 27.9172 24.5799C27.9172 24.7567 27.8469 24.9262 27.7219 25.0513C27.5969 25.1763 27.4273 25.2465 27.2505 25.2465Z" fill="#6B38B2"/>
</svg>
