<svg width="18" height="66" viewBox="0 0 18 66" fill="none" xmlns="http://www.w3.org/2000/svg">
<path d="M16.1249 2H14.4999V3H15.9999V14H1.99988V3H3.49988V2H1.87488C1.758 2.00195 1.64265 2.02691 1.53542 2.07345C1.42818 2.11999 1.33117 2.1872 1.24992 2.27125C1.16866 2.35529 1.10476 2.45451 1.06186 2.56325C1.01896 2.67199 0.997898 2.78812 0.999884 2.905V14.095C0.997898 14.2119 1.01896 14.328 1.06186 14.4367C1.10476 14.5455 1.16866 14.6447 1.24992 14.7288C1.33117 14.8128 1.42818 14.88 1.53542 14.9265C1.64265 14.9731 1.758 14.998 1.87488 15H16.1249C16.2418 14.998 16.3571 14.9731 16.4644 14.9265C16.5716 14.88 16.6686 14.8128 16.7499 14.7288C16.8311 14.6447 16.895 14.5455 16.9379 14.4367C16.9808 14.328 17.0019 14.2119 16.9999 14.095V2.905C17.0019 2.78812 16.9808 2.67199 16.9379 2.56325C16.895 2.45451 16.8311 2.35529 16.7499 2.27125C16.6686 2.1872 16.5716 2.11999 16.4644 2.07345C16.3571 2.02691 16.2418 2.00195 16.1249 2Z" fill="#6B38B2"/>
<path d="M4 6H5V7H4V6Z" fill="#6B38B2"/>
<path d="M7 6H8V7H7V6Z" fill="#6B38B2"/>
<path d="M10 6H11V7H10V6Z" fill="#6B38B2"/>
<path d="M13 6H14V7H13V6Z" fill="#6B38B2"/>
<path d="M4 8.5H5V9.5H4V8.5Z" fill="#6B38B2"/>
<path d="M7 8.5H8V9.5H7V8.5Z" fill="#6B38B2"/>
<path d="M10 8.5H11V9.5H10V8.5Z" fill="#6B38B2"/>
<path d="M13 8.5H14V9.5H13V8.5Z" fill="#6B38B2"/>
<path d="M4 11H5V12H4V11Z" fill="#6B38B2"/>
<path d="M7 11H8V12H7V11Z" fill="#6B38B2"/>
<path d="M10 11H11V12H10V11Z" fill="#6B38B2"/>
<path d="M13 11H14V12H13V11Z" fill="#6B38B2"/>
<path d="M5 4C5.13261 4 5.25979 3.94732 5.35355 3.85355C5.44732 3.75979 5.5 3.63261 5.5 3.5V0.5C5.5 0.367392 5.44732 0.240215 5.35355 0.146447C5.25979 0.0526784 5.13261 0 5 0C4.86739 0 4.74021 0.0526784 4.64645 0.146447C4.55268 0.240215 4.5 0.367392 4.5 0.5V3.5C4.5 3.63261 4.55268 3.75979 4.64645 3.85355C4.74021 3.94732 4.86739 4 5 4Z" fill="#6B38B2"/>
<path d="M13 4C13.1326 4 13.2598 3.94732 13.3536 3.85355C13.4473 3.75979 13.5 3.63261 13.5 3.5V0.5C13.5 0.367392 13.4473 0.240215 13.3536 0.146447C13.2598 0.0526784 13.1326 0 13 0C12.8674 0 12.7402 0.0526784 12.6464 0.146447C12.5527 0.240215 12.5 0.367392 12.5 0.5V3.5C12.5 3.63261 12.5527 3.75979 12.6464 3.85355C12.7402 3.94732 12.8674 4 13 4Z" fill="#6B38B2"/>
<path d="M6.5 2H11.5V3H6.5V2Z" fill="#6B38B2"/>
</svg>
