<svg width="24" height="19" viewBox="0 0 24 19" fill="none" xmlns="http://www.w3.org/2000/svg">
<path d="M24 16.5C24 16.776 23.776 17 23.5 17H18.5C18.224 17 18 16.776 18 16.5C18 16.224 18.224 16 18.5 16H23.5C23.776 16 24 16.224 24 16.5ZM8 6C8.552 6 9 5.552 9 5C9 4.448 8.552 4 8 4C7.448 4 7 4.448 7 5C7 5.552 7.448 6 8 6ZM4 6C4.552 6 5 5.552 5 5C5 4.448 4.552 4 4 4C3.448 4 3 4.448 3 5C3 5.552 3.448 6 4 6ZM16 15.5V17.5C16 18.327 15.327 19 14.5 19C13.673 19 13 18.327 13 17.5V17H0.5C0.224 17 0 16.776 0 16.5C0 16.224 0.224 16 0.5 16H13V15.5C13 14.673 13.673 14 14.5 14C15.327 14 16 14.673 16 15.5ZM15 15.5C15 15.225 14.775 15 14.5 15C14.225 15 14 15.225 14 15.5V17.5C14 17.775 14.225 18 14.5 18C14.775 18 15 17.775 15 17.5V15.5ZM0 6C0 2.691 2.691 0 6 0C9.309 0 12 2.691 12 6C12 9.309 9.309 12 6 12C2.691 12 0 9.309 0 6ZM1 6C1 8.757 3.243 11 6 11C8.757 11 11 8.757 11 6C11 3.243 8.757 1 6 1C3.243 1 1 3.243 1 6ZM20 6C20.552 6 21 5.552 21 5C21 4.448 20.552 4 20 4C19.448 4 19 4.448 19 5C19 5.552 19.448 6 20 6ZM16 6C16.552 6 17 5.552 17 5C17 4.448 16.552 4 16 4C15.448 4 15 4.448 15 5C15 5.552 15.448 6 16 6ZM12 6C12 2.691 14.691 0 18 0C21.309 0 24 2.691 24 6C24 9.309 21.309 12 18 12C14.691 12 12 9.309 12 6ZM13 6C13 8.757 15.243 11 18 11C20.757 11 23 8.757 23 6C23 3.243 20.757 1 18 1C15.243 1 13 3.243 13 6ZM15.646 7.318C15.451 7.513 15.451 7.83 15.646 8.025C16.294 8.673 17.147 8.999 18 8.999C18.853 8.999 19.705 8.674 20.354 8.025C20.549 7.83 20.549 7.513 20.354 7.318C20.159 7.123 19.842 7.123 19.647 7.318C18.739 8.226 17.262 8.226 16.354 7.318C16.159 7.123 15.842 7.123 15.647 7.318H15.646ZM3.646 8.681C3.841 8.876 4.158 8.876 4.353 8.681C5.233 7.802 6.766 7.802 7.646 8.681C7.841 8.876 8.158 8.876 8.353 8.681C8.548 8.486 8.548 8.169 8.353 7.974C7.095 6.716 4.904 6.716 3.646 7.974C3.451 8.169 3.451 8.486 3.646 8.681Z" fill="#6B38B2"/>
</svg>
