<svg width="60" height="60" viewBox="0 0 60 60" fill="none" xmlns="http://www.w3.org/2000/svg">
<path d="M28.9015 0.358703C29.6528 0.808263 30.106 1.38062 30.4167 2.19296C30.495 2.59505 30.4718 2.98882 30.4689 3.39825C30.5366 3.39747 30.6043 3.39669 30.674 3.39589C31.3793 3.3881 32.0846 3.3828 32.7899 3.37894C33.053 3.37717 33.3161 3.37478 33.5793 3.37173C33.9577 3.36746 34.3361 3.36547 34.7146 3.36392C34.8321 3.36211 34.9495 3.36029 35.0705 3.35842C35.7933 3.35825 36.2167 3.41527 36.7518 3.93279C36.9955 4.36175 36.9518 4.76004 36.9361 5.24396C36.9346 5.33686 36.933 5.42976 36.9313 5.52548C36.9272 5.75394 36.9209 5.98236 36.9142 6.21075C37.0245 6.21043 37.0245 6.21043 37.137 6.2101C38.9279 6.20492 40.7188 6.20104 42.5097 6.19861C43.3758 6.1974 44.2419 6.19576 45.108 6.19307C45.8631 6.19073 46.6181 6.18922 47.3732 6.1887C47.7728 6.1884 48.1724 6.18768 48.5721 6.18597C49.0187 6.18427 49.4653 6.18404 49.9119 6.18415C50.0438 6.1833 50.1756 6.18246 50.3114 6.18159C51.8411 6.18562 51.8411 6.18562 52.404 6.66074C52.4695 6.74186 52.5351 6.82298 52.6026 6.90655C52.67 6.98737 52.7374 7.06819 52.8068 7.15146C53.0599 7.51251 53.1002 7.80687 53.0935 8.23493C53.0923 8.33708 53.0911 8.43923 53.0898 8.54448C53.0879 8.65625 53.086 8.76802 53.0841 8.88318C53.081 9.12778 53.078 9.37239 53.0751 9.617C53.0734 9.74693 53.0717 9.87687 53.07 10.0107C53.0606 10.8435 53.0592 11.6764 53.0565 12.5093C53.0537 13.2409 53.048 13.9723 53.0358 14.7038C53.0242 15.4117 53.0207 16.1193 53.0226 16.8272C53.0219 17.0964 53.0183 17.3655 53.0116 17.6346C52.9273 19.0135 52.9273 19.0135 53.3659 20.277C53.7995 20.7299 54.3004 21.0238 54.8439 21.3279C57.0245 23.1091 58.1434 26.0635 58.4442 28.7872C58.6595 31.3857 57.8634 33.7261 56.8309 36.0678C56.5967 36.5992 56.3663 37.1323 56.1352 37.6651C56.0873 37.7752 56.0394 37.8853 55.99 37.9988C55.4397 39.2654 54.907 40.5394 54.3751 41.8138C54.2838 42.0321 54.1926 42.2505 54.1013 42.4688C54.0168 42.6711 53.9322 42.8735 53.8478 43.0758C53.8095 43.1674 53.7713 43.259 53.7319 43.3533C53.6787 43.481 53.6787 43.481 53.6244 43.6113C53.5938 43.6847 53.5632 43.7581 53.5317 43.8337C53.4851 43.9469 53.4851 43.9468 53.4376 44.0623C53.3957 44.1476 53.3539 44.2329 53.3107 44.3208C53.1653 44.7638 53.17 45.1892 53.1714 45.6503C53.1708 45.7498 53.1702 45.8493 53.1696 45.9519C53.1684 46.1675 53.1677 46.383 53.1675 46.5985C53.1671 46.9399 53.1651 47.2813 53.1627 47.6227C53.1562 48.5931 53.1526 49.5635 53.1498 50.5339C53.1479 51.128 53.1444 51.7221 53.1398 52.3162C53.1385 52.5423 53.1378 52.7684 53.1378 52.9945C53.1377 53.3109 53.1356 53.6272 53.133 53.9436C53.1335 54.0366 53.1341 54.1295 53.1346 54.2253C53.1263 54.868 53.0072 55.3649 52.5587 55.8566C51.9348 56.3424 51.4925 56.3805 50.7258 56.3752C50.5331 56.3763 50.3404 56.3775 50.1477 56.3789C49.8447 56.3809 49.5419 56.3817 49.2389 56.3787C48.1032 56.3269 48.1032 56.3269 47.0486 56.6551C46.8481 56.8603 46.6885 57.0704 46.5235 57.3045C44.0074 59.2993 40.8675 60.2817 37.6612 59.9266C36.6695 59.7992 35.7405 59.5255 34.8048 59.1795C34.7207 59.1485 34.6366 59.1175 34.55 59.0855C31.562 57.9624 31.562 57.9624 30.8204 56.6014C30.8204 56.524 30.8204 56.4467 30.8204 56.367C30.6774 56.3674 30.5344 56.3679 30.3871 56.3683C26.9924 56.3785 23.5977 56.3862 20.203 56.3909C19.7851 56.3915 19.3672 56.3921 18.9493 56.3928C18.8661 56.3929 18.7829 56.393 18.6972 56.3931C17.3504 56.3952 16.0036 56.3989 14.6568 56.4032C13.2747 56.4076 11.8926 56.4102 10.5105 56.4111C9.73423 56.4117 8.958 56.4132 8.18176 56.4166C7.45122 56.4197 6.72072 56.4207 5.99018 56.42C5.72199 56.4202 5.45381 56.4211 5.18563 56.4229C4.81947 56.4252 4.45343 56.4247 4.08728 56.4234C3.98114 56.4247 3.87501 56.4261 3.76566 56.4275C3.07648 56.421 2.67412 56.3001 2.10948 55.8983C1.58567 55.2366 1.509 54.7681 1.50814 53.9411C1.50778 53.8223 1.50778 53.8223 1.50741 53.7011C1.50675 53.4344 1.50692 53.1678 1.50709 52.9012C1.50678 52.7086 1.50643 52.516 1.50603 52.3234C1.50508 51.7932 1.50487 51.2629 1.50479 50.7327C1.50457 50.1612 1.50369 49.5897 1.5029 49.0182C1.50131 47.7681 1.5006 46.518 1.50008 45.268C1.49976 44.4876 1.49926 43.7073 1.49874 42.9269C1.49731 40.767 1.4961 38.607 1.4957 36.4471C1.49568 36.3088 1.49565 36.1705 1.49563 36.0281C1.4956 35.8895 1.49557 35.7509 1.49555 35.608C1.4955 35.3272 1.49544 35.0463 1.49539 34.7654C1.49536 34.6261 1.49534 34.4868 1.49531 34.3432C1.49485 32.0853 1.4928 29.8273 1.49007 27.5694C1.4873 25.252 1.48584 22.9345 1.4857 20.6171C1.48559 19.3156 1.48492 18.0142 1.48279 16.7127C1.48099 15.6046 1.48039 14.4964 1.48135 13.3883C1.48181 12.8228 1.4817 12.2574 1.48006 11.6919C1.47857 11.1742 1.4787 10.6565 1.48013 10.1388C1.48036 9.95155 1.47999 9.76433 1.47897 9.57712C1.46836 7.49764 1.46836 7.49764 2.02866 6.85492C2.81545 6.13636 3.68267 6.17776 4.68434 6.18415C4.82504 6.18411 4.96573 6.18408 5.11068 6.18404C5.49488 6.18418 5.87907 6.18535 6.26327 6.18699C6.66537 6.18846 7.06748 6.18859 7.46958 6.18887C8.23031 6.1896 8.99104 6.19152 9.75177 6.19387C10.6181 6.1965 11.4845 6.19778 12.3509 6.19896C14.1324 6.20141 15.9139 6.20553 17.6954 6.21075C17.69 6.08356 17.6845 5.95637 17.6789 5.82532C17.6745 5.65595 17.6703 5.48657 17.6661 5.3172C17.6622 5.23366 17.6583 5.15012 17.6542 5.06406C17.643 4.45497 17.7537 4.1105 18.1642 3.63263C18.5058 3.39446 18.7806 3.36944 19.1917 3.37165C19.3571 3.37167 19.3571 3.37167 19.5258 3.3717C19.6438 3.37291 19.7619 3.37412 19.8835 3.37537C20.0659 3.37586 20.0659 3.37586 20.252 3.37637C20.64 3.37768 21.0281 3.38062 21.4161 3.38361C21.6793 3.38478 21.9426 3.38585 22.2058 3.38681C22.8508 3.38939 23.4957 3.39331 24.1407 3.39825C24.1499 3.28016 24.1499 3.28016 24.1592 3.15967C24.1682 3.05547 24.1772 2.95126 24.1865 2.8439C24.195 2.741 24.2035 2.6381 24.2123 2.53208C24.3267 1.76582 24.7316 1.20091 25.3126 0.702941C26.3252 -0.0261364 27.7443 -0.180134 28.9015 0.358703ZM25.7374 2.21173C25.4548 2.76129 25.4729 3.37712 25.4504 3.98282C25.4298 4.33575 25.4298 4.33575 25.3126 4.57013C23.263 4.6088 21.2134 4.64747 19.1017 4.68732C19.1017 5.73146 19.1017 6.7756 19.1017 7.85138C24.5544 7.85138 30.0071 7.85138 35.6251 7.85138C35.6251 6.84591 35.6251 5.84044 35.6251 4.8045C35.4316 4.61099 35.2036 4.66875 34.9371 4.66511C34.8155 4.66316 34.6939 4.6612 34.5686 4.65918C34.4362 4.65759 34.3039 4.656 34.1676 4.65436C34.0328 4.6522 33.898 4.65004 33.7591 4.64782C33.3264 4.64091 32.8937 4.63473 32.461 4.62872C31.8922 4.62082 31.3233 4.61219 30.7545 4.60309C30.6222 4.6015 30.4899 4.59991 30.3535 4.59827C30.2319 4.59631 30.1103 4.59435 29.985 4.59233C29.8774 4.59086 29.7697 4.58939 29.6588 4.58788C29.4142 4.57013 29.4142 4.57013 29.297 4.45294C29.2523 4.06911 29.2126 3.68567 29.1814 3.30052C29.1093 2.60965 28.8868 2.13229 28.3522 1.66241C27.3818 1.06766 26.4096 1.39801 25.7374 2.21173ZM2.92979 7.96857C2.87649 8.32497 2.87649 8.32497 2.88523 8.74108C2.88468 8.82032 2.88413 8.89957 2.88357 8.98121C2.88216 9.24869 2.88327 9.5161 2.88436 9.78358C2.88387 9.9765 2.88323 10.1694 2.88245 10.3623C2.88075 10.894 2.88126 11.4256 2.88212 11.9573C2.88267 12.53 2.88121 13.1028 2.88001 13.6756C2.87799 14.7982 2.87789 15.9208 2.87851 17.0435C2.87898 17.9556 2.87881 18.8676 2.87819 19.7797C2.8781 19.9093 2.87801 20.039 2.87792 20.1725C2.87774 20.4358 2.87756 20.6991 2.87738 20.9624C2.87577 23.4335 2.87641 25.9046 2.87775 28.3757C2.87892 30.6386 2.8774 32.9015 2.8746 35.1644C2.87174 37.4857 2.87061 39.8069 2.87139 42.1282C2.8718 43.4323 2.87153 44.7365 2.86949 46.0406C2.86777 47.1507 2.86768 48.2608 2.86973 49.3709C2.87073 49.9377 2.87097 50.5045 2.86918 51.0713C2.86757 51.5896 2.8681 52.1078 2.87038 52.6261C2.87083 52.8142 2.87047 53.0023 2.86926 53.1903C2.86773 53.4449 2.86906 53.6993 2.87113 53.9539C2.87115 54.0956 2.87116 54.2373 2.87117 54.3833C2.89859 54.734 2.89859 54.734 3.13792 54.9477C3.41267 55.085 3.57257 55.1217 3.87716 55.1212C3.97198 55.1219 4.0668 55.1226 4.1645 55.1233C4.26801 55.1223 4.37151 55.1213 4.47816 55.1202C4.64386 55.1207 4.64386 55.1207 4.8129 55.1211C5.18394 55.1217 5.55493 55.1198 5.92597 55.1179C6.19158 55.1178 6.4572 55.1178 6.72281 55.118C7.44478 55.1181 8.16673 55.116 8.88869 55.1136C9.64286 55.1114 10.397 55.1112 11.1512 55.1108C12.4173 55.1098 13.6834 55.1076 14.9495 55.1045C16.2536 55.1012 17.5577 55.0987 18.8618 55.0973C18.9824 55.0971 18.9824 55.0971 19.1054 55.097C19.5087 55.0965 19.9119 55.0961 20.3152 55.0956C23.6607 55.092 27.0062 55.0858 30.3517 55.0779C30.3669 54.9493 30.3822 54.8207 30.3979 54.6881C30.4185 54.5176 30.4392 54.3471 30.4599 54.1766C30.4698 54.092 30.4798 54.0074 30.4901 53.9203C30.5652 53.3055 30.6831 52.7321 30.8937 52.1483C30.924 52.0616 30.9543 51.975 30.9855 51.8857C31.6298 50.106 32.4309 48.4178 34.1644 47.4749C35.1356 47.0332 36.1236 47.0004 37.138 47.3408C37.4985 47.4881 37.8509 47.6465 38.2032 47.8123C39.83 48.6718 39.83 48.6718 41.6017 48.6326C42.939 47.8761 43.3888 46.0866 43.9258 44.7353C44.1158 44.2577 44.308 43.781 44.5002 43.3043C44.5406 43.204 44.581 43.1038 44.6226 43.0006C45.0467 41.9504 45.483 40.9055 45.9213 39.8613C46.0546 39.5438 46.1876 39.2262 46.3206 38.9086C46.7123 37.974 47.1052 37.04 47.5021 36.1076C47.6674 35.7189 47.8319 35.3298 47.9962 34.9407C48.073 34.7595 48.1502 34.5784 48.2279 34.3976C48.3349 34.1487 48.4403 33.8992 48.5455 33.6496C48.6349 33.4399 48.6349 33.4399 48.7261 33.226C48.9231 32.6487 49.0576 32.1137 48.8746 31.5159C48.2386 30.6101 47.4396 30.1953 46.421 29.824C45.0212 29.2809 43.6951 28.6442 42.975 27.2477C42.7341 26.6799 42.6225 26.1587 42.5392 25.5467C42.3429 25.5457 42.3429 25.5457 42.1427 25.5446C40.9098 25.5379 39.677 25.5294 38.4441 25.5191C37.8103 25.5138 37.1765 25.5092 36.5426 25.5061C35.9309 25.503 35.3193 25.4983 34.7076 25.4924C34.4742 25.4905 34.2409 25.4891 34.0075 25.4884C33.6806 25.4872 33.3538 25.484 33.027 25.4802C32.9305 25.4803 32.834 25.4805 32.7345 25.4807C32.1966 25.4719 31.8422 25.4268 31.4064 25.0779C30.9021 24.3636 30.7598 23.7599 30.879 22.8953C31.105 22.3869 31.4152 22.102 31.8751 21.7967C32.3434 21.6406 32.7929 21.6632 33.2811 21.6643C33.389 21.6641 33.4969 21.6639 33.608 21.6637C33.9653 21.6632 34.3226 21.6635 34.6798 21.6639C34.9278 21.6639 35.1758 21.6637 35.4237 21.6636C35.9438 21.6634 36.4638 21.6637 36.9839 21.6642C37.6508 21.6649 38.3177 21.6645 38.9846 21.6638C39.4968 21.6634 40.009 21.6635 40.5212 21.6638C40.7671 21.6639 41.013 21.6638 41.2589 21.6635C41.6026 21.6632 41.9462 21.6637 42.2899 21.6643C42.3918 21.6641 42.4936 21.6639 42.5986 21.6636C42.6924 21.664 42.7862 21.6643 42.8828 21.6646C42.964 21.6647 43.0452 21.6647 43.1289 21.6648C43.3739 21.6804 43.5924 21.7302 43.8282 21.7967C43.8864 21.6722 43.9445 21.5477 44.0045 21.4195C44.6743 20.0135 45.2419 18.9899 46.7579 18.3983C48.1915 17.9429 49.7192 18.4021 51.006 19.0625C51.3213 19.2441 51.3213 19.2441 51.6798 19.2186C51.6879 17.7405 51.6942 16.2625 51.698 14.7844C51.6998 14.0982 51.7023 13.4119 51.7063 12.7256C51.7101 12.0638 51.7122 11.402 51.7132 10.7402C51.7138 10.4872 51.7151 10.2343 51.717 9.98132C51.7195 9.62801 51.7199 9.27477 51.7197 8.92146C51.721 8.81601 51.7222 8.71056 51.7235 8.60192C51.7261 8.28243 51.7261 8.28243 51.6798 7.85138C51.2947 7.59467 51.185 7.58791 50.7387 7.58882C50.5561 7.58834 50.5561 7.58834 50.3698 7.58784C50.1695 7.58911 50.1695 7.58911 49.9652 7.5904C49.8245 7.59036 49.6839 7.59033 49.539 7.59029C49.1533 7.59043 48.7676 7.5916 48.382 7.59324C47.9789 7.5947 47.5759 7.59484 47.1728 7.59512C46.4096 7.59585 45.6464 7.59777 44.8831 7.60012C44.0142 7.60274 43.1453 7.60403 42.2764 7.60521C40.489 7.60766 38.7016 7.61178 36.9142 7.617C36.8949 7.72509 36.8949 7.72509 36.8753 7.83536C36.8567 7.93007 36.8381 8.02479 36.819 8.12237C36.7924 8.26309 36.7924 8.26309 36.7654 8.40665C36.6688 8.70572 36.5735 8.83027 36.3282 9.02325C35.9504 9.14921 35.6774 9.15581 35.2799 9.1569C35.0615 9.1579 35.0615 9.1579 34.8388 9.15893C34.6772 9.15907 34.5156 9.1592 34.354 9.15932C34.184 9.15987 34.014 9.16045 33.844 9.16109C33.3821 9.16262 32.9201 9.16338 32.4581 9.1639C32.1695 9.16424 31.8809 9.16473 31.5923 9.16525C30.6895 9.16685 29.7867 9.16798 28.8839 9.16844C27.8415 9.16896 26.7991 9.17102 25.7567 9.17441C24.9511 9.17694 24.1454 9.17813 23.3398 9.17829C22.8586 9.17841 22.3773 9.1791 21.8961 9.18119C21.4435 9.18312 20.9908 9.18338 20.5382 9.18235C20.3721 9.18226 20.2061 9.18277 20.04 9.18393C19.8132 9.18542 19.5863 9.18452 19.3595 9.18351C19.2325 9.18368 19.1056 9.18385 18.9749 9.18403C18.5839 9.1342 18.364 9.019 18.047 8.78888C17.7963 8.42534 17.7635 8.04723 17.6954 7.617C15.8221 7.6088 13.9489 7.60259 12.0756 7.59879C11.2058 7.59697 10.336 7.5945 9.46623 7.59048C8.70825 7.58698 7.95028 7.58471 7.19229 7.58393C6.79083 7.58347 6.3894 7.58239 5.98795 7.57983C5.54011 7.57701 5.09229 7.57693 4.64443 7.57709C4.51091 7.57583 4.3774 7.57456 4.23983 7.57326C4.11807 7.57375 3.9963 7.57423 3.87085 7.57473C3.76488 7.5744 3.65891 7.57408 3.54973 7.57374C3.21136 7.62829 3.13135 7.6928 2.92979 7.96857ZM45.8204 20.6248C45.2503 21.3782 44.9088 22.247 44.5771 23.1242C44.478 23.386 44.3752 23.6465 44.2659 23.9042C43.9136 24.7625 43.7758 25.6015 44.0145 26.5139C44.5565 27.7901 45.855 28.3534 47.0582 28.8426C49.4145 29.8129 49.4145 29.8129 50.0392 30.9373C50.1625 31.3073 50.1839 31.5883 50.193 31.9774C50.1996 32.1582 50.1996 32.1582 50.2063 32.3427C50.1382 33.5582 49.5342 34.731 49.0284 35.8152C48.3734 37.2434 47.7574 38.6861 47.1534 40.1365C47.0647 40.3491 46.976 40.5616 46.8873 40.7742C46.5088 41.6816 46.131 42.5893 45.7544 43.4976C45.5037 44.102 45.2518 44.7061 44.9993 45.3098C44.9032 45.5402 44.8075 45.7707 44.7123 46.0014C44.5791 46.3238 44.4446 46.6456 44.3098 46.9673C44.2522 47.1081 44.2522 47.1081 44.1935 47.2518C43.7579 48.2826 43.1984 49.3149 42.1519 49.8169C40.8184 50.2594 39.5546 49.7185 38.33 49.2172C38.2272 49.1754 38.1243 49.1335 38.0183 49.0904C37.814 49.0067 37.6101 48.9218 37.4069 48.8354C36.4761 48.4498 35.6557 48.2656 34.6876 48.6326C33.5612 49.1958 33.0951 50.4924 32.6075 51.5843C32.5512 51.7078 32.4948 51.8313 32.4368 51.9585C31.8641 53.2244 31.447 54.2521 31.8655 55.6218C32.3601 56.7003 33.5576 57.3385 34.6249 57.7549C37.6286 58.8365 40.9217 58.7861 43.8282 57.4217C44.7618 56.9302 45.5391 56.2839 46.2892 55.5467C46.3612 55.4761 46.4333 55.4056 46.5075 55.3329C48.4852 53.2371 49.4049 50.1302 50.4873 47.5157C51.0469 46.1641 51.6152 44.8163 52.1852 43.4691C53.0298 41.4717 53.8711 39.4728 54.7067 37.4716C54.7706 37.3186 54.7706 37.3186 54.8358 37.1625C54.9189 36.9634 55.0021 36.7642 55.0852 36.5651C55.3248 35.9916 55.5664 35.419 55.8097 34.8471C55.8916 34.6536 55.8916 34.6536 55.9752 34.4563C56.07 34.2326 56.1654 34.0092 56.2616 33.7861C57.307 31.3106 57.3697 28.6866 56.4479 26.1619C55.9555 24.9646 55.3489 23.9407 54.4923 22.9686C54.4083 22.872 54.3243 22.7755 54.2378 22.6761C53.1732 21.5311 51.823 20.7985 50.442 20.0975C50.3291 20.0401 50.3291 20.0401 50.214 19.9816C48.5565 19.1687 47.1091 19.236 45.8204 20.6248ZM32.2267 23.0858C32.1307 23.5032 32.1307 23.5032 32.1095 23.9061C32.4712 24.2693 32.7825 24.2986 33.2836 24.3014C33.3772 24.3001 33.4709 24.2988 33.5673 24.2975C33.7166 24.2976 33.7166 24.2976 33.8689 24.2977C34.1974 24.2975 34.5258 24.2947 34.8542 24.292C35.0821 24.2913 35.3101 24.2908 35.538 24.2905C36.1375 24.2891 36.737 24.2857 37.3366 24.2818C37.9485 24.2782 38.5604 24.2766 39.1723 24.2748C40.3727 24.271 41.5731 24.265 42.7735 24.2576C42.8555 24.1095 42.9358 23.9604 43.0152 23.8109C43.0601 23.7279 43.105 23.645 43.1512 23.5595C43.2778 23.3029 43.2778 23.3029 43.1251 22.9686C42.7512 22.7816 42.3463 22.8341 41.9357 22.8344C41.8369 22.834 41.7382 22.8336 41.6365 22.8332C41.309 22.832 40.9816 22.8318 40.6541 22.8317C40.427 22.8313 40.1999 22.8309 39.9727 22.8305C39.4961 22.8298 39.0195 22.8296 38.5429 22.8297C37.9318 22.8297 37.3208 22.8281 36.7097 22.8261C36.2404 22.8248 35.7711 22.8245 35.3018 22.8246C35.0765 22.8244 34.8512 22.8239 34.6259 22.823C34.3109 22.8219 33.9959 22.8222 33.6808 22.8229C33.5875 22.8223 33.4943 22.8216 33.3981 22.8209C32.7703 22.8143 32.7703 22.8143 32.2267 23.0858ZM51.5626 48.3983C51.4524 48.6471 51.3426 48.8962 51.233 49.1453C51.1792 49.2674 51.1792 49.2674 51.1243 49.392C50.8878 49.9317 50.6584 50.4738 50.4338 51.0185C49.9092 52.2864 49.3918 53.5248 48.6755 54.6975C48.5056 54.9261 48.5056 54.9261 48.5157 55.0779C48.9552 55.0882 49.3946 55.0944 49.8341 55.0999C50.021 55.1043 50.021 55.1043 50.2117 55.1088C50.3919 55.1105 50.3919 55.1105 50.5757 55.1123C50.7414 55.115 50.7414 55.115 50.9104 55.1179C51.2762 55.0693 51.4158 54.9822 51.6798 54.7264C51.7476 54.4366 51.7476 54.4366 51.733 54.1056C51.733 53.9789 51.7329 53.8522 51.7329 53.7217C51.7305 53.5851 51.7281 53.4485 51.7256 53.3078C51.7249 53.1678 51.7242 53.0278 51.7236 52.8836C51.7209 52.4358 51.715 51.9881 51.7091 51.5403C51.7067 51.2371 51.7046 50.9338 51.7027 50.6305C51.6975 49.8864 51.6897 49.1423 51.6798 48.3983C51.6411 48.3983 51.6025 48.3983 51.5626 48.3983Z" fill="#6B38B2"/>
<path d="M7.01921 13.3136C7.09904 13.313 7.17888 13.3124 7.26114 13.3117C7.52788 13.3101 7.79455 13.3109 8.06129 13.3117C8.25286 13.3111 8.44442 13.3102 8.63599 13.3093C9.15583 13.3072 9.67566 13.3073 10.1955 13.308C10.6297 13.3084 11.0639 13.3076 11.4981 13.3069C12.5227 13.3053 13.5472 13.3055 14.5718 13.3068C15.6281 13.3081 16.6845 13.3065 17.7408 13.3034C18.6483 13.3008 19.5557 13.3 20.4632 13.3007C21.005 13.3011 21.5467 13.3008 22.0884 13.2988C22.5981 13.297 23.1076 13.2974 23.6172 13.2996C23.804 13.3001 23.9907 13.2997 24.1775 13.2985C25.985 13.2875 25.985 13.2875 26.6019 13.8278C27.2666 14.5892 27.1367 15.5574 27.1313 16.514C27.132 16.7044 27.1328 16.8949 27.1338 17.0853C27.1359 17.601 27.1351 18.1167 27.1336 18.6324C27.1325 19.1729 27.1336 19.7133 27.1343 20.2538C27.1351 21.1613 27.134 22.0687 27.1318 22.9762C27.1292 24.0245 27.1301 25.0727 27.1326 26.1209C27.1348 27.0219 27.1351 27.9229 27.1338 28.8239C27.1331 29.3616 27.133 29.8993 27.1346 30.437C27.1359 30.9425 27.135 31.4481 27.1323 31.9536C27.1317 32.1389 27.1318 32.3241 27.1329 32.5093C27.142 34.303 27.142 34.303 26.6019 34.9216C25.8406 35.5863 24.8724 35.4563 23.9158 35.451C23.7253 35.4516 23.5349 35.4524 23.3444 35.4535C22.8287 35.4556 22.313 35.4548 21.7973 35.4533C21.2568 35.4521 20.7164 35.4532 20.176 35.4539C19.2685 35.4548 18.361 35.4537 17.4535 35.4514C16.4053 35.4489 15.3571 35.4497 14.3088 35.4523C13.4078 35.4544 12.5068 35.4547 11.6058 35.4535C11.0681 35.4528 10.5305 35.4527 9.99278 35.4542C9.4872 35.4556 8.98168 35.4546 8.4761 35.4519C8.29088 35.4513 8.10565 35.4515 7.92043 35.4525C6.12674 35.4616 6.12675 35.4616 5.50817 34.9216C4.84128 34.159 4.97256 33.1834 4.97691 32.2247C4.97608 32.0331 4.97506 31.8415 4.97385 31.6499C4.97122 31.131 4.97156 30.6122 4.9726 30.0933C4.9732 29.6596 4.97234 29.226 4.97149 28.7924C4.9695 27.7693 4.96991 26.7462 4.97187 25.7231C4.97386 24.6685 4.972 23.6139 4.96822 22.5592C4.96509 21.6528 4.96424 20.7463 4.96523 19.8398C4.96581 19.2989 4.96555 18.7579 4.96314 18.2169C4.96099 17.7083 4.96169 17.1997 4.96457 16.691C4.96516 16.5047 4.96475 16.3183 4.96327 16.132C4.95166 14.5506 4.95166 14.5506 5.30039 14.0255C5.86129 13.4821 6.23469 13.3152 7.01921 13.3136ZM6.51932 14.839C6.26901 15.2035 6.26954 15.4321 6.26896 15.873C6.26823 15.9487 6.2675 16.0244 6.26675 16.1024C6.26488 16.3557 6.26636 16.609 6.26783 16.8623C6.2672 17.0441 6.26636 17.2258 6.26534 17.4075C6.26321 17.901 6.26404 18.3944 6.26552 18.8878C6.26671 19.404 6.26561 19.9203 6.26487 20.4365C6.26402 21.3034 6.26514 22.1703 6.26737 23.0372C6.26993 24.0397 6.2691 25.0422 6.26652 26.0447C6.26439 26.9052 6.26409 27.7657 6.26532 28.6262C6.26605 29.1402 6.26615 29.6542 6.2646 30.1683C6.26324 30.6515 6.26418 31.1347 6.26689 31.618C6.26751 31.7954 6.26733 31.9729 6.2663 32.1503C6.26502 32.3924 6.26662 32.6343 6.26896 32.8764C6.26914 33.0119 6.26932 33.1474 6.2695 33.287C6.30485 33.6398 6.30485 33.6398 6.5196 33.9105C6.88311 34.1603 7.10925 34.1596 7.54893 34.1592C7.62413 34.1598 7.69933 34.1603 7.77681 34.1609C8.02856 34.1622 8.28018 34.1602 8.53193 34.1582C8.7125 34.1584 8.89308 34.1589 9.07365 34.1595C9.56395 34.1607 10.0542 34.1589 10.5445 34.1565C11.0574 34.1544 11.5704 34.1549 12.0833 34.155C12.9447 34.1547 13.8061 34.1527 14.6675 34.1495C15.6636 34.1458 16.6597 34.1446 17.6558 34.1447C18.6138 34.1449 19.5717 34.1437 20.5297 34.1418C20.9375 34.1409 21.3453 34.1405 21.7531 34.1404C22.2333 34.1401 22.7134 34.1387 23.1936 34.1363C23.3699 34.1357 23.5462 34.1354 23.7225 34.1355C23.963 34.1356 24.2035 34.1343 24.444 34.1326C24.5786 34.1322 24.7133 34.1318 24.852 34.1314C25.1912 34.1017 25.3873 34.0622 25.6644 33.8669C25.7941 33.4779 25.7973 33.1875 25.7989 32.7777C25.7997 32.6231 25.8005 32.4685 25.8014 32.3092C25.8017 32.1374 25.802 31.9657 25.8024 31.7939C25.8031 31.6134 25.8039 31.4328 25.8047 31.2523C25.8067 30.7615 25.808 30.2707 25.8089 29.7799C25.8095 29.4734 25.8102 29.167 25.811 28.8605C25.8132 27.9019 25.8149 26.9433 25.8159 25.9847C25.817 24.8775 25.8201 23.7702 25.8248 22.663C25.8284 21.8075 25.8301 20.952 25.8305 20.0965C25.8308 19.5853 25.8318 19.0742 25.8348 18.563C25.8375 18.0824 25.838 17.6018 25.8368 17.1211C25.8367 16.9446 25.8375 16.7681 25.8391 16.5916C25.8411 16.3508 25.8403 16.1102 25.8388 15.8694C25.8392 15.6672 25.8392 15.6672 25.8396 15.4609C25.8052 15.1095 25.8052 15.1095 25.5909 14.8392C25.2263 14.5887 24.9978 14.5892 24.5567 14.5886C24.481 14.5879 24.4054 14.5871 24.3274 14.5864C24.074 14.5845 23.8208 14.586 23.5674 14.5875C23.3857 14.5868 23.204 14.586 23.0222 14.585C22.5288 14.5829 22.0354 14.5837 21.5419 14.5852C21.0257 14.5864 20.5095 14.5853 19.9933 14.5845C19.1264 14.5837 18.2594 14.5848 17.3925 14.587C16.39 14.5896 15.3875 14.5887 14.385 14.5862C13.5245 14.584 12.6641 14.5837 11.8036 14.585C11.2895 14.5857 10.7755 14.5858 10.2615 14.5842C9.77823 14.5829 9.29502 14.5838 8.81177 14.5865C8.63433 14.5872 8.45689 14.587 8.27946 14.5859C8.03737 14.5847 7.79546 14.5863 7.55338 14.5886C7.41788 14.5888 7.28238 14.589 7.14277 14.5891C6.79001 14.6245 6.79001 14.6245 6.51932 14.839Z" fill="#6B38B2"/>
<path d="M18.9548 17.5852C20.1021 18.5659 20.7432 19.7724 20.903 21.2711C20.9519 22.6565 20.6079 23.8001 19.6872 24.8435C19.7948 24.923 19.9023 25.0024 20.0131 25.0843C21.7885 26.4196 22.9802 27.9638 23.3864 30.2094C23.5569 31.4719 23.5569 31.4719 23.2946 31.8413C23.0194 32.0397 22.8498 32.0362 22.5119 32.0366C22.3936 32.0376 22.2753 32.0386 22.1534 32.0396C21.9589 32.0385 21.9589 32.0385 21.7604 32.0374C21.6238 32.0381 21.4871 32.0387 21.3464 32.0393C20.8934 32.0409 20.4405 32.0398 19.9875 32.0386C19.6736 32.0389 19.3596 32.0392 19.0457 32.0397C18.3872 32.0403 17.7288 32.0395 17.0703 32.0378C16.3088 32.0359 15.5474 32.0365 14.7859 32.0384C14.1323 32.04 13.4788 32.0402 12.8252 32.0393C12.4348 32.0388 12.0443 32.0388 11.6539 32.0399C11.2187 32.0408 10.7836 32.0394 10.3484 32.0374C10.2187 32.0382 10.089 32.0389 9.95542 32.0396C9.83712 32.0386 9.71882 32.0376 9.59693 32.0366C9.44255 32.0364 9.44255 32.0364 9.28505 32.0362C8.96749 31.9825 8.86396 31.8943 8.67159 31.6404C8.3649 30.1041 9.13095 28.3178 9.96066 27.0701C10.6607 26.1609 11.4685 25.4759 12.4216 24.8435C12.3763 24.7908 12.331 24.7381 12.2843 24.6838C11.338 23.515 11.1155 22.3247 11.2231 20.8559C11.3777 19.5155 12.194 18.3962 13.1984 17.5458C14.8431 16.3482 17.3171 16.4246 18.9548 17.5852ZM13.3229 19.3101C12.7073 20.1176 12.4729 21.0256 12.5388 22.031C12.7228 22.9856 13.0847 23.7323 13.8503 24.3464C14.7383 24.9365 15.7117 25.1789 16.7722 25.0193C17.7981 24.757 18.5303 24.2502 19.083 23.3489C19.549 22.4437 19.6929 21.5186 19.4272 20.5259C19.089 19.5925 18.4426 18.901 17.6012 18.3863C16.12 17.7076 14.3918 18.1526 13.3229 19.3101ZM11.7478 27.0994C10.8493 28.0667 10.0778 29.3531 10.0778 30.7029C14.0224 30.7029 17.9669 30.7029 22.031 30.7029C21.6745 28.7424 20.9168 27.3732 19.2551 26.2205C18.8468 25.9798 18.675 25.8989 18.1931 25.8909C18.0674 25.932 17.9417 25.9731 17.8122 26.0154C16.6396 26.3972 15.3417 26.4133 14.1812 25.9751C13.2727 25.6793 12.3777 26.5094 11.7478 27.0994Z" fill="#6B38B2"/>
<path d="M5.94352 39.3309C6.11508 39.3295 6.11508 39.3295 6.2901 39.3281C6.47903 39.3293 6.47903 39.3293 6.67178 39.3305C6.80534 39.3299 6.93891 39.3294 7.07652 39.3288C7.52646 39.3274 7.97635 39.3285 8.42628 39.3296C8.74788 39.3294 9.06948 39.3286 9.39108 39.3278C10.1753 39.3262 10.9596 39.3266 11.7438 39.3276C12.381 39.3284 13.0182 39.3285 13.6555 39.3281C13.7913 39.328 13.7913 39.328 13.93 39.3279C14.114 39.3278 14.298 39.3277 14.482 39.3276C16.2088 39.3266 17.9355 39.3277 19.6622 39.3296C21.1447 39.3312 22.6273 39.3309 24.1098 39.3293C25.8302 39.3274 27.5506 39.3267 29.271 39.3278C29.4544 39.3279 29.6377 39.328 29.8211 39.3281C29.9564 39.3282 29.9564 39.3282 30.0945 39.3283C30.7312 39.3286 31.3678 39.328 32.0045 39.3272C32.78 39.3262 33.5556 39.3265 34.3312 39.3284C34.7271 39.3293 35.123 39.3295 35.5189 39.3285C35.9476 39.3275 36.3762 39.3287 36.8048 39.3305C36.9307 39.3297 37.0567 39.3289 37.1865 39.3281C37.3008 39.329 37.4152 39.33 37.533 39.3309C37.6815 39.331 37.6815 39.331 37.833 39.3311C38.1464 39.3857 38.2494 39.4736 38.4375 39.7267C38.4961 40.0783 38.4961 40.0783 38.4375 40.4298C37.8995 40.9154 37.2431 40.8304 36.5616 40.826C36.3641 40.8269 36.3641 40.8269 36.1625 40.8277C35.7204 40.8291 35.2782 40.828 34.836 40.8269C34.5194 40.8272 34.2028 40.828 33.8861 40.8287C33.1148 40.8303 32.3436 40.83 31.5723 40.829C30.9455 40.8282 30.3186 40.8281 29.6918 40.8284C29.6026 40.8285 29.5134 40.8285 29.4215 40.8286C29.2404 40.8287 29.0592 40.8288 28.878 40.8289C27.1788 40.8299 25.4795 40.8288 23.7803 40.8269C22.3221 40.8253 20.8639 40.8256 19.4057 40.8272C17.7126 40.8291 16.0194 40.8298 14.3263 40.8288C14.1458 40.8287 13.9653 40.8285 13.7847 40.8284C13.6515 40.8284 13.6515 40.8284 13.5156 40.8283C12.8895 40.828 12.2634 40.8285 11.6373 40.8293C10.8743 40.8303 10.1114 40.83 9.34843 40.8282C8.95911 40.8272 8.56983 40.8271 8.1805 40.828C7.75864 40.829 7.33683 40.8278 6.91496 40.826C6.79168 40.8268 6.66839 40.8276 6.54137 40.8284C5.47105 40.8197 5.47105 40.8197 5.03906 40.4298C4.98047 40.0783 4.98047 40.0783 5.03906 39.7267C5.3062 39.3672 5.50594 39.3312 5.94352 39.3309Z" fill="#6B38B2"/>
<path d="M6.55362 43.8995C6.6604 43.8989 6.76719 43.8983 6.87721 43.8976C7.23582 43.8959 7.59438 43.8968 7.95299 43.8976C8.20976 43.8969 8.46653 43.8961 8.7233 43.8952C9.42133 43.8931 10.1193 43.8932 10.8174 43.8939C11.3996 43.8942 11.9817 43.8935 12.5639 43.8928C14.0155 43.8911 15.4671 43.8915 16.9187 43.8929C18.1797 43.8941 19.4407 43.8926 20.7017 43.8898C21.9963 43.8869 23.2909 43.8858 24.5855 43.8866C25.3124 43.887 26.0393 43.8867 26.7662 43.8847C27.4495 43.8828 28.1328 43.8833 28.8161 43.8855C29.0672 43.8859 29.3184 43.8856 29.5695 43.8843C29.9116 43.8828 30.2537 43.8841 30.5958 43.8862C30.6958 43.8851 30.7958 43.884 30.8988 43.8828C31.3273 43.8882 31.5881 43.907 31.9413 44.1601C32.1099 44.4137 32.1099 44.4137 32.1025 44.7799C31.9927 45.1168 31.9927 45.1168 31.6411 45.3512C31.292 45.3742 30.9538 45.3833 30.6047 45.3818C30.4438 45.3824 30.4438 45.3824 30.2797 45.3831C29.9188 45.3843 29.558 45.3839 29.1971 45.3834C28.939 45.3839 28.6809 45.3845 28.4228 45.3852C27.7207 45.3868 27.0185 45.3868 26.3164 45.3866C25.731 45.3864 25.1456 45.387 24.5602 45.3876C23.1007 45.3889 21.6412 45.3888 20.1817 45.3881C18.9134 45.3875 17.6451 45.3888 16.3768 45.391C15.0752 45.3933 13.7736 45.3942 12.472 45.3938C11.741 45.3936 11.01 45.3939 10.2789 45.3955C9.59178 45.397 8.90464 45.3968 8.21748 45.3953C7.96479 45.395 7.71209 45.3953 7.45939 45.3963C7.11543 45.3975 6.77154 45.3966 6.42758 45.3951C6.3267 45.3959 6.22583 45.3968 6.1219 45.3977C5.44273 45.3914 5.44273 45.3914 5.19027 45.1947C5.03955 44.9996 5.03955 44.9996 4.98828 44.6481C5.03955 44.2965 5.03955 44.2965 5.2118 44.1016C5.6476 43.8714 6.07246 43.8961 6.55362 43.8995Z" fill="#6B38B2"/>
<path d="M33.2345 15.5251C33.3993 15.5239 33.3993 15.5239 33.5674 15.5226C33.9286 15.5205 34.2898 15.5219 34.651 15.5235C34.903 15.5232 35.155 15.5227 35.407 15.5221C35.9343 15.5214 36.4616 15.5224 36.9889 15.5246C37.6642 15.5273 38.3394 15.5258 39.0147 15.523C39.5348 15.5213 40.0548 15.5218 40.5749 15.523C40.8238 15.5233 41.0728 15.523 41.3218 15.5219C41.6699 15.5207 42.0179 15.5225 42.366 15.5251C42.5197 15.5237 42.5197 15.5237 42.6765 15.5222C43.3127 15.531 43.6735 15.6336 44.1794 16.0545C44.7003 16.6177 44.8097 17.0278 44.7983 17.794C44.7193 18.399 44.4318 18.8556 43.9963 19.2698C43.4517 19.6189 42.9373 19.5889 42.3121 19.5909C42.2049 19.5916 42.0978 19.5924 41.9874 19.5932C41.6324 19.5955 41.2774 19.5969 40.9224 19.598C40.801 19.5985 40.6797 19.599 40.5547 19.5995C39.9123 19.6019 39.27 19.6036 38.6276 19.6047C37.9649 19.606 37.3023 19.61 36.6396 19.6147C36.1294 19.6178 35.6192 19.6187 35.109 19.6192C34.8648 19.6197 34.6206 19.6211 34.3764 19.6233C34.0339 19.6261 33.6915 19.626 33.349 19.6252C33.1988 19.6274 33.1988 19.6274 33.0455 19.6297C32.3724 19.6239 31.8472 19.4894 31.2887 19.1014C30.7916 18.5049 30.7458 17.9791 30.7756 17.2117C30.8431 16.6997 30.9607 16.4583 31.2887 16.0545C31.9482 15.5889 32.4386 15.5177 33.2345 15.5251ZM32.2806 17.09C32.0748 17.3431 32.0748 17.3431 32.109 17.7098C32.1912 18.0464 32.1912 18.0464 32.4066 18.1829C32.8264 18.3258 33.2383 18.3146 33.6767 18.3132C33.8248 18.3141 33.8248 18.3141 33.9759 18.3151C34.3021 18.3167 34.6283 18.3166 34.9545 18.3163C35.1813 18.3168 35.4081 18.3173 35.6349 18.3178C36.1101 18.3187 36.5853 18.3187 37.0605 18.3181C37.6697 18.3174 38.2789 18.3194 38.8882 18.3221C39.3565 18.3238 39.8247 18.3239 40.293 18.3235C40.5176 18.3236 40.7423 18.3242 40.9669 18.3254C41.2809 18.3268 41.5947 18.326 41.9086 18.3247C42.0015 18.3256 42.0944 18.3265 42.1902 18.3274C42.5695 18.3238 42.8453 18.3051 43.1828 18.1245C43.3924 17.9289 43.3924 17.9289 43.4103 17.5779C43.3841 17.2396 43.3841 17.2396 43.2419 17.0316C42.8649 16.7794 42.4563 16.825 42.0176 16.8275C41.9166 16.8267 41.8155 16.8259 41.7115 16.825C41.377 16.8229 41.0426 16.8233 40.7081 16.824C40.4759 16.8235 40.2437 16.8228 40.0115 16.8221C39.5246 16.8211 39.0376 16.8214 38.5507 16.8225C37.9263 16.8239 37.302 16.8215 36.6777 16.8181C36.198 16.8159 35.7184 16.816 35.2388 16.8166C35.0086 16.8167 34.7783 16.816 34.5481 16.8145C34.2263 16.8128 33.9047 16.814 33.5828 16.816C33.4876 16.8149 33.3923 16.8137 33.2941 16.8126C32.8739 16.8181 32.6255 16.8403 32.2806 17.09Z" fill="#6B38B2"/>
<path d="M5.9037 48.6004C5.99215 48.6008 6.0806 48.6012 6.17173 48.6015C6.26547 48.601 6.35922 48.6005 6.45581 48.5999C6.77168 48.5985 7.08754 48.5986 7.40341 48.5988C7.62917 48.5981 7.85492 48.5973 8.08068 48.5965C8.69518 48.5944 9.30967 48.5938 9.92417 48.5937C10.4365 48.5935 10.9487 48.5926 11.461 48.5918C12.6692 48.5899 13.8774 48.5893 15.0856 48.5895C16.3336 48.5896 17.5816 48.5871 18.8296 48.5834C19.8997 48.5804 20.9697 48.5791 22.0398 48.5793C22.6795 48.5793 23.3192 48.5786 23.959 48.5762C24.5604 48.5739 25.1618 48.5739 25.7633 48.5756C25.9844 48.5758 26.2056 48.5753 26.4267 48.5739C26.7278 48.5721 27.0289 48.5731 27.33 48.5749C27.4623 48.5731 27.4623 48.5731 27.5972 48.5713C27.9834 48.5765 28.1886 48.5824 28.4769 48.8517C28.6315 49.1809 28.5933 49.3477 28.4771 49.6876C28.1846 49.9801 28.0114 49.9503 27.6124 49.9533C27.5238 49.9528 27.4353 49.9523 27.3441 49.9517C27.2503 49.9521 27.1564 49.9524 27.0598 49.9528C26.7436 49.9538 26.4275 49.953 26.1113 49.9523C25.8854 49.9526 25.6594 49.953 25.4335 49.9535C24.8185 49.9546 24.2036 49.9542 23.5886 49.9534C22.9462 49.9528 22.3038 49.9534 21.6614 49.9538C20.5825 49.9542 19.5035 49.9536 18.4246 49.9525C17.1756 49.9512 15.9267 49.9516 14.6778 49.9529C13.6071 49.954 12.5365 49.9541 11.4658 49.9535C10.8256 49.9532 10.1854 49.9531 9.54526 49.9539C8.94352 49.9546 8.34179 49.9541 7.74006 49.9527C7.51868 49.9524 7.2973 49.9525 7.07593 49.953C6.77478 49.9537 6.47366 49.9529 6.17252 49.9517C6.03972 49.9525 6.03972 49.9525 5.90425 49.9533C5.30068 49.9487 5.30068 49.9487 5.03955 49.6876C5.01025 49.2774 5.01025 49.2774 5.03955 48.8673C5.33176 48.5751 5.50492 48.6042 5.9037 48.6004Z" fill="#6B38B2"/>
<path d="M31.7262 32.0922C31.8431 32.0913 31.9601 32.0905 32.0807 32.0896C32.2095 32.0893 32.3383 32.089 32.471 32.0887C32.6063 32.0879 32.7416 32.0871 32.881 32.0864C33.3302 32.084 33.7794 32.0827 34.2287 32.0815C34.3817 32.081 34.5348 32.0805 34.6925 32.0801C35.4187 32.0778 36.1448 32.0762 36.871 32.0752C37.7096 32.074 38.5482 32.0709 39.3867 32.0662C40.0347 32.0627 40.6827 32.0609 41.3307 32.0606C41.7178 32.0603 42.1049 32.059 42.492 32.0563C42.9238 32.0534 43.3556 32.0535 43.7874 32.0544C43.9157 32.0529 44.0441 32.0514 44.1763 32.0498C44.294 32.0506 44.4116 32.0514 44.5328 32.0523C44.6349 32.052 44.737 32.0517 44.8422 32.0514C45.2127 32.1296 45.3561 32.283 45.5858 32.5782C45.5785 32.9444 45.5785 32.9444 45.4686 33.2813C45.0886 33.5346 44.9861 33.5451 44.5477 33.5454C44.4304 33.5461 44.3131 33.5468 44.1922 33.5474C44.0636 33.547 43.935 33.5465 43.8026 33.546C43.5993 33.5466 43.5993 33.5466 43.3919 33.5472C42.9428 33.5483 42.4937 33.5476 42.0445 33.5468C41.7332 33.547 41.4219 33.5472 41.1106 33.5475C40.4576 33.5479 39.8047 33.5474 39.1517 33.5462C38.3967 33.545 37.6416 33.5454 36.8865 33.5467C36.2384 33.5477 35.5903 33.5479 34.9422 33.5473C34.5551 33.5469 34.1679 33.5469 33.7808 33.5476C33.3492 33.5482 32.9177 33.5473 32.4862 33.546C32.2933 33.5467 32.2933 33.5467 32.0965 33.5474C31.9792 33.5468 31.8619 33.5461 31.741 33.5454C31.588 33.5453 31.588 33.5453 31.4318 33.5452C31.1717 33.5157 31.1717 33.5157 30.8202 33.2813C30.7055 32.9461 30.677 32.7672 30.7982 32.4317C31.0487 32.0625 31.3084 32.0942 31.7262 32.0922Z" fill="#6B38B2"/>
<path d="M31.6827 27.506C31.7701 27.5062 31.8575 27.5065 31.9475 27.5068C32.0855 27.5059 32.0855 27.5059 32.2264 27.505C32.5316 27.5034 32.8368 27.5035 33.142 27.5038C33.3537 27.5033 33.5653 27.5028 33.777 27.5023C34.221 27.5014 34.665 27.5014 35.109 27.502C35.6785 27.5027 36.2481 27.5007 36.8177 27.498C37.2549 27.4963 37.6921 27.4962 38.1293 27.4965C38.3393 27.4965 38.5493 27.4959 38.7594 27.4947C39.0528 27.4932 39.3462 27.494 39.6397 27.4954C39.7269 27.4945 39.814 27.4936 39.9037 27.4927C40.2475 27.4962 40.4882 27.499 40.7775 27.6951C40.9657 27.9983 40.9358 28.2464 40.8988 28.5937C40.606 28.8865 40.4291 28.8575 40.0294 28.8625C39.9409 28.8623 39.8525 28.8622 39.7613 28.8621C39.6215 28.8633 39.6215 28.8633 39.4789 28.8645C39.1699 28.8667 38.8609 28.8672 38.5519 28.8675C38.3376 28.8682 38.1233 28.869 37.9091 28.8698C37.4596 28.8712 37.01 28.8717 36.5605 28.8715C35.9838 28.8715 35.4072 28.8747 34.8305 28.8787C34.3879 28.8813 33.9453 28.8818 33.5026 28.8817C33.29 28.882 33.0773 28.883 32.8647 28.8848C32.5676 28.8871 32.2705 28.8864 31.9734 28.885C31.8852 28.8863 31.7969 28.8877 31.706 28.889C31.3183 28.8843 31.1102 28.8795 30.8205 28.6094C30.6664 28.2801 30.7045 28.1131 30.8207 27.7734C31.1124 27.4818 31.2847 27.5101 31.6827 27.506Z" fill="#6B38B2"/>
</svg>
