<svg width="21" height="21" viewBox="0 0 21 21" fill="none" xmlns="http://www.w3.org/2000/svg">
<path d="M6.664 17.5C6.272 17.5 5.93833 17.3624 5.663 17.087C5.38767 16.8117 5.25 16.4783 5.25 16.0869V5.25004H4.375V4.37504H7.875V3.70129H13.125V4.37504H16.625V5.25004H15.75V16.0869C15.75 16.4894 15.6152 16.8257 15.3457 17.0958C15.0763 17.3659 14.7397 17.5006 14.336 17.5H6.664ZM14.875 5.25004H6.125V16.0869C6.125 16.2438 6.17546 16.3728 6.27637 16.4737C6.37729 16.5746 6.5065 16.625 6.664 16.625H14.3369C14.471 16.625 14.5944 16.569 14.707 16.457C14.8196 16.345 14.8756 16.2214 14.875 16.086V5.25004ZM8.582 14.875H9.457V7.00004H8.582V14.875ZM11.543 14.875H12.418V7.00004H11.543V14.875Z" fill="#D85A5A"/>
</svg>
