<svg width="18" height="18" viewBox="0 0 18 18" fill="none" xmlns="http://www.w3.org/2000/svg">
<g clip-path="url(#clip0_296_1949)">
<path d="M0 13.5H11.25V14.25H0V13.5ZM0 16.5H9V15.75H0V16.5ZM9 9H0V9.75H9V9ZM0 7.5H11.25V6.75H0V7.5ZM18 15.375C18 16.8225 16.8225 18 15.375 18C13.9275 18 12.75 16.8225 12.75 15.375C12.75 13.9275 13.9275 12.75 15.375 12.75C16.8225 12.75 18 13.9275 18 15.375ZM17.25 15.375C17.25 14.3415 16.4092 13.5 15.375 13.5C14.3407 13.5 13.5 14.3415 13.5 15.375C13.5 16.4085 14.3407 17.25 15.375 17.25C16.4092 17.25 17.25 16.4085 17.25 15.375ZM18 8.625C18 10.0725 16.8225 11.25 15.375 11.25C13.9275 11.25 12.75 10.0725 12.75 8.625C12.75 7.1775 13.9275 6 15.375 6C16.8225 6 18 7.1775 18 8.625ZM17.25 8.625C17.25 7.5915 16.4092 6.75 15.375 6.75C14.3407 6.75 13.5 7.5915 13.5 8.625C13.5 9.6585 14.3407 10.5 15.375 10.5C16.4092 10.5 17.25 9.6585 17.25 8.625ZM18 1.875V4.5H0V1.875C0 0.8415 0.84075 0 1.875 0H16.125C17.1592 0 18 0.8415 18 1.875ZM17.25 1.875C17.25 1.25475 16.7452 0.75 16.125 0.75H1.875C1.25475 0.75 0.75 1.25475 0.75 1.875V3.75H17.25V1.875Z" fill="#6B38B2"/>
</g>
<defs>
<clipPath id="clip0_296_1949">
<rect width="18" height="18" fill="white"/>
</clipPath>
</defs>
</svg>
