<svg width="18" height="18" viewBox="0 0 18 18" fill="none" xmlns="http://www.w3.org/2000/svg">
<path d="M15.75 6.74996V13.5C15.75 14.0967 15.5129 14.669 15.091 15.091C14.669 15.5129 14.0967 15.75 13.5 15.75H3.75C3.15326 15.75 2.58097 15.5129 2.15901 15.091C1.73705 14.669 1.5 14.0967 1.5 13.5V6.74996C1.5 5.91746 1.95 5.18996 2.625 4.79996L8.625 1.33496L14.625 4.79996C15.3 5.18996 15.75 5.91746 15.75 6.74996ZM2.79 5.60246L8.625 9.37496L14.46 5.60246L8.625 2.19746L2.79 5.60246ZM8.625 10.2825L2.3475 6.20996C2.2875 6.37496 2.25 6.56246 2.25 6.74996V13.5C2.25 13.8978 2.40804 14.2793 2.68934 14.5606C2.97064 14.8419 3.35218 15 3.75 15H13.5C13.8978 15 14.2794 14.8419 14.5607 14.5606C14.842 14.2793 15 13.8978 15 13.5V6.74996C15 6.56246 14.9625 6.37496 14.9025 6.20996L8.625 10.2825Z" fill="#6B38B2"/>
</svg>
