<svg width="20" height="17" viewBox="0 0 20 17" fill="none" xmlns="http://www.w3.org/2000/svg">
<path d="M7.16667 1.17172C8.05587 0.889207 8.98367 0.746945 9.91667 0.75005C13.7502 0.75005 16.359 3.04172 17.9146 5.06205C18.6938 6.07588 19.0833 6.58097 19.0833 8.08338C19.0833 9.58672 18.6938 10.0918 17.9146 11.1047C16.359 13.125 13.7502 15.4167 9.91667 15.4167C6.08317 15.4167 3.47433 13.125 1.91875 11.1047C1.13958 10.0927 0.75 9.5858 0.75 8.08338C0.75 6.58005 1.13958 6.07497 1.91875 5.06205C2.39404 4.4413 2.92318 3.8637 3.5 3.33597" stroke="#C0C0C0" stroke-width="1.5" stroke-linecap="round"/>
<path d="M12.6666 8.0835C12.6666 8.81284 12.3769 9.51232 11.8612 10.028C11.3454 10.5438 10.646 10.8335 9.91663 10.8335C9.18728 10.8335 8.48781 10.5438 7.97208 10.028C7.45636 9.51232 7.16663 8.81284 7.16663 8.0835C7.16663 7.35415 7.45636 6.65468 7.97208 6.13895C8.48781 5.62323 9.18728 5.3335 9.91663 5.3335C10.646 5.3335 11.3454 5.62323 11.8612 6.13895C12.3769 6.65468 12.6666 7.35415 12.6666 8.0835Z" stroke="#C0C0C0" stroke-width="1.5"/>
</svg>
