<svg width="24" height="24" viewBox="0 0 24 24" fill="none" xmlns="http://www.w3.org/2000/svg">
<path d="M11.98 19.094C11.786 19.094 11.5937 19.0587 11.403 18.988C11.2123 18.918 11.0447 18.8104 10.9 18.665L9.752 17.63C7.972 16.0134 6.402 14.441 5.042 12.913C3.68067 11.3857 3 9.79802 3 8.15002C3 6.87802 3.432 5.81002 4.296 4.94602C5.16 4.08202 6.228 3.65002 7.5 3.65002C8.22933 3.65002 8.989 3.83436 9.779 4.20302C10.569 4.57169 11.3093 5.26702 12 6.28902C12.6913 5.26702 13.4317 4.57169 14.221 4.20302C15.0103 3.83436 15.77 3.65002 16.5 3.65002C17.772 3.65002 18.84 4.08202 19.704 4.94602C20.568 5.81002 21 6.87802 21 8.15002C21 9.83602 20.2917 11.4567 18.875 13.012C17.4583 14.5674 15.9077 16.108 14.223 17.634L13.081 18.665C12.9357 18.8104 12.7647 18.918 12.568 18.988C12.3713 19.058 12.1757 19.0934 11.981 19.094M11.511 7.32702C10.9123 6.36169 10.29 5.67402 9.644 5.26402C8.998 4.85469 8.28333 4.65002 7.5 4.65002C6.5 4.65002 5.66667 4.98336 5 5.65002C4.33333 6.31669 4 7.15002 4 8.15002C4 8.88869 4.209 9.64602 4.627 10.422C5.045 11.1987 5.60633 11.994 6.311 12.808C7.015 13.6214 7.82467 14.454 8.74 15.306C9.654 16.1574 10.606 17.0337 11.596 17.935C11.7113 18.0377 11.846 18.089 12 18.089C12.154 18.089 12.2887 18.0377 12.404 17.935C13.394 17.0337 14.3463 16.157 15.261 15.305C16.1757 14.4544 16.9853 13.622 17.69 12.808C18.394 11.9934 18.955 11.198 19.373 10.422C19.791 9.64602 20 8.88869 20 8.15002C20 7.15002 19.6667 6.31669 19 5.65002C18.3333 4.98336 17.5 4.65002 16.5 4.65002C15.7167 4.65002 15.002 4.85502 14.356 5.26502C13.7093 5.67436 13.087 6.36169 12.489 7.32702C12.4357 7.41702 12.3643 7.48436 12.275 7.52902C12.1857 7.57369 12.094 7.59602 12 7.59602C11.906 7.59602 11.8143 7.57369 11.725 7.52902C11.6357 7.48436 11.5647 7.41702 11.512 7.32702" fill="#6B38B2"/>
</svg>
