<svg width="18" height="18" viewBox="0 0 18 18" fill="none" xmlns="http://www.w3.org/2000/svg">
<path d="M12.9375 5.27344L17.9912 7.80469V14.6777L12.9375 17.209L7.875 14.6953V11.874L5.0625 13.2715L0 10.7578L0.00878906 3.86719L5.0625 1.33594L10.1162 3.86719L10.125 6.68848L12.9375 5.27344ZM16.1719 8.14746L12.9375 6.53906L9.70312 8.14746L12.9375 9.76465L16.1719 8.14746ZM8.29688 4.20996L5.0625 2.60156L1.82812 4.20996L5.0625 5.82715L8.29688 4.20996ZM1.13379 5.12402L1.125 10.0547L4.5 11.7334V6.80273L1.13379 5.12402ZM5.625 11.7334L7.88379 10.6172V7.80469L9 7.25098L8.99121 5.12402L5.625 6.80273V11.7334ZM9.00879 9.06152L9 13.9922L12.375 15.6709V10.7402L9.00879 9.06152ZM13.5 15.6709L16.8662 13.9834V9.06152L13.5 10.7402V15.6709Z" fill="#6B38B2"/>
</svg>
