<svg width="15" height="15" viewBox="0 0 15 15" fill="none" xmlns="http://www.w3.org/2000/svg">
<path d="M7.60688 8.91563V6.86625H14.5125C14.58 7.22312 14.615 7.64563 14.615 8.10312C14.615 9.64062 14.195 11.5419 12.84 12.8963C11.5225 14.2681 9.83938 15 7.60938 15C3.47563 15 0 11.6331 0 7.5C0 3.36688 3.47563 0 7.60938 0C9.89625 0 11.525 0.8975 12.7487 2.06687L11.3025 3.5125C10.425 2.68937 9.23563 2.04938 7.60688 2.04938C4.58875 2.04938 2.22812 4.48187 2.22812 7.5C2.22812 10.5181 4.58875 12.9506 7.60688 12.9506C9.56437 12.9506 10.6794 12.1644 11.3937 11.45C11.9731 10.8706 12.3544 10.0431 12.5044 8.91313L7.60688 8.91563Z" fill="#6B38B2"/>
</svg>
