<svg width="25" height="24" viewBox="0 0 25 24" fill="none" xmlns="http://www.w3.org/2000/svg">
<g clip-path="url(#clip0_1_13570)">
<path d="M12.4038 14.9949C10.6912 14.9949 9.30286 16.3382 9.30286 17.9953V23.9962H15.5048V17.9953C15.5048 16.3382 14.1164 14.9949 12.4038 14.9949Z" fill="#6B38B2"/>
<path d="M17.5721 17.9953V23.9962H21.7067C23.4193 23.9962 24.8077 22.6529 24.8077 20.9958V11.8734C24.8079 11.3538 24.5992 10.8545 24.2257 10.4812L15.4418 1.2928C13.8919 -0.329785 11.276 -0.42941 9.59908 1.07025C9.51942 1.14151 9.44267 1.21573 9.36907 1.2928L0.600569 10.4782C0.215759 10.8531 -0.000145284 11.3601 7.33488e-08 11.8884V20.9958C7.33488e-08 22.6529 1.38836 23.9962 3.10096 23.9962H7.23556V17.9953C7.25489 15.2681 9.53056 13.041 12.2782 12.9769C15.1177 12.9106 17.5505 15.1756 17.5721 17.9953Z" fill="#6B38B2"/>
<path d="M12.4038 14.9949C10.6912 14.9949 9.30286 16.3382 9.30286 17.9953V23.9962H15.5048V17.9953C15.5048 16.3382 14.1164 14.9949 12.4038 14.9949Z" fill="#6B38B2"/>
</g>
<defs>
<clipPath id="clip0_1_13570">
<rect width="24.8077" height="24.0036" fill="white"/>
</clipPath>
</defs>
</svg>
