<svg width="24" height="24" viewBox="0 0 24 24" fill="none" xmlns="http://www.w3.org/2000/svg">
<path d="M23.121 9.04763L15.536 1.46163C14.5973 0.525615 13.3257 0 12 0C10.6744 0 9.40277 0.525615 8.46401 1.46163L0.879012 9.04763C0.599438 9.32541 0.377782 9.65593 0.226895 10.02C0.0760072 10.3841 -0.0011104 10.7745 1.20795e-05 11.1686V20.9856C1.20795e-05 21.7813 0.316083 22.5443 0.878692 23.1069C1.4413 23.6696 2.20436 23.9856 3.00001 23.9856H21C21.7957 23.9856 22.5587 23.6696 23.1213 23.1069C23.6839 22.5443 24 21.7813 24 20.9856V11.1686C24.0011 10.7745 23.924 10.3841 23.7731 10.02C23.6222 9.65593 23.4006 9.32541 23.121 9.04763ZM15.5355 22.4786H8.46448V18.0516C8.46448 17.256 8.93739 16.4929 9.5 15.9303C10.0626 15.3677 11.2044 14.5161 12 14.5161C12.7957 14.5161 13.9374 15.3677 14.5 15.9303C15.0626 16.4929 15.5355 17.256 15.5355 18.0516V22.4786ZM22.5 20.9786C22.5 21.2439 22.1875 21.7911 22 21.9786C21.8125 22.1662 21.2652 22.4786 21 22.4786H17L17 18.0516C17 16.7255 16.4732 15.4538 15.5355 14.5161C14.5979 13.5784 13.3261 13.0516 12 13.0516C10.6739 13.0516 9.40216 13.5784 8.46448 14.5161C7.5268 15.4538 7.00001 16.7255 7.00001 18.0516L7 22.4786H3C2.73478 22.4786 2.18754 22.1662 2 21.9786C1.81246 21.7911 1.78075 21.2508 1.78075 20.9856L1.78075 11.1686C1.78168 10.9036 1.81319 10.1666 2 9.97864L9 2.97864C9.5637 2.41757 11.2047 1.47864 12 1.47864C12.7953 1.47864 13.9363 1.91757 14.5 2.47864L22 9.97864C22.1861 10.1659 22.4983 10.9046 22.5 11.1686L22.5 20.9786Z" fill="#A1A1A1"/>
</svg>
