<svg width="17" height="17" viewBox="0 0 17 17" fill="none" xmlns="http://www.w3.org/2000/svg">
<path d="M3 5.63625C3 2.93775 5.3505 0.75 8.25 0.75C11.1495 0.75 13.5 2.93775 13.5 5.63625C13.5 8.31375 11.8245 11.4375 9.21 12.555C8.90631 12.6837 8.57984 12.7501 8.25 12.7501C7.92016 12.7501 7.59369 12.6837 7.29 12.555C4.6755 11.4375 3 8.313 3 5.63625Z" stroke="#6B38B2" stroke-width="1.5"/>
<path d="M9.75 6C9.75 6.39782 9.59196 6.77936 9.31066 7.06066C9.02936 7.34196 8.64782 7.5 8.25 7.5C7.85218 7.5 7.47064 7.34196 7.18934 7.06066C6.90804 6.77936 6.75 6.39782 6.75 6C6.75 5.60218 6.90804 5.22064 7.18934 4.93934C7.47064 4.65804 7.85218 4.5 8.25 4.5C8.64782 4.5 9.02936 4.65804 9.31066 4.93934C9.59196 5.22064 9.75 5.60218 9.75 6Z" stroke="#6B38B2" stroke-width="1.5"/>
<path d="M14.97 10.875C15.4695 11.3265 15.75 11.8365 15.75 12.375C15.75 14.2387 12.3922 15.75 8.25 15.75C4.10775 15.75 0.75 14.2387 0.75 12.375C0.75 11.8365 1.0305 11.3265 1.53 10.875" stroke="#6B38B2" stroke-width="1.5" stroke-linecap="round"/>
</svg>
