<svg width="34" height="34" viewBox="0 0 34 34" fill="none" xmlns="http://www.w3.org/2000/svg">
<path d="M9.51996 23.5733C9.88065 23.4681 10.2684 23.5105 10.5978 23.6912C10.9272 23.8718 11.1714 24.176 11.2766 24.5367C11.3818 24.8974 11.3394 25.2851 11.1588 25.6145C10.9781 25.944 10.674 26.1881 10.3133 26.2933C9.60496 26.5002 9.09496 26.7183 8.76771 26.9167C9.10488 27.1192 9.63754 27.3459 10.377 27.557C12.0133 28.0245 14.355 28.3333 17 28.3333C19.6449 28.3333 21.9866 28.0245 23.6229 27.557C24.3638 27.3459 24.895 27.1192 25.2322 26.9167C24.9064 26.7183 24.3964 26.5002 23.688 26.2933C23.333 26.1835 23.0354 25.9386 22.8593 25.6113C22.6832 25.2841 22.6427 24.9007 22.7466 24.5439C22.8504 24.1871 23.0904 23.8854 23.4146 23.7039C23.7389 23.5223 24.1215 23.4754 24.48 23.5733C25.4263 23.8496 26.2933 24.2037 26.9591 24.6585C27.5754 25.0821 28.3333 25.8202 28.3333 26.9167C28.3333 28.0259 27.557 28.7697 26.9308 29.1933C26.2536 29.6494 25.3682 30.005 24.4006 30.2812C22.4485 30.8408 19.8333 31.1667 17 31.1667C14.1666 31.1667 11.5515 30.8408 9.59929 30.2812C8.63171 30.005 7.74629 29.6494 7.06913 29.1933C6.44296 28.7682 5.66663 28.0259 5.66663 26.9167C5.66663 25.8202 6.42454 25.0821 7.04079 24.6585C7.70663 24.2037 8.57363 23.8496 9.51996 23.5733ZM17 10.625C14.8183 10.625 13.4555 12.9866 14.5463 14.875C15.052 15.7519 15.987 16.2917 17 16.2917C19.1816 16.2917 20.5445 13.9301 19.4536 12.0417C19.205 11.611 18.8473 11.2533 18.4166 11.0046C17.9859 10.7559 17.4973 10.625 17 10.625Z" fill="#6B38B2"/>
<path opacity="0.3" d="M17 2.83325C19.8179 2.83325 22.5204 3.95267 24.513 5.94524C26.5056 7.93782 27.625 10.6403 27.625 13.4583C27.625 17.0963 25.6417 20.0543 23.5875 22.1566C22.7709 22.9838 21.8934 23.7486 20.9624 24.4445C20.1209 25.0763 18.1971 26.2607 18.1971 26.2607C17.8322 26.4681 17.4197 26.5771 17 26.5771C16.5803 26.5771 16.1678 26.4681 15.8029 26.2607C14.8482 25.707 13.925 25.1007 13.0376 24.4445C12.1066 23.7486 11.2291 22.9838 10.4125 22.1566C8.35833 20.0543 6.375 17.0963 6.375 13.4583C6.375 10.6403 7.49442 7.93782 9.48699 5.94524C11.4796 3.95267 14.1821 2.83325 17 2.83325Z" fill="#6B38B2"/>
</svg>
