<svg width="18" height="18" viewBox="0 0 18 18" fill="none" xmlns="http://www.w3.org/2000/svg">
<path d="M13.0799 6.99742H12.2549V4.79992C12.2549 3.93664 11.912 3.10872 11.3016 2.49829C10.6911 1.88786 9.8632 1.54492 8.99992 1.54492C8.13664 1.54492 7.30872 1.88786 6.69829 2.49829C6.08786 3.10872 5.74492 3.93664 5.74492 4.79992V6.99742H4.91992C4.42264 6.99742 3.94573 7.19497 3.5941 7.5466C3.24247 7.89823 3.04492 8.37514 3.04492 8.87242V14.5799C3.04631 15.0768 3.2443 15.5529 3.59563 15.9042C3.94696 16.2555 4.42307 16.4535 4.91992 16.4549H13.0799C13.5768 16.4535 14.0529 16.2555 14.4042 15.9042C14.7555 15.5529 14.9535 15.0768 14.9549 14.5799V8.87242C14.9549 8.37514 14.7574 7.89823 14.4057 7.5466C14.0541 7.19497 13.5772 6.99742 13.0799 6.99742ZM6.49492 4.79992C6.49492 4.13555 6.75884 3.4984 7.22862 3.02862C7.6984 2.55884 8.33555 2.29492 8.99992 2.29492C9.66429 2.29492 10.3014 2.55884 10.7712 3.02862C11.241 3.4984 11.5049 4.13555 11.5049 4.79992V6.99742H6.49492V4.79992ZM14.2049 14.5799C14.203 14.8777 14.0838 15.1627 13.8732 15.3732C13.6627 15.5838 13.3777 15.703 13.0799 15.7049H4.91992C4.62216 15.703 4.33715 15.5838 4.1266 15.3732C3.91604 15.1627 3.79689 14.8777 3.79492 14.5799V8.87242C3.79492 8.57405 3.91345 8.2879 4.12443 8.07693C4.33541 7.86595 4.62155 7.74742 4.91992 7.74742H13.0799C13.3783 7.74742 13.6644 7.86595 13.8754 8.07693C14.0864 8.2879 14.2049 8.57405 14.2049 8.87242V14.5799Z" fill="#6B38B2"/>
<path d="M9.75001 11.2129C9.75076 11.3441 9.71638 11.4731 9.65044 11.5865C9.58449 11.6999 9.4894 11.7936 9.37501 11.8579V12.9829C9.37501 13.0823 9.3355 13.1777 9.26518 13.2481C9.19485 13.3184 9.09947 13.3579 9.00001 13.3579C8.90056 13.3579 8.80517 13.3184 8.73485 13.2481C8.66452 13.1777 8.62501 13.0823 8.62501 12.9829V11.8579C8.51063 11.7936 8.41553 11.6999 8.34959 11.5865C8.28364 11.4731 8.24926 11.3441 8.25001 11.2129C8.25001 11.014 8.32903 10.8232 8.46968 10.6826C8.61033 10.5419 8.8011 10.4629 9.00001 10.4629C9.19892 10.4629 9.38969 10.5419 9.53034 10.6826C9.67099 10.8232 9.75001 11.014 9.75001 11.2129Z" fill="#6B38B2"/>
</svg>
