<svg width="60" height="60" viewBox="0 0 60 60" fill="none" xmlns="http://www.w3.org/2000/svg">
<path d="M21.5925 22.4852L28.26 11.4802C28.4767 11.1285 28.7367 10.8827 29.04 10.7427C29.3433 10.6027 29.6633 10.5327 30 10.5327C30.3367 10.5327 30.6567 10.6027 30.96 10.7427C31.2633 10.8827 31.5233 11.1285 31.74 11.4802L38.4075 22.4852C38.6258 22.8219 38.735 23.1752 38.735 23.5452C38.735 23.9152 38.6467 24.256 38.47 24.5677C38.2933 24.8794 38.0567 25.1252 37.76 25.3052C37.4633 25.4852 37.115 25.576 36.715 25.5777H23.285C22.8833 25.5777 22.5317 25.4852 22.23 25.3002C21.9283 25.1152 21.695 24.871 21.53 24.5677C21.3533 24.2677 21.265 23.9344 21.265 23.5677C21.265 23.201 21.3733 22.8402 21.59 22.4852M43.75 53.0777C41.1383 53.0777 38.9308 52.1761 37.1275 50.3727C35.3242 48.5694 34.4225 46.3619 34.4225 43.7502C34.4225 41.1385 35.3242 38.931 37.1275 37.1277C38.9308 35.3244 41.1383 34.4227 43.75 34.4227C46.3617 34.4227 48.5692 35.3244 50.3725 37.1277C52.1758 38.931 53.0775 41.1385 53.0775 43.7502C53.0775 46.3619 52.1758 48.5694 50.3725 50.3727C48.5692 52.1761 46.3617 53.0777 43.75 53.0777ZM9.425 49.8052V37.6802C9.425 37.1085 9.6175 36.631 10.0025 36.2477C10.3908 35.8644 10.8708 35.6727 11.4425 35.6727H23.5675C24.1408 35.6727 24.6192 35.866 25.0025 36.2527C25.3858 36.641 25.5775 37.1219 25.5775 37.6952V49.8202C25.5775 50.3919 25.3833 50.8694 24.995 51.2527C24.6083 51.636 24.1283 51.8277 23.555 51.8277H11.43C10.8583 51.8277 10.3808 51.6335 9.9975 51.2452C9.61417 50.8585 9.425 50.3786 9.425 49.8052ZM43.7475 50.5777C45.6592 50.5777 47.2758 49.9177 48.5975 48.5977C49.9192 47.2777 50.5792 45.6619 50.5775 43.7502C50.5758 41.8385 49.9158 40.2227 48.5975 38.9027C47.2792 37.5827 45.6633 36.9227 43.75 36.9227C41.8367 36.9227 40.2208 37.5827 38.9025 38.9027C37.5842 40.2227 36.9242 41.8385 36.9225 43.7502C36.9208 45.6619 37.5808 47.2777 38.9025 48.5977C40.2242 49.9177 41.8392 50.5777 43.7475 50.5777ZM11.9225 49.3277H23.0775V38.1727H11.9225V49.3277ZM24.0675 23.0777H35.9325L30 13.5677L24.0675 23.0777Z" fill="#6B38B2"/>
</svg>
