<svg width="26" height="25" viewBox="0 0 26 25" fill="none" xmlns="http://www.w3.org/2000/svg">
<path d="M13.5 12.7157L15.6571 14.028C15.8431 14.1452 16.0299 14.1357 16.2177 13.9996C16.4045 13.8627 16.4743 13.6793 16.4269 13.4494L15.8547 11.012L17.7535 9.38063C17.9343 9.2196 17.9903 9.0336 17.9214 8.82263C17.8525 8.61165 17.7001 8.4954 17.4641 8.47388L14.9635 8.24783L13.9818 5.94738C13.8905 5.73813 13.7299 5.6335 13.5 5.6335C13.2701 5.6335 13.1095 5.73813 13.0182 5.94738L12.0365 8.24654L9.53588 8.47388C9.30079 8.4954 9.14838 8.61165 9.07863 8.82263C9.00887 9.0336 9.06485 9.2196 9.24654 9.38063L11.1453 11.012L10.5744 13.4481C10.5262 13.6789 10.5955 13.8627 10.7823 13.9996C10.9692 14.1365 11.1565 14.146 11.3442 14.028L13.5 12.7157ZM5.84946 18.9583L3.64846 21.1593C3.3221 21.4857 2.94493 21.5606 2.51696 21.3841C2.08899 21.2076 1.875 20.8868 1.875 20.4218V2.96233C1.875 2.36731 2.07435 1.87088 2.47304 1.47304C2.87174 1.07521 3.36817 0.875861 3.96233 0.875H23.039C23.6331 0.875 24.1296 1.07435 24.5283 1.47304C24.9269 1.87174 25.1259 2.36817 25.125 2.96233V16.8723C25.125 17.4665 24.9261 17.9629 24.5283 18.3616C24.1304 18.7603 23.634 18.9592 23.039 18.9583H5.84946ZM5.29792 17.6667H23.039C23.237 17.6667 23.4191 17.584 23.5853 17.4187C23.7515 17.2533 23.8342 17.0712 23.8333 16.8723V2.96104C23.8333 2.76299 23.7507 2.58086 23.5853 2.41467C23.42 2.24847 23.2379 2.16581 23.039 2.16667H3.96104C3.76299 2.16667 3.58086 2.24933 3.41467 2.41467C3.24847 2.58 3.16581 2.76212 3.16667 2.96104V19.7915L5.29792 17.6667Z" fill="#9C7ACB"/>
</svg>
