<svg width="24" height="24" viewBox="0 0 24 24" fill="none" xmlns="http://www.w3.org/2000/svg">
<path d="M4.29159 3.28048C4.36084 3.28025 4.43009 3.27995 4.49934 3.27957C4.68878 3.27877 4.87821 3.27904 5.06765 3.27949C5.27229 3.2798 5.47693 3.2791 5.68157 3.27854C6.08215 3.27761 6.48272 3.27761 6.88329 3.27796C7.20895 3.27824 7.53461 3.27819 7.86027 3.27791C7.90666 3.27787 7.95304 3.27783 8.00084 3.27779C8.09507 3.27771 8.18931 3.27763 8.28355 3.27755C9.1669 3.27683 10.0503 3.27721 10.9336 3.27794C11.7413 3.27857 12.549 3.27794 13.3567 3.27669C14.1865 3.27542 15.0164 3.27495 15.8462 3.27536C15.9402 3.2754 16.0341 3.27545 16.128 3.27549C16.1973 3.27552 16.1973 3.27552 16.268 3.27555C16.5931 3.27564 16.9182 3.27522 17.2433 3.27459C17.6398 3.27383 18.0362 3.27384 18.4326 3.27482C18.6348 3.2753 18.8369 3.27544 19.0391 3.27463C19.2244 3.2739 19.4096 3.27419 19.5949 3.27525C19.6617 3.27546 19.7285 3.27531 19.7953 3.27475C20.3154 3.27072 20.7682 3.3658 21.1811 3.7013C21.5721 4.08727 21.706 4.49732 21.7098 5.03619C21.7095 5.09231 21.7093 5.14843 21.709 5.20625C21.7092 5.26729 21.7094 5.32832 21.7097 5.38936C21.7103 5.55628 21.7102 5.7232 21.7098 5.89013C21.7096 6.07046 21.7102 6.2508 21.7106 6.43113C21.7114 6.78413 21.7114 7.13711 21.7112 7.4901C21.711 7.77709 21.7111 8.06407 21.7113 8.35105C21.7113 8.39193 21.7113 8.43281 21.7114 8.47493C21.7114 8.55798 21.7115 8.64104 21.7116 8.72409C21.7122 9.50258 21.7119 10.2811 21.7114 11.0595C21.711 11.7713 21.7116 12.483 21.7126 13.1948C21.7137 13.9261 21.7141 14.6575 21.7138 15.3888C21.7136 15.7992 21.7137 16.2096 21.7145 16.6199C21.7151 16.9693 21.7152 17.3187 21.7144 17.668C21.714 17.8461 21.7139 18.0243 21.7146 18.2024C21.7152 18.3657 21.715 18.529 21.7142 18.6923C21.7139 18.7788 21.7145 18.8654 21.7152 18.952C21.711 19.4679 21.5849 19.8913 21.2163 20.2643C21.0932 20.3668 20.9693 20.4507 20.8268 20.5239C20.7863 20.5452 20.7863 20.5452 20.7449 20.5668C20.4056 20.7246 20.0744 20.7214 19.7083 20.7193C19.639 20.7195 19.5698 20.7198 19.5005 20.7202C19.3111 20.721 19.1216 20.7207 18.9322 20.7202C18.7276 20.7199 18.5229 20.7206 18.3183 20.7212C17.9177 20.7221 17.5171 20.7221 17.1165 20.7218C16.7909 20.7215 16.4652 20.7216 16.1396 20.7218C16.0932 20.7219 16.0468 20.7219 15.999 20.7219C15.9048 20.722 15.8105 20.7221 15.7163 20.7222C14.8329 20.7229 13.9496 20.7225 13.0662 20.7218C12.2585 20.7212 11.4509 20.7218 10.6432 20.723C9.81331 20.7243 8.98346 20.7248 8.1536 20.7244C8.05968 20.7243 7.96577 20.7243 7.87185 20.7243C7.80255 20.7242 7.80255 20.7242 7.73184 20.7242C7.40673 20.7241 7.08163 20.7245 6.75652 20.7251C6.36008 20.7259 5.96365 20.7259 5.56722 20.7249C5.36506 20.7244 5.16293 20.7243 4.96078 20.7251C4.77548 20.7258 4.59022 20.7256 4.40493 20.7245C4.33813 20.7243 4.27134 20.7244 4.20455 20.725C3.68441 20.729 3.23166 20.6339 2.81873 20.2984C2.42771 19.9125 2.29383 19.5024 2.29005 18.9635C2.29031 18.9074 2.29057 18.8513 2.29084 18.7935C2.29066 18.7325 2.29042 18.6714 2.29013 18.6104C2.28951 18.4435 2.28969 18.2765 2.29001 18.1096C2.29022 17.9293 2.28967 17.7489 2.28923 17.5686C2.28849 17.2156 2.28845 16.8626 2.28868 16.5096C2.28885 16.2227 2.28879 15.9357 2.28856 15.6487C2.28853 15.6078 2.28849 15.5669 2.28846 15.5248C2.28839 15.4418 2.28833 15.3587 2.28826 15.2756C2.28767 14.4972 2.2879 13.7187 2.2884 12.9402C2.28883 12.2284 2.28827 11.5167 2.28723 10.8049C2.28618 10.0736 2.28576 9.34228 2.28605 8.61094C2.2862 8.20056 2.28611 7.79018 2.28535 7.37979C2.28471 7.03043 2.28468 6.68108 2.28544 6.33172C2.2858 6.15359 2.2859 5.97547 2.28524 5.79733C2.28464 5.63403 2.28484 5.47076 2.28568 5.30746C2.28592 5.22089 2.28531 5.13433 2.28467 5.04776C2.28886 4.53182 2.41495 4.10844 2.78358 3.73545C2.90666 3.63295 3.03056 3.54901 3.173 3.47583C3.20004 3.46166 3.22708 3.44749 3.25494 3.43289C3.59422 3.27512 3.92546 3.27835 4.29159 3.28048ZM3.173 4.38448C2.87398 4.98625 2.87398 4.98625 2.99992 6.63448C8.93992 6.63448 14.8799 6.63448 20.9999 6.63448C21.1386 4.97064 21.1386 4.97064 20.7836 4.34121C20.5042 4.09284 20.2707 3.98434 19.8914 3.98405C19.8636 3.98391 19.8358 3.98377 19.8071 3.98363C19.7141 3.98327 19.621 3.98353 19.528 3.98378C19.4605 3.98365 19.3931 3.98348 19.3257 3.98328C19.1404 3.98283 18.9552 3.98293 18.77 3.98311C18.5702 3.98322 18.3704 3.98283 18.1706 3.98251C17.7792 3.98195 17.3878 3.98188 16.9964 3.98198C16.6783 3.98206 16.3601 3.98198 16.042 3.9818C15.9968 3.98177 15.9515 3.98174 15.9049 3.98172C15.8129 3.98167 15.721 3.98161 15.6291 3.98156C14.7666 3.98109 13.9042 3.98118 13.0418 3.98145C12.2527 3.98167 11.4637 3.98118 10.6746 3.98036C9.86449 3.97952 9.05439 3.97917 8.24429 3.97933C7.78943 3.97941 7.33458 3.9793 6.87972 3.97869C6.49249 3.97818 6.10527 3.97811 5.71804 3.97864C5.52047 3.97889 5.32291 3.97894 5.12534 3.97842C4.94443 3.97795 4.76354 3.97809 4.58263 3.97869C4.51723 3.97881 4.45183 3.9787 4.38644 3.97836C3.89107 3.97592 3.53006 4.01369 3.173 4.38448ZM2.99992 7.32679C2.99546 9.28121 2.991 11.2356 2.9864 13.2493C2.98443 13.8665 2.98246 14.4838 2.98043 15.1198C2.97971 15.6728 2.97971 15.6728 2.97927 16.2258C2.97907 16.4722 2.97828 16.7186 2.97708 16.9651C2.9757 17.2494 2.97508 17.5337 2.97538 17.8181C2.97551 17.9635 2.97518 18.1089 2.97413 18.2543C2.97305 18.4102 2.97331 18.5661 2.97391 18.7221C2.97328 18.7671 2.97264 18.8121 2.972 18.8585C2.97512 19.1652 3.04107 19.4036 3.21627 19.6585C3.47863 19.9115 3.74208 20.0154 4.10845 20.0157C4.13626 20.0158 4.16407 20.016 4.19272 20.0161C4.28577 20.0165 4.37881 20.0162 4.47186 20.016C4.5393 20.0161 4.60674 20.0163 4.67418 20.0165C4.85941 20.0169 5.04463 20.0168 5.22986 20.0166C5.42966 20.0165 5.62947 20.0169 5.82927 20.0172C6.22067 20.0178 6.61207 20.0179 7.00347 20.0178C7.32159 20.0177 7.6397 20.0178 7.95782 20.0179C8.00308 20.018 8.04834 20.018 8.09497 20.018C8.18691 20.0181 8.27884 20.0181 8.37078 20.0182C9.23321 20.0186 10.0956 20.0186 10.958 20.0183C11.7471 20.0181 12.5362 20.0186 13.3253 20.0194C14.1354 20.0202 14.9455 20.0206 15.7556 20.0204C16.2104 20.0203 16.6653 20.0204 17.1201 20.021C17.5073 20.0216 17.8946 20.0216 18.2818 20.0211C18.4794 20.0208 18.6769 20.0208 18.8745 20.0213C19.0554 20.0218 19.2363 20.0217 19.4172 20.021C19.4826 20.0209 19.548 20.021 19.6134 20.0214C20.0473 20.0235 20.4249 20.0118 20.7549 19.6954C21.0061 19.4154 21.0247 19.0868 21.0207 18.7273C21.0209 18.6785 21.021 18.6297 21.0212 18.5794C21.0215 18.416 21.0205 18.2527 21.0196 18.0893C21.0194 17.9701 21.0195 17.851 21.0196 17.7318C21.0197 17.4452 21.0189 17.1587 21.0178 16.8722C21.0166 16.5405 21.0164 16.2089 21.0163 15.8772C21.0154 15.0022 21.013 14.1271 21.0107 13.252C21.0054 10.319 21.0054 10.319 20.9999 7.32679C15.0599 7.32679 9.11992 7.32679 2.99992 7.32679Z" fill="#6B38B2"/>
<path d="M16.2296 8.30036C16.2606 8.29969 16.2916 8.29902 16.3235 8.29833C16.548 8.29998 16.6767 8.34979 16.8462 8.49507C17.0494 8.71904 17.0408 8.91714 17.0301 9.2036C17.0293 9.24371 17.0286 9.28381 17.0278 9.32513C17.0257 9.42349 17.0229 9.52175 17.0193 9.62007C17.0451 9.61975 17.071 9.61944 17.0976 9.61912C17.4679 9.61649 17.771 9.64 18.0666 9.88475C18.279 10.1073 18.3728 10.353 18.3877 10.6585C18.3728 10.9635 18.2804 11.2136 18.0635 11.4323C17.7402 11.6927 17.4207 11.7101 17.0193 11.697C17.0202 11.7218 17.0211 11.7467 17.0221 11.7723C17.0257 11.886 17.0279 11.9997 17.0301 12.1135C17.0316 12.1526 17.033 12.1917 17.0345 12.2319C17.0382 12.4814 17.0151 12.625 16.8462 12.822C16.6212 13.0301 16.4219 13.0602 16.122 13.0551C15.827 13.0201 15.5596 12.8941 15.2885 12.7787C15.2392 12.7578 15.1898 12.737 15.1389 12.7155C14.7842 12.5653 14.4303 12.413 14.077 12.2595C14.0764 12.2971 14.0764 12.2971 14.0758 12.3355C14.0734 12.4499 14.0698 12.5643 14.0662 12.6787C14.0656 12.7181 14.065 12.7576 14.0643 12.7982C14.0576 12.982 14.0492 13.098 13.956 13.2596C13.8264 13.3705 13.7602 13.3676 13.5968 13.3569C13.4829 13.3352 13.4199 13.2962 13.3414 13.2114C13.2956 13.0739 13.2932 12.9766 13.2939 12.8323C13.2941 12.7839 13.2942 12.7355 13.2944 12.6857C13.2947 12.6352 13.2951 12.5847 13.2955 12.5326C13.2957 12.4816 13.2958 12.4306 13.296 12.3781C13.2966 12.252 13.2973 12.1259 13.2982 11.9999C13.2584 12.0019 13.2187 12.0039 13.1778 12.006C12.5931 12.0232 12.5931 12.0232 12.3462 11.8268C12.1452 11.6366 12.0148 11.4524 11.9861 11.1707C11.9829 11.0339 11.9801 10.8972 11.9793 10.7604C11.9785 10.673 11.9758 10.5858 11.973 10.4984C11.9701 10.13 12.0118 9.8602 12.2597 9.5768C12.5022 9.38397 12.6953 9.31577 13.0072 9.31745C13.5801 9.31345 14.0237 9.13135 14.5367 8.8926C14.6166 8.85661 14.6966 8.82075 14.7766 8.78502C14.9235 8.71934 15.0699 8.65279 15.2161 8.58553C15.8638 8.29227 15.8638 8.29227 16.2296 8.30036ZM15.8606 9.08908C15.8219 9.1054 15.7832 9.12172 15.7433 9.13853C15.7023 9.15638 15.6614 9.17423 15.6191 9.19262C15.5552 9.21983 15.5552 9.21983 15.4899 9.2476C15.3541 9.30552 15.2186 9.36408 15.083 9.42265C14.9911 9.46194 14.8993 9.50118 14.8073 9.54037C14.417 9.70238 14.417 9.70238 14.0337 9.87968C14.0337 10.3937 14.0337 10.9078 14.0337 11.4374C14.3452 11.5765 14.6567 11.7156 14.9688 11.8535C15.0903 11.9072 15.2118 11.961 15.3331 12.0152C15.4442 12.0647 15.5556 12.1135 15.6671 12.1621C15.6992 12.1766 15.7313 12.1911 15.7644 12.206C15.7945 12.219 15.8247 12.2319 15.8558 12.2453C15.8812 12.2565 15.9066 12.2677 15.9328 12.2792C16.0573 12.3154 16.0573 12.3154 16.327 12.3028C16.327 11.2176 16.327 10.1324 16.327 9.0143C16.0765 9.01317 16.0765 9.01317 15.8606 9.08908ZM12.7779 10.0906C12.6572 10.2814 12.6605 10.4371 12.6653 10.6585C12.6645 10.697 12.6637 10.7355 12.6628 10.7752C12.6642 10.962 12.6764 11.066 12.7779 11.2264C12.9382 11.3418 12.9382 11.3418 13.2982 11.3076C13.2982 10.8792 13.2982 10.4508 13.2982 10.0095C12.9382 9.97528 12.9382 9.97528 12.7779 10.0906ZM17.0193 10.3556C17.0193 10.5555 17.0193 10.7555 17.0193 10.9614C17.3394 10.9956 17.3394 10.9956 17.6143 10.8695C17.6813 10.7153 17.6801 10.6437 17.6251 10.4855C17.5291 10.3932 17.4737 10.3581 17.3405 10.343C17.2832 10.3452 17.2832 10.3452 17.2248 10.3475C17.1231 10.3515 17.1231 10.3515 17.0193 10.3556Z" fill="#6B38B2"/>
<path d="M6.53098 14.3092C6.62136 14.3092 6.71174 14.3091 6.80212 14.3089C6.99073 14.3088 7.17932 14.3094 7.36792 14.3106C7.60876 14.3121 7.84955 14.3118 8.09038 14.311C8.27673 14.3105 8.46307 14.3109 8.64942 14.3116C8.73819 14.3118 8.82696 14.3118 8.91573 14.3115C9.80285 14.3098 9.80285 14.3098 10.1396 14.5095C10.1869 14.5372 10.2342 14.5648 10.2829 14.5933C10.6703 14.8907 10.9514 15.2765 11.0248 15.7673C11.0325 15.9046 11.0339 16.0402 11.0322 16.1777C11.0323 16.2273 11.0324 16.2768 11.0325 16.3279C11.0324 16.4317 11.0319 16.5354 11.0308 16.6392C11.0293 16.7979 11.0299 16.9564 11.0307 17.1151C11.0304 17.2164 11.03 17.3177 11.0295 17.419C11.0297 17.4662 11.0299 17.5134 11.0301 17.562C11.026 17.827 11.0093 17.9858 10.8319 18.1874C10.6614 18.3372 10.5201 18.3658 10.2969 18.3668C10.2488 18.3671 10.2006 18.3674 10.151 18.3678C10.0717 18.3679 10.0717 18.3679 9.99078 18.3681C9.93512 18.3684 9.87946 18.3687 9.82211 18.369C9.63744 18.3699 9.45277 18.3703 9.2681 18.3708C9.20447 18.3709 9.14084 18.3711 9.07721 18.3713C8.77823 18.3721 8.47925 18.3727 8.18028 18.3731C7.83544 18.3735 7.49061 18.3747 7.14577 18.3764C6.87906 18.3777 6.61235 18.3784 6.34563 18.3785C6.18642 18.3786 6.02721 18.379 5.868 18.3801C5.69025 18.3813 5.51253 18.3811 5.33478 18.3808C5.28226 18.3813 5.22974 18.3819 5.17563 18.3825C4.88803 18.3807 4.70297 18.3636 4.4713 18.1874C4.27087 17.9345 4.27279 17.7036 4.27523 17.3889C4.27507 17.3415 4.2749 17.2941 4.27473 17.2452C4.27461 17.1451 4.27493 17.0451 4.27565 16.945C4.27658 16.793 4.27566 16.6412 4.27456 16.4892C4.27467 16.3916 4.27489 16.294 4.27523 16.1963C4.27488 16.1515 4.27453 16.1066 4.27417 16.0604C4.28073 15.5411 4.45625 15.1506 4.80629 14.7747C5.30456 14.294 5.88183 14.3045 6.53098 14.3092ZM5.20687 15.3749C4.77098 16.074 4.99053 16.8003 4.99053 17.6681C6.74682 17.6681 8.50312 17.6681 10.3126 17.6681C10.4508 16.489 10.4508 16.489 10.0352 15.3044C9.63799 14.9612 9.18381 14.9983 8.68971 15.003C8.60773 15.0031 8.52574 15.0031 8.44376 15.003C8.2726 15.0031 8.10147 15.0039 7.93032 15.0053C7.7116 15.007 7.49291 15.0072 7.27419 15.0069C7.10514 15.0067 6.93609 15.0072 6.76704 15.008C6.68641 15.0083 6.60579 15.0084 6.52516 15.0084C6.41231 15.0085 6.2995 15.0094 6.18666 15.0106C6.15379 15.0104 6.12092 15.0103 6.08705 15.0102C5.73625 15.0157 5.45538 15.1207 5.20687 15.3749Z" fill="#6B38B2"/>
<path d="M9.02394 9.70833C9.51206 10.0525 9.87216 10.5773 9.99226 11.1668C10.082 11.8926 9.97887 12.5252 9.53371 13.1249C9.51324 13.1533 9.49277 13.1817 9.47168 13.2109C9.13568 13.6402 8.58128 13.9336 8.04768 14.0214C7.33787 14.0965 6.64519 13.928 6.07758 13.4819C5.56324 12.9922 5.30148 12.3673 5.2771 11.6673C5.2891 10.9783 5.54343 10.4328 6.00811 9.93701C6.84596 9.15195 8.07479 9.11636 9.02394 9.70833ZM6.31167 10.6996C6.06331 11.0314 5.97065 11.4088 5.99222 11.8238C6.05748 12.2626 6.26119 12.6542 6.5914 12.9518C7.02759 13.2679 7.44252 13.3414 7.97602 13.298C8.42324 13.2039 8.78482 12.9425 9.04558 12.5702C9.31431 12.113 9.36845 11.6624 9.24621 11.1467C9.09436 10.7085 8.73462 10.3442 8.32217 10.1393C7.55256 9.84599 6.83088 10.0716 6.31167 10.6996Z" fill="#6B38B2"/>
<path d="M15.9561 14.6325C16.0119 14.6321 16.0119 14.6321 16.0689 14.6318C16.1922 14.6312 16.3155 14.6309 16.4387 14.6306C16.5244 14.6304 16.61 14.6301 16.6957 14.6299C16.8753 14.6294 17.0549 14.6292 17.2345 14.629C17.4646 14.6288 17.6948 14.6278 17.9249 14.6265C18.1018 14.6257 18.2787 14.6255 18.4556 14.6254C18.5405 14.6253 18.6253 14.625 18.7102 14.6244C18.8289 14.6236 18.9475 14.6237 19.0662 14.624C19.1188 14.6234 19.1188 14.6234 19.1724 14.6228C19.3707 14.6243 19.5015 14.6446 19.6586 14.7692C19.7247 14.9015 19.7119 15.0128 19.7019 15.1587C19.6257 15.2965 19.5937 15.3245 19.4422 15.375C19.3203 15.3796 19.1994 15.3818 19.0774 15.382C19.0216 15.3823 19.0216 15.3823 18.9646 15.3826C18.8413 15.3833 18.7181 15.3836 18.5948 15.3838C18.5091 15.384 18.4235 15.3843 18.3379 15.3845C18.1583 15.385 17.9786 15.3853 17.799 15.3854C17.5689 15.3856 17.3388 15.3867 17.1086 15.3879C16.9317 15.3887 16.7548 15.3889 16.5779 15.389C16.4931 15.3891 16.4082 15.3895 16.3234 15.3901C16.2047 15.3908 16.086 15.3907 15.9673 15.3904C15.9323 15.3908 15.8972 15.3912 15.8611 15.3916C15.6628 15.3902 15.532 15.3699 15.3749 15.2452C15.3088 15.1129 15.3216 15.0016 15.3317 14.8558C15.4732 14.5996 15.6926 14.6328 15.9561 14.6325Z" fill="#6B38B2"/>
<path d="M15.9306 17.294C15.9687 17.2936 16.0068 17.2933 16.0461 17.2929C16.1717 17.2919 16.2973 17.2926 16.4229 17.2933C16.5104 17.2931 16.5978 17.2929 16.6853 17.2927C16.8685 17.2923 17.0516 17.2928 17.2348 17.2938C17.4695 17.295 17.7041 17.2943 17.9389 17.293C18.1194 17.2923 18.2999 17.2925 18.4805 17.2931C18.567 17.2932 18.6536 17.293 18.7401 17.2925C18.8611 17.292 18.982 17.2928 19.103 17.294C19.1387 17.2936 19.1744 17.2931 19.2112 17.2927C19.3945 17.2961 19.4659 17.3069 19.6161 17.4223C19.7019 17.5384 19.7019 17.5384 19.7263 17.6925C19.6983 17.8633 19.6676 17.9141 19.5288 18.0143C19.354 18.0686 19.1801 18.0643 18.9986 18.0646C18.9627 18.0648 18.9268 18.065 18.8898 18.0652C18.7712 18.0658 18.6526 18.0661 18.534 18.0664C18.4514 18.0666 18.3689 18.0669 18.2863 18.0671C18.1132 18.0676 17.9402 18.0678 17.7671 18.068C17.5456 18.0682 17.324 18.0693 17.1025 18.0705C16.932 18.0713 16.7614 18.0715 16.5909 18.0716C16.5092 18.0717 16.4276 18.0721 16.3459 18.0726C16.2316 18.0734 16.1173 18.0733 16.0029 18.073C15.9693 18.0734 15.9357 18.0738 15.9011 18.0742C15.6939 18.0726 15.5505 18.039 15.375 17.9278C15.3071 17.792 15.3165 17.6881 15.3317 17.5384C15.5067 17.2996 15.6554 17.2906 15.9306 17.294Z" fill="#6B38B2"/>
<path d="M14.3571 16.6428C14.5097 16.6729 14.5097 16.6729 14.6179 16.7378C14.709 16.8896 14.7218 17.0223 14.6828 17.1921C14.5942 17.3284 14.4816 17.4348 14.364 17.5462C14.3316 17.5783 14.2991 17.6104 14.2657 17.6434C14.1621 17.7453 14.0574 17.846 13.9526 17.9466C13.8824 18.0155 13.8123 18.0844 13.7422 18.1534C13.6141 18.279 13.4858 18.4044 13.3565 18.5288C13.3306 18.5538 13.3046 18.5788 13.2779 18.6046C13.1889 18.6835 13.1292 18.7058 13.0115 18.7282C12.7867 18.6949 12.6769 18.5602 12.5193 18.4037C12.4772 18.3627 12.4351 18.3216 12.3929 18.2806C12.0059 17.9007 12.0059 17.9007 11.9839 17.6735C11.9865 17.5312 11.9947 17.5019 12.0867 17.3841C12.2208 17.3199 12.3163 17.2956 12.4644 17.3208C12.6831 17.4198 12.8386 17.621 12.9953 17.7979C13.1773 17.6493 13.3433 17.4943 13.5049 17.3236C13.5414 17.2854 13.5779 17.2472 13.6155 17.2079C13.6911 17.1284 13.766 17.0484 13.8403 16.9678C14.15 16.6471 14.15 16.6471 14.3571 16.6428Z" fill="#6B38B2"/>
<path d="M14.5095 13.9905C14.615 14.0554 14.615 14.0554 14.6826 14.1635C14.7098 14.3397 14.7229 14.4466 14.6256 14.599C14.5417 14.6957 14.4537 14.7854 14.362 14.8748C14.3291 14.9079 14.2962 14.941 14.2623 14.9752C14.1927 15.0448 14.1227 15.114 14.0522 15.1828C13.9446 15.2883 13.8388 15.3953 13.7331 15.5027C13.6652 15.5702 13.5972 15.6377 13.529 15.705C13.4975 15.737 13.4659 15.7691 13.4334 15.8021C13.2088 16.0186 13.2088 16.0186 12.9996 16.0471C12.8587 16.023 12.8063 16.0035 12.7057 15.9051C12.6633 15.8638 12.6633 15.8638 12.6201 15.8216C12.5701 15.7719 12.5701 15.7719 12.5191 15.7212C12.4735 15.6804 12.4277 15.6397 12.3817 15.5992C12.0238 15.2752 12.0238 15.2752 11.9622 15.0866C11.9582 14.9414 11.9663 14.8545 12.0584 14.7396C12.1784 14.644 12.282 14.6421 12.4326 14.6395C12.6582 14.7523 12.8225 14.9352 12.9951 15.1155C13.2533 14.902 13.4876 14.6698 13.7226 14.4313C13.7958 14.357 13.8691 14.2828 13.9425 14.2087C13.9745 14.1761 14.0066 14.1435 14.0396 14.11C14.1888 13.9687 14.3077 13.9731 14.5095 13.9905Z" fill="#6B38B2"/>
<path d="M19.026 9.11182C19.2885 9.16613 19.4056 9.33653 19.5579 9.54687C19.8672 10.025 19.9569 10.5518 19.8452 11.1115C19.76 11.4172 19.6363 11.6633 19.4424 11.9135C19.4103 11.9563 19.3782 11.9992 19.3451 12.0433C19.2325 12.172 19.1912 12.1723 19.0151 12.1893C18.8699 12.1872 18.8451 12.1803 18.7285 12.0812C18.6521 11.9347 18.6463 11.8606 18.6636 11.6972C18.7347 11.5859 18.7347 11.5859 18.8285 11.4754C19.0669 11.163 19.1734 10.8528 19.1206 10.4586C19.054 10.1711 18.903 9.93201 18.7216 9.70237C18.6359 9.58102 18.6399 9.50562 18.6636 9.36061C18.7738 9.20695 18.8407 9.15299 19.026 9.11182Z" fill="#6B38B2"/>
<path d="M14.4588 4.93945C14.524 4.93862 14.524 4.93862 14.5906 4.93777C14.6377 4.93745 14.6849 4.93713 14.7334 4.9368C14.7818 4.93645 14.8301 4.9361 14.8799 4.93574C14.9824 4.93514 15.0849 4.93468 15.1873 4.93434C15.344 4.93359 15.5007 4.9317 15.6574 4.92979C15.7569 4.92935 15.8563 4.92898 15.9558 4.92869C16.0027 4.92793 16.0496 4.92717 16.0979 4.92639C16.4227 4.92733 16.4227 4.92733 16.5934 5.02686C16.6965 5.14782 16.7162 5.22119 16.7162 5.3798C16.6468 5.5325 16.5976 5.58869 16.4566 5.68269C16.3587 5.69397 16.3587 5.69397 16.2427 5.69457C16.1775 5.69519 16.1775 5.69519 16.111 5.69582C16.0641 5.69578 16.0171 5.69574 15.9688 5.6957C15.9205 5.69589 15.8722 5.69607 15.8225 5.69626C15.7203 5.69651 15.6181 5.69653 15.5159 5.69635C15.3596 5.69621 15.2033 5.69722 15.047 5.69832C14.9477 5.69842 14.8484 5.69845 14.7492 5.69841C14.679 5.699 14.679 5.699 14.6075 5.69961C14.1993 5.6971 14.1993 5.6971 14.0335 5.55288C13.9666 5.4191 13.9775 5.31082 13.9903 5.16346C14.1321 4.98377 14.2361 4.94192 14.4588 4.93945Z" fill="#6B38B2"/>
<path d="M17.7907 4.93945C17.8559 4.93862 17.8559 4.93862 17.9225 4.93777C17.9696 4.93745 18.0168 4.93713 18.0653 4.9368C18.1137 4.93645 18.162 4.9361 18.2118 4.93574C18.3143 4.93514 18.4168 4.93468 18.5192 4.93434C18.6759 4.93359 18.8326 4.9317 18.9893 4.92979C19.0887 4.92935 19.1882 4.92898 19.2877 4.92869C19.3346 4.92793 19.3814 4.92717 19.4297 4.92639C19.7539 4.92733 19.7539 4.92733 19.9254 5.02534C20.0352 5.15643 20.0451 5.25399 20.0481 5.42307C20.0137 5.53892 19.9877 5.58 19.8852 5.64328C19.7729 5.68902 19.6901 5.69367 19.569 5.69389C19.5254 5.69416 19.4818 5.69443 19.4369 5.69471C19.39 5.69454 19.3432 5.69436 19.295 5.69418C19.2466 5.69426 19.1983 5.69435 19.1485 5.69443C19.0464 5.69449 18.9443 5.69433 18.8421 5.69397C18.6857 5.69351 18.5293 5.69397 18.3729 5.69452C18.2737 5.69446 18.1745 5.69435 18.0753 5.69418C18.0051 5.69444 18.0051 5.69444 17.9334 5.69471C17.868 5.6943 17.868 5.6943 17.8012 5.69389C17.7629 5.69382 17.7246 5.69375 17.6852 5.69368C17.5734 5.6818 17.5039 5.65493 17.4087 5.59615C17.318 5.4795 17.3224 5.41905 17.3303 5.26893C17.3643 5.12474 17.3783 5.07459 17.4952 4.99038C17.6013 4.93735 17.6721 4.94077 17.7907 4.93945Z" fill="#6B38B2"/>
</svg>
