<svg width="22" height="22" viewBox="0 0 22 22" fill="none" xmlns="http://www.w3.org/2000/svg">
<path d="M7.16049 8.91247C6.91346 8.91247 6.71296 9.11211 6.71296 9.35809V9.84917C4.95148 10.0711 3.58025 11.5559 3.58025 13.3687H3.13272C2.88568 13.3687 2.68519 13.5683 2.68519 13.8143C2.68519 14.0603 2.88568 14.2599 3.13272 14.2599H11.1883C11.4353 14.2599 11.6358 14.0603 11.6358 13.8143C11.6358 13.5683 11.4353 13.3687 11.1883 13.3687H10.7407C10.7407 11.5559 9.36951 10.0711 7.60802 9.84917V9.35809C7.60802 9.11211 7.40753 8.91247 7.16049 8.91247ZM9.84568 13.3687H4.47531C4.47531 11.8946 5.68006 10.695 7.16049 10.695C8.64093 10.695 9.84568 11.8946 9.84568 13.3687ZM21.4815 18.2456V20.9443C21.4815 21.1903 21.281 21.3899 21.034 21.3899C20.7869 21.3899 20.5864 21.1903 20.5864 20.9443V18.2456C20.5864 17.0567 19.9232 15.9872 18.8545 15.456L17.2532 14.6583C17.1019 14.5826 17.0062 14.4284 17.0062 14.2599V10.695C17.0062 10.2039 16.6052 9.80371 16.1111 9.80371C15.617 9.80371 15.216 10.2039 15.216 10.695V16.4997C15.216 16.9301 15.0173 17.1075 14.8509 17.1797C14.4535 17.3544 14.091 17.0228 13.8744 16.8258C13.673 16.644 13.3982 16.3829 13.3982 16.3829C13.0285 16.0139 12.4369 15.9382 12.0583 16.2109C11.5561 16.5496 11.4944 17.3098 11.9276 17.7242L14.8016 20.6431C14.9744 20.8186 14.9708 21.1012 14.7945 21.2732C14.6181 21.4461 14.3353 21.4425 14.1617 21.2669L11.2912 18.3508C10.4722 17.5718 10.5948 16.1253 11.5347 15.4872C12.2588 14.9667 13.3669 15.0888 14.0229 15.7457C14.0229 15.7457 14.1742 15.8883 14.3174 16.0211L14.3201 10.6941C14.3201 9.71102 15.123 8.91158 16.1102 8.91158C17.0975 8.91158 17.9003 9.71102 17.9003 10.6941V13.9837L19.2546 14.6574C20.6276 15.341 21.4806 16.7162 21.4806 18.2447L21.4815 18.2456ZM17.4537 0H4.02778C1.80713 0 0 1.79943 0 4.01061V15.5968C0 17.808 1.80713 19.6074 4.02778 19.6074H8.50309C8.75012 19.6074 8.95062 19.4078 8.95062 19.1618C8.95062 18.9158 8.75012 18.7162 8.50309 18.7162H4.02778C2.30031 18.7162 0.895062 17.3169 0.895062 15.5968V7.12997H20.5864V12.9231C20.5864 13.1691 20.7869 13.3687 21.034 13.3687C21.281 13.3687 21.4815 13.1691 21.4815 12.9231V4.01061C21.4815 1.79943 19.6744 0 17.4537 0ZM0.895062 6.23873V4.01061C0.895062 2.2905 2.30031 0.891247 4.02778 0.891247H17.4537C19.1812 0.891247 20.5864 2.2905 20.5864 4.01061V6.23873H0.895062ZM4.47531 3.56499C4.47531 4.05696 4.07432 4.45623 3.58025 4.45623C3.08617 4.45623 2.68519 4.05696 2.68519 3.56499C2.68519 3.07302 3.08617 2.67374 3.58025 2.67374C4.07432 2.67374 4.47531 3.07302 4.47531 3.56499ZM7.16049 3.56499C7.16049 4.05696 6.75951 4.45623 6.26543 4.45623C5.77136 4.45623 5.37037 4.05696 5.37037 3.56499C5.37037 3.07302 5.77136 2.67374 6.26543 2.67374C6.75951 2.67374 7.16049 3.07302 7.16049 3.56499ZM9.84568 3.56499C9.84568 4.05696 9.44469 4.45623 8.95062 4.45623C8.45654 4.45623 8.05556 4.05696 8.05556 3.56499C8.05556 3.07302 8.45654 2.67374 8.95062 2.67374C9.44469 2.67374 9.84568 3.07302 9.84568 3.56499Z" fill="#BBA3DC"/>
</svg>
