<svg width="22" height="22" viewBox="0 0 22 22" fill="none" xmlns="http://www.w3.org/2000/svg">
<path d="M13.2598 19.0625C13.048 19.3177 12.7938 19.5363 12.5068 19.708C12.0515 19.9804 11.5306 20.1236 11 20.124C10.4696 20.1234 9.9493 19.9803 9.49414 19.708C9.20717 19.5363 8.95298 19.3177 8.74121 19.0625H13.2598ZM11 1.875C11.894 1.875 12.7468 2.52921 13.0684 3.60547L13.0986 3.70801L13.168 3.78809C13.2165 3.84469 13.2747 3.89245 13.3398 3.92871L13.3652 3.94238L13.3926 3.9541C14.2416 4.30341 14.8917 4.75202 15.3896 5.31445L15.5947 5.5625C16.3008 6.48395 16.6826 7.74277 16.6826 9.34082C16.6826 10.9806 16.8259 12.0303 17.1162 12.8311C17.3369 13.4397 17.6366 13.8838 17.9707 14.3076L18.3145 14.7295C18.3674 14.7934 18.4649 14.9127 18.5244 14.9844C18.6477 15.1333 18.7265 15.3149 18.75 15.5068C18.7734 15.6986 18.7409 15.8932 18.6572 16.0674V16.0684C18.478 16.4429 18.0967 16.6865 17.6387 16.6865H4.36621C3.90371 16.6865 3.52062 16.4411 3.34277 16.0664L3.3418 16.0654L3.28906 15.9307C3.24619 15.7936 3.23325 15.6485 3.25098 15.5049C3.27466 15.3132 3.35234 15.132 3.47559 14.9834L3.47852 14.9795C3.54796 14.8942 3.61615 14.8122 3.68555 14.7285H3.68652C4.15696 14.1607 4.59065 13.6423 4.88477 12.8311C5.17509 12.0302 5.31836 10.9795 5.31836 9.33887C5.31841 7.9349 5.59962 6.81946 6.13574 5.94824C6.66908 5.08158 7.47899 4.41714 8.6084 3.95215L8.63574 3.94043L8.66113 3.92676C8.72334 3.89213 8.77987 3.84716 8.82715 3.79395L8.90039 3.71094L8.93164 3.60449C9.25311 2.52929 10.106 1.87511 11 1.875Z" stroke="#BBA3DC"/>
</svg>
