<svg width="23" height="26" viewBox="0 0 23 26" fill="none" xmlns="http://www.w3.org/2000/svg">
<path d="M11.75 0.5V2.24512L12.1992 2.29102C14.2334 2.49805 16.1186 3.45238 17.4902 4.96875C18.776 6.39031 19.5245 8.21139 19.6152 10.1182L19.625 10.501V13.8447L19.7715 13.9912L22.1396 16.3604C22.21 16.4306 22.25 16.5256 22.25 16.625V19.25C22.25 19.3495 22.211 19.4453 22.1406 19.5156C22.0703 19.586 21.9745 19.625 21.875 19.625H15.25V21C15.25 22.0277 14.8419 23.0135 14.1152 23.7402C13.3885 24.4669 12.4027 24.875 11.375 24.875C10.3473 24.875 9.36147 24.4669 8.63477 23.7402C7.90806 23.0135 7.5 22.0277 7.5 21V19.625H0.875C0.775543 19.625 0.6797 19.586 0.609375 19.5156C0.539049 19.4453 0.5 19.3495 0.5 19.25V16.625L0.506836 16.5518C0.521229 16.4796 0.557549 16.4131 0.610352 16.3604L2.97852 13.9912L3.125 13.8447V10.501C3.12756 8.45638 3.88825 6.4851 5.25977 4.96875C6.63135 3.45238 8.51663 2.49805 10.5508 2.29102L11 2.24512V0.5H11.75ZM8.25 21C8.25 21.8288 8.57899 22.6239 9.16504 23.21C9.75109 23.796 10.5462 24.125 11.375 24.125C12.2038 24.125 12.9989 23.796 13.585 23.21C14.171 22.6239 14.5 21.8288 14.5 21V19.625H8.25V21Z" stroke="#BBBEC6"/>
</svg>
