<svg width="24" height="26" viewBox="0 0 24 26" fill="none" xmlns="http://www.w3.org/2000/svg">
<path d="M11.9176 0C9.4422 0 7.06823 0.98333 5.31789 2.73367C3.56755 4.48401 2.58422 6.85798 2.58422 9.33333V14.0373C2.58441 14.2442 2.53648 14.4482 2.44422 14.6333L0.154884 19.2107C0.0430523 19.4343 -0.00975351 19.6828 0.00148172 19.9326C0.0127169 20.1823 0.0876201 20.4251 0.219077 20.6378C0.350534 20.8505 0.53418 21.026 0.752573 21.1478C0.970966 21.2695 1.21685 21.3334 1.46688 21.3333H22.3682C22.6182 21.3334 22.8641 21.2695 23.0825 21.1478C23.3009 21.026 23.4846 20.8505 23.616 20.6378C23.7475 20.4251 23.8224 20.1823 23.8336 19.9326C23.8449 19.6828 23.792 19.4343 23.6802 19.2107L21.3922 14.6333C21.2995 14.4483 21.2511 14.2443 21.2509 14.0373V9.33333C21.2509 6.85798 20.2676 4.48401 18.5172 2.73367C16.7669 0.98333 14.3929 0 11.9176 0ZM11.9176 25.3333C11.09 25.3338 10.2827 25.0775 9.60691 24.5999C8.9311 24.1223 8.42006 23.4469 8.14422 22.6667H15.6909C15.415 23.4469 14.904 24.1223 14.2282 24.5999C13.5524 25.0775 12.7451 25.3338 11.9176 25.3333Z" fill="#6B38B2"/>
</svg>
