<svg width="23" height="21" viewBox="0 0 23 21" fill="none" xmlns="http://www.w3.org/2000/svg">
<path d="M2.12141 18.1406V5.57859L0.0547456 0.967767C-0.0154766 0.802708 -0.0181433 0.628179 0.0467456 0.444179C0.111634 0.260179 0.225412 0.131649 0.388079 0.0585905C0.550746 -0.0144683 0.72319 -0.018076 0.905412 0.0477671C1.08763 0.11361 1.21341 0.227708 1.28275 0.390061L3.56675 5.51094H19.3427L21.6267 0.391414C21.697 0.226355 21.8227 0.110905 22.0041 0.0450614C22.1863 -0.0207817 22.3587 -0.0144681 22.5214 0.0640025C22.6841 0.132552 22.7979 0.258826 22.8627 0.442826C22.9276 0.626826 22.925 0.801806 22.8547 0.967767L20.7881 5.57859V18.1406C20.7881 18.7414 20.577 19.2555 20.1547 19.683C19.7325 20.1105 19.2259 20.3247 18.6347 20.3256H4.27475C3.68275 20.3256 3.17608 20.1114 2.75475 19.683C2.33341 19.2546 2.1223 18.7396 2.12141 18.1406ZM8.78808 11.5329H14.1214C14.3107 11.5329 14.469 11.4679 14.5961 11.3381C14.7232 11.2082 14.7872 11.0472 14.7881 10.8551C14.789 10.6629 14.725 10.5024 14.5961 10.3734C14.4672 10.2444 14.309 10.1795 14.1214 10.1786H8.78808C8.59875 10.1786 8.44052 10.2435 8.31341 10.3734C8.1863 10.5033 8.1223 10.6643 8.12141 10.8564C8.12052 11.0485 8.18452 11.2091 8.31341 11.3381C8.4423 11.467 8.60052 11.5315 8.78808 11.5315" fill="#6B38B2"/>
</svg>
