<svg width="24" height="21" viewBox="0 0 24 21" fill="none" xmlns="http://www.w3.org/2000/svg">
<path d="M2.22239 18.7426V5.76432L0.0573516 1.00072C-0.0162133 0.830194 -0.0190069 0.649882 0.0489707 0.459785C0.116948 0.269689 0.236142 0.136901 0.406552 0.0614216C0.576962 -0.014058 0.757614 -0.0177852 0.94851 0.0502395C1.13941 0.118264 1.27117 0.236143 1.34381 0.403875L3.73653 5.69443H20.2635L22.6562 0.405272C22.7298 0.234745 22.8615 0.115469 23.0515 0.0474442C23.2424 -0.0205805 23.423 -0.0154558 23.5934 0.0628192C23.7639 0.136435 23.8831 0.268757 23.951 0.459785C24.019 0.650814 24.0162 0.831126 23.9426 1.00072L21.7776 5.76432V18.7426C21.7776 19.3669 21.5578 19.8995 21.1183 20.3403C20.6788 20.7801 20.1466 21 19.5218 21H4.47823C3.85432 21 3.32214 20.7801 2.88168 20.3403C2.44216 19.9004 2.22239 19.3679 2.22239 18.7426ZM9.2064 11.9145H14.7936C14.9929 11.9145 15.1591 11.8479 15.2923 11.7146C15.4254 11.5814 15.492 11.415 15.492 11.2156C15.492 11.0162 15.4254 10.8499 15.2923 10.7166C15.1591 10.5834 14.9929 10.5167 14.7936 10.5167H9.2064C9.00805 10.5167 8.84183 10.5834 8.70774 10.7166C8.57365 10.8499 8.50707 11.0162 8.508 11.2156C8.50893 11.415 8.57551 11.5814 8.70774 11.7146C8.83997 11.8479 9.00619 11.9145 9.2064 11.9145ZM4.47962 19.6022H19.5218C19.7723 19.6022 19.9781 19.5216 20.1392 19.3604C20.3003 19.1992 20.3808 18.9933 20.3808 18.7426V7.0922H3.61919V18.7426C3.61919 18.9933 3.69974 19.1992 3.86084 19.3604C4.02194 19.5216 4.2282 19.6022 4.47962 19.6022Z" fill="#A1A1A1"/>
</svg>
