<svg width="14" height="16" viewBox="0 0 14 16" fill="none" xmlns="http://www.w3.org/2000/svg">
<path d="M6.75 0C5.70571 0 4.70419 0.414843 3.96577 1.15327C3.22734 1.89169 2.8125 2.89321 2.8125 3.9375C2.8125 4.98179 3.22734 5.98331 3.96577 6.72173C4.70419 7.46016 5.70571 7.875 6.75 7.875C7.79429 7.875 8.79581 7.46016 9.53423 6.72173C10.2727 5.98331 10.6875 4.98179 10.6875 3.9375C10.6875 2.89321 10.2727 1.89169 9.53423 1.15327C8.79581 0.414843 7.79429 0 6.75 0ZM3.375 3.9375C3.375 3.04239 3.73058 2.18395 4.36351 1.55101C4.99645 0.918079 5.85489 0.5625 6.75 0.5625C7.64511 0.5625 8.50355 0.918079 9.13649 1.55101C9.76942 2.18395 10.125 3.04239 10.125 3.9375C10.125 4.83261 9.76942 5.69105 9.13649 6.32399C8.50355 6.95692 7.64511 7.3125 6.75 7.3125C5.85489 7.3125 4.99645 6.95692 4.36351 6.32399C3.73058 5.69105 3.375 4.83261 3.375 3.9375ZM1.96875 9C1.44661 9 0.945846 9.20742 0.576634 9.57663C0.207421 9.94585 0 10.4466 0 10.9688V11.3439C0 12.5533 1.55587 15.75 6.75 15.75C11.9441 15.75 13.5 12.5527 13.5 11.3439V10.9688C13.5 10.4466 13.2926 9.94585 12.9234 9.57663C12.5542 9.20742 12.0534 9 11.5312 9H1.96875ZM0.5625 10.9688C0.5625 10.5958 0.710658 10.2381 0.974381 9.97438C1.2381 9.71066 1.59579 9.5625 1.96875 9.5625H11.5312C11.9042 9.5625 12.2619 9.71066 12.5256 9.97438C12.7893 10.2381 12.9375 10.5958 12.9375 10.9688V11.3439C12.9375 12.1972 11.6803 15.1875 6.75 15.1875C1.81969 15.1875 0.5625 12.1972 0.5625 11.3439V10.9688Z" fill="#6B38B2"/>
</svg>
