<svg width="18" height="14" viewBox="0 0 18 14" fill="none" xmlns="http://www.w3.org/2000/svg">
<path d="M0 14V0H18V14H0ZM1 13H17V1H1V13ZM5.5 11.5H6.5V10.5H7.73C7.94867 10.5 8.13167 10.4263 8.279 10.279C8.42633 10.1317 8.5 9.949 8.5 9.731V7.269C8.5 7.051 8.42633 6.86833 8.279 6.721C8.13167 6.57367 7.949 6.5 7.731 6.5H4.5V4.5H8.5V3.5H6.5V2.5H5.5V3.5H4.27C4.05133 3.5 3.86833 3.57367 3.721 3.721C3.57367 3.86833 3.5 4.05133 3.5 4.27V6.732C3.5 6.95 3.57367 7.13267 3.721 7.28C3.86833 7.42733 4.051 7.501 4.269 7.501H7.5V9.501H3.5V10.501H5.5V11.5ZM13 10.98L14.539 9.442H11.46L13 10.98ZM11.462 4.808H14.539L13 3.269L11.462 4.808Z" fill="#6B38B2"/>
</svg>
