<svg width="18" height="18" viewBox="0 0 18 18" fill="none" xmlns="http://www.w3.org/2000/svg">
<path d="M17.0002 17.0002L13.0191 13.0191M13.0191 13.0191C13.7001 12.3381 14.2403 11.5297 14.6088 10.6399C14.9774 9.7502 15.167 8.79657 15.167 7.83352C15.167 6.87047 14.9774 5.91685 14.6088 5.0271C14.2403 4.13736 13.7001 3.32892 13.0191 2.64794C12.3381 1.96696 11.5297 1.42678 10.6399 1.05823C9.7502 0.689687 8.79657 0.5 7.83352 0.5C6.87047 0.5 5.91685 0.689687 5.0271 1.05823C4.13736 1.42678 3.32892 1.96696 2.64794 2.64794C1.27264 4.02324 0.5 5.88855 0.5 7.83352C0.5 9.77849 1.27264 11.6438 2.64794 13.0191C4.02324 14.3944 5.88855 15.167 7.83352 15.167C9.77849 15.167 11.6438 14.3944 13.0191 13.0191Z" stroke="#A1A1A1" stroke-linecap="round" stroke-linejoin="round"/>
</svg>
