<svg width="24" height="24" viewBox="0 0 24 24" fill="none" xmlns="http://www.w3.org/2000/svg">
<path fill-rule="evenodd" clip-rule="evenodd" d="M19.2857 9.42857C20.2276 9.42855 21.1479 9.14639 21.9279 8.61846C22.7079 8.09054 23.3119 7.34106 23.6621 6.46666C24.0122 5.59226 24.0923 4.63303 23.8922 3.71265C23.6921 2.79227 23.2209 1.95293 22.5393 1.30286C21.8577 0.652786 20.997 0.221782 20.0682 0.0654189C19.1394 -0.0909446 18.185 0.0345013 17.3281 0.425583C16.4713 0.816664 15.7512 1.45545 15.2608 2.25958C14.7703 3.06371 14.532 3.99631 14.5766 4.93715L7.71941 8.36572C7.03003 7.7958 6.19274 7.43377 5.30531 7.32189C4.41788 7.21 3.51693 7.35289 2.70767 7.73387C1.8984 8.11485 1.21422 8.71819 0.735013 9.47344C0.255804 10.2287 0.00134277 11.1047 0.00134277 11.9991C0.00134277 12.8936 0.255804 13.7696 0.735013 14.5249C1.21422 15.2801 1.8984 15.8834 2.70767 16.2644C3.51693 16.6454 4.41788 16.7883 5.30531 16.6764C6.19274 16.5645 7.03003 16.2025 7.71941 15.6326L14.5766 19.0611C14.5246 20.1588 14.8577 21.24 15.5182 22.1182C16.1788 22.9963 17.1254 23.616 18.1944 23.8704C19.2634 24.1247 20.3876 23.9977 21.3729 23.5111C22.3582 23.0246 23.1425 22.2092 23.5904 21.2058C24.0383 20.2024 24.1217 19.074 23.826 18.0157C23.5303 16.9574 22.8743 16.0356 21.9712 15.4096C21.0681 14.7836 19.9747 14.4928 18.8799 14.5873C17.7852 14.6819 16.7578 15.1559 15.9754 15.9274L9.38569 12.6343C9.44182 12.2133 9.44182 11.7867 9.38569 11.3657L15.9771 8.07086C16.8291 8.91086 17.9983 9.42857 19.2874 9.42857H19.2857Z" fill="#6B38B2"/>
</svg>
