<svg width="48" height="48" viewBox="0 0 48 48" fill="none" xmlns="http://www.w3.org/2000/svg">
<path d="M4.1117 2.98743C4.2569 2.9868 4.2569 2.9868 4.40505 2.98616C4.56581 2.98619 4.56581 2.98619 4.72981 2.98622C4.84303 2.98587 4.95624 2.98553 5.07288 2.98517C5.38813 2.98432 5.70337 2.98388 6.01862 2.98364C6.35823 2.98327 6.69783 2.98237 7.03743 2.98155C7.858 2.9797 8.67856 2.97876 9.49913 2.97792C9.88526 2.97751 10.2714 2.97701 10.6575 2.97652C11.9406 2.97492 13.2236 2.97356 14.5067 2.97289C14.8398 2.97271 15.1728 2.97253 15.5059 2.97234C15.6301 2.97227 15.6301 2.97227 15.7568 2.97221C17.0987 2.97143 18.4407 2.96905 19.7826 2.96601C21.1594 2.96291 22.5362 2.96122 23.913 2.96092C24.6864 2.96072 25.4598 2.95989 26.2332 2.9575C26.8917 2.95547 27.5501 2.95471 28.2086 2.95562C28.5447 2.95605 28.8808 2.95586 29.2169 2.95405C29.581 2.9521 29.9449 2.95305 30.309 2.95429C30.4157 2.95326 30.5225 2.95223 30.6325 2.95117C30.7784 2.95238 30.7784 2.95238 30.9273 2.95361C31.0113 2.95352 31.0954 2.95343 31.182 2.95333C31.4817 3.01572 31.5942 3.13721 31.7813 3.37501C31.8298 3.68703 31.8298 3.68703 31.8311 4.0547C31.8315 4.11987 31.8318 4.18504 31.8322 4.25218C31.8324 4.3896 31.8317 4.52703 31.8302 4.66444C31.8282 4.87439 31.8302 5.08403 31.8326 5.29396C31.8323 5.42775 31.8318 5.56154 31.8311 5.69533C31.8307 5.81666 31.8302 5.93799 31.8298 6.063C31.7739 6.42269 31.693 6.53372 31.4063 6.75001C31.0553 6.83708 30.744 6.79724 30.4278 6.62697C29.9137 6.07177 30.1875 5.17292 30.1875 4.50001C21.8035 4.50001 13.4194 4.50001 4.78129 4.50001C4.78129 17.37 4.78129 30.24 4.78129 43.5C10.9379 43.5 17.0944 43.5 23.4375 43.5C23.4375 41.4581 23.4375 39.4163 23.4375 37.3125C23.7188 36.8438 23.7188 36.8438 23.9063 36.75C24.1054 36.7414 24.3048 36.739 24.5042 36.7394C24.5655 36.7394 24.6268 36.7393 24.6899 36.7393C24.8928 36.7394 25.0957 36.7401 25.2986 36.7409C25.4392 36.741 25.5797 36.7412 25.7203 36.7413C26.0905 36.7416 26.4607 36.7425 26.8309 36.7436C27.2086 36.7445 27.5862 36.745 27.9639 36.7454C28.7051 36.7464 29.4463 36.748 30.1875 36.75C30.1861 36.6673 30.1846 36.5845 30.1831 36.4993C30.1783 36.1909 30.1747 35.8825 30.1721 35.5741C30.1707 35.4409 30.1688 35.3077 30.1663 35.1745C30.1629 34.9825 30.1613 34.7906 30.1601 34.5985C30.1586 34.4832 30.1571 34.3678 30.1556 34.2489C30.1902 33.9113 30.2654 33.7373 30.4688 33.4688C30.7622 33.3221 31.0886 33.3097 31.4063 33.375C31.7116 33.5982 31.7786 33.7388 31.8696 34.1111C32.1319 36.1363 32.0449 37.911 30.7908 39.5867C30.2074 40.3266 29.5677 41.0013 28.9014 41.6664C28.8246 41.7448 28.7479 41.8233 28.6688 41.9041C26.0123 44.6077 23.5093 45.6632 19.7263 45.7046C18.0837 45.7097 16.4499 45.639 14.8113 45.5291C13.5975 45.4494 12.3835 45.415 11.1678 45.3825C9.37833 45.3335 7.58983 45.2684 5.80279 45.1622C5.61188 45.1508 5.42094 45.1399 5.22998 45.1294C4.97011 45.1149 4.71041 45.0987 4.45068 45.0818C4.33704 45.0757 4.33704 45.0757 4.22111 45.0695C3.83039 45.0417 3.55618 45.0116 3.28129 44.7188C3.17293 44.3937 3.17435 44.1039 3.17522 43.7659C3.17503 43.6967 3.17483 43.6275 3.17464 43.5562C3.1741 43.3225 3.17424 43.0888 3.17437 42.8551C3.17413 42.6866 3.17385 42.5181 3.17353 42.3495C3.17277 41.885 3.1726 41.4205 3.17254 40.956C3.17236 40.4557 3.17165 39.9553 3.17102 39.4549C3.16975 38.3601 3.16918 37.2653 3.16877 36.1706C3.16851 35.4874 3.16812 34.8043 3.16769 34.1211C3.16655 32.2309 3.16558 30.3406 3.16527 28.4504C3.16525 28.3294 3.16523 28.2083 3.16521 28.0836C3.16518 27.9623 3.16516 27.841 3.16514 27.716C3.1651 27.4701 3.16506 27.2242 3.16502 26.9784C3.165 26.8564 3.16498 26.7344 3.16495 26.6088C3.16458 24.6316 3.16295 22.6544 3.16077 20.6772C3.15854 18.6487 3.15737 16.6203 3.15726 14.5919C3.15718 13.4524 3.15664 12.3129 3.15494 11.1734C3.1535 10.2033 3.15301 9.23315 3.15379 8.26304C3.15416 7.7678 3.15406 7.27257 3.15275 6.77733C3.15156 6.3243 3.15166 5.87129 3.15281 5.41827C3.15299 5.25405 3.1527 5.08983 3.15188 4.92561C3.15085 4.70297 3.15154 4.4804 3.15267 4.25777C3.15196 4.1935 3.15125 4.12924 3.15051 4.06302C3.15492 3.6631 3.22552 3.41255 3.46879 3.09376C3.70033 2.978 3.85264 2.98795 4.1117 2.98743ZM25.0313 38.25C25.0313 39.5803 25.0313 40.9106 25.0313 42.2813C25.5657 41.8255 25.5657 41.8255 26.0719 41.3466C26.1394 41.2794 26.2069 41.2121 26.2765 41.1429C26.3469 41.0722 26.4173 41.0016 26.4899 40.9288C26.5639 40.855 26.6379 40.7811 26.7141 40.7049C26.8692 40.5499 27.0241 40.3948 27.179 40.2395C27.4173 40.0007 27.656 39.7625 27.8949 39.5242C28.0457 39.3733 28.1965 39.2224 28.3473 39.0714C28.4191 38.9999 28.4909 38.9283 28.5648 38.8545C28.6303 38.7888 28.6957 38.723 28.7631 38.6553C28.8211 38.5972 28.8791 38.5392 28.9388 38.4794C29.0731 38.3628 29.0731 38.3628 29.0625 38.25C27.7322 38.25 26.4019 38.25 25.0313 38.25Z" fill="#6B38B2"/>
<path d="M36.5449 16.9029C36.7756 17.1069 36.9981 17.3165 37.2187 17.5313C37.3182 17.6237 37.3182 17.6237 37.4198 17.7181C39.061 19.2808 39.9141 21.5873 40.0484 23.8169C40.0728 24.9003 39.8867 25.9237 39.5441 26.9488C39.4593 27.1756 39.4593 27.1756 39.4687 27.375C39.5518 27.409 39.635 27.443 39.7206 27.478C40.0337 27.6062 40.3463 27.7354 40.6589 27.8649C40.7933 27.9204 40.9279 27.9757 41.0625 28.0307C42.7601 28.7244 43.891 29.3833 44.625 31.125C44.9833 32.1621 44.8564 33.2601 44.4345 34.2605C43.9869 35.1285 43.2998 35.7524 42.543 36.3505C42.2867 36.5581 42.0472 36.7765 41.8066 37.002C40.7457 37.9623 39.6821 38.331 38.2679 38.2823C37.1462 38.2113 36.2149 37.6721 35.455 36.8614C34.7952 36.0357 34.5383 35.0834 34.2832 34.0782C34.2492 33.9485 34.2153 33.8189 34.1812 33.6893C33.9375 32.754 33.9375 32.754 33.9375 32.5313C33.8436 32.5573 33.7497 32.5833 33.6529 32.61C33.5271 32.6444 33.4012 32.6787 33.2753 32.7129C33.2138 32.73 33.1522 32.7471 33.0888 32.7648C30.8955 33.359 28.6462 32.9176 26.6542 31.8985C24.431 30.6166 22.8795 28.6139 22.2103 26.1446C21.6441 23.7342 22.1124 21.2548 23.3671 19.1485C23.7666 18.5533 24.2483 18.0399 24.75 17.5313C24.8243 17.4558 24.8986 17.3802 24.9752 17.3024C28.0849 14.3272 33.2489 14.2112 36.5449 16.9029ZM26.4375 18.1875C26.3209 18.2813 26.3209 18.2813 26.202 18.3769C24.7556 19.6062 23.8839 21.2823 23.625 23.1563C23.488 25.2547 24.0228 27.2605 25.4168 28.8761C26.7644 30.3695 28.574 31.2792 30.5877 31.4213C32.6916 31.4939 34.7076 30.716 36.248 29.3007C37.5921 27.9931 38.323 26.0929 38.3883 24.238C38.4093 22.075 37.6696 20.1662 36.1527 18.6167C34.7373 17.2671 32.8212 16.6255 30.8847 16.5586C29.2546 16.6202 27.7079 17.1552 26.4375 18.1875ZM38.5312 28.875C38.343 29.0557 38.343 29.0557 38.1738 29.2969C38.1078 29.383 38.0418 29.469 37.9738 29.5577C37.8785 29.6838 37.8785 29.6838 37.7812 29.8125C37.1514 30.6279 36.329 31.2692 35.4375 31.7813C35.5611 32.5318 35.7289 33.2627 35.9296 33.9961C35.9554 34.0962 35.9811 34.1963 36.0076 34.2994C36.241 35.1513 36.5761 35.868 37.3212 36.3776C38.0073 36.7277 38.7526 36.7634 39.5017 36.6116C40.1897 36.3565 40.7355 35.7908 41.271 35.3062C41.4309 35.1622 41.5927 35.0208 41.7553 34.8798C42.4767 34.2477 43.1108 33.6228 43.2187 32.625C43.2416 31.8838 42.9783 31.2188 42.4963 30.6576C41.9083 30.1016 41.2688 29.8123 40.5277 29.5165C40.328 29.4367 40.1295 29.3544 39.931 29.2717C39.2539 28.9764 39.2539 28.9764 38.5312 28.875Z" fill="#6B38B2"/>
<path d="M31.4062 19.8751C31.6035 20.0218 31.6035 20.0218 31.7812 20.2501C31.8238 20.5681 31.8238 20.5681 31.8178 20.943C31.8173 21.0091 31.8168 21.0751 31.8162 21.1432C31.8141 21.3534 31.8094 21.5634 31.8046 21.7736C31.8027 21.9164 31.801 22.0592 31.7995 22.202C31.7954 22.5515 31.7889 22.9008 31.7812 23.2501C31.8701 23.2477 31.959 23.2452 32.0506 23.2427C32.3812 23.2347 32.7117 23.2288 33.0423 23.2244C33.1853 23.222 33.3282 23.2188 33.4712 23.2148C33.6769 23.2091 33.8825 23.2064 34.0883 23.2044C34.212 23.2019 34.3358 23.1995 34.4632 23.1969C34.7812 23.2501 34.7812 23.2501 35.0091 23.4698C35.19 23.7761 35.2146 23.9311 35.1562 24.2814C35.0091 24.5305 35.0091 24.5305 34.7812 24.7501C34.4632 24.8034 34.4632 24.8034 34.0883 24.7959C34.0223 24.7953 33.9562 24.7946 33.8881 24.7939C33.6779 24.7913 33.4679 24.7854 33.2578 24.7794C33.1149 24.7771 32.9721 24.7749 32.8293 24.773C32.4798 24.7679 32.1305 24.7598 31.7812 24.7501C31.7832 24.8391 31.7851 24.928 31.7871 25.0196C31.7935 25.3502 31.7982 25.6807 31.8018 26.0113C31.8037 26.1542 31.8062 26.2972 31.8095 26.4401C31.814 26.6458 31.8162 26.8515 31.8178 27.0573C31.8198 27.181 31.8217 27.3047 31.8238 27.4322C31.7812 27.7501 31.7812 27.7501 31.6031 27.978C31.3306 28.1816 31.1633 28.173 30.8345 28.1559C30.5861 28.1131 30.4516 28.0279 30.2812 27.8439C30.1725 27.5178 30.1768 27.2638 30.1783 26.9199C30.1784 26.8579 30.1786 26.7959 30.1787 26.732C30.1792 26.5343 30.1804 26.3365 30.1816 26.1388C30.1821 26.0046 30.1825 25.8704 30.1829 25.7362C30.1839 25.4075 30.1855 25.0788 30.1874 24.7501C30.1014 24.7516 30.0153 24.7531 29.9266 24.7546C29.6065 24.7594 29.2865 24.7629 28.9664 24.7656C28.828 24.767 28.6896 24.7689 28.5512 24.7714C28.352 24.7748 28.1528 24.7764 27.9536 24.7776C27.7739 24.7798 27.7739 24.7798 27.5905 24.7821C27.2615 24.7481 27.1321 24.7063 26.9062 24.4689C26.8027 24.0964 26.7735 23.898 26.9355 23.5431C27.0937 23.3439 27.0937 23.3439 27.2812 23.2501C27.4991 23.2421 27.7172 23.2401 27.9352 23.241C28.0316 23.2412 28.0316 23.2412 28.1299 23.2414C28.3353 23.2419 28.5407 23.2431 28.746 23.2443C28.8852 23.2448 29.0244 23.2452 29.1635 23.2456C29.5048 23.2466 29.8461 23.2482 30.1874 23.2501C30.186 23.1674 30.1845 23.0847 30.183 22.9994C30.1782 22.691 30.1747 22.3827 30.172 22.0743C30.1706 21.941 30.1687 21.8078 30.1662 21.6746C30.1628 21.4826 30.1612 21.2907 30.16 21.0987C30.1585 20.9833 30.157 20.8679 30.1555 20.749C30.1901 20.4115 30.2653 20.2375 30.4687 19.9689C30.7621 19.8222 31.0885 19.8098 31.4062 19.8751Z" fill="#6B38B2"/>
<path d="M7.46413 23.2354C7.60096 23.2342 7.60096 23.2342 7.74055 23.2329C7.84098 23.2325 7.94141 23.2321 8.04488 23.2317C8.15037 23.2309 8.25587 23.2302 8.36456 23.2294C8.7148 23.2271 9.06504 23.2255 9.41528 23.2242C9.59429 23.2234 9.59429 23.2234 9.77692 23.2226C10.2783 23.2207 10.7796 23.2189 11.281 23.2178C11.9997 23.2163 12.7184 23.2132 13.4371 23.2078C14.0032 23.2038 14.5693 23.2023 15.1355 23.2017C15.3764 23.201 15.6174 23.1996 15.8583 23.1974C16.195 23.1944 16.5316 23.1944 16.8684 23.1951C16.9684 23.1936 17.0685 23.192 17.1715 23.1904C17.8455 23.1962 17.8455 23.1962 18.1557 23.47C18.3101 23.7757 18.3376 23.9428 18.2812 24.281C18.1555 24.5293 18.1555 24.5293 17.9062 24.7498C17.5623 24.8216 17.2216 24.8128 16.8713 24.809C16.7658 24.8096 16.6603 24.8103 16.5516 24.811C16.2023 24.8126 15.8532 24.8108 15.5039 24.8088C15.2615 24.8088 15.0191 24.8091 14.7767 24.8094C14.2686 24.8097 13.7604 24.8084 13.2523 24.8058C12.665 24.8027 12.0777 24.8028 11.4904 24.8044C10.9252 24.8059 10.36 24.8052 9.79471 24.8036C9.55429 24.8031 9.31386 24.8032 9.07344 24.8038C8.73765 24.8043 8.40195 24.8024 8.06616 24.7998C7.91653 24.8007 7.91653 24.8007 7.76388 24.8017C7.09258 24.7929 7.09258 24.7929 6.78456 24.5764C6.61575 24.3112 6.56892 24.127 6.5625 23.8123C6.78659 23.3321 6.95111 23.2387 7.46413 23.2354Z" fill="#6B38B2"/>
<path d="M7.46413 16.4854C7.60096 16.4842 7.60096 16.4842 7.74055 16.4829C7.84098 16.4825 7.94141 16.4821 8.04488 16.4817C8.15037 16.4809 8.25587 16.4802 8.36456 16.4794C8.7148 16.4771 9.06504 16.4755 9.41528 16.4742C9.59429 16.4734 9.59429 16.4734 9.77692 16.4726C10.2783 16.4707 10.7796 16.4689 11.281 16.4678C11.9997 16.4663 12.7184 16.4632 13.4371 16.4578C14.0032 16.4538 14.5693 16.4523 15.1355 16.4517C15.3764 16.451 15.6174 16.4496 15.8583 16.4474C16.195 16.4444 16.5316 16.4444 16.8684 16.4451C16.9684 16.4436 17.0685 16.442 17.1715 16.4404C17.8455 16.4462 17.8455 16.4462 18.1557 16.72C18.3101 17.0257 18.3376 17.1928 18.2812 17.531C18.1555 17.7793 18.1555 17.7793 17.9062 17.9998C17.5623 18.0716 17.2216 18.0628 16.8713 18.059C16.7658 18.0596 16.6603 18.0603 16.5516 18.061C16.2023 18.0626 15.8532 18.0608 15.5039 18.0588C15.2615 18.0588 15.0191 18.0591 14.7767 18.0594C14.2686 18.0597 13.7604 18.0584 13.2523 18.0558C12.665 18.0527 12.0777 18.0528 11.4904 18.0544C10.9252 18.0559 10.36 18.0552 9.79471 18.0536C9.55429 18.0531 9.31386 18.0532 9.07344 18.0538C8.73765 18.0543 8.40195 18.0524 8.06616 18.0498C7.91653 18.0507 7.91653 18.0507 7.76388 18.0517C7.09258 18.0429 7.09258 18.0429 6.78456 17.8264C6.61575 17.5612 6.56892 17.377 6.5625 17.0623C6.78659 16.5821 6.95111 16.4887 7.46413 16.4854Z" fill="#6B38B2"/>
<path d="M7.46413 9.73536C7.60096 9.73416 7.60096 9.73416 7.74055 9.73292C7.84098 9.73252 7.94141 9.73212 8.04488 9.73171C8.15037 9.73094 8.25587 9.73018 8.36456 9.72939C8.7148 9.72706 9.06504 9.72551 9.41528 9.72416C9.59429 9.72341 9.59429 9.72341 9.77692 9.72265C10.2783 9.72066 10.7796 9.71886 11.281 9.71781C11.9997 9.71628 12.7184 9.71317 13.4371 9.70783C14.0032 9.70377 14.5693 9.70227 15.1355 9.70167C15.3764 9.70104 15.6174 9.69961 15.8583 9.69737C16.195 9.69442 16.5316 9.69439 16.8684 9.69509C16.9684 9.69355 17.0685 9.69201 17.1715 9.69043C17.8455 9.69616 17.8455 9.69616 18.1557 9.97001C18.3101 10.2757 18.3376 10.4428 18.2812 10.781C18.1555 11.0293 18.1555 11.0293 17.9062 11.2498C17.5623 11.3216 17.2216 11.3128 16.8713 11.309C16.7658 11.3096 16.6603 11.3103 16.5516 11.311C16.2023 11.3126 15.8532 11.3108 15.5039 11.3088C15.2615 11.3088 15.0191 11.3091 14.7767 11.3094C14.2686 11.3097 13.7604 11.3084 13.2523 11.3058C12.665 11.3027 12.0777 11.3028 11.4904 11.3044C10.9252 11.3059 10.36 11.3052 9.79471 11.3036C9.55429 11.3031 9.31386 11.3032 9.07344 11.3038C8.73765 11.3043 8.40195 11.3024 8.06616 11.2998C7.91653 11.3007 7.91653 11.3007 7.76388 11.3017C7.09258 11.2929 7.09258 11.2929 6.78456 11.0764C6.61575 10.8112 6.56892 10.627 6.5625 10.3123C6.78659 9.8321 6.95111 9.73873 7.46413 9.73536Z" fill="#6B38B2"/>
<path d="M7.46413 36.7354C7.60096 36.7342 7.60096 36.7342 7.74055 36.7329C7.84098 36.7325 7.94141 36.7321 8.04488 36.7317C8.15037 36.7309 8.25587 36.7302 8.36456 36.7294C8.7148 36.7271 9.06504 36.7255 9.41528 36.7242C9.59429 36.7234 9.59429 36.7234 9.77692 36.7226C10.2783 36.7207 10.7796 36.7189 11.281 36.7178C11.9997 36.7163 12.7184 36.7132 13.4371 36.7078C14.0032 36.7038 14.5693 36.7023 15.1355 36.7017C15.3764 36.701 15.6174 36.6996 15.8583 36.6974C16.195 36.6944 16.5316 36.6944 16.8684 36.6951C16.9684 36.6936 17.0685 36.692 17.1715 36.6904C17.8455 36.6962 17.8455 36.6962 18.1557 36.97C18.3101 37.2757 18.3376 37.4428 18.2812 37.781C18.1555 38.0293 18.1555 38.0293 17.9062 38.2498C17.5623 38.3216 17.2216 38.3128 16.8713 38.309C16.7658 38.3096 16.6603 38.3103 16.5516 38.311C16.2023 38.3126 15.8532 38.3108 15.5039 38.3088C15.2615 38.3088 15.0191 38.3091 14.7767 38.3094C14.2686 38.3097 13.7604 38.3084 13.2523 38.3058C12.665 38.3027 12.0777 38.3028 11.4904 38.3044C10.9252 38.3059 10.36 38.3052 9.79471 38.3036C9.55429 38.3031 9.31386 38.3032 9.07344 38.3038C8.73765 38.3043 8.40195 38.3024 8.06616 38.2998C7.91653 38.3007 7.91653 38.3007 7.76388 38.3017C7.09141 38.2929 7.09141 38.2929 6.78456 38.0731C6.62965 37.8337 6.56933 37.6927 6.5625 37.406C6.77847 36.8713 6.89933 36.7391 7.46413 36.7354Z" fill="#6B38B2"/>
<path d="M7.46413 29.9854C7.60096 29.9842 7.60096 29.9842 7.74055 29.9829C7.84098 29.9825 7.94141 29.9821 8.04488 29.9817C8.15037 29.9809 8.25587 29.9802 8.36456 29.9794C8.7148 29.9771 9.06504 29.9755 9.41528 29.9742C9.59429 29.9734 9.59429 29.9734 9.77692 29.9726C10.2783 29.9707 10.7796 29.9689 11.281 29.9678C11.9997 29.9663 12.7184 29.9632 13.4371 29.9578C14.0032 29.9538 14.5693 29.9523 15.1355 29.9517C15.3764 29.951 15.6174 29.9496 15.8583 29.9474C16.195 29.9444 16.5316 29.9444 16.8684 29.9451C16.9684 29.9436 17.0685 29.942 17.1715 29.9404C17.8455 29.9462 17.8455 29.9462 18.1557 30.22C18.3101 30.5257 18.3376 30.6928 18.2812 31.031C18.1555 31.2793 18.1555 31.2793 17.9062 31.4998C17.5623 31.5716 17.2216 31.5628 16.8713 31.559C16.7658 31.5596 16.6603 31.5603 16.5516 31.561C16.2023 31.5626 15.8532 31.5608 15.5039 31.5588C15.2615 31.5588 15.0191 31.5591 14.7767 31.5594C14.2686 31.5597 13.7604 31.5584 13.2523 31.5558C12.665 31.5527 12.0777 31.5528 11.4904 31.5544C10.9252 31.5559 10.36 31.5552 9.79471 31.5536C9.55429 31.5531 9.31386 31.5532 9.07344 31.5538C8.73765 31.5543 8.40195 31.5524 8.06616 31.5498C7.91653 31.5507 7.91653 31.5507 7.76388 31.5517C7.09141 31.5429 7.09141 31.5429 6.78456 31.3231C6.62965 31.0837 6.56933 30.9427 6.5625 30.656C6.77847 30.1213 6.89933 29.9891 7.46413 29.9854Z" fill="#6B38B2"/>
<path d="M31.4063 8.25014C31.6585 8.44959 31.7694 8.56107 31.8289 8.88126C31.8292 8.97922 31.8295 9.07719 31.8298 9.17812C31.831 9.2895 31.8322 9.40088 31.8334 9.51563C31.8326 9.63556 31.8319 9.75548 31.8311 9.87905C31.8314 10.0025 31.8318 10.1259 31.8322 10.2531C31.8327 10.5141 31.8319 10.7751 31.8302 11.0361C31.828 11.3703 31.8293 11.7044 31.8315 12.0385C31.8332 12.3578 31.832 12.677 31.8311 12.9962C31.8318 13.1162 31.8326 13.2361 31.8334 13.3597C31.8322 13.471 31.831 13.5824 31.8298 13.6972C31.8294 13.8441 31.8294 13.8441 31.8289 13.994C31.7694 14.3141 31.6579 14.4252 31.4063 14.6251C31.0553 14.7122 30.744 14.6724 30.4278 14.5021C30.1624 14.2155 30.175 13.9282 30.1724 13.5562C30.1715 13.4526 30.1706 13.3491 30.1697 13.2424C30.1693 13.1304 30.1689 13.0185 30.1685 12.9032C30.168 12.7882 30.1674 12.6732 30.1669 12.5547C30.166 12.3112 30.1654 12.0676 30.165 11.8241C30.1641 11.4515 30.1612 11.0789 30.1582 10.7063C30.1576 10.4699 30.1571 10.2334 30.1568 9.99697C30.1556 9.88543 30.1545 9.7739 30.1533 9.65898C30.1535 9.55481 30.1538 9.45065 30.1541 9.34333C30.1538 9.25195 30.1534 9.16057 30.1531 9.06643C30.194 8.76519 30.2912 8.58859 30.4688 8.34389C30.7622 8.1972 31.0885 8.18479 31.4063 8.25014Z" fill="#6B38B2"/>
</svg>
