<svg width="22" height="22" viewBox="0 0 22 22" fill="none" xmlns="http://www.w3.org/2000/svg">
<g clip-path="url(#clip0_1_11741)">
<path d="M4.35791 -0.00619618C4.38669 -0.00629725 4.41547 -0.00639833 4.44511 -0.00650246C4.54249 -0.00679074 4.63986 -0.00677021 4.73724 -0.00675263C4.80737 -0.00689431 4.87751 -0.00705438 4.94765 -0.00723136C5.14113 -0.00766284 5.33461 -0.00782176 5.52809 -0.00793559C5.73646 -0.00810302 5.94484 -0.0085146 6.15321 -0.00889005C6.65676 -0.00974003 7.16031 -0.0101719 7.66386 -0.0105541C7.90076 -0.0107423 8.13767 -0.010973 8.37458 -0.0111982C9.16169 -0.0119292 9.9488 -0.0125521 10.7359 -0.0128632C10.9403 -0.0129452 11.1446 -0.0130278 11.349 -0.0131118C11.4252 -0.013143 11.4252 -0.013143 11.5029 -0.0131748C12.3264 -0.0135317 13.1498 -0.0146208 13.9733 -0.0160156C14.8179 -0.0174348 15.6626 -0.0182104 16.5073 -0.0183479C16.9818 -0.0184411 17.4564 -0.0188194 17.9309 -0.0199146C18.335 -0.0208448 18.739 -0.0211945 19.143 -0.0207754C19.3493 -0.0205794 19.5555 -0.0206658 19.7618 -0.0214956C19.9504 -0.0222481 20.1391 -0.0222146 20.3278 -0.021543C20.3962 -0.0214401 20.4646 -0.0216307 20.533 -0.0221372C20.6257 -0.0227813 20.7183 -0.0223752 20.8111 -0.0216977C20.8626 -0.0217397 20.9142 -0.0217817 20.9674 -0.0218249C21.0977 -0.00042887 21.0977 -0.000428874 21.2002 0.0644572C21.2983 0.215774 21.2933 0.354992 21.2913 0.529537C21.2916 0.566163 21.2919 0.602788 21.2921 0.640523C21.2928 0.764091 21.2922 0.887624 21.2917 1.01119C21.2919 1.10034 21.2922 1.18948 21.2926 1.27863C21.2934 1.52426 21.2931 1.76987 21.2927 2.0155C21.2924 2.28014 21.2931 2.54478 21.2936 2.80942C21.2945 3.29812 21.2946 3.78681 21.2943 4.27551C21.294 4.72696 21.294 5.17841 21.2943 5.62987C21.2943 5.69037 21.2943 5.75088 21.2944 5.81138C21.2944 5.90255 21.2945 5.99372 21.2945 6.08489C21.2951 6.93276 21.2953 7.78063 21.2948 8.6285C21.2948 8.67646 21.2948 8.67646 21.2948 8.7254C21.2946 8.98509 21.2945 9.24478 21.2943 9.50447C21.2936 10.5176 21.294 11.5307 21.2952 12.5438C21.2966 13.6815 21.2972 14.8191 21.2968 15.9568C21.2967 16.0781 21.2967 16.1993 21.2967 16.3206C21.2966 16.3504 21.2966 16.3803 21.2966 16.411C21.2965 16.8622 21.2969 17.3134 21.2975 17.7646C21.2983 18.2775 21.2983 18.7905 21.2973 19.3035C21.2968 19.5653 21.2967 19.8272 21.2975 20.0891C21.2982 20.3286 21.298 20.5681 21.2969 20.8076C21.2967 20.8945 21.2968 20.9814 21.2974 21.0682C21.2981 21.1859 21.2975 21.3035 21.2965 21.4212C21.297 21.4553 21.2975 21.4894 21.2981 21.5244C21.2953 21.6899 21.275 21.777 21.1787 21.9132C21.0276 22.0185 20.9468 22.0264 20.7637 22.0265C20.7349 22.0268 20.706 22.0271 20.6763 22.0274C20.5794 22.0281 20.4826 22.0273 20.3857 22.0266C20.3156 22.0268 20.2456 22.0271 20.1755 22.0275C19.9828 22.0283 19.7901 22.0278 19.5974 22.027C19.3896 22.0265 19.1819 22.0271 18.9741 22.0276C18.5671 22.0284 18.16 22.028 17.753 22.0273C17.4223 22.0267 17.0916 22.0265 16.7608 22.0266C16.6903 22.0267 16.6903 22.0267 16.6183 22.0267C16.5228 22.0268 16.4273 22.0268 16.3318 22.0268C15.4867 22.0272 14.6416 22.0265 13.7965 22.0252C12.9759 22.024 12.1553 22.0237 11.3347 22.0243C10.4417 22.0251 9.54873 22.0252 8.65572 22.0245C8.56055 22.0244 8.46538 22.0243 8.37022 22.0242C8.32339 22.0242 8.27657 22.0242 8.22832 22.0241C7.89786 22.0239 7.56741 22.024 7.23695 22.0243C6.83443 22.0246 6.43192 22.0244 6.0294 22.0233C5.82391 22.0227 5.61843 22.0225 5.41294 22.023C5.225 22.0234 5.03708 22.023 4.84913 22.022C4.78098 22.0218 4.71283 22.0219 4.64468 22.0223C4.55233 22.0227 4.46004 22.0222 4.3677 22.0213C4.31632 22.0213 4.26494 22.0212 4.21201 22.0212C4.05544 21.9951 4.00591 21.9519 3.91021 21.8277C3.8698 21.7153 3.8698 21.7153 3.84316 21.5848C3.83287 21.535 3.82258 21.4852 3.81198 21.4338C3.75496 21.1277 3.70177 20.8212 3.65097 20.5141C3.63843 20.4391 3.62587 20.3641 3.61331 20.2891C3.58624 20.1274 3.55929 19.9657 3.53243 19.8039C3.48902 19.5426 3.44536 19.2813 3.40168 19.02C3.33882 18.6438 3.27607 18.2676 3.2134 17.8914C3.11482 17.2996 3.01601 16.7078 2.91713 16.116C2.90888 16.0667 2.90064 16.0173 2.89214 15.9665C2.85033 15.7162 2.80852 15.466 2.7667 15.2158C2.73301 15.0142 2.69933 14.8126 2.66565 14.611C2.43896 13.2537 2.21135 11.8966 1.98215 10.5398C1.97558 10.5009 1.96901 10.462 1.96224 10.422C1.84442 9.72441 1.72648 9.02687 1.60836 8.32936C1.58564 8.19522 1.56292 8.06107 1.54021 7.92692C1.53467 7.89417 1.52912 7.86143 1.52341 7.82769C1.43839 7.32552 1.35377 6.82329 1.26951 6.321C1.2046 5.93413 1.13913 5.54737 1.07299 5.16071C1.02668 4.88976 0.980827 4.61874 0.935289 4.34767C0.908301 4.18713 0.8811 4.02663 0.85335 3.86622C0.822998 3.69075 0.793622 3.51512 0.764328 3.33947C0.755194 3.28759 0.746059 3.23572 0.736648 3.18227C0.72492 3.11052 0.72492 3.11052 0.712956 3.03733C0.70242 2.97537 0.70242 2.97537 0.691671 2.91216C0.685746 2.74022 0.731652 2.59893 0.825386 2.45508C0.944987 2.37858 1.04848 2.39042 1.18919 2.39119C1.2326 2.39116 1.2326 2.39116 1.27688 2.39113C1.37244 2.39122 1.46798 2.39222 1.56354 2.39323C1.62983 2.39347 1.69612 2.39366 1.76241 2.39379C1.93682 2.39428 2.11122 2.39554 2.28563 2.39697C2.46363 2.39829 2.64162 2.39888 2.81962 2.39953C3.16883 2.40091 3.51803 2.40311 3.86724 2.40582C3.86681 2.36616 3.86681 2.36616 3.86637 2.3257C3.86352 2.05038 3.86157 1.77505 3.86016 1.49971C3.85951 1.39697 3.85863 1.29424 3.85751 1.1915C3.85595 1.04378 3.85522 0.896068 3.85465 0.748335C3.85398 0.70245 3.85332 0.656564 3.85263 0.609288C3.85254 0.207744 3.85254 0.207744 3.99614 0.0425399C4.11832 -0.0185491 4.22123 -0.00599247 4.35791 -0.00619618ZM4.64067 0.773009C4.64067 7.52254 4.64067 14.2721 4.64067 21.2261C9.87298 21.2261 15.1053 21.2261 20.4961 21.2261C20.4961 14.4766 20.4961 7.72707 20.4961 0.773009C15.2638 0.773009 10.0315 0.773009 4.64067 0.773009ZM1.58989 3.17926C1.61796 3.48804 1.65027 3.78699 1.70202 4.09135C1.70895 4.13296 1.71587 4.17456 1.72301 4.21743C1.74605 4.35555 1.76935 4.49364 1.79264 4.63172C1.80932 4.73139 1.82599 4.83106 1.84264 4.93074C1.88787 5.20123 1.93332 5.47168 1.97881 5.74213C2.02198 5.99885 2.06495 6.25561 2.10794 6.51236C2.19355 7.02362 2.27932 7.53486 2.36519 8.04608C2.4475 8.53611 2.52972 9.02614 2.61184 9.5162C2.61685 9.54609 2.62185 9.57598 2.62701 9.60677C2.64718 9.72711 2.66734 9.84745 2.6875 9.96779C2.7812 10.527 2.87497 11.0862 2.96875 11.6454C2.97797 11.7004 2.98719 11.7554 2.99669 11.812C3.27082 13.4464 3.54684 15.0805 3.82427 16.7144C3.83845 16.7144 3.85263 16.7144 3.86724 16.7144C3.86724 12.2478 3.86724 7.78121 3.86724 3.17926C3.11571 3.17926 2.36419 3.17926 1.58989 3.17926Z" fill="#6B38B2"/>
<path d="M10.2386 13.5696C10.2766 13.5689 10.3146 13.5682 10.3537 13.5675C10.5277 13.5656 10.7016 13.5638 10.8755 13.5628C10.9672 13.5621 11.059 13.561 11.1507 13.5593C11.2829 13.557 11.4151 13.556 11.5474 13.5554C11.5883 13.5544 11.6292 13.5534 11.6714 13.5524C11.729 13.5526 11.729 13.5526 11.7878 13.5528C11.8214 13.5525 11.855 13.5521 11.8896 13.5518C12.052 13.5947 12.1066 13.6549 12.2031 13.7927C12.2342 13.9626 12.2303 14.1301 12.2275 14.3023C12.2276 14.3796 12.2276 14.3796 12.2276 14.4586C12.2275 14.5997 12.2264 14.7407 12.2249 14.8817C12.2236 15.0293 12.2235 15.1768 12.2232 15.3244C12.2225 15.6036 12.2208 15.8829 12.2186 16.1621C12.2162 16.4801 12.215 16.7981 12.214 17.1161C12.2117 17.77 12.2079 18.4239 12.2031 19.0779C12.4442 19.0779 12.6853 19.0779 12.9336 19.0779C12.9332 19.0027 12.9332 19.0027 12.9327 18.926C12.9301 18.4537 12.9282 17.9814 12.9269 17.5091C12.9263 17.2663 12.9253 17.0235 12.9239 16.7807C12.9225 16.5464 12.9217 16.3121 12.9214 16.0778C12.9211 15.9884 12.9207 15.899 12.92 15.8096C12.919 15.6844 12.9189 15.5592 12.919 15.434C12.9185 15.397 12.9181 15.36 12.9176 15.3219C12.9186 15.1218 12.928 14.9835 13.0625 14.824C13.1809 14.7442 13.275 14.7271 13.4162 14.7262C13.4693 14.7256 13.4693 14.7256 13.5235 14.725C13.5614 14.725 13.5993 14.7251 13.6384 14.7251C13.6777 14.7249 13.717 14.7247 13.7575 14.7246C13.8405 14.7243 13.9236 14.7243 14.0066 14.7245C14.1334 14.7246 14.2602 14.7236 14.3871 14.7225C14.4678 14.7224 14.5486 14.7224 14.6294 14.7224C14.6672 14.722 14.705 14.7216 14.744 14.7212C14.9454 14.7227 15.098 14.7246 15.2539 14.8669C15.3494 15.0854 15.3516 15.2833 15.3496 15.5169C15.3496 15.5555 15.3496 15.5941 15.3497 15.6339C15.3496 15.7608 15.3489 15.8877 15.3483 16.0147C15.3481 16.1029 15.348 16.1912 15.3479 16.2795C15.3476 16.5113 15.3467 16.7431 15.3458 16.975C15.3449 17.2117 15.3445 17.4485 15.3441 17.6853C15.3431 18.1495 15.3416 18.6137 15.3399 19.0779C15.5809 19.0779 15.822 19.0779 16.0703 19.0779C16.069 19.0113 16.0676 18.9448 16.0662 18.8762C16.0616 18.6292 16.0586 18.3821 16.0562 18.1351C16.0549 18.0281 16.0531 17.9212 16.0509 17.8143C16.0478 17.6606 16.0463 17.507 16.0452 17.3533C16.0438 17.3055 16.0425 17.2577 16.0411 17.2085C16.041 16.8954 16.041 16.8954 16.1146 16.7652C16.264 16.6172 16.4305 16.6029 16.6335 16.5999C16.672 16.6005 16.7104 16.6011 16.7499 16.6016C16.8101 16.6015 16.8101 16.6015 16.8716 16.6013C16.9561 16.6014 17.0407 16.6019 17.1252 16.603C17.2544 16.6045 17.3835 16.6039 17.5127 16.6031C17.5951 16.6034 17.6774 16.6038 17.7597 16.6043C17.7982 16.6041 17.8367 16.6039 17.8764 16.6037C18.0557 16.6071 18.1516 16.6135 18.3065 16.7108C18.4323 16.845 18.4389 16.9178 18.4385 17.0974C18.4385 17.1413 18.4385 17.1851 18.4385 17.2303C18.4383 17.2778 18.438 17.3253 18.4378 17.3742C18.4377 17.447 18.4377 17.447 18.4376 17.5213C18.4374 17.6767 18.4368 17.8321 18.4363 17.9876C18.4361 18.0927 18.4359 18.1979 18.4357 18.3031C18.4352 18.5614 18.4345 18.8196 18.4336 19.0779C18.5183 19.0756 18.5183 19.0756 18.6046 19.0734C18.6792 19.0721 18.7538 19.071 18.8284 19.0698C18.8655 19.0687 18.9027 19.0677 18.9409 19.0666C19.1507 19.0641 19.2959 19.0669 19.4649 19.2068C19.5327 19.3425 19.543 19.4907 19.5078 19.6365C19.4368 19.7416 19.4 19.7891 19.293 19.8513C19.1149 19.8841 18.9383 19.8801 18.7577 19.8783C18.7027 19.8786 18.6478 19.8789 18.5911 19.8792C18.4386 19.8801 18.2861 19.8795 18.1335 19.8788C17.969 19.8782 17.8045 19.8789 17.64 19.8794C17.3177 19.8802 16.9955 19.8798 16.6732 19.879C16.4113 19.8784 16.1495 19.8783 15.8876 19.8784C15.8318 19.8784 15.8318 19.8784 15.7748 19.8785C15.6991 19.8785 15.6234 19.8785 15.5478 19.8786C14.8785 19.879 14.2093 19.8782 13.5401 19.877C12.8904 19.8757 12.2407 19.8754 11.5911 19.8761C10.8839 19.8768 10.1767 19.877 9.46949 19.8762C9.39411 19.8762 9.31874 19.8761 9.24336 19.876C9.20627 19.876 9.16919 19.8759 9.13097 19.8759C8.86935 19.8756 8.60774 19.8758 8.34611 19.8761C8.02741 19.8764 7.70871 19.8761 7.39001 19.875C7.22734 19.8745 7.06468 19.8742 6.902 19.8747C6.72585 19.8752 6.54973 19.8744 6.37358 19.8734C6.32189 19.8738 6.27021 19.8741 6.21696 19.8745C6.1699 19.874 6.12284 19.8736 6.07436 19.8731C6.03369 19.873 5.99301 19.873 5.95111 19.8729C5.81037 19.8446 5.75984 19.7909 5.67189 19.6794C5.62579 19.5104 5.61089 19.4193 5.68264 19.2578C5.75783 19.1638 5.75783 19.1638 5.88674 19.0779C5.97632 19.0681 5.97632 19.0681 6.07791 19.0695C6.13254 19.0699 6.13254 19.0699 6.18827 19.0703C6.24506 19.0714 6.24506 19.0714 6.303 19.0725C6.34135 19.0729 6.37971 19.0733 6.41923 19.0737C6.51388 19.0747 6.60851 19.0761 6.70314 19.0779C6.70286 19.0412 6.70257 19.0045 6.70228 18.9668C6.69969 18.621 6.69773 18.2751 6.69647 17.9293C6.69579 17.7515 6.69488 17.5737 6.69342 17.396C6.69202 17.2243 6.69125 17.0527 6.69091 16.8811C6.69068 16.8157 6.69021 16.7503 6.68951 16.6848C6.68858 16.5931 6.68845 16.5014 6.68851 16.4096C6.68822 16.3574 6.68794 16.3052 6.68764 16.2514C6.70933 16.0578 6.78217 15.9481 6.91799 15.8123C7.0022 15.8008 7.0022 15.8008 7.10646 15.7998C7.14547 15.7992 7.18448 15.7987 7.22467 15.7981C7.28805 15.798 7.28805 15.798 7.35271 15.7978C7.39605 15.7975 7.4394 15.7973 7.48405 15.797C7.57587 15.7965 7.66769 15.7963 7.75951 15.7963C7.90004 15.7961 8.04051 15.7946 8.18103 15.793C8.27016 15.7927 8.35929 15.7925 8.44841 15.7925C8.51153 15.7915 8.51153 15.7915 8.57592 15.7906C8.86685 15.7925 8.86685 15.7925 9.00569 15.8914C9.11698 16.0613 9.11463 16.2013 9.11427 16.3998C9.11428 16.4288 9.11428 16.4577 9.11429 16.4875C9.11426 16.5831 9.11393 16.6786 9.11359 16.7742C9.11351 16.8405 9.11345 16.9068 9.11341 16.9731C9.11324 17.1475 9.11282 17.3219 9.11234 17.4963C9.1119 17.6743 9.11171 17.8523 9.11149 18.0303C9.11103 18.3795 9.11028 18.7287 9.10939 19.0779C9.35045 19.0779 9.5915 19.0779 9.83986 19.0779C9.83943 18.9801 9.83943 18.9801 9.83899 18.8803C9.83638 18.2664 9.83444 17.6525 9.83318 17.0385C9.83252 16.7229 9.83161 16.4072 9.83014 16.0916C9.82885 15.8165 9.82802 15.5414 9.82773 15.2662C9.82757 15.1206 9.82717 14.9749 9.82623 14.8292C9.8253 14.6666 9.82517 14.504 9.82523 14.3413C9.82477 14.2931 9.8243 14.2448 9.82382 14.1951C9.824 14.1507 9.82418 14.1063 9.82436 14.0605C9.82424 14.0221 9.82412 13.9836 9.824 13.944C9.8435 13.8108 9.89081 13.7296 9.96877 13.6209C10.0681 13.5712 10.1279 13.5714 10.2386 13.5696ZM10.6133 14.3513C10.6133 15.9111 10.6133 17.4709 10.6133 19.0779C10.8827 19.0779 11.1521 19.0779 11.4297 19.0779C11.4297 17.5181 11.4297 15.9584 11.4297 14.3513C11.1603 14.3513 10.8909 14.3513 10.6133 14.3513ZM13.75 15.5544C13.75 16.7172 13.75 17.8799 13.75 19.0779C14.0053 19.0779 14.2605 19.0779 14.5235 19.0779C14.5235 17.9151 14.5235 16.7524 14.5235 15.5544C14.2682 15.5544 14.013 15.5544 13.75 15.5544ZM7.51955 16.5857C7.51955 17.4081 7.51955 18.2305 7.51955 19.0779C7.77478 19.0779 8.03002 19.0779 8.29299 19.0779C8.29299 18.2555 8.29299 17.433 8.29299 16.5857C8.03775 16.5857 7.78252 16.5857 7.51955 16.5857ZM16.8438 17.4021C16.8438 17.9551 16.8438 18.5081 16.8438 19.0779C17.1132 19.0779 17.3826 19.0779 17.6602 19.0779C17.6602 18.5249 17.6602 17.9719 17.6602 17.4021C17.3908 17.4021 17.1213 17.4021 16.8438 17.4021Z" fill="#6B38B2"/>
<path d="M10.8429 11.3809C10.8923 11.3807 10.8923 11.3807 10.9426 11.3805C11.0535 11.3802 11.1643 11.3801 11.2752 11.38C11.3545 11.3798 11.4337 11.3796 11.513 11.3794C11.7287 11.3788 11.9444 11.3785 12.1602 11.3784C12.2949 11.3782 12.4296 11.3781 12.5643 11.3779C12.9855 11.3773 13.4067 11.3769 13.8279 11.3767C14.3145 11.3765 14.8012 11.3757 15.2879 11.3745C15.6637 11.3736 16.0396 11.3731 16.4154 11.3731C16.6401 11.373 16.8647 11.3728 17.0893 11.372C17.3006 11.3713 17.5119 11.3712 17.7232 11.3716C17.8008 11.3716 17.8784 11.3714 17.9559 11.371C18.0618 11.3705 18.1676 11.3707 18.2735 11.3712C18.3196 11.3706 18.3196 11.3706 18.3667 11.3701C18.5535 11.372 18.6716 11.4013 18.8203 11.5159C18.8944 11.6641 18.8846 11.8264 18.8633 11.9885C18.7688 12.1188 18.715 12.1525 18.5625 12.2034C18.4563 12.2076 18.3512 12.2095 18.245 12.2094C18.2124 12.2095 18.1798 12.2097 18.1462 12.2098C18.0367 12.2102 17.9271 12.2102 17.8176 12.2103C17.7392 12.2105 17.6608 12.2107 17.5824 12.2109C17.3691 12.2115 17.1559 12.2118 16.9426 12.212C16.8095 12.2121 16.6763 12.2123 16.5431 12.2125C16.1267 12.213 15.7102 12.2135 15.2937 12.2136C14.8126 12.2138 14.3315 12.2146 13.8504 12.2158C13.4788 12.2167 13.1071 12.2172 12.7354 12.2172C12.5133 12.2173 12.2913 12.2175 12.0692 12.2183C11.8603 12.219 11.6515 12.2191 11.4426 12.2187C11.3659 12.2187 11.2892 12.2189 11.2126 12.2193C11.1079 12.2199 11.0033 12.2196 10.8987 12.2192C10.8531 12.2197 10.8531 12.2197 10.8066 12.2202C10.6202 12.2183 10.5033 12.1891 10.3554 12.0745C10.2484 11.9139 10.2498 11.835 10.2695 11.6448C10.4346 11.3916 10.5575 11.3806 10.8429 11.3809Z" fill="#6B38B2"/>
<path d="M8.87399 2.11997C8.90547 2.12045 8.93696 2.12093 8.96939 2.12142C9.00311 2.12109 9.03682 2.12075 9.07156 2.12041C9.18466 2.11955 9.29769 2.12023 9.41079 2.1209C9.49181 2.12061 9.57284 2.12023 9.65387 2.11976C9.87404 2.11878 10.0942 2.11916 10.3144 2.11985C10.5446 2.12039 10.7748 2.11988 11.005 2.11955C11.3917 2.11916 11.7783 2.11967 12.165 2.12069C12.6122 2.12186 13.0595 2.12149 13.5067 2.1203C13.8905 2.11933 14.2742 2.11919 14.658 2.11975C14.8873 2.12009 15.1166 2.12013 15.3459 2.11942C15.5615 2.1188 15.777 2.11923 15.9926 2.12047C16.0718 2.12076 16.151 2.12068 16.2302 2.1202C16.3381 2.11962 16.446 2.12035 16.554 2.12142C16.5854 2.12094 16.6169 2.12046 16.6494 2.11997C16.8116 2.12311 16.8744 2.13665 16.9921 2.2522C17.0937 2.42235 17.0803 2.51123 17.0586 2.7073C16.9837 2.84635 16.9523 2.87161 16.8007 2.92214C16.6929 2.92661 16.5862 2.92868 16.4784 2.92875C16.4287 2.92904 16.4287 2.92904 16.378 2.92933C16.2667 2.9299 16.1554 2.93017 16.044 2.93043C15.9643 2.93077 15.8847 2.93112 15.805 2.93149C15.5431 2.93262 15.2811 2.93328 15.0192 2.93389C14.9291 2.93412 14.839 2.93435 14.7489 2.93458C14.3742 2.93551 13.9994 2.93632 13.6247 2.9368C13.0873 2.9375 12.5499 2.93893 12.0125 2.94137C11.6348 2.94304 11.2572 2.94388 10.8795 2.9441C10.6538 2.94426 10.4281 2.94478 10.2024 2.94617C9.99017 2.94746 9.77794 2.94774 9.56569 2.94723C9.48775 2.94722 9.40982 2.94758 9.3319 2.94833C9.22554 2.9493 9.11928 2.94895 9.01292 2.94827C8.98204 2.94886 8.95115 2.94946 8.91933 2.95007C8.75191 2.94742 8.68453 2.92613 8.55308 2.81863C8.46687 2.7099 8.436 2.67059 8.44063 2.53542C8.44058 2.50795 8.44052 2.48048 8.44047 2.45217C8.50545 2.21555 8.63245 2.12464 8.87399 2.11997Z" fill="#6B38B2"/>
<path d="M10.8206 6.76218C10.871 6.76173 10.871 6.76173 10.9223 6.76126C11.0347 6.7605 11.147 6.76128 11.2594 6.76206C11.34 6.76184 11.4206 6.76152 11.5012 6.76113C11.7201 6.76033 11.9389 6.76089 12.1577 6.76173C12.3866 6.76244 12.6155 6.76206 12.8444 6.76184C13.2288 6.76164 13.6132 6.76233 13.9975 6.76353C14.4421 6.7649 14.8867 6.7649 15.3313 6.76416C15.7588 6.76348 16.1863 6.76377 16.6138 6.7645C16.7958 6.7648 16.9778 6.76475 17.1599 6.76444C17.3741 6.76411 17.5884 6.76463 17.8026 6.76581C17.8813 6.7661 17.96 6.76611 18.0388 6.7658C18.1461 6.76542 18.2533 6.76611 18.3606 6.76706C18.3919 6.76671 18.4232 6.76635 18.4554 6.76599C18.6025 6.76841 18.6786 6.7793 18.7965 6.87063C18.8724 6.97344 18.8876 7.02502 18.8874 7.15173C18.8884 7.18357 18.8893 7.21542 18.8903 7.24824C18.8488 7.40105 18.7702 7.46361 18.6484 7.56261C18.5285 7.58355 18.435 7.59123 18.3154 7.58903C18.2822 7.58927 18.249 7.58952 18.2147 7.58977C18.1036 7.59032 17.9924 7.58934 17.8813 7.58837C17.8015 7.58845 17.7217 7.58862 17.642 7.58888C17.4254 7.58931 17.2089 7.5884 16.9924 7.58723C16.7659 7.5862 16.5394 7.58633 16.3129 7.58631C15.9326 7.58611 15.5523 7.5851 15.1719 7.58354C14.732 7.58175 14.2921 7.58099 13.8522 7.58085C13.3841 7.5807 12.916 7.57989 12.4479 7.57883C12.3129 7.57856 12.1779 7.5784 12.0429 7.57827C11.8309 7.57801 11.6189 7.57731 11.4069 7.57626C11.329 7.57594 11.2512 7.57577 11.1733 7.57575C11.0671 7.5757 10.961 7.57511 10.8548 7.57439C10.8239 7.5745 10.7929 7.5746 10.7611 7.57471C10.6051 7.57305 10.4864 7.56564 10.3554 7.47668C10.246 7.32895 10.2476 7.18229 10.2695 7.00402C10.4303 6.79226 10.5661 6.75803 10.8206 6.76218Z" fill="#6B38B2"/>
<path d="M11.6284 9.06003C11.6579 9.0599 11.6875 9.05977 11.718 9.05964C11.8176 9.05926 11.9172 9.0592 12.0167 9.05914C12.088 9.05894 12.1592 9.05872 12.2304 9.05849C12.4242 9.05793 12.618 9.05765 12.8118 9.05746C12.9328 9.05733 13.0538 9.05716 13.1749 9.05696C13.5533 9.05638 13.9318 9.05596 14.3103 9.05579C14.7475 9.0556 15.1847 9.05485 15.622 9.0536C15.9597 9.05268 16.2974 9.05224 16.6352 9.05218C16.837 9.05214 17.0388 9.05188 17.2406 9.05112C17.4304 9.05041 17.6203 9.05032 17.8101 9.05069C17.8798 9.05073 17.9495 9.05054 18.0192 9.05012C18.1143 9.04957 18.2094 9.04982 18.3046 9.05027C18.3578 9.05021 18.4111 9.05014 18.4659 9.05008C18.6179 9.06748 18.699 9.10343 18.8204 9.19497C18.8945 9.34322 18.8847 9.50551 18.8633 9.66762C18.7689 9.79791 18.7151 9.83161 18.5625 9.88247C18.4672 9.8867 18.3718 9.88827 18.2764 9.8885C18.2325 9.88869 18.2325 9.88869 18.1878 9.88889C18.0896 9.88926 17.9915 9.88933 17.8933 9.88939C17.823 9.88959 17.7527 9.8898 17.6824 9.89004C17.4913 9.8906 17.3001 9.89088 17.109 9.89107C16.9896 9.89119 16.8702 9.89137 16.7508 9.89156C16.3772 9.89215 16.0036 9.89257 15.6301 9.89273C15.1988 9.89292 14.7675 9.89368 14.3363 9.89492C14.0029 9.89585 13.6696 9.89628 13.3363 9.89634C13.1372 9.89639 12.9381 9.89664 12.739 9.89741C12.5517 9.89812 12.3644 9.89821 12.1771 9.89783C12.1084 9.8978 12.0397 9.89799 11.971 9.89841C11.8771 9.89896 11.7832 9.8987 11.6893 9.89826C11.6106 9.89835 11.6106 9.89835 11.5302 9.89845C11.37 9.8806 11.2659 9.83724 11.129 9.75356C11.0549 9.60543 11.0644 9.44288 11.086 9.2809C11.2445 9.06949 11.3743 9.06064 11.6284 9.06003Z" fill="#6B38B2"/>
<path d="M11.5595 4.44714C11.6051 4.44674 11.6051 4.44674 11.6516 4.44633C11.7534 4.44564 11.8552 4.44618 11.957 4.44672C12.03 4.44649 12.103 4.44618 12.1759 4.44581C12.3742 4.44503 12.5724 4.44533 12.7706 4.44588C12.978 4.44631 13.1853 4.44591 13.3927 4.44564C13.7409 4.44533 14.0891 4.44574 14.4373 4.44656C14.8401 4.44749 15.2428 4.44719 15.6455 4.44624C15.9911 4.44546 16.3367 4.44535 16.6824 4.4458C16.8888 4.44607 17.0953 4.4461 17.3018 4.44554C17.4959 4.44504 17.6901 4.44538 17.8842 4.44638C17.9555 4.44661 18.0268 4.44654 18.0981 4.44616C18.1953 4.44569 18.2925 4.44628 18.3897 4.44714C18.4441 4.4472 18.4986 4.44727 18.5547 4.44733C18.7155 4.47278 18.7661 4.51269 18.8633 4.64084C18.8876 4.73466 18.8876 4.73466 18.8875 4.83151C18.8884 4.86336 18.8893 4.89521 18.8903 4.92802C18.8491 5.07974 18.7685 5.14334 18.6484 5.2424C18.5079 5.26944 18.5079 5.26944 18.3451 5.26968C18.3151 5.27002 18.285 5.27035 18.2541 5.2707C18.1537 5.27155 18.0534 5.27088 17.953 5.2702C17.8809 5.27049 17.8088 5.27087 17.7368 5.27134C17.5412 5.27232 17.3456 5.27194 17.15 5.27126C16.9453 5.27072 16.7407 5.27122 16.536 5.27156C16.1922 5.27195 15.8485 5.27143 15.5048 5.27041C15.1074 5.26924 14.71 5.26962 14.3126 5.2708C13.9714 5.27178 13.6302 5.27192 13.289 5.27135C13.0852 5.27102 12.8815 5.27097 12.6777 5.27168C12.4861 5.2723 12.2945 5.27187 12.103 5.27063C12.0327 5.27035 11.9623 5.27043 11.892 5.2709C11.796 5.27149 11.7001 5.27075 11.6041 5.26968C11.5504 5.2696 11.4967 5.26952 11.4414 5.26944C11.2626 5.23505 11.1986 5.16746 11.0859 5.02756C11.0589 4.92802 11.0589 4.92802 11.0618 4.83151C11.0617 4.79955 11.0617 4.76759 11.0616 4.73466C11.1298 4.47166 11.3166 4.44743 11.5595 4.44714Z" fill="#6B38B2"/>
<path d="M9.66797 4.72644C9.82688 4.84044 9.87509 4.90875 9.92041 5.09973C9.90895 5.27484 9.83149 5.35844 9.71395 5.48425C9.67881 5.52198 9.64368 5.55971 9.60748 5.59858C9.42921 5.78446 9.2489 5.96804 9.06657 6.14994C9.02727 6.18929 8.98796 6.22864 8.94747 6.26918C8.86524 6.35146 8.78295 6.43367 8.70059 6.51582C8.59502 6.62114 8.48965 6.72666 8.38433 6.83223C8.28332 6.93344 8.18214 7.03448 8.08098 7.13554C8.04316 7.17344 8.00534 7.21135 7.96638 7.2504C7.9315 7.28515 7.89662 7.31989 7.86069 7.35568C7.82999 7.38635 7.79928 7.41702 7.76765 7.44862C7.6737 7.53585 7.61906 7.55978 7.49268 7.58386C7.26711 7.55044 7.16241 7.41913 7.00391 7.26159C6.97849 7.2367 6.95307 7.21181 6.92689 7.18617C6.78268 7.04494 6.63912 6.90306 6.49667 6.76007C6.46013 6.72345 6.46013 6.72345 6.42284 6.68609C6.31664 6.57058 6.27483 6.50067 6.25732 6.34314C6.27594 6.16316 6.31909 6.09875 6.44531 5.97253C6.56648 5.91194 6.65457 5.91901 6.78906 5.92956C6.98485 6.00988 7.101 6.16026 7.23386 6.31897C7.2974 6.39365 7.36324 6.4629 7.43359 6.53112C7.55532 6.47626 7.63799 6.42191 7.72699 6.32266C7.75024 6.29718 7.77349 6.27171 7.79744 6.24546C7.82271 6.21743 7.84799 6.1894 7.87402 6.16052C8.1523 5.85802 8.43782 5.56339 8.72781 5.27217C8.77446 5.22528 8.82103 5.17831 8.86751 5.13126C8.93337 5.06463 8.99951 4.9983 9.06573 4.93205C9.10416 4.89345 9.14259 4.85484 9.18218 4.81507C9.34614 4.66838 9.46205 4.66878 9.66797 4.72644Z" fill="#6B38B2"/>
<path d="M9.71094 9.36762C9.84162 9.48155 9.87718 9.55533 9.91235 9.7248C9.86966 9.95378 9.7444 10.0669 9.58203 10.227C9.55683 10.2523 9.53163 10.2775 9.50566 10.3035C9.45751 10.3516 9.40917 10.3994 9.36063 10.4471C9.28361 10.5254 9.21177 10.6061 9.14026 10.6894C8.91196 10.9519 8.66797 11.1985 8.42355 11.4458C8.36487 11.5055 8.30646 11.5653 8.24832 11.6255C8.16356 11.7131 8.07798 11.7999 7.99219 11.8865C7.96649 11.9134 7.94079 11.9403 7.91431 11.968C7.78789 12.0938 7.70984 12.1551 7.53564 12.2073C7.28137 12.2008 7.15184 12.0615 6.97923 11.888C6.94348 11.8522 6.90773 11.8163 6.87089 11.7794C6.83414 11.7421 6.79739 11.7049 6.75952 11.6664C6.72227 11.6292 6.68502 11.5919 6.64664 11.5535C6.27948 11.1838 6.27948 11.1838 6.25732 10.9843C6.27594 10.8043 6.31909 10.7399 6.44531 10.6137C6.58541 10.5437 6.6764 10.5507 6.83203 10.5707C7.07151 10.7262 7.25459 10.953 7.43359 11.1723C7.60942 11.1045 7.71458 10.9776 7.83626 10.84C8.09901 10.5492 8.37146 10.2694 8.64858 9.99233C8.72686 9.91396 8.80478 9.83524 8.8827 9.75652C8.93278 9.70632 8.98288 9.65613 9.033 9.60596C9.0561 9.58256 9.07919 9.55916 9.10299 9.53505C9.30683 9.33245 9.42914 9.29841 9.71094 9.36762Z" fill="#6B38B2"/>
</g>
<defs>
<clipPath id="clip0_1_11741">
<rect width="22" height="22" fill="white"/>
</clipPath>
</defs>
</svg>
