<svg width="22" height="22" viewBox="0 0 22 22" fill="none" xmlns="http://www.w3.org/2000/svg">
<g clip-path="url(#clip0_1_11720)">
<path d="M4.85993 0.322384C4.92674 0.321712 4.92674 0.321712 4.9949 0.321026C5.04377 0.321409 5.09264 0.321793 5.14299 0.322188C5.22094 0.321786 5.22094 0.321786 5.30046 0.321375C5.44477 0.320808 5.58903 0.321013 5.73334 0.321545C5.88893 0.321933 6.04452 0.321334 6.20011 0.320861C6.50494 0.320096 6.80977 0.320262 7.1146 0.32076C7.36229 0.321148 7.60999 0.321201 7.85768 0.321014C7.91052 0.320974 7.91052 0.320974 7.96443 0.320934C8.03599 0.320879 8.10754 0.320823 8.1791 0.320767C8.85041 0.320276 9.52171 0.32084 10.193 0.321764C10.7693 0.322531 11.3456 0.322398 11.9218 0.321606C12.5907 0.320686 13.2596 0.320323 13.9284 0.320851C13.9997 0.320906 14.071 0.32096 14.1423 0.321014C14.1774 0.32104 14.2125 0.321067 14.2486 0.321094C14.4961 0.321242 14.7435 0.320992 14.991 0.320587C15.2925 0.320106 15.594 0.320235 15.8954 0.321151C16.0493 0.321604 16.2032 0.321779 16.3571 0.321212C16.5237 0.320607 16.6904 0.321328 16.857 0.322188C16.9303 0.321613 16.9303 0.321613 17.0051 0.321026C17.0496 0.321474 17.0942 0.321922 17.1401 0.322384C17.1786 0.322412 17.217 0.32244 17.2567 0.322469C17.3937 0.351222 17.4455 0.407294 17.5313 0.515888C17.5524 0.652459 17.5524 0.652459 17.5519 0.817134C17.5521 0.84746 17.5522 0.877787 17.5524 0.909033C17.5527 1.01065 17.5517 1.11222 17.5508 1.21384C17.5507 1.28667 17.5507 1.35951 17.5508 1.43235C17.5509 1.63014 17.5499 1.82791 17.5487 2.0257C17.5476 2.23238 17.5475 2.43905 17.5473 2.64573C17.5468 3.03713 17.5454 3.42853 17.5436 3.81992C17.5417 4.2655 17.5408 4.71108 17.5399 5.15667C17.5381 6.07329 17.535 6.9899 17.5313 7.90651C17.7581 7.90651 17.985 7.90651 18.2188 7.90651C18.2152 7.80725 18.2117 7.708 18.208 7.60573C18.2048 7.28076 18.2446 7.07131 18.471 6.83397C18.7674 6.55943 19.0009 6.51087 19.4027 6.51842C19.7406 6.5483 19.9182 6.70543 20.1332 6.957C20.2814 7.17211 20.2926 7.36333 20.2866 7.61916C20.2862 7.65098 20.2859 7.6828 20.2855 7.71559C20.2844 7.79356 20.2829 7.87152 20.2813 7.94948C20.3289 7.96651 20.3289 7.96651 20.3776 7.98389C20.4956 8.0352 20.5761 8.08903 20.6733 8.17238C20.7018 8.19603 20.7303 8.21968 20.7596 8.24405C20.9398 8.45099 20.9849 8.6643 20.9843 8.93252C20.9844 8.96068 20.9845 8.98883 20.9846 9.01784C20.9848 9.11133 20.9841 9.2048 20.9834 9.29829C20.9834 9.36564 20.9834 9.433 20.9834 9.50035C20.9835 9.68259 20.9827 9.86482 20.9818 10.0471C20.981 10.2377 20.9809 10.4284 20.9808 10.6191C20.9804 10.9799 20.9793 11.3407 20.978 11.7015C20.9766 12.1124 20.9759 12.5233 20.9752 12.9341C20.9739 13.7791 20.9716 14.6241 20.9688 15.469C21.004 15.467 21.0392 15.465 21.0755 15.463C21.1218 15.4614 21.1681 15.4599 21.2158 15.4583C21.2617 15.4563 21.3076 15.4543 21.3548 15.4522C21.4844 15.469 21.4844 15.469 21.5857 15.5454C21.6919 15.6891 21.6802 15.8331 21.6785 16.0048C21.6789 16.0597 21.6789 16.0597 21.6794 16.1158C21.6802 16.2368 21.6797 16.3578 21.6791 16.4788C21.6792 16.5629 21.6794 16.647 21.6796 16.7311C21.6798 16.9074 21.6795 17.0837 21.6787 17.2599C21.6777 17.4859 21.6782 17.7119 21.6793 17.9379C21.6799 18.1116 21.6797 18.2853 21.6793 18.459C21.6791 18.5423 21.6793 18.6256 21.6797 18.7089C21.6801 18.8254 21.6795 18.9418 21.6785 19.0582C21.6788 19.0927 21.6792 19.1272 21.6795 19.1627C21.6772 19.3156 21.669 19.4049 21.577 19.5296C21.4487 19.6188 21.3597 19.6136 21.2044 19.6108C21.1507 19.6102 21.097 19.6097 21.0416 19.6091C20.9577 19.607 20.9577 19.607 20.8721 19.6048C20.8155 19.604 20.7589 19.6032 20.7005 19.6024C20.5607 19.6004 20.421 19.5975 20.2813 19.594C20.2822 19.6504 20.2831 19.7068 20.284 19.7648C20.2871 19.974 20.2891 20.1832 20.2907 20.3923C20.2916 20.4829 20.2927 20.5734 20.2942 20.6639C20.2963 20.794 20.2973 20.9241 20.298 21.0543C20.2989 21.0947 20.2998 21.1352 20.3007 21.1769C20.3008 21.3409 20.2999 21.4516 20.2184 21.596C20.0548 21.6867 19.907 21.6811 19.7227 21.6793C19.6852 21.6795 19.6477 21.6797 19.609 21.6798C19.5299 21.68 19.4507 21.6796 19.3715 21.6789C19.2504 21.678 19.1294 21.6789 19.0083 21.68C18.9313 21.6799 18.8543 21.6797 18.7773 21.6793C18.7412 21.6797 18.705 21.68 18.6677 21.6804C18.6339 21.6799 18.6001 21.6793 18.5652 21.6788C18.5356 21.6786 18.5059 21.6785 18.4754 21.6783C18.3906 21.6565 18.3906 21.6565 18.2188 21.4846C18.2188 20.8607 18.2188 20.2368 18.2188 19.594C13.4544 19.594 8.69 19.594 3.78125 19.594C3.78125 20.2179 3.78125 20.8418 3.78125 21.4846C3.58784 21.678 3.58784 21.678 3.43482 21.6788C3.38405 21.6796 3.38405 21.6796 3.33226 21.6804C3.27801 21.6799 3.27801 21.6799 3.22266 21.6793C3.18516 21.6795 3.14766 21.6797 3.10903 21.6798C3.02986 21.68 2.95069 21.6796 2.87152 21.6789C2.75041 21.678 2.62941 21.6789 2.5083 21.68C2.43132 21.6799 2.35433 21.6797 2.27735 21.6793C2.24118 21.6797 2.20501 21.68 2.16774 21.6804C2.01553 21.678 1.91607 21.6706 1.78157 21.596C1.68256 21.4205 1.69763 21.2523 1.70197 21.0543C1.70221 21.0126 1.70245 20.9708 1.70271 20.9278C1.70367 20.7947 1.70582 20.6617 1.70801 20.5286C1.70887 20.4383 1.70966 20.348 1.71036 20.2577C1.71225 20.0364 1.71522 19.8152 1.71875 19.594C1.68321 19.5949 1.64766 19.5958 1.61104 19.5967C1.45001 19.6003 1.28899 19.6025 1.12793 19.6048C1.04402 19.6069 1.04402 19.6069 0.958408 19.6091C0.90468 19.6097 0.850952 19.6102 0.795596 19.6108C0.746092 19.6117 0.696588 19.6126 0.645583 19.6135C0.515628 19.594 0.515628 19.594 0.422958 19.5296C0.311467 19.3783 0.319689 19.239 0.321513 19.0582C0.321212 19.0216 0.320911 18.985 0.320601 18.9472C0.319844 18.8262 0.320345 18.7053 0.320926 18.5842C0.32081 18.5001 0.320643 18.416 0.320428 18.3319C0.320174 18.1556 0.320542 17.9794 0.321345 17.8031C0.322325 17.5771 0.321761 17.3511 0.320731 17.1251C0.32011 16.9514 0.320308 16.7778 0.320753 16.6041C0.320868 16.5207 0.320727 16.4374 0.320327 16.3541C0.319891 16.2376 0.320556 16.1212 0.321513 16.0048C0.320991 15.9531 0.320991 15.9531 0.320459 15.9003C0.322648 15.7567 0.327613 15.6627 0.41427 15.5454C0.545612 15.4464 0.621672 15.4512 0.784183 15.4583C0.830488 15.4598 0.876794 15.4614 0.924502 15.463C0.95973 15.465 0.994958 15.467 1.03125 15.469C1.03109 15.4341 1.03094 15.3992 1.03077 15.3633C1.02697 14.5137 1.02413 13.6641 1.02235 12.8145C1.02146 12.4036 1.02025 11.9927 1.01829 11.5819C1.01657 11.2237 1.01546 10.8655 1.01508 10.5074C1.01486 10.3178 1.01433 10.1282 1.01308 9.93859C1.01191 9.75999 1.01155 9.5814 1.01181 9.4028C1.01177 9.3374 1.01143 9.27199 1.01076 9.20659C1.00695 8.80955 1.01528 8.50712 1.28907 8.19538C1.31742 8.17184 1.34578 8.1483 1.375 8.12404C1.40336 8.09973 1.43172 8.07541 1.46094 8.05036C1.54835 7.99146 1.61569 7.96765 1.71875 7.94948C1.71676 7.90384 1.71476 7.8582 1.71271 7.81118C1.69224 7.15531 1.69224 7.15531 1.89063 6.91823C2.09765 6.7017 2.2839 6.5485 2.58971 6.51708C2.95564 6.51304 3.20874 6.52645 3.47896 6.78379C3.71903 7.04349 3.79539 7.24246 3.78662 7.59767C3.78485 7.69959 3.78308 7.80151 3.78125 7.90651C4.00813 7.90651 4.235 7.90651 4.46875 7.90651C4.46837 7.8143 4.46799 7.7221 4.4676 7.62709C4.46409 6.75958 4.46153 5.89208 4.45985 5.02456C4.45896 4.57853 4.45775 4.1325 4.45579 3.68647C4.45408 3.29777 4.45297 2.90908 4.45258 2.52038C4.45236 2.31451 4.45183 2.10864 4.45058 1.90277C4.44942 1.70908 4.44905 1.5154 4.44931 1.3217C4.44927 1.25054 4.44892 1.17938 4.44826 1.10823C4.44741 1.01118 4.44761 0.914186 4.44808 0.817134C4.44793 0.762791 4.44777 0.708448 4.4476 0.652459C4.4855 0.407758 4.62129 0.322557 4.85993 0.322384ZM5.15625 1.03151C5.15625 3.30026 5.15625 5.56901 5.15625 7.90651C5.38313 7.90651 5.61 7.90651 5.84375 7.90651C5.84401 7.83143 5.84426 7.75636 5.84452 7.679C5.84697 6.97272 5.85009 6.26645 5.85388 5.56017C5.85581 5.19704 5.85751 4.8339 5.85864 4.47076C5.85963 4.15431 5.86106 3.83787 5.86303 3.52142C5.86406 3.35381 5.86487 3.1862 5.86514 3.01859C5.86539 2.8609 5.86625 2.70322 5.86757 2.54554C5.86813 2.45992 5.86805 2.3743 5.86796 2.28869C5.8685 2.23789 5.86903 2.1871 5.86959 2.13477C5.86979 2.09052 5.86999 2.04628 5.87019 2.0007C5.88672 1.89089 5.88672 1.89089 5.94073 1.81222C6.03405 1.74963 6.08794 1.74578 6.19991 1.74561C6.2563 1.74507 6.2563 1.74507 6.31383 1.74451C6.37551 1.7449 6.37551 1.7449 6.43843 1.7453C6.50353 1.74496 6.50353 1.74496 6.56994 1.74462C6.71371 1.74405 6.85746 1.74443 7.00122 1.74486C7.10092 1.74477 7.20062 1.74465 7.30032 1.74449C7.50939 1.7443 7.71846 1.74457 7.92753 1.74518C8.19586 1.74591 8.46418 1.74549 8.73251 1.74472C8.93842 1.74425 9.14432 1.7444 9.35023 1.74473C9.44919 1.74482 9.54814 1.74471 9.6471 1.74441C9.78526 1.74409 9.92341 1.74458 10.0616 1.7453C10.1027 1.74504 10.1438 1.74478 10.1862 1.74451C10.2238 1.74487 10.2614 1.74524 10.3001 1.74561C10.3491 1.74569 10.3491 1.74569 10.3991 1.74576C10.5121 1.76726 10.5482 1.7961 10.6133 1.89089C10.6298 2.0007 10.6298 2.0007 10.6304 2.13477C10.631 2.18556 10.6315 2.23635 10.6321 2.28869C10.632 2.34447 10.6319 2.40026 10.6319 2.45774C10.6323 2.51702 10.6327 2.57631 10.6332 2.63559C10.6344 2.79663 10.6348 2.95765 10.635 3.11869C10.6354 3.28695 10.6366 3.4552 10.6376 3.62346C10.6395 3.94211 10.6407 4.26077 10.6417 4.57943C10.6429 4.94219 10.6448 5.30495 10.6467 5.66771C10.6507 6.41398 10.6537 7.16024 10.6563 7.90651C10.8831 7.90651 11.11 7.90651 11.3438 7.90651C11.344 7.83143 11.3443 7.75636 11.3445 7.679C11.347 6.97272 11.3501 6.26645 11.3539 5.56017C11.3558 5.19704 11.3575 4.8339 11.3586 4.47076C11.3596 4.15431 11.3611 3.83787 11.363 3.52142C11.3641 3.35381 11.3649 3.1862 11.3651 3.01859C11.3654 2.8609 11.3663 2.70322 11.3676 2.54554C11.3681 2.45992 11.3681 2.3743 11.368 2.28869C11.3685 2.23789 11.369 2.1871 11.3696 2.13477C11.3698 2.09052 11.37 2.04628 11.3702 2.0007C11.3867 1.89089 11.3867 1.89089 11.4407 1.81222C11.5341 1.74963 11.5879 1.74578 11.6999 1.74561C11.7563 1.74507 11.7563 1.74507 11.8138 1.74451C11.8755 1.7449 11.8755 1.7449 11.9384 1.7453C12.0035 1.74496 12.0035 1.74496 12.0699 1.74462C12.2137 1.74405 12.3575 1.74443 12.5012 1.74486C12.6009 1.74477 12.7006 1.74465 12.8003 1.74449C13.0094 1.7443 13.2185 1.74457 13.4275 1.74518C13.6959 1.74591 13.9642 1.74549 14.2325 1.74472C14.4384 1.74425 14.6443 1.7444 14.8502 1.74473C14.9492 1.74482 15.0481 1.74471 15.1471 1.74441C15.2853 1.74409 15.4234 1.74458 15.5616 1.7453C15.6027 1.74504 15.6438 1.74478 15.6862 1.74451C15.7238 1.74487 15.7614 1.74524 15.8001 1.74561C15.8491 1.74569 15.8491 1.74569 15.8991 1.74576C16.0121 1.76726 16.0482 1.7961 16.1133 1.89089C16.1298 2.0007 16.1298 2.0007 16.1304 2.13477C16.131 2.18556 16.1315 2.23635 16.1321 2.28869C16.132 2.34447 16.1319 2.40026 16.1319 2.45774C16.1323 2.51702 16.1327 2.57631 16.1332 2.63559C16.1344 2.79663 16.1348 2.95765 16.135 3.11869C16.1354 3.28695 16.1366 3.4552 16.1376 3.62346C16.1395 3.94211 16.1407 4.26077 16.1417 4.57943C16.1429 4.94219 16.1448 5.30495 16.1467 5.66771C16.1507 6.41398 16.1537 7.16024 16.1563 7.90651C16.3831 7.90651 16.61 7.90651 16.8438 7.90651C16.8438 5.63776 16.8438 3.36901 16.8438 1.03151C12.9869 1.03151 9.13 1.03151 5.15625 1.03151ZM6.53125 2.40651C6.53125 3.31401 6.53125 4.22151 6.53125 5.15651C7.66563 5.15651 8.8 5.15651 9.96875 5.15651C9.96875 4.24901 9.96875 3.34151 9.96875 2.40651C8.83438 2.40651 7.7 2.40651 6.53125 2.40651ZM12.0313 2.40651C12.0313 3.31401 12.0313 4.22151 12.0313 5.15651C13.1656 5.15651 14.3 5.15651 15.4688 5.15651C15.4688 4.24901 15.4688 3.34151 15.4688 2.40651C14.3344 2.40651 13.2 2.40651 12.0313 2.40651ZM6.53125 5.84401C6.53125 6.52464 6.53125 7.20526 6.53125 7.90651C7.66563 7.90651 8.8 7.90651 9.96875 7.90651C9.96875 7.22589 9.96875 6.54526 9.96875 5.84401C8.83438 5.84401 7.7 5.84401 6.53125 5.84401ZM12.0313 5.84401C12.0313 6.52464 12.0313 7.20526 12.0313 7.90651C13.1656 7.90651 14.3 7.90651 15.4688 7.90651C15.4688 7.22589 15.4688 6.54526 15.4688 5.84401C14.3344 5.84401 13.2 5.84401 12.0313 5.84401ZM2.52173 7.33986C2.37165 7.53441 2.40625 7.63886 2.40625 7.90651C2.63313 7.90651 2.86 7.90651 3.09375 7.90651C3.10081 7.57197 3.10081 7.57197 2.96485 7.30495C2.80177 7.22341 2.66522 7.2274 2.52173 7.33986ZM19.0217 7.33986C18.8717 7.53441 18.9063 7.63886 18.9063 7.90651C19.1331 7.90651 19.36 7.90651 19.5938 7.90651C19.6008 7.57197 19.6008 7.57197 19.4648 7.30495C19.3018 7.22341 19.1652 7.2274 19.0217 7.33986ZM1.80469 8.72292C1.70993 8.88243 1.70812 9.02871 1.70842 9.21155C1.7083 9.2668 1.70818 9.32205 1.70806 9.37897C1.70836 9.43988 1.70868 9.50079 1.709 9.5617C1.70902 9.62608 1.70901 9.69046 1.70896 9.75484C1.70893 9.92936 1.70944 10.1039 1.71004 10.2784C1.71058 10.4609 1.71063 10.6434 1.71073 10.8258C1.711 11.1713 1.7117 11.5167 1.71256 11.8621C1.71352 12.2555 1.714 12.6488 1.71443 13.0421C1.71533 13.8511 1.71686 14.66 1.71875 15.469C1.94563 15.469 2.1725 15.469 2.40625 15.469C2.40665 15.4096 2.40706 15.3503 2.40747 15.2891C2.40919 15.0677 2.41202 14.8464 2.41517 14.6251C2.41638 14.5295 2.41729 14.4339 2.4179 14.3382C2.41882 14.2004 2.42083 14.0626 2.42304 13.9248C2.42309 13.8824 2.42314 13.84 2.4232 13.7963C2.42965 13.4885 2.4925 13.2547 2.69612 13.0188C2.7321 12.99 2.7321 12.99 2.7688 12.9607C2.80461 12.931 2.80461 12.931 2.84114 12.9006C3.01293 12.7885 3.17045 12.751 3.37389 12.7442C3.41779 12.7425 3.46168 12.7409 3.50691 12.7392C3.55224 12.7378 3.59758 12.7365 3.64429 12.7351C3.69046 12.7335 3.73662 12.7318 3.78419 12.7301C3.89779 12.7261 4.01138 12.7224 4.125 12.719C4.12516 12.6945 4.12532 12.6699 4.12548 12.6447C4.12728 12.3881 4.13027 12.1316 4.13392 11.8751C4.13513 11.7795 4.13604 11.6839 4.13665 11.5883C4.13757 11.4504 4.13958 11.3126 4.14179 11.1748C4.14184 11.1324 4.14189 11.09 4.14195 11.0463C4.1484 10.7385 4.21126 10.5047 4.41487 10.2688C4.43886 10.2496 4.46284 10.2305 4.48755 10.2107C4.51143 10.1909 4.5353 10.1711 4.55989 10.1506C4.72527 10.0427 4.8751 10.0013 5.07148 10.0005C5.11394 10.0001 5.15641 9.99976 5.20015 9.99938C5.2693 9.99944 5.2693 9.99944 5.33985 9.9995C5.38878 9.99921 5.43771 9.99892 5.48813 9.99862C5.64992 9.99781 5.81171 9.99764 5.9735 9.99755C6.08605 9.99727 6.19859 9.99698 6.31114 9.99668C6.54712 9.99613 6.78309 9.996 7.01907 9.99606C7.29124 9.99611 7.56341 9.9952 7.83558 9.99384C8.09802 9.99258 8.36045 9.99228 8.6229 9.99233C8.73427 9.99223 8.84564 9.99185 8.95701 9.99118C9.11293 9.99034 9.26881 9.99059 9.42473 9.99111C9.47057 9.99062 9.51641 9.99014 9.56363 9.98964C9.88146 9.99232 10.1091 10.0455 10.3565 10.2589C10.3756 10.2829 10.3948 10.3069 10.4146 10.3316C10.4443 10.3674 10.4443 10.3674 10.4746 10.4039C10.5807 10.5663 10.6239 10.7163 10.627 10.9093C10.6283 10.9699 10.6283 10.9699 10.6296 11.0317C10.6303 11.0963 10.6303 11.0963 10.6311 11.1622C10.6323 11.229 10.6323 11.229 10.6336 11.2971C10.6362 11.439 10.6382 11.5808 10.6401 11.7227C10.6418 11.819 10.6435 11.9153 10.6452 12.0116C10.6493 12.2474 10.6529 12.4832 10.6563 12.719C10.8831 12.719 11.11 12.719 11.3438 12.719C11.3444 12.6299 11.3444 12.6299 11.345 12.5391C11.3467 12.3177 11.3495 12.0964 11.3527 11.8751C11.3539 11.7795 11.3548 11.6839 11.3554 11.5883C11.3563 11.4504 11.3583 11.3126 11.3605 11.1748C11.3606 11.1324 11.3606 11.09 11.3607 11.0463C11.3672 10.7385 11.43 10.5047 11.6336 10.2688C11.6576 10.2496 11.6816 10.2305 11.7063 10.2107C11.7302 10.1909 11.754 10.1711 11.7786 10.1506C11.944 10.0427 12.0939 10.0013 12.2902 10.0005C12.3327 10.0001 12.3752 9.99976 12.4189 9.99938C12.465 9.99942 12.5111 9.99946 12.5586 9.9995C12.6075 9.99921 12.6565 9.99892 12.7069 9.99862C12.8687 9.99781 13.0305 9.99764 13.1923 9.99755C13.3048 9.99727 13.4173 9.99698 13.5299 9.99668C13.7659 9.99613 14.0018 9.996 14.2378 9.99606C14.51 9.99611 14.7822 9.9952 15.0543 9.99384C15.3168 9.99258 15.5792 9.99228 15.8416 9.99233C15.953 9.99223 16.0644 9.99185 16.1758 9.99118C16.3317 9.99034 16.4876 9.99059 16.6435 9.99111C16.6893 9.99062 16.7352 9.99014 16.7824 9.98964C17.1002 9.99232 17.3279 10.0455 17.5752 10.2589C17.5944 10.2829 17.6136 10.3069 17.6333 10.3316C17.663 10.3674 17.663 10.3674 17.6934 10.4039C17.7994 10.5663 17.8426 10.7163 17.8457 10.9093C17.847 10.9699 17.847 10.9699 17.8483 11.0317C17.8491 11.0963 17.8491 11.0963 17.8498 11.1622C17.8511 11.229 17.8511 11.229 17.8524 11.2971C17.8549 11.439 17.8569 11.5808 17.8589 11.7227C17.8605 11.819 17.8622 11.9153 17.8639 12.0116C17.868 12.2474 17.8717 12.4832 17.875 12.719C17.9031 12.7194 17.9313 12.7198 17.9603 12.7202C18.0894 12.7226 18.2185 12.7261 18.3477 12.7298C18.3919 12.7304 18.4362 12.731 18.4818 12.7316C18.8051 12.7419 19.0422 12.7916 19.294 13.0089C19.3131 13.0329 19.3323 13.0569 19.3521 13.0816C19.3818 13.1174 19.3818 13.1174 19.4121 13.1539C19.5182 13.3163 19.5614 13.4663 19.5645 13.6593C19.5658 13.7199 19.5658 13.7199 19.5671 13.7817C19.5676 13.8248 19.5681 13.8679 19.5686 13.9122C19.5698 13.979 19.5698 13.979 19.5711 14.0471C19.5737 14.189 19.5757 14.3308 19.5776 14.4727C19.5793 14.569 19.581 14.6653 19.5827 14.7616C19.5868 14.9974 19.5904 15.2332 19.5938 15.469C19.8206 15.469 20.0475 15.469 20.2813 15.469C20.2842 14.6219 20.2865 13.7748 20.2879 12.9277C20.2886 12.5343 20.2895 12.141 20.291 11.7477C20.2923 11.4048 20.2931 11.062 20.2934 10.7191C20.2936 10.5376 20.2939 10.3561 20.2949 10.1746C20.2958 10.0037 20.296 9.83277 20.2958 9.66186C20.2959 9.59919 20.2961 9.53652 20.2966 9.47385C20.2973 9.38814 20.297 9.30243 20.2968 9.21672C20.2969 9.16879 20.297 9.12086 20.2971 9.07149C20.2783 8.91317 20.24 8.81311 20.1523 8.67995C19.9788 8.5876 19.827 8.58321 19.6326 8.58308C19.6023 8.58294 19.5719 8.5828 19.5407 8.58266C19.4387 8.5823 19.3368 8.58256 19.2348 8.58281C19.1611 8.58268 19.0873 8.58251 19.0136 8.58231C18.8108 8.58187 18.608 8.58196 18.4051 8.58215C18.1865 8.58225 17.9678 8.58187 17.7492 8.58155C17.3207 8.581 16.8923 8.58092 16.4639 8.58102C16.1157 8.5811 15.7676 8.58102 15.4194 8.58084C15.3699 8.58081 15.3204 8.58079 15.2694 8.58076C15.1688 8.58071 15.0683 8.58066 14.9677 8.58061C14.0241 8.58014 13.0806 8.58023 12.137 8.58049C11.2733 8.58072 10.4097 8.58023 9.54599 8.57941C8.65966 8.57858 7.77332 8.57823 6.88699 8.57839C6.38918 8.57847 5.89138 8.57836 5.39357 8.57776C4.96981 8.57725 4.54605 8.57718 4.12229 8.5777C3.906 8.57796 3.68972 8.578 3.47343 8.57749C3.27552 8.57703 3.07762 8.57715 2.87971 8.57776C2.80803 8.57787 2.73635 8.57777 2.66467 8.57743C2.56737 8.57699 2.47009 8.57735 2.37279 8.57791C2.3187 8.57791 2.26462 8.57791 2.20889 8.5779C2.04685 8.59573 1.94301 8.63785 1.80469 8.72292ZM4.89844 10.7854C4.65883 11.3844 4.8125 12.0738 4.8125 12.719C6.51407 12.719 8.21563 12.719 9.96875 12.719C10.0519 11.6959 10.0519 11.6959 9.83985 10.7424C9.65015 10.6175 9.4139 10.6441 9.19449 10.6447C9.15128 10.6445 9.10808 10.6443 9.06357 10.644C8.92089 10.6434 8.77822 10.6435 8.63555 10.6436C8.53628 10.6434 8.43702 10.6432 8.33775 10.643C8.12973 10.6427 7.92172 10.6427 7.7137 10.6429C7.44721 10.6432 7.18074 10.6425 6.91425 10.6415C6.70926 10.6408 6.50428 10.6408 6.29929 10.6409C6.20104 10.6409 6.10279 10.6407 6.00454 10.6403C5.86713 10.6397 5.72974 10.64 5.59233 10.6405C5.55181 10.6402 5.51129 10.6399 5.46954 10.6395C5.24973 10.6413 5.0833 10.6526 4.89844 10.7854ZM12.1172 10.7854C11.8776 11.3844 12.0313 12.0738 12.0313 12.719C13.7328 12.719 15.4344 12.719 17.1875 12.719C17.2707 11.6959 17.2707 11.6959 17.0586 10.7424C16.8689 10.6175 16.6326 10.6441 16.4132 10.6447C16.37 10.6445 16.3268 10.6443 16.2823 10.644C16.1396 10.6434 15.997 10.6435 15.8543 10.6436C15.755 10.6434 15.6558 10.6432 15.5565 10.643C15.3485 10.6427 15.1405 10.6427 14.9325 10.6429C14.666 10.6432 14.3995 10.6425 14.133 10.6415C13.928 10.6408 13.723 10.6408 13.518 10.6409C13.4198 10.6409 13.3215 10.6407 13.2233 10.6403C13.0859 10.6397 12.9485 10.64 12.8111 10.6405C12.7706 10.6402 12.73 10.6399 12.6883 10.6395C12.4685 10.6413 12.302 10.6526 12.1172 10.7854ZM3.17969 13.5354C2.94008 14.1344 3.09375 14.8238 3.09375 15.469C8.31188 15.469 13.53 15.469 18.9063 15.469C18.9894 14.4459 18.9894 14.4459 18.7773 13.4924C18.621 13.4003 18.4796 13.3957 18.3006 13.3956C18.2476 13.3953 18.1947 13.3951 18.1401 13.3948C18.0815 13.395 18.0228 13.3951 17.9642 13.3953C17.9018 13.3952 17.8394 13.395 17.777 13.3948C17.6056 13.3944 17.4341 13.3945 17.2626 13.3946C17.0777 13.3948 16.8928 13.3944 16.7079 13.394C16.3456 13.3935 15.9834 13.3934 15.6211 13.3935C15.3267 13.3936 15.0323 13.3935 14.7379 13.3933C14.696 13.3933 14.6542 13.3933 14.611 13.3933C14.526 13.3932 14.4409 13.3932 14.3558 13.3931C13.5578 13.3926 12.7599 13.3927 11.9619 13.393C11.2316 13.3932 10.5013 13.3927 9.77096 13.3919C9.02135 13.3911 8.27175 13.3907 7.52215 13.3909C7.10119 13.391 6.68024 13.3909 6.25928 13.3903C5.90094 13.3897 5.5426 13.3897 5.18426 13.3902C5.00138 13.3905 4.81852 13.3905 4.63565 13.39C4.46827 13.3895 4.3009 13.3897 4.13353 13.3903C4.07295 13.3904 4.01237 13.3903 3.9518 13.3899C3.86948 13.3895 3.78716 13.3899 3.70484 13.3904C3.65911 13.3904 3.61338 13.3904 3.56626 13.3904C3.41079 13.4099 3.31083 13.4497 3.17969 13.5354ZM1.03125 16.1565C1.03125 17.064 1.03125 17.9715 1.03125 18.9065C7.61063 18.9065 14.19 18.9065 20.9688 18.9065C20.9688 17.999 20.9688 17.0915 20.9688 16.1565C14.3894 16.1565 7.81 16.1565 1.03125 16.1565ZM2.40625 19.594C2.40625 20.0478 2.40625 20.5015 2.40625 20.969C2.63313 20.969 2.86 20.969 3.09375 20.969C3.09375 20.5153 3.09375 20.0615 3.09375 19.594C2.86688 19.594 2.64 19.594 2.40625 19.594ZM18.9063 19.594C18.9063 20.0478 18.9063 20.5015 18.9063 20.969C19.1331 20.969 19.36 20.969 19.5938 20.969C19.5938 20.5153 19.5938 20.0615 19.5938 19.594C19.3669 19.594 19.14 19.594 18.9063 19.594Z" fill="#6B38B2"/>
</g>
<defs>
<clipPath id="clip0_1_11720">
<rect width="22" height="22" fill="white"/>
</clipPath>
</defs>
</svg>
