<svg width="22" height="22" viewBox="0 0 22 22" fill="none" xmlns="http://www.w3.org/2000/svg">
<g clip-path="url(#clip0_1_11725)">
<path d="M4.45259 13.0867C4.51604 13.1349 4.57873 13.1842 4.64058 13.2344C4.67591 13.261 4.71125 13.2876 4.74766 13.315C5.15198 13.6576 5.38817 14.1408 5.49995 14.6524C5.50355 14.7774 5.50494 14.9014 5.50415 15.0264C5.50409 15.0624 5.50402 15.0984 5.50396 15.1355C5.50372 15.2502 5.50318 15.3649 5.50264 15.4796C5.50242 15.5574 5.50222 15.6353 5.50205 15.7132C5.50157 15.9039 5.50083 16.0946 5.49995 16.2852C5.53919 16.2741 5.57842 16.263 5.61885 16.2516C6.0011 16.1462 6.38109 16.064 6.7729 16.0006C6.84942 15.9874 6.84942 15.9874 6.92749 15.974C7.76324 15.8361 8.59049 15.7976 9.437 15.799C9.60205 15.7991 9.76707 15.7981 9.93211 15.797C10.9272 15.7944 11.9127 15.8697 12.8879 16.0731C12.9442 16.0842 13.0005 16.0953 13.0568 16.1064C13.2939 16.154 13.5215 16.2051 13.75 16.2852C13.7491 16.24 13.7481 16.1948 13.7472 16.1481C13.7441 15.9777 13.7421 15.8072 13.7405 15.6367C13.7397 15.5634 13.7385 15.4901 13.737 15.4168C13.7214 14.6365 13.87 13.9856 14.4187 13.3956C14.9543 12.8901 15.5585 12.6952 16.2857 12.6977C16.8335 12.7138 17.2752 12.8867 17.7031 13.2344C17.7389 13.2614 17.7746 13.2883 17.8115 13.316C18.2078 13.6523 18.5208 14.2351 18.5726 14.7546C18.6108 15.4933 18.5262 16.0821 18.0468 16.6719C18.0201 16.7077 17.9933 16.7434 17.9658 16.7802C17.6292 17.1752 17.1265 17.4146 16.6289 17.5313C16.5863 17.5313 16.5438 17.5313 16.5 17.5313C16.5008 17.5814 16.5017 17.6314 16.5027 17.683C16.5058 17.8701 16.5078 18.0572 16.5094 18.2444C16.5103 18.3251 16.5114 18.4059 16.5129 18.4866C16.515 18.6032 16.516 18.7197 16.5167 18.8363C16.5176 18.8719 16.5185 18.9075 16.5194 18.9442C16.5196 19.3437 16.3441 19.6929 16.0703 19.9805C15.7714 20.216 15.4987 20.2855 15.125 20.2813C15.1258 20.3169 15.1267 20.3524 15.1277 20.389C15.1312 20.5501 15.1335 20.7111 15.1357 20.8721C15.1379 20.9561 15.1379 20.9561 15.1401 21.0417C15.1406 21.0954 15.1412 21.1491 15.1417 21.2045C15.1426 21.254 15.1435 21.3035 15.1445 21.3545C15.125 21.4844 15.125 21.4844 15.0574 21.5865C14.9144 21.6822 14.813 21.6785 14.6416 21.6791C14.6117 21.6793 14.5818 21.6795 14.551 21.6796C14.4881 21.6798 14.4251 21.6794 14.3621 21.6787C14.2659 21.6778 14.1698 21.6787 14.0736 21.6798C14.0122 21.6797 13.9509 21.6795 13.8896 21.6791C13.834 21.679 13.7784 21.6788 13.7211 21.6786C13.5513 21.6522 13.5078 21.6205 13.4062 21.4844C13.3568 21.4001 13.3107 21.3138 13.2672 21.2263C13.2426 21.1768 13.2179 21.1274 13.1925 21.0764C13.1737 21.038 13.1737 21.038 13.1546 20.9989C13.116 20.9202 13.077 20.8419 13.0378 20.7635C12.8476 20.3793 12.8476 20.3793 12.8476 20.2813C10.7207 20.2813 8.5937 20.2813 6.40229 20.2813C6.35976 20.4089 6.35976 20.4089 6.31636 20.5391C6.23644 20.7171 6.14839 20.891 6.06123 21.0655C6.0381 21.1128 6.01498 21.1601 5.99115 21.2088C5.96869 21.2539 5.94623 21.299 5.92309 21.3455C5.90271 21.3866 5.88233 21.4277 5.86133 21.4701C5.80073 21.5704 5.80073 21.5704 5.67183 21.6563C5.47628 21.674 5.28033 21.6723 5.08408 21.6722C4.98749 21.6724 4.89098 21.674 4.79441 21.6756C4.73289 21.6759 4.67138 21.676 4.60986 21.6761C4.55397 21.6765 4.49809 21.6768 4.44051 21.6772C4.29683 21.6563 4.29683 21.6563 4.19237 21.5866C4.10341 21.4518 4.10524 21.3653 4.10817 21.2045C4.10872 21.1507 4.10927 21.097 4.10984 21.0417C4.11128 20.9857 4.11272 20.9298 4.11421 20.8721C4.11498 20.8155 4.11576 20.7589 4.11656 20.7006C4.11858 20.5608 4.12141 20.4211 4.12495 20.2813C4.07222 20.2828 4.01949 20.2842 3.96516 20.2857C3.61493 20.2852 3.30023 20.0891 3.05073 19.8516C2.80507 19.5399 2.73679 19.2386 2.74156 18.8489C2.74168 18.8111 2.7418 18.7733 2.74193 18.7344C2.74241 18.6145 2.74348 18.4945 2.74458 18.3746C2.74501 18.293 2.7454 18.2113 2.74575 18.1297C2.7467 17.9302 2.74818 17.7308 2.74995 17.5313C2.72121 17.526 2.69246 17.5207 2.66285 17.5152C2.60568 17.5042 2.60568 17.5042 2.54736 17.493C2.50975 17.4859 2.47215 17.4788 2.4334 17.4715C1.81105 17.3277 1.33092 16.8873 0.988232 16.3712C0.75998 15.9937 0.663513 15.5934 0.668651 15.1546C0.668977 15.1153 0.669302 15.0759 0.669638 15.0354C0.677421 14.7133 0.729515 14.4336 0.859325 14.1368C0.876053 14.097 0.89278 14.0571 0.910015 14.0161C1.19779 13.4159 1.70836 13.0333 2.32026 12.8048C3.02134 12.5713 3.84438 12.6723 4.45259 13.0867ZM14.9506 13.9154C14.4346 14.4557 14.4234 15.1627 14.4321 15.8663C14.4325 15.9281 14.4329 15.9899 14.4333 16.0517C14.4342 16.2012 14.4357 16.3506 14.4375 16.5001C14.4729 16.5147 14.5083 16.5293 14.5448 16.5443C14.6144 16.5732 14.6144 16.5732 14.6855 16.6026C14.7316 16.6217 14.7776 16.6407 14.8251 16.6603C14.9219 16.7016 15.0155 16.7443 15.1088 16.7928C15.2047 16.8502 15.2047 16.8502 15.2968 16.8438C15.1976 17.0423 15.0983 17.2408 14.996 17.4454C14.8447 17.4151 14.7295 17.387 14.5897 17.3321C11.5403 16.1614 7.51318 16.0956 4.50009 17.3996C4.38276 17.4454 4.38276 17.4454 4.25386 17.4454C4.1546 17.2469 4.05534 17.0483 3.95308 16.8438C4.08069 16.8013 4.08069 16.8013 4.21089 16.7579C4.30868 16.7218 4.40625 16.685 4.50361 16.6478C4.57714 16.6198 4.57714 16.6198 4.65216 16.5912C4.7639 16.5541 4.7639 16.5541 4.81245 16.5001C4.82196 16.3128 4.82043 16.1252 4.82041 15.9377C4.8205 15.8441 4.82128 15.7506 4.8221 15.6571C4.82506 14.9447 4.73934 14.3827 4.23707 13.8476C3.82072 13.4855 3.36472 13.4173 2.83534 13.4418C2.37693 13.4821 2.01427 13.7633 1.72676 14.1046C1.4221 14.5261 1.36791 14.9626 1.41792 15.4688C1.52118 15.9422 1.80379 16.3041 2.19136 16.586C2.44981 16.7476 2.73234 16.7949 3.02941 16.8384C3.19387 16.8643 3.29224 16.8816 3.39448 17.0157C3.41075 17.1004 3.41075 17.1004 3.41101 17.1977C3.41145 17.2343 3.41188 17.2709 3.41233 17.3086C3.4122 17.3481 3.41207 17.3876 3.41194 17.4283C3.4124 17.4691 3.41287 17.51 3.41335 17.5521C3.41482 17.683 3.41549 17.8139 3.41597 17.9449C3.41659 18.1164 3.41805 18.288 3.41999 18.4595C3.41986 18.4985 3.41973 18.5374 3.4196 18.5776C3.42274 18.8481 3.44564 19.1423 3.62113 19.3614C3.8965 19.6126 4.22605 19.6064 4.57612 19.605C4.64348 19.6053 4.64348 19.6053 4.71219 19.6055C4.86237 19.606 5.01254 19.6058 5.16273 19.6056C5.27052 19.6058 5.37831 19.606 5.48609 19.6063C5.74833 19.6068 6.01056 19.6069 6.27279 19.6068C6.486 19.6067 6.69922 19.6068 6.91243 19.607C6.958 19.607 6.958 19.607 7.00448 19.6071C7.0662 19.6071 7.12791 19.6072 7.18963 19.6072C7.76808 19.6077 8.34652 19.6076 8.92497 19.6073C9.45373 19.6071 9.98249 19.6076 10.5113 19.6084C11.0546 19.6093 11.598 19.6096 12.1414 19.6094C12.4463 19.6094 12.7512 19.6095 13.0561 19.6101C13.3428 19.6106 13.6296 19.6105 13.9163 19.61C14.0215 19.6099 14.1266 19.61 14.2318 19.6103C14.3755 19.6108 14.5192 19.6104 14.6629 19.6099C14.7043 19.6102 14.7458 19.6105 14.7885 19.6109C15.0619 19.6087 15.3583 19.5878 15.58 19.4101C15.8277 19.1388 15.8249 18.8133 15.8257 18.4679C15.8268 18.3833 15.8279 18.2987 15.829 18.2141C15.8302 18.0816 15.8313 17.9491 15.8321 17.8167C15.833 17.6882 15.8347 17.5597 15.8365 17.4313C15.8365 17.3915 15.8365 17.3518 15.8365 17.3108C15.837 17.274 15.8376 17.2371 15.8382 17.1991C15.8384 17.1667 15.8386 17.1343 15.8389 17.1009C15.8602 16.9911 15.8959 16.9538 15.9843 16.8868C16.0937 16.8622 16.1987 16.8434 16.3093 16.8277C16.8281 16.7409 17.2489 16.5263 17.5666 16.0922C17.8449 15.6488 17.912 15.154 17.8024 14.6437C17.6559 14.2064 17.3642 13.8507 16.9703 13.6103C16.2686 13.262 15.5238 13.4009 14.9506 13.9154ZM4.81245 20.2813C4.81245 20.5082 4.81245 20.7351 4.81245 20.9688C4.96843 20.9688 5.1244 20.9688 5.28511 20.9688C5.33545 20.8705 5.38554 20.772 5.4355 20.6734C5.44984 20.6454 5.46419 20.6175 5.47897 20.5886C5.55875 20.4423 5.55875 20.4423 5.58589 20.2813C5.33065 20.2813 5.07542 20.2813 4.81245 20.2813ZM13.664 20.2813C13.7234 20.4595 13.7786 20.6061 13.8627 20.7701C13.8964 20.8357 13.9301 20.9012 13.9648 20.9688C14.1208 20.9688 14.2767 20.9688 14.4375 20.9688C14.4375 20.7419 14.4375 20.5151 14.4375 20.2813C14.1822 20.2813 13.927 20.2813 13.664 20.2813Z" fill="#6B38B2"/>
<path d="M10.3884 0.332385C10.4304 0.33219 10.4724 0.331995 10.5158 0.331795C10.6565 0.331251 10.7972 0.331321 10.9379 0.331392C11.0388 0.331135 11.1398 0.330842 11.2407 0.330517C11.5149 0.329758 11.789 0.329557 12.0632 0.329502C12.2632 0.329431 12.4633 0.329181 12.6634 0.328914C13.2016 0.328201 13.7398 0.327879 14.278 0.327941C14.3086 0.327944 14.3391 0.327948 14.3706 0.327951C14.4165 0.327956 14.4165 0.327956 14.4633 0.327962C14.9587 0.327997 15.4541 0.327175 15.9495 0.325963C16.4586 0.324727 16.9678 0.324135 17.4769 0.324209C17.7626 0.324237 18.0482 0.323987 18.3339 0.323077C18.6026 0.322244 18.8714 0.322238 19.1401 0.322863C19.2386 0.322953 19.3371 0.322751 19.4356 0.322231C19.5704 0.321565 19.7051 0.321967 19.8398 0.322629C19.8979 0.321965 19.8979 0.321965 19.9571 0.321289C20.3325 0.325341 20.6689 0.441654 20.9459 0.700382C21.2064 0.99005 21.3231 1.29495 21.3236 1.68493C21.3237 1.71529 21.3239 1.74565 21.324 1.77693C21.3244 1.87867 21.3242 1.98039 21.324 2.08213C21.3242 2.15581 21.3244 2.22949 21.3246 2.30316C21.3251 2.50564 21.3251 2.70811 21.325 2.91059C21.325 3.12895 21.3255 3.34731 21.3259 3.56568C21.3266 3.99349 21.3268 4.42131 21.3269 4.84913C21.3269 5.19684 21.3271 5.54456 21.3274 5.89228C21.3281 6.87796 21.3285 7.86363 21.3285 8.84931C21.3285 8.90246 21.3285 8.9556 21.3285 9.01036C21.3284 9.06357 21.3284 9.11678 21.3284 9.1716C21.3284 10.0341 21.3292 10.8965 21.3304 11.759C21.3317 12.6444 21.3323 13.5298 21.3322 14.4153C21.3322 14.9124 21.3324 15.4096 21.3333 15.9067C21.3341 16.33 21.3343 16.7533 21.3337 17.1765C21.3334 17.3925 21.3334 17.6085 21.3342 17.8244C21.3348 18.0222 21.3347 18.2199 21.334 18.4177C21.3338 18.4891 21.334 18.5606 21.3345 18.6321C21.3368 18.9959 21.338 19.3168 21.1407 19.6368C21.1205 19.6716 21.1003 19.7064 21.0796 19.7423C20.8752 20.0188 20.6206 20.2036 20.2813 20.2814C20.1665 20.2851 20.0524 20.2827 19.9375 20.2814C19.9384 20.3169 19.9393 20.3525 19.9403 20.3891C19.9438 20.5501 19.9461 20.7111 19.9483 20.8722C19.9497 20.9281 19.9511 20.9841 19.9526 21.0417C19.9532 21.0954 19.9537 21.1492 19.9543 21.2045C19.9552 21.254 19.9561 21.3035 19.957 21.3545C19.9375 21.4845 19.9375 21.4845 19.87 21.5865C19.7269 21.6823 19.6256 21.6786 19.4541 21.6792C19.4243 21.6794 19.3944 21.6795 19.3636 21.6797C19.3006 21.6798 19.2376 21.6795 19.1747 21.6788C19.0784 21.6779 18.9824 21.6788 18.8861 21.6799C18.8248 21.6798 18.7635 21.6795 18.7022 21.6792C18.6466 21.679 18.591 21.6788 18.5337 21.6786C18.3639 21.6522 18.3204 21.6205 18.2188 21.4845C18.1693 21.4002 18.1232 21.3139 18.0798 21.2264C18.0428 21.1522 18.0428 21.1522 18.0051 21.0765C17.9926 21.0509 17.9801 21.0253 17.9672 20.9989C17.9286 20.9203 17.8895 20.8419 17.8504 20.7636C17.6602 20.3794 17.6602 20.3794 17.6602 20.2814C17.3908 20.2814 17.1214 20.2814 16.8438 20.2814C16.8438 20.0545 16.8438 19.8276 16.8438 19.5939C16.9355 19.5933 17.0272 19.5926 17.1216 19.592C17.4257 19.5898 17.7298 19.5869 18.0339 19.5837C18.2181 19.5818 18.4023 19.5801 18.5866 19.579C18.7646 19.5779 18.9426 19.5761 19.1206 19.574C19.1883 19.5733 19.256 19.5728 19.3237 19.5725C19.9178 19.5866 19.9178 19.5866 20.429 19.3253C20.561 19.093 20.5928 18.8661 20.593 18.602C20.5931 18.5728 20.5933 18.5435 20.5934 18.5134C20.5938 18.4157 20.5935 18.318 20.5933 18.2203C20.5934 18.1494 20.5936 18.0785 20.5938 18.0077C20.5942 17.8131 20.5941 17.6186 20.5939 17.4241C20.5938 17.2142 20.5942 17.0043 20.5945 16.7944C20.5951 16.3832 20.5952 15.9721 20.5951 15.561C20.595 15.2268 20.595 14.8927 20.5952 14.5585C20.5953 14.4872 20.5953 14.4872 20.5953 14.4144C20.5954 14.3178 20.5954 14.2212 20.5955 14.1246C20.5959 13.2187 20.5958 12.3127 20.5956 11.4067C20.5954 10.5778 20.5958 9.749 20.5967 8.92015C20.5975 8.06911 20.5978 7.21807 20.5977 6.36703C20.5976 5.88923 20.5977 5.41143 20.5983 4.93363C20.5988 4.52687 20.5989 4.12011 20.5984 3.71336C20.5981 3.50584 20.5981 3.29833 20.5986 3.09082C20.599 2.90077 20.5989 2.71074 20.5983 2.5207C20.5982 2.45203 20.5983 2.38336 20.5986 2.31469C20.6159 1.72981 20.6159 1.72981 20.3565 1.22742C20.0764 1.06831 19.8079 1.06136 19.4932 1.06064C19.4488 1.06021 19.4045 1.05977 19.3588 1.05932C19.2161 1.05801 19.0734 1.05727 18.9306 1.05655C18.8422 1.05582 18.7538 1.05506 18.6653 1.05426C18.3383 1.05155 18.0113 1.04956 17.6844 1.04749C16.5876 1.03951 16.5876 1.03951 15.4688 1.03138C15.4688 3.41356 15.4688 5.79575 15.4688 8.25013C15.2419 8.25013 15.015 8.25013 14.7813 8.25013C14.7813 5.86794 14.7813 3.48575 14.7813 1.03138C14.0519 1.03581 13.3225 1.04024 12.5711 1.0448C12.2264 1.04641 12.2264 1.04641 11.8748 1.04804C11.6677 1.04962 11.6677 1.04962 11.4606 1.05136C11.3688 1.05205 11.277 1.05249 11.1852 1.05274C11.0457 1.05316 10.9062 1.05438 10.7666 1.05577C10.7262 1.0557 10.6857 1.05564 10.644 1.05558C10.3453 1.05981 10.0479 1.09056 9.82107 1.29993C9.68432 1.54061 9.65351 1.79203 9.62503 2.06263C9.39815 2.06263 9.17128 2.06263 8.93753 2.06263C8.91974 1.53781 8.91566 1.11558 9.29403 0.710453C9.62256 0.415083 9.95597 0.330912 10.3884 0.332385ZM18.4766 20.2814C18.536 20.4596 18.5911 20.6062 18.6753 20.7701C18.709 20.8357 18.7427 20.9013 18.7774 20.9689C18.9333 20.9689 19.0893 20.9689 19.25 20.9689C19.25 20.742 19.25 20.5151 19.25 20.2814C18.9948 20.2814 18.7396 20.2814 18.4766 20.2814Z" fill="#6B38B2"/>
<path d="M6.18756 2.0625C6.41443 2.0625 6.64131 2.0625 6.87506 2.0625C6.87506 2.28938 6.87506 2.51625 6.87506 2.75C7.00648 2.74865 7.00648 2.74865 7.14055 2.74727C7.43005 2.74442 7.71954 2.74253 8.00905 2.74109C8.18458 2.7402 8.36009 2.73898 8.53561 2.73703C8.705 2.73517 8.87438 2.73414 9.04378 2.73369C9.1084 2.73338 9.17303 2.73276 9.23764 2.73183C9.32818 2.73058 9.41866 2.73041 9.5092 2.73049C9.56073 2.73011 9.61225 2.72972 9.66534 2.72933C9.82391 2.75424 9.87274 2.7957 9.96881 2.92188C10.0201 3.07562 10.031 3.22479 10.0443 3.38515C10.0472 3.4192 10.0501 3.45325 10.0532 3.48833C10.0629 3.60129 10.0723 3.71426 10.0818 3.82724C10.0884 3.90623 10.0951 3.98522 10.1018 4.06421C10.1158 4.23029 10.1297 4.39637 10.1435 4.56247C10.1611 4.77335 10.179 4.98419 10.1971 5.19503C10.2111 5.35855 10.2248 5.5221 10.2384 5.68565C10.2449 5.76325 10.2515 5.84084 10.2582 5.91842C10.2911 6.30121 10.3193 6.68396 10.3273 7.06817C10.3285 7.09828 10.3297 7.12839 10.3309 7.15941C10.332 7.29616 10.3197 7.37937 10.2457 7.4955C10.1048 7.58543 9.98322 7.58535 9.8214 7.58201C9.77358 7.58205 9.77358 7.58205 9.7248 7.58209C9.61969 7.58197 9.51464 7.58063 9.40954 7.57928C9.33657 7.57896 9.2636 7.57872 9.19063 7.57855C8.99876 7.57789 8.80692 7.5762 8.61506 7.5743C8.41921 7.57254 8.22335 7.57176 8.02749 7.57089C7.64334 7.56905 7.2592 7.56603 6.87506 7.5625C6.87506 7.78937 6.87506 8.01625 6.87506 8.25C6.64818 8.25 6.42131 8.25 6.18756 8.25C6.18756 8.02313 6.18756 7.79625 6.18756 7.5625C6.04052 7.56385 6.04052 7.56385 5.89051 7.56523C5.56671 7.56807 5.24292 7.56997 4.91911 7.5714C4.72277 7.5723 4.52645 7.57352 4.33012 7.57547C4.14067 7.57733 3.95123 7.57836 3.76177 7.57881C3.68947 7.57912 3.61718 7.57975 3.54489 7.58067C3.44365 7.58192 3.34246 7.58209 3.24122 7.58201C3.19634 7.58294 3.19634 7.58294 3.15056 7.58388C3.01507 7.58273 2.93197 7.5689 2.81695 7.49551C2.72622 7.35324 2.72894 7.23093 2.73549 7.06789C2.73616 7.03584 2.73684 7.00379 2.73754 6.97076C2.74799 6.58247 2.77908 6.19531 2.81132 5.80833C2.81777 5.72907 2.8242 5.64981 2.83063 5.57055C2.84404 5.40606 2.85768 5.24158 2.87148 5.07712C2.8891 4.86676 2.90595 4.65635 2.9226 4.44592C2.93561 4.28292 2.94912 4.11997 2.96276 3.95702C2.96918 3.87941 2.97543 3.80179 2.98151 3.72415C2.99003 3.61598 2.99923 3.50789 3.00859 3.39979C3.01094 3.36811 3.01329 3.33644 3.01571 3.3038C3.03357 3.10817 3.07705 2.96077 3.17974 2.79297C3.30245 2.73162 3.4065 2.74487 3.54366 2.74512C3.58642 2.74511 3.58642 2.74511 3.63006 2.7451C3.72445 2.74513 3.81884 2.74547 3.91323 2.7458C3.97862 2.74588 4.04401 2.74595 4.10939 2.74599C4.28161 2.74615 4.45383 2.74657 4.62605 2.74705C4.80174 2.74749 4.97743 2.74769 5.15312 2.7479C5.49793 2.74836 5.84274 2.74912 6.18756 2.75C6.18756 2.52312 6.18756 2.29625 6.18756 2.0625ZM3.78131 3.4375C3.64692 4.57983 3.57153 5.72839 3.48053 6.875C5.49404 6.875 7.50756 6.875 9.58209 6.875C9.45339 5.15411 9.45339 5.15411 9.28131 3.4375C7.46631 3.4375 5.65131 3.4375 3.78131 3.4375Z" fill="#6B38B2"/>
<path d="M4.25301 8.92613C4.30065 8.92594 4.34829 8.92575 4.39738 8.92554C4.55709 8.925 4.7168 8.92507 4.87652 8.92514C4.991 8.92488 5.10549 8.92459 5.21998 8.92427C5.49874 8.92355 5.77751 8.92332 6.05628 8.92327C6.28295 8.92323 6.50962 8.92305 6.7363 8.92278C7.37936 8.92202 8.02241 8.92163 8.66547 8.92169C8.71745 8.9217 8.71745 8.9217 8.77048 8.9217C8.80517 8.9217 8.83986 8.92171 8.87561 8.92171C9.43769 8.92175 9.99977 8.92092 10.5618 8.91971C11.1394 8.91848 11.7169 8.91788 12.2944 8.91796C12.6185 8.91799 12.9426 8.91775 13.2667 8.91683C13.5426 8.91604 13.8186 8.91586 14.0946 8.91644C14.2353 8.91672 14.3759 8.91663 14.5166 8.91598C14.6694 8.91532 14.8222 8.91572 14.9751 8.91638C15.0191 8.91594 15.0631 8.91549 15.1085 8.91504C15.5003 8.91878 15.8428 9.02276 16.1334 9.29413C16.4466 9.64253 16.513 9.98863 16.5083 10.4452C16.5082 10.5133 16.5082 10.5133 16.508 10.5828C16.5075 10.7273 16.5064 10.8718 16.5053 11.0162C16.5049 11.1144 16.5045 11.2126 16.5041 11.3108C16.5032 11.551 16.5017 11.7912 16.4999 12.0314C16.2731 12.0314 16.0462 12.0314 15.8124 12.0314C15.8115 11.9563 15.8115 11.9563 15.8105 11.8797C15.808 11.6926 15.8047 11.5054 15.8012 11.3183C15.7997 11.2376 15.7985 11.1569 15.7976 11.0761C15.7961 10.9595 15.7939 10.843 15.7915 10.7264C15.791 10.673 15.791 10.673 15.7906 10.6185C15.7835 10.3299 15.7453 10.0394 15.5439 9.82117C15.261 9.66041 14.9916 9.65565 14.6738 9.65689C14.6289 9.65673 14.584 9.65656 14.5377 9.65639C14.3875 9.65595 14.2373 9.65612 14.0872 9.65629C13.9794 9.65611 13.8716 9.65588 13.7638 9.65563C13.5016 9.65511 13.2393 9.655 12.9771 9.6551C12.7639 9.65518 12.5507 9.6551 12.3375 9.65492C12.3071 9.6549 12.2767 9.65487 12.2454 9.65484C12.1837 9.65479 12.122 9.65474 12.0603 9.65469C11.4818 9.65422 10.9034 9.65431 10.3249 9.65458C9.79616 9.6548 9.2674 9.65431 8.73864 9.6535C8.19524 9.65266 7.65185 9.65231 7.10846 9.65247C6.80357 9.65255 6.49868 9.65245 6.19379 9.65184C5.90706 9.65127 5.62033 9.65138 5.3336 9.65194C5.22844 9.65204 5.12328 9.65193 5.01812 9.65157C4.87442 9.65112 4.73073 9.65147 4.58702 9.65201C4.54556 9.6517 4.50409 9.65138 4.46136 9.65105C4.16034 9.65345 3.86223 9.68254 3.63349 9.89368C3.4821 10.1601 3.46674 10.4183 3.46262 10.718C3.46179 10.7557 3.46095 10.7934 3.4601 10.8323C3.45755 10.9518 3.45554 11.0713 3.45355 11.1908C3.45191 11.2722 3.45023 11.3537 3.44852 11.4351C3.44441 11.6339 3.44079 11.8326 3.43744 12.0314C3.21057 12.0314 2.98369 12.0314 2.74994 12.0314C2.74567 11.7455 2.74256 11.4597 2.7405 11.1738C2.73964 11.0767 2.73847 10.9796 2.73698 10.8825C2.73487 10.7423 2.73391 10.6022 2.73316 10.462C2.73227 10.4191 2.73138 10.3762 2.73047 10.332C2.73034 9.93815 2.83372 9.59621 3.10645 9.3042C3.45288 8.99273 3.79902 8.92477 4.25301 8.92613Z" fill="#6B38B2"/>
<path d="M16.6477 14.1582C16.898 14.3094 17.1008 14.5444 17.1875 14.8242C17.2221 15.1609 17.2358 15.4953 17.0156 15.7695C16.8092 15.9863 16.622 16.1393 16.3166 16.1706C15.9506 16.1747 15.6975 16.1613 15.4273 15.9039C15.1531 15.6073 15.1044 15.3741 15.1119 14.9722C15.1418 14.6344 15.2989 14.4568 15.5505 14.2418C15.8541 14.0326 16.3107 14.0088 16.6477 14.1582ZM15.9253 14.894C15.8346 15.0266 15.8292 15.0961 15.8555 15.2539C15.9199 15.3613 15.9199 15.3613 16.0274 15.4257C16.1851 15.452 16.2546 15.4467 16.3872 15.3559C16.478 15.2233 16.4833 15.1538 16.457 14.9961C16.3926 14.8886 16.3926 14.8886 16.2852 14.8242C16.1274 14.7979 16.0579 14.8033 15.9253 14.894Z" fill="#6B38B2"/>
<path d="M3.58522 14.1582C3.83551 14.3094 4.03831 14.5444 4.12501 14.8242C4.15961 15.1609 4.17334 15.4953 3.95314 15.7695C3.7467 15.9863 3.55947 16.1393 3.25406 16.1706C2.88813 16.1747 2.63503 16.1613 2.36481 15.9039C2.09059 15.6073 2.04187 15.3741 2.04942 14.9722C2.0793 14.6344 2.23643 14.4568 2.488 14.2418C2.79155 14.0326 3.24817 14.0088 3.58522 14.1582ZM2.86281 14.894C2.77205 15.0266 2.76669 15.0961 2.79298 15.2539C2.85744 15.3613 2.85744 15.3613 2.96486 15.4257C3.12263 15.452 3.19208 15.4467 3.32472 15.3559C3.41547 15.2233 3.42084 15.1538 3.39454 14.9961C3.33009 14.8886 3.33009 14.8886 3.22267 14.8242C3.0649 14.7979 2.99545 14.8033 2.86281 14.894Z" fill="#6B38B2"/>
<path d="M11 14.4375C11.2269 14.4375 11.4537 14.4375 11.6875 14.4375C11.6875 14.6644 11.6875 14.8912 11.6875 15.125C11.4606 15.125 11.2338 15.125 11 15.125C11 14.8981 11 14.6713 11 14.4375Z" fill="#6B38B2"/>
<path d="M7.5625 14.4375C7.78938 14.4375 8.01625 14.4375 8.25 14.4375C8.25 14.6644 8.25 14.8912 8.25 15.125C8.02312 15.125 7.79625 15.125 7.5625 15.125C7.5625 14.8981 7.5625 14.6713 7.5625 14.4375Z" fill="#6B38B2"/>
<path d="M12.7188 12.7188C12.9456 12.7188 13.1725 12.7188 13.4062 12.7188C13.4062 12.9456 13.4062 13.1725 13.4062 13.4062C13.1794 13.4062 12.9525 13.4062 12.7188 13.4062C12.7188 13.1794 12.7188 12.9525 12.7188 12.7188Z" fill="#6B38B2"/>
<path d="M9.28125 12.7188C9.50813 12.7188 9.735 12.7188 9.96875 12.7188C9.96875 12.9456 9.96875 13.1725 9.96875 13.4062C9.74187 13.4062 9.515 13.4062 9.28125 13.4062C9.28125 13.1794 9.28125 12.9525 9.28125 12.7188Z" fill="#6B38B2"/>
<path d="M5.84375 12.7188C6.07063 12.7188 6.2975 12.7188 6.53125 12.7188C6.53125 12.9456 6.53125 13.1725 6.53125 13.4062C6.30437 13.4062 6.0775 13.4062 5.84375 13.4062C5.84375 13.1794 5.84375 12.9525 5.84375 12.7188Z" fill="#6B38B2"/>
<path d="M11 11C11.2269 11 11.4537 11 11.6875 11C11.6875 11.2269 11.6875 11.4537 11.6875 11.6875C11.4606 11.6875 11.2338 11.6875 11 11.6875C11 11.4606 11 11.2338 11 11Z" fill="#6B38B2"/>
<path d="M7.5625 11C7.78938 11 8.01625 11 8.25 11C8.25 11.2269 8.25 11.4537 8.25 11.6875C8.02312 11.6875 7.79625 11.6875 7.5625 11.6875C7.5625 11.4606 7.5625 11.2338 7.5625 11Z" fill="#6B38B2"/>
</g>
<defs>
<clipPath id="clip0_1_11725">
<rect width="22" height="22" fill="white"/>
</clipPath>
</defs>
</svg>
