<svg width="48" height="48" viewBox="0 0 48 48" fill="none" xmlns="http://www.w3.org/2000/svg">
<g clip-path="url(#clip0_1_10957)">
<path d="M4.78125 1.78125C17.4656 1.78125 30.15 1.78125 43.2188 1.78125C43.2188 8.40188 43.2188 15.0225 43.2188 21.8438C30.5344 21.8438 17.85 21.8438 4.78125 21.8438C4.78125 15.2231 4.78125 8.6025 4.78125 1.78125ZM6.65625 3.5625C6.65625 9.0075 6.65625 14.4525 6.65625 20.0625C18.1031 20.0625 29.55 20.0625 41.3438 20.0625C41.3438 14.6175 41.3438 9.1725 41.3438 3.5625C29.8969 3.5625 18.45 3.5625 6.65625 3.5625Z" fill="#6B38B2"/>
<path d="M7.875 4.875C18.5175 4.875 29.16 4.875 40.125 4.875C40.125 9.45375 40.125 14.0325 40.125 18.75C29.4825 18.75 18.84 18.75 7.875 18.75C7.875 14.1713 7.875 9.5925 7.875 4.875ZM9.75 6.65625C9.75 10.0594 9.75 13.4625 9.75 16.9688C19.155 16.9688 28.56 16.9688 38.25 16.9688C38.25 13.5656 38.25 10.1625 38.25 6.65625C28.845 6.65625 19.44 6.65625 9.75 6.65625Z" fill="#6B38B2"/>
<path d="M23.0625 23.625C23.6812 23.625 24.3 23.625 24.9375 23.625C24.9375 24.8625 24.9375 26.1 24.9375 27.375C30.9703 27.375 37.0031 27.375 43.2188 27.375C43.2188 29.2003 43.2188 31.0256 43.2188 32.9062C42.6 32.9062 41.9813 32.9062 41.3438 32.9062C41.3438 31.6687 41.3438 30.4313 41.3438 29.1562C35.9297 29.1562 30.5156 29.1562 24.9375 29.1562C24.9375 30.3938 24.9375 31.6313 24.9375 32.9062C24.3188 32.9062 23.7 32.9062 23.0625 32.9062C23.0625 31.6687 23.0625 30.4313 23.0625 29.1562C17.6484 29.1562 12.2344 29.1562 6.65625 29.1562C6.65625 30.3938 6.65625 31.6313 6.65625 32.9062C6.0375 32.9062 5.41875 32.9062 4.78125 32.9062C4.78125 31.0809 4.78125 29.2556 4.78125 27.375C10.8141 27.375 16.8469 27.375 23.0625 27.375C23.0625 26.1375 23.0625 24.9 23.0625 23.625Z" fill="#6B38B2"/>
<path d="M27.5368 35.7949C28.7152 36.6706 29.361 37.881 29.7186 39.2813C29.9696 41.0304 29.6346 42.6288 28.5742 44.0607C27.5687 45.2247 26.2874 46.0119 24.7499 46.2188C23.1083 46.3365 21.5368 46.0082 20.2598 44.9145C18.9971 43.7688 18.2896 42.3455 18.1996 40.6457C18.1408 39.1854 18.5983 37.8956 19.4999 36.75C19.5579 36.6725 19.6159 36.5951 19.6757 36.5153C21.6862 34.1536 25.1233 34.1906 27.5368 35.7949ZM21.1874 37.5938C20.3681 38.5114 20.0104 39.5219 20.0331 40.7461C20.1416 41.918 20.725 42.8619 21.6082 43.6132C22.5946 44.3173 23.6639 44.4625 24.8436 44.3438C25.8674 44.0842 26.7792 43.4351 27.3749 42.5625C27.9468 41.4128 28.1415 40.3064 27.7543 39.0535C27.5051 38.4417 27.114 37.9402 26.6249 37.5C26.5456 37.4227 26.4663 37.3453 26.3847 37.2656C24.8172 36.0021 22.6314 36.3332 21.1874 37.5938Z" fill="#6B38B2"/>
<path d="M45.5625 35.6251C45.9017 35.8835 46.2029 36.1635 46.5 36.4689C46.5515 36.5173 46.603 36.5658 46.656 36.6157C47.0123 36.9806 47.2315 37.4188 47.4609 37.8693C47.493 37.9319 47.525 37.9946 47.558 38.0592C48.1338 39.2353 48.2078 40.7307 47.9004 42.0001C47.8454 42.1584 47.7844 42.3147 47.7188 42.4689C47.6763 42.5722 47.6339 42.6755 47.5902 42.782C46.9707 44.1503 45.9626 45.2055 44.5631 45.8029C42.9487 46.4004 41.3301 46.3828 39.7408 45.7234C39.0921 45.3958 38.5749 44.9483 38.0625 44.4376C38.0027 44.38 37.9429 44.3223 37.8812 44.263C36.8845 43.2263 36.4788 41.8256 36.4277 40.4181C36.4693 38.8728 37.0262 37.4393 38.1017 36.3143C40.2381 34.3686 43.1019 34.1482 45.5625 35.6251ZM39.375 37.6876C38.5165 38.725 38.2243 39.7431 38.322 41.0692C38.3718 41.4831 38.5169 41.827 38.7188 42.1876C38.7527 42.2525 38.7867 42.3174 38.8217 42.3843C39.4097 43.4188 40.3013 44.0296 41.4375 44.3439C42.6702 44.4924 43.6894 44.3004 44.707 43.5646C45.6017 42.8171 46.12 41.8282 46.2396 40.6737C46.289 39.4838 45.8261 38.4386 45.0352 37.5704C44.251 36.8312 43.295 36.5367 42.2461 36.4396C41.1814 36.5314 40.1235 36.8933 39.375 37.6876Z" fill="#6B38B2"/>
<path d="M9.18755 35.7187C10.5046 36.7367 11.2862 38.1042 11.5313 39.7499C11.6569 41.2674 11.3285 42.7989 10.3514 43.9969C9.29491 45.2176 8.08595 45.9874 6.4688 46.2187C5.55613 46.2844 4.71952 46.226 3.8438 45.9374C3.72597 45.9015 3.72597 45.9015 3.60576 45.8649C2.23542 45.3907 1.16756 44.2939 0.521532 43.0253C0.490565 42.9645 0.459597 42.9037 0.427691 42.8411C-0.158865 41.6178 -0.220847 39.9966 0.152392 38.7011C0.523593 37.7078 1.03444 36.9383 1.7813 36.1874C1.82988 36.1356 1.87846 36.0838 1.92851 36.0303C2.29248 35.6768 2.72811 35.456 3.17583 35.2265C3.23771 35.1945 3.29959 35.1624 3.36335 35.1294C5.19736 34.2271 7.5558 34.559 9.18755 35.7187ZM2.91802 37.6054C2.14934 38.4341 1.72319 39.5152 1.75859 40.6461C1.87918 41.8616 2.39197 42.8345 3.33037 43.6197C4.33207 44.3165 5.3749 44.4448 6.56255 44.3437C6.90877 44.2642 7.19225 44.1438 7.50005 43.9687C7.56482 43.9347 7.6296 43.9008 7.69634 43.8658C8.73326 43.2775 9.3386 42.3861 9.6563 41.2499C9.7768 40.0005 9.60316 38.9588 8.83599 37.9277C8.10859 37.0872 7.15094 36.5931 6.04692 36.4804C4.85869 36.4262 3.80084 36.7879 2.91802 37.6054Z" fill="#6B38B2"/>
<path d="M26.5312 10.875C27.15 10.875 27.7687 10.875 28.4062 10.875C28.4062 11.4937 28.4062 12.1125 28.4062 12.75C27.7875 12.75 27.1688 12.75 26.5312 12.75C26.5312 12.1313 26.5312 11.5125 26.5312 10.875Z" fill="#6B38B2"/>
<path d="M23.0625 10.875C23.6812 10.875 24.3 10.875 24.9375 10.875C24.9375 11.4937 24.9375 12.1125 24.9375 12.75C24.3188 12.75 23.7 12.75 23.0625 12.75C23.0625 12.1313 23.0625 11.5125 23.0625 10.875Z" fill="#6B38B2"/>
<path d="M19.5938 10.875C20.2125 10.875 20.8312 10.875 21.4688 10.875C21.4688 11.4937 21.4688 12.1125 21.4688 12.75C20.85 12.75 20.2313 12.75 19.5938 12.75C19.5938 12.1313 19.5938 11.5125 19.5938 10.875Z" fill="#6B38B2"/>
</g>
<defs>
<clipPath id="clip0_1_10957">
<rect width="48" height="48" fill="white"/>
</clipPath>
</defs>
</svg>
