<svg width="22" height="22" viewBox="0 0 22 22" fill="none" xmlns="http://www.w3.org/2000/svg">
<g clip-path="url(#clip0_1_11714)">
<path d="M3.81405 -0.0160243C3.892 -0.0165286 3.892 -0.0165286 3.97152 -0.017043C4.02948 -0.0167643 4.08745 -0.0164734 4.14541 -0.0161716C4.20676 -0.0163201 4.2681 -0.0165247 4.32944 -0.016781C4.49841 -0.0173209 4.66738 -0.0170523 4.83635 -0.0166539C5.01842 -0.0163631 5.20049 -0.0168119 5.38256 -0.0171669C5.7394 -0.0177411 6.09623 -0.0176158 6.45306 -0.0172426C6.74298 -0.0169519 7.03289 -0.0169118 7.32281 -0.0170523C7.36402 -0.0170721 7.40522 -0.0170918 7.44768 -0.0171122C7.53138 -0.0171534 7.61508 -0.0171952 7.69879 -0.0172375C8.48431 -0.0176054 9.26984 -0.017182 10.0554 -0.0164898C10.7299 -0.0159139 11.4044 -0.0160139 12.079 -0.0166083C12.8616 -0.0172976 13.6443 -0.01757 14.4269 -0.0171739C14.5103 -0.0171328 14.5937 -0.0170923 14.6771 -0.0170523C14.7387 -0.0170225 14.7387 -0.0170225 14.8015 -0.0169921C15.0911 -0.0168806 15.3808 -0.017069 15.6705 -0.0173719C16.0234 -0.0177329 16.3762 -0.0176369 16.7291 -0.016949C16.9093 -0.0166094 17.0894 -0.016479 17.2696 -0.0169038C17.4343 -0.0172864 17.5991 -0.0170793 17.7638 -0.0163911C17.8236 -0.0162465 17.8833 -0.0163217 17.9431 -0.0166329C18.024 -0.017022 18.1049 -0.0165478 18.1859 -0.0160243C18.2534 -0.0159929 18.2534 -0.0159929 18.3224 -0.0159609C18.4335 0.000197373 18.4335 0.000197375 18.5125 0.0554459C18.6024 0.187952 18.5796 0.348724 18.578 0.503482C18.5781 0.542195 18.5782 0.580907 18.5783 0.620793C18.5785 0.751038 18.5778 0.881262 18.5771 1.01151C18.5771 1.10466 18.5771 1.19781 18.5771 1.29096C18.5772 1.54432 18.5764 1.79768 18.5755 2.05103C18.5747 2.31563 18.5746 2.58023 18.5745 2.84483C18.5741 3.34611 18.573 3.84737 18.5717 4.34864C18.5703 4.91923 18.5696 5.48982 18.5689 6.06041C18.5676 7.23435 18.5653 8.40829 18.5625 9.58223C18.603 9.58185 18.6435 9.58146 18.6853 9.58107C19.0671 9.57759 19.449 9.57501 19.8309 9.57332C20.0272 9.57243 20.2236 9.57121 20.4199 9.56926C20.6093 9.5674 20.7988 9.56637 20.9882 9.56592C21.0605 9.5656 21.1328 9.56498 21.2051 9.56406C21.3064 9.56281 21.4076 9.56264 21.5088 9.56272C21.5387 9.5621 21.5686 9.56148 21.5995 9.56084C21.7442 9.56208 21.8166 9.57338 21.9326 9.66297C22.015 9.77448 22.0217 9.83432 22.0222 9.97205C22.0227 10.0154 22.0233 10.0587 22.0238 10.1033C22.0233 10.173 22.0233 10.173 22.0228 10.2442C22.0229 10.2922 22.0231 10.3402 22.0233 10.3896C22.0234 10.4911 22.0231 10.5925 22.0224 10.6939C22.0214 10.8492 22.0224 11.0045 22.0235 11.1598C22.0233 11.2583 22.0231 11.3569 22.0228 11.4554C22.0231 11.5019 22.0235 11.5484 22.0238 11.5963C22.023 11.6613 22.023 11.6613 22.0222 11.7276C22.0221 11.7656 22.0219 11.8036 22.0218 11.8428C21.9926 11.9801 21.9373 12.0318 21.8281 12.1174C21.7129 12.1324 21.6158 12.1375 21.5011 12.1342C21.4699 12.1339 21.4387 12.1337 21.4065 12.1334C21.3071 12.1325 21.2077 12.1303 21.1084 12.1281C21.0408 12.1273 20.9733 12.1265 20.9058 12.1258C20.7405 12.1239 20.5753 12.1209 20.4101 12.1174C20.4189 12.1597 20.4189 12.1597 20.4278 12.2029C20.5366 12.7344 20.6364 13.2649 20.7002 13.8039C20.7051 13.8457 20.71 13.8875 20.7151 13.9305C20.7836 14.5414 20.8057 15.1476 20.8049 15.7617C20.8048 15.8006 20.8048 15.8395 20.8048 15.8797C20.8021 17.0529 20.7249 18.2538 20.4259 19.3937C20.3351 19.7731 20.3481 20.1581 20.3484 20.546C20.3472 21.301 20.3472 21.301 20.0529 21.643C19.7579 21.8969 19.5768 22.0054 19.1801 22.0058C19.1371 22.006 19.1371 22.006 19.0931 22.0061C18.9966 22.0064 18.9 22.0063 18.8034 22.0062C18.7337 22.0063 18.6639 22.0065 18.5941 22.0066C18.4021 22.007 18.21 22.007 18.018 22.0071C17.811 22.0072 17.604 22.0075 17.397 22.0078C16.9442 22.0084 16.4914 22.0086 16.0387 22.0088C15.7561 22.0089 15.4735 22.0091 15.1908 22.0093C14.4086 22.0098 13.6264 22.0103 12.8442 22.0104C12.7941 22.0104 12.744 22.0104 12.6925 22.0104C12.6423 22.0104 12.5921 22.0105 12.5404 22.0105C12.4386 22.0105 12.3369 22.0105 12.2352 22.0105C12.1848 22.0105 12.1343 22.0105 12.0823 22.0105C11.2645 22.0107 10.4467 22.0115 9.62892 22.0125C8.78963 22.0135 7.95035 22.014 7.11107 22.0141C6.6397 22.0141 6.16833 22.0144 5.69697 22.0151C5.29565 22.0158 4.89433 22.016 4.49301 22.0157C4.2882 22.0155 4.0834 22.0155 3.8786 22.0161C3.69112 22.0167 3.50366 22.0166 3.31619 22.0161C3.24836 22.016 3.18052 22.0162 3.11268 22.0165C3.02046 22.017 2.92827 22.0167 2.83604 22.0162C2.78482 22.0162 2.7336 22.0162 2.68082 22.0163C2.39868 21.9852 2.14088 21.8495 1.93355 21.6564C1.73941 21.4008 1.6709 21.2012 1.66969 20.8785C1.66908 20.8157 1.66838 20.753 1.66763 20.6902C1.66724 20.6573 1.66685 20.6243 1.66645 20.5904C1.65887 20.0571 1.62966 19.5543 1.50462 19.0337C1.41957 18.6768 1.36694 18.3192 1.32124 17.9558C1.31425 17.9012 1.30725 17.8467 1.30004 17.7906C1.22061 17.1468 1.19284 16.509 1.19234 15.861C1.1923 15.8217 1.19225 15.7823 1.19221 15.7418C1.19311 14.5192 1.31669 13.3106 1.5898 12.1174C1.54774 12.1183 1.50569 12.1192 1.46236 12.1201C1.30605 12.1232 1.14975 12.1252 0.993419 12.1268C0.925814 12.1277 0.858212 12.1289 0.790618 12.1304C0.693336 12.1324 0.596097 12.1334 0.498796 12.1342C0.468667 12.1351 0.438538 12.1359 0.407495 12.1369C0.268368 12.1369 0.189002 12.1308 0.0779283 12.0438C-0.014497 11.9273 -0.0217556 11.8745 -0.022284 11.7276C-0.0228258 11.6843 -0.0233676 11.641 -0.0239258 11.5963C-0.0235779 11.5498 -0.02323 11.5033 -0.0228715 11.4554C-0.0230359 11.4074 -0.0232004 11.3594 -0.0233698 11.31C-0.0234867 11.2086 -0.0231699 11.1071 -0.0224519 11.0057C-0.0215321 10.8504 -0.0224432 10.6951 -0.0235429 10.5398C-0.0234293 10.4413 -0.0232091 10.3427 -0.0228715 10.2442C-0.0232194 10.1977 -0.0235673 10.1512 -0.0239258 10.1033C-0.023384 10.06 -0.0228422 10.0167 -0.022284 9.97205C-0.0221473 9.93402 -0.0220105 9.89599 -0.0218697 9.85681C0.00826219 9.71501 0.0573435 9.67066 0.171831 9.58223C0.28446 9.56613 0.378755 9.5604 0.491117 9.56272C0.522994 9.56269 0.55487 9.56267 0.587713 9.56264C0.692819 9.56276 0.797873 9.5641 0.902971 9.56544C0.975941 9.56576 1.04891 9.56601 1.12188 9.56618C1.31375 9.56684 1.50559 9.56852 1.69745 9.57043C1.89331 9.57219 2.08916 9.57297 2.28502 9.57384C2.66918 9.57568 3.05331 9.57861 3.43746 9.58223C3.43734 9.53363 3.43722 9.48503 3.4371 9.43496C3.43424 8.25374 3.43212 7.07252 3.43078 5.8913C3.43011 5.32008 3.4292 4.74886 3.42773 4.17764C3.42645 3.6799 3.42562 3.18217 3.42533 2.68443C3.42516 2.42076 3.42476 2.15709 3.42383 1.89341C3.42295 1.64544 3.42268 1.39748 3.42288 1.14951C3.42284 1.05831 3.42258 0.967109 3.42209 0.875909C3.42145 0.751759 3.4216 0.627634 3.42195 0.503482C3.42158 0.467076 3.4212 0.43067 3.42082 0.393161C3.42269 0.150871 3.42269 0.150871 3.48742 0.0554459C3.59874 -0.0224623 3.67872 -0.0159615 3.81405 -0.0160243ZM4.08199 0.60176C4.08199 3.56531 4.08199 6.52887 4.08199 9.58223C4.32304 9.58223 4.5641 9.58223 4.81246 9.58223C4.81286 9.51522 4.81326 9.44821 4.81367 9.37917C4.81538 9.13099 4.81821 8.88284 4.82137 8.63468C4.82259 8.52719 4.8235 8.4197 4.8241 8.31221C4.82502 8.15785 4.82702 8.00355 4.82924 7.84921C4.82929 7.801 4.82935 7.75279 4.8294 7.70312C4.83025 7.6584 4.83109 7.61368 4.83197 7.5676C4.83235 7.52819 4.83273 7.48878 4.83312 7.44818C4.85542 7.34785 4.85542 7.34785 4.92879 7.27812C5.04642 7.20746 5.11422 7.20294 5.25072 7.20316C5.2959 7.20292 5.34108 7.20268 5.38763 7.20243C5.46164 7.20303 5.46164 7.20303 5.53713 7.20363C5.58927 7.20354 5.64141 7.20346 5.69512 7.20336C5.83797 7.20326 5.9808 7.20373 6.12365 7.20446C6.27318 7.20511 6.42272 7.20506 6.57226 7.20509C6.82338 7.20525 7.07449 7.20589 7.3256 7.20686C7.64783 7.2081 7.97005 7.20855 8.29227 7.20874C8.56941 7.20891 8.84654 7.20945 9.12368 7.21004C9.21271 7.21022 9.30174 7.21035 9.39077 7.21046C9.5567 7.21071 9.72263 7.21134 9.88856 7.21202C9.96256 7.2121 9.96256 7.2121 10.0381 7.21217C10.0832 7.21241 10.1284 7.21266 10.175 7.21291C10.2142 7.21304 10.2534 7.21317 10.2938 7.2133C10.3984 7.21895 10.3984 7.21895 10.5703 7.26192C10.5844 8.02762 10.5986 8.79332 10.6132 9.58223C10.8685 9.58223 11.1237 9.58223 11.3867 9.58223C11.4009 8.81653 11.415 8.05082 11.4296 7.26192C11.575 7.22557 11.6779 7.21339 11.8249 7.21291C11.8701 7.21267 11.9153 7.21242 11.9619 7.21217C12.0112 7.21212 12.0605 7.21207 12.1114 7.21202C12.1635 7.21181 12.2156 7.2116 12.2693 7.21138C12.4122 7.21086 12.555 7.21054 12.6979 7.21035C12.7871 7.21022 12.8764 7.21004 12.9656 7.20985C13.2449 7.20926 13.5242 7.20885 13.8035 7.20868C14.1259 7.20849 14.4482 7.20773 14.7706 7.20649C15.0199 7.20556 15.2691 7.20513 15.5184 7.20507C15.6673 7.20503 15.8161 7.20477 15.965 7.204C16.1309 7.20317 16.2968 7.20335 16.4628 7.20363C16.5121 7.20324 16.5614 7.20284 16.6123 7.20243C16.6801 7.20279 16.6801 7.20279 16.7492 7.20316C16.7884 7.20309 16.8276 7.20303 16.8681 7.20297C16.9938 7.22218 17.0529 7.26082 17.1445 7.34785C17.1668 7.44818 17.1668 7.44818 17.1679 7.5676C17.1688 7.61232 17.1696 7.65704 17.1705 7.70312C17.1706 7.77544 17.1706 7.77544 17.1707 7.84921C17.1714 7.89862 17.1721 7.94804 17.1728 7.99894C17.1749 8.157 17.1758 8.31503 17.1767 8.4731C17.1779 8.58016 17.1792 8.68721 17.1806 8.79427C17.1838 9.05692 17.1859 9.31956 17.1875 9.58223C17.4285 9.58223 17.6696 9.58223 17.9179 9.58223C17.9179 6.61867 17.9179 3.65512 17.9179 0.60176C13.3521 0.60176 8.78621 0.60176 4.08199 0.60176ZM5.45699 7.82051C5.45699 8.40188 5.45699 8.98324 5.45699 9.58223C6.96003 9.58223 8.46308 9.58223 10.0117 9.58223C10.0117 9.00086 10.0117 8.41949 10.0117 7.82051C8.50863 7.82051 7.00558 7.82051 5.45699 7.82051ZM11.9882 7.82051C11.9882 8.40188 11.9882 8.98324 11.9882 9.58223C13.4913 9.58223 14.9943 9.58223 16.5429 9.58223C16.5429 9.00086 16.5429 8.41949 16.5429 7.82051C15.0399 7.82051 13.5368 7.82051 11.9882 7.82051ZM0.601518 10.2268C0.601518 10.638 0.601518 11.0492 0.601518 11.4729C7.46449 11.4729 14.3275 11.4729 21.3984 11.4729C21.3984 11.0616 21.3984 10.6504 21.3984 10.2268C14.5354 10.2268 7.67246 10.2268 0.601518 10.2268ZM2.2773 12.1174C1.63793 14.4237 1.61804 17.2006 2.2773 19.508C2.51835 19.508 2.75941 19.508 3.00777 19.508C3.26041 18.4239 3.41594 17.3134 3.43746 16.1994C3.43877 16.153 3.43877 16.153 3.44012 16.1056C3.47619 14.7678 3.32145 13.4169 3.00777 12.1174C2.76671 12.1174 2.52566 12.1174 2.2773 12.1174ZM3.6523 12.1174C3.69307 12.3558 3.73383 12.5942 3.77583 12.8398C3.86739 13.3852 3.95804 13.9284 3.99605 14.4807C3.99841 14.514 4.00077 14.5473 4.0032 14.5816C4.11543 16.2431 3.95874 17.8736 3.6523 19.508C4.36128 19.508 5.07027 19.508 5.80074 19.508C5.75997 19.2705 5.7192 19.033 5.6772 18.7883C5.58284 18.2274 5.49525 17.6697 5.45699 17.1018C5.45345 17.0532 5.45345 17.0532 5.44983 17.0037C5.33249 15.3546 5.49672 13.7388 5.80074 12.1174C5.09175 12.1174 4.38277 12.1174 3.6523 12.1174ZM6.44527 12.1174C5.99378 14.1625 5.89061 16.212 6.20625 18.2861C6.21291 18.3301 6.21291 18.3301 6.2197 18.375C6.27828 18.7573 6.35427 19.1321 6.44527 19.508C6.68632 19.508 6.92738 19.508 7.17574 19.508C7.50471 18.3073 7.61535 17.0567 7.61348 15.8154C7.61342 15.7631 7.61342 15.7631 7.61336 15.7098C7.61128 14.8762 7.5408 14.0666 7.41475 13.2426C7.41031 13.2134 7.40588 13.1843 7.40131 13.1542C7.34691 12.8008 7.27675 12.4605 7.17574 12.1174C6.93468 12.1174 6.69363 12.1174 6.44527 12.1174ZM7.86324 12.1174C7.89742 12.4306 7.89742 12.4306 7.94498 12.7403C7.95216 12.7816 7.95934 12.8229 7.96675 12.8655C7.97424 12.9084 7.98174 12.9513 7.98946 12.9956C8.06375 13.432 8.12731 13.8675 8.16402 14.3088C8.16966 14.3765 8.16966 14.3765 8.17542 14.4455C8.20908 14.8925 8.21566 15.3377 8.21504 15.7858C8.215 15.8237 8.21496 15.8615 8.21492 15.9004C8.21253 16.9414 8.10245 17.9434 7.92944 18.9682C7.90224 19.1474 7.88326 19.3278 7.86324 19.508C8.55804 19.508 9.25285 19.508 9.96871 19.508C9.90531 19.0957 9.90531 19.0957 9.8398 18.6837C9.82548 18.5941 9.81115 18.5046 9.79683 18.415C9.78974 18.3721 9.78265 18.3293 9.77535 18.2852C9.64652 17.4704 9.60865 16.658 9.61153 15.8342C9.61161 15.7873 9.61168 15.7404 9.61176 15.6921C9.61517 14.4774 9.76567 13.3136 9.96871 12.1174C9.2739 12.1174 8.5791 12.1174 7.86324 12.1174ZM10.6132 12.1174C10.1321 14.5012 9.95482 17.0887 10.6132 19.465C10.6643 19.526 10.6643 19.526 10.8108 19.5122C10.8747 19.5119 10.9387 19.5114 11.0026 19.5107C11.0515 19.5104 11.0515 19.5104 11.1014 19.5101C11.1822 19.5096 11.2629 19.5088 11.3437 19.508C12.2311 17.4473 11.8602 14.4532 11.4296 12.3322C11.4155 12.2613 11.4013 12.1904 11.3867 12.1174C11.1314 12.1174 10.8762 12.1174 10.6132 12.1174ZM12.0312 12.1174C12.1118 12.6122 12.1118 12.6122 12.1932 13.1069C12.3373 13.9943 12.3915 14.8712 12.3884 15.7697C12.3883 15.8176 12.3882 15.8654 12.3881 15.9147C12.385 17.0573 12.2697 18.1534 12.0489 19.2745C12.0276 19.3826 12.0276 19.3826 12.0312 19.508C12.726 19.508 13.4208 19.508 14.1367 19.508C14.1105 19.2729 14.0834 19.0438 14.0455 18.8111C14.0363 18.7534 14.0271 18.6956 14.0179 18.6379C14.0131 18.6081 14.0084 18.5784 14.0035 18.5477C13.6923 16.5704 13.7378 14.6275 14.0705 12.6572C14.0977 12.478 14.1167 12.2976 14.1367 12.1174C13.4419 12.1174 12.7471 12.1174 12.0312 12.1174ZM14.8242 12.1174C14.2812 14.0761 13.8719 17.6035 14.8242 19.508C15.0652 19.508 15.3063 19.508 15.5546 19.508C15.7999 18.4556 15.9629 17.3676 15.9843 16.2854C15.9856 16.2343 15.9856 16.2343 15.987 16.1823C16.0187 14.816 15.8752 13.4455 15.5546 12.1174C15.3136 12.1174 15.0725 12.1174 14.8242 12.1174ZM16.1992 12.1174C16.232 12.292 16.2648 12.4666 16.2985 12.6464C16.4577 13.5222 16.564 14.4067 16.5859 15.2971C16.5868 15.3331 16.5878 15.3691 16.5887 15.4062C16.6195 16.7971 16.4473 18.1436 16.1992 19.508C16.9082 19.508 17.6171 19.508 18.3476 19.508C18.3068 19.2705 18.2661 19.033 18.2241 18.7883C18.1298 18.2275 18.0403 17.6698 18.0039 17.1018C18.0015 17.0657 17.9991 17.0296 17.9967 16.9925C17.9802 16.7282 17.9688 16.464 17.9609 16.1994C17.9599 16.1672 17.9589 16.135 17.9579 16.1018C17.9222 14.7611 18.1012 13.4317 18.3476 12.1174C17.6386 12.1174 16.9296 12.1174 16.1992 12.1174ZM18.9921 12.1174C18.7431 13.186 18.5847 14.2847 18.5625 15.383C18.5616 15.4133 18.5607 15.4436 18.5598 15.4748C18.5229 16.8303 18.694 18.1879 18.9921 19.508C19.2332 19.508 19.4743 19.508 19.7226 19.508C19.8321 19.1363 19.9034 18.7656 19.9616 18.3828C19.9663 18.3525 19.9709 18.3223 19.9756 18.2911C20.2604 16.4145 20.1937 14.5669 19.8703 12.701C19.8654 12.6719 19.8605 12.6428 19.8554 12.6128C19.8244 12.4381 19.7795 12.2882 19.7226 12.1174C19.4816 12.1174 19.2405 12.1174 18.9921 12.1174ZM2.2773 20.1096C2.23095 20.7162 2.23095 20.7162 2.45992 21.216C2.66471 21.3836 2.86253 21.4094 3.1219 21.4095C3.14969 21.4096 3.17747 21.4097 3.20611 21.4098C3.29909 21.4101 3.39206 21.4098 3.48504 21.4095C3.55243 21.4096 3.61982 21.4098 3.68721 21.41C3.87229 21.4103 4.05738 21.4101 4.24247 21.4099C4.44211 21.4097 4.64175 21.41 4.8414 21.4102C5.23247 21.4106 5.62353 21.4105 6.0146 21.4103C6.33239 21.4101 6.65018 21.41 6.96797 21.4101C7.01318 21.4101 7.05839 21.4102 7.10497 21.4102C7.1968 21.4102 7.28863 21.4102 7.38047 21.4103C8.24186 21.4105 9.10324 21.4102 9.96463 21.4098C10.704 21.4094 11.4433 21.4094 12.1826 21.4098C13.0409 21.4103 13.8992 21.4105 14.7574 21.4102C14.8489 21.4102 14.9404 21.4102 15.0319 21.4101C15.077 21.4101 15.122 21.4101 15.1684 21.4101C15.4858 21.41 15.8033 21.4101 16.1207 21.4103C16.5075 21.4106 16.8943 21.4105 17.2812 21.4101C17.4786 21.4098 17.676 21.4098 17.8734 21.41C18.054 21.4103 18.2347 21.4102 18.4153 21.4097C18.4807 21.4096 18.5461 21.4096 18.6115 21.4099C18.7004 21.4101 18.7892 21.4098 18.878 21.4095C18.9274 21.4094 18.9767 21.4094 19.0276 21.4094C19.235 21.393 19.3787 21.348 19.54 21.216C19.8153 20.8795 19.7226 20.5528 19.7226 20.1096C13.9657 20.1096 8.2087 20.1096 2.2773 20.1096Z" fill="#6B38B2"/>
<path d="M11.7407 1.35877C11.8106 1.35823 11.8106 1.35823 11.882 1.35767C11.9587 1.35806 11.9587 1.35806 12.037 1.35846C12.0909 1.35823 12.1448 1.35801 12.2003 1.35778C12.3481 1.35731 12.4959 1.35742 12.6437 1.35782C12.7983 1.35815 12.9529 1.35785 13.1075 1.35765C13.3672 1.35741 13.6268 1.35772 13.8865 1.35833C14.1867 1.35904 14.487 1.35881 14.7873 1.3581C15.045 1.35751 15.3027 1.35743 15.5604 1.35777C15.7144 1.35797 15.8684 1.358 16.0223 1.35757C16.1939 1.35713 16.3655 1.35774 16.5371 1.35846C16.5883 1.3582 16.6395 1.35794 16.6922 1.35767C16.7388 1.35803 16.7855 1.3584 16.8335 1.35877C16.8944 1.35884 16.8944 1.35884 16.9565 1.35892C17.0586 1.37514 17.0586 1.37514 17.136 1.4284C17.2017 1.52499 17.2038 1.58303 17.2041 1.69946C17.2046 1.73952 17.205 1.77958 17.2054 1.82086C17.2052 1.86472 17.205 1.90859 17.2048 1.95378C17.2051 2.00004 17.2054 2.04631 17.2057 2.09397C17.2065 2.2473 17.2063 2.4006 17.2061 2.55393C17.2063 2.66027 17.2065 2.7666 17.2068 2.87294C17.2072 3.09599 17.2071 3.31904 17.2066 3.54209C17.2061 3.82825 17.207 4.11438 17.2083 4.40053C17.2091 4.62019 17.209 4.83984 17.2088 5.0595C17.2088 5.16502 17.2091 5.27053 17.2096 5.37605C17.2102 5.52347 17.2098 5.67086 17.209 5.81828C17.2097 5.88395 17.2097 5.88395 17.2103 5.95094C17.2097 6.01122 17.2097 6.01122 17.209 6.07271C17.209 6.10755 17.209 6.1424 17.209 6.1783C17.1787 6.31256 17.1245 6.36318 17.0156 6.44545C16.9089 6.46696 16.9089 6.46696 16.787 6.46699C16.7407 6.46741 16.6943 6.46783 16.6466 6.46827C16.596 6.46785 16.5454 6.46744 16.4932 6.46701C16.4398 6.46724 16.3863 6.46747 16.3312 6.46771C16.1847 6.46816 16.0383 6.46783 15.8918 6.46712C15.7385 6.46653 15.5852 6.46681 15.4319 6.46696C15.1746 6.46707 14.9172 6.4665 14.6599 6.4655C14.3622 6.46436 14.0646 6.46428 13.767 6.46479C13.4807 6.46525 13.1944 6.46498 12.9081 6.46438C12.7863 6.46413 12.6644 6.46413 12.5425 6.46434C12.3725 6.46458 12.2024 6.46375 12.0324 6.46281C11.9817 6.46301 11.931 6.4632 11.8788 6.4634C11.8326 6.46298 11.7863 6.46255 11.7387 6.46211C11.6985 6.46201 11.6583 6.4619 11.6169 6.46179C11.5156 6.44545 11.5156 6.44545 11.4382 6.39229C11.3721 6.29511 11.3705 6.23639 11.3703 6.11921C11.37 6.07873 11.3696 6.03824 11.3692 5.99653C11.3695 5.9522 11.3697 5.90786 11.37 5.86219C11.3698 5.81543 11.3696 5.76868 11.3693 5.72052C11.3688 5.56559 11.3691 5.41068 11.3696 5.25576C11.3695 5.14835 11.3694 5.04095 11.3692 4.93354C11.369 4.70829 11.3693 4.48304 11.3699 4.25778C11.3706 3.99732 11.3704 3.73687 11.3696 3.47641C11.369 3.2259 11.3691 2.97539 11.3694 2.72488C11.3695 2.61825 11.3694 2.51162 11.3691 2.40499C11.3688 2.25612 11.3693 2.10728 11.37 1.95841C11.3697 1.91407 11.3695 1.86974 11.3692 1.82406C11.3696 1.78358 11.3699 1.74309 11.3703 1.70138C11.3704 1.66618 11.3704 1.63098 11.3705 1.59471C11.3867 1.50405 11.3867 1.50405 11.4381 1.42828C11.5432 1.35622 11.6136 1.35892 11.7407 1.35877ZM11.9883 1.9767C11.9883 3.23869 11.9883 4.50069 11.9883 5.80092C13.4913 5.80092 14.9943 5.80092 16.5429 5.80092C16.5429 4.53893 16.5429 3.27694 16.5429 1.9767C15.0399 1.9767 13.5368 1.9767 11.9883 1.9767Z" fill="#6B38B2"/>
<path d="M5.16646 1.35877C5.23641 1.35823 5.23641 1.35823 5.30777 1.35767C5.38451 1.35806 5.38451 1.35806 5.46281 1.35846C5.51669 1.35823 5.57056 1.35801 5.62607 1.35778C5.77389 1.35731 5.92169 1.35742 6.06951 1.35782C6.22411 1.35815 6.37872 1.35785 6.53332 1.35765C6.79297 1.35741 7.05261 1.35772 7.31225 1.35833C7.61255 1.35904 7.91283 1.35881 8.21312 1.3581C8.47083 1.35751 8.72853 1.35743 8.98624 1.35777C9.14021 1.35797 9.29417 1.358 9.44814 1.35757C9.61975 1.35713 9.79134 1.35774 9.96295 1.35846C10.0141 1.3582 10.0653 1.35794 10.118 1.35767C10.1646 1.35803 10.2113 1.3584 10.2593 1.35877C10.3202 1.35884 10.3202 1.35884 10.3823 1.35892C10.4844 1.37514 10.4844 1.37514 10.5619 1.42828C10.6278 1.52548 10.6295 1.58428 10.6296 1.70138C10.63 1.74187 10.6304 1.78235 10.6307 1.82406C10.6304 1.89056 10.6304 1.89056 10.63 1.95841C10.6303 2.02853 10.6303 2.02853 10.6306 2.10008C10.6312 2.255 10.6308 2.40991 10.6304 2.56484C10.6305 2.67224 10.6306 2.77965 10.6308 2.88705C10.631 3.11231 10.6307 3.33756 10.6301 3.56281C10.6294 3.82327 10.6296 4.08372 10.6303 4.34418C10.631 4.59469 10.6309 4.8452 10.6305 5.09571C10.6304 5.20234 10.6305 5.30897 10.6308 5.4156C10.6312 5.56447 10.6307 5.71332 10.63 5.86219C10.6302 5.90652 10.6305 5.95085 10.6307 5.99653C10.6302 6.05726 10.6302 6.05726 10.6296 6.11921C10.6296 6.15441 10.6295 6.18962 10.6295 6.22589C10.6133 6.31655 10.6133 6.31655 10.5617 6.39229C10.4572 6.46409 10.3876 6.46178 10.2612 6.46211C10.215 6.46254 10.1688 6.46296 10.1212 6.4634C10.0452 6.46311 10.0452 6.46311 9.96758 6.46281C9.88749 6.46326 9.88749 6.46326 9.8058 6.46371C9.6593 6.46436 9.51284 6.46443 9.36634 6.46418C9.24408 6.46405 9.12181 6.46431 8.99955 6.46457C8.7111 6.46518 8.42267 6.46511 8.13423 6.46462C7.83662 6.46413 7.53902 6.46473 7.24142 6.46588C6.98593 6.46683 6.73046 6.46712 6.47497 6.46687C6.32237 6.46672 6.16978 6.46683 6.01717 6.46757C5.84701 6.46835 5.67687 6.46775 5.50671 6.46701C5.45611 6.46743 5.4055 6.46784 5.35335 6.46827C5.30703 6.46785 5.2607 6.46742 5.21297 6.46699C5.15262 6.46698 5.15262 6.46698 5.09105 6.46696C4.94927 6.43838 4.89866 6.38825 4.81249 6.27358C4.79098 6.1783 4.79098 6.1783 4.79095 6.07271C4.79032 6.01243 4.79032 6.01243 4.78967 5.95094C4.79009 5.90717 4.7905 5.86339 4.79093 5.81828C4.7907 5.77194 4.79047 5.72561 4.79023 5.67787C4.78969 5.52456 4.7904 5.37129 4.79117 5.21799C4.79117 5.11161 4.7911 5.00523 4.79098 4.89885C4.79092 4.67587 4.79146 4.45291 4.79244 4.22993C4.79366 3.94372 4.79354 3.65755 4.793 3.37134C4.7927 3.15168 4.79303 2.93203 4.79357 2.71237C4.79376 2.60682 4.79377 2.50127 4.79361 2.39572C4.79348 2.2484 4.79419 2.1011 4.79513 1.95378C4.79493 1.90992 4.79474 1.86605 4.79454 1.82086C4.79497 1.7808 4.79539 1.74074 4.79583 1.69946C4.79594 1.66463 4.79604 1.6298 4.79615 1.59392C4.81249 1.50405 4.81249 1.50405 4.86392 1.4284C4.96898 1.35618 5.03935 1.35892 5.16646 1.35877ZM5.45702 1.9767C5.45702 3.23869 5.45702 4.50069 5.45702 5.80092C6.96007 5.80092 8.46311 5.80092 10.0117 5.80092C10.0117 4.53893 10.0117 3.27694 10.0117 1.9767C8.50866 1.9767 7.00561 1.9767 5.45702 1.9767Z" fill="#6B38B2"/>
</g>
<defs>
<clipPath id="clip0_1_11714">
<rect width="22" height="22" fill="white"/>
</clipPath>
</defs>
</svg>
