<svg width="55" height="55" viewBox="0 0 55 55" fill="none" xmlns="http://www.w3.org/2000/svg">
<g clip-path="url(#clip0_1_11765)">
<path d="M26.1887 0.83753C26.2854 0.836772 26.3821 0.836013 26.4818 0.835232C30.546 0.810598 30.546 0.810598 32.334 1.18162C32.4941 1.21449 32.4941 1.21449 32.6574 1.24802C38.749 2.53628 44.6582 5.80193 48.4472 10.8496C48.5263 10.9546 48.5263 10.9546 48.607 11.0618C49.4101 12.1347 50.1563 13.2247 50.8105 14.3945C50.8533 14.4699 50.896 14.5452 50.94 14.6228C52.9003 18.1036 54.1413 22.1751 54.1624 26.1887C54.1632 26.2854 54.1639 26.3821 54.1647 26.4818C54.1894 30.546 54.1894 30.546 53.8183 32.334C53.7855 32.4941 53.7855 32.4941 53.7519 32.6574C52.2398 39.8075 48.1129 45.9583 42.0051 49.9832C41.5475 50.275 41.0791 50.5456 40.6054 50.8105C40.5301 50.8533 40.4548 50.896 40.3771 50.94C36.8964 52.9003 32.8249 54.1413 28.8113 54.1624C28.6662 54.1636 28.6662 54.1636 28.5182 54.1647C24.454 54.1894 24.454 54.1894 22.666 53.8183C22.5059 53.7855 22.5059 53.7855 22.3425 53.7519C15.1996 52.2413 9.02743 48.1142 5.01503 42.0017C4.72486 41.5446 4.45482 41.0772 4.18943 40.6054C4.15074 40.5382 4.11206 40.471 4.0722 40.4017C2.08435 36.9297 0.86965 32.8148 0.833755 28.8029C0.832703 28.7049 0.831651 28.607 0.830567 28.5061C0.812126 26.3439 0.829665 24.2517 1.28904 22.1289C1.31206 22.0196 1.33508 21.9104 1.3588 21.7978C2.23759 17.73 4.05491 13.9842 6.66013 10.7422C6.71087 10.679 6.7616 10.6158 6.81387 10.5508C8.00413 9.08548 9.33785 7.68749 10.8496 6.55271C10.9196 6.5 10.9897 6.4473 11.0618 6.39299C12.135 5.58968 13.2262 4.84668 14.3945 4.18943C14.4618 4.15074 14.529 4.11206 14.5983 4.0722C18.0616 2.08928 22.1841 0.858565 26.1887 0.83753Z" fill="#FEFAED"/>
<path d="M28.8965 32.6562C28.9827 32.6573 29.0688 32.6584 29.1576 32.6595C31.1427 32.6865 33.2484 33.0953 35.127 33.7304C35.2147 33.759 35.3025 33.7877 35.3929 33.8172C38.8739 34.9552 42.0125 36.5927 44.795 38.9941C44.8775 39.0647 44.96 39.1353 45.0451 39.2081C46.2007 40.2221 47.3248 41.3047 48.2795 42.5121C48.3283 42.5736 48.3771 42.635 48.4273 42.6983C48.8909 43.3042 48.8909 43.3042 48.877 43.6132C48.7106 43.8539 48.5487 44.0564 48.3533 44.2712C48.2988 44.3331 48.2443 44.395 48.1881 44.4588C48.0769 44.5846 47.9651 44.71 47.8527 44.8348C47.7171 44.9855 47.5835 45.138 47.4503 45.2909C45.4929 47.5185 43.1941 49.3628 40.6055 50.8105C40.5302 50.8532 40.4548 50.896 40.3772 50.94C36.8964 52.9003 32.8249 54.1413 28.8113 54.1624C28.6662 54.1635 28.6662 54.1635 28.5182 54.1647C24.454 54.1893 24.454 54.1893 22.6661 53.8183C22.5593 53.7964 22.4526 53.7745 22.3426 53.7519C16.1617 52.4448 10.4751 49.156 6.55277 44.1503C6.4708 44.0594 6.38882 43.9684 6.30436 43.8746C6.12309 43.6132 6.12309 43.6132 6.1298 43.3925C6.49281 42.6393 7.15505 42.0126 7.71385 41.4018C7.92498 41.1693 8.12889 40.9323 8.33195 40.6927C8.64082 40.3385 8.97203 40.0312 9.33064 39.728C9.57735 39.5168 9.81316 39.2961 10.0507 39.0746C13.1458 36.2947 17.0451 34.4169 21.0547 33.4081C21.1344 33.3874 21.2141 33.3667 21.2963 33.3454C23.8026 32.7006 26.3192 32.5964 28.8965 32.6562Z" fill="#6B38B2"/>
<path d="M30.5078 9.02334C30.6973 9.07983 30.6973 9.07983 30.8905 9.13747C32.4828 9.64928 33.7467 10.53 34.9121 11.7089C34.9981 11.7938 35.0841 11.8787 35.1727 11.9661C37.058 13.9295 37.8724 16.5662 37.8654 19.2454C37.7917 22.0526 36.5318 24.4557 34.5899 26.4257C34.5127 26.5042 34.4356 26.5827 34.3561 26.6636C33.3111 27.6574 31.9844 28.3619 30.6153 28.789C30.4812 28.8311 30.3472 28.8732 30.2091 28.9165C27.6672 29.6455 24.8758 29.2832 22.5586 28.037C21.6784 27.5278 20.9291 26.9112 20.1953 26.2108C20.1307 26.1542 20.066 26.0976 19.9994 26.0392C18.3206 24.5092 17.3157 21.9754 17.1722 19.742C17.0564 16.8507 17.7745 14.3 19.7186 12.105C19.8769 11.9366 20.0358 11.7687 20.1953 11.6015C20.252 11.5368 20.3086 11.4721 20.367 11.4055C22.8264 8.70705 27.1407 7.92031 30.5078 9.02334Z" fill="#6B38B2"/>
</g>
<defs>
<clipPath id="clip0_1_11765">
<rect width="55" height="55" fill="white"/>
</clipPath>
</defs>
</svg>
