<svg width="18" height="67" viewBox="0 0 18 67" fill="none" xmlns="http://www.w3.org/2000/svg">
<path fill-rule="evenodd" clip-rule="evenodd" d="M8.42861 1.16164C7.96811 1.22239 7.39961 1.35289 6.59111 1.53964L5.66936 1.75264C4.98687 1.91014 4.51587 2.01964 4.15662 2.14264C3.80937 2.26189 3.61287 2.37889 3.46512 2.52739C3.31662 2.67514 3.19962 2.87164 3.08037 3.21889C2.95737 3.57814 2.84787 4.04839 2.69037 4.73164L2.47737 5.65264C2.29062 6.46189 2.16012 7.03039 2.09937 7.49089C2.03937 7.93939 2.05362 8.24314 2.13312 8.51914C2.21187 8.79514 2.36112 9.05989 2.64912 9.40864C2.94537 9.76714 3.35712 10.1804 3.94437 10.7676L5.31687 12.1401C6.33611 13.1594 7.06136 13.8831 7.68536 14.3586C8.29586 14.8251 8.74286 14.9999 9.19662 14.9999C9.65036 14.9999 10.0974 14.8251 10.7086 14.3586C11.3319 13.8831 12.0579 13.1586 13.0771 12.1394C14.0971 11.1194 14.8209 10.3941 15.2971 9.77089C15.7621 9.15964 15.9376 8.71339 15.9376 8.25889C15.9376 7.80514 15.7629 7.35889 15.2964 6.74764C14.8209 6.12364 14.0964 5.39764 13.0771 4.37839L11.7046 3.00589C11.1181 2.41939 10.7049 2.00764 10.3471 1.71139C9.99761 1.42339 9.73286 1.27414 9.45687 1.19539C9.18087 1.11589 8.87711 1.10239 8.42937 1.16164M8.28236 0.046389C8.82012 -0.024861 9.29186 -0.022611 9.76736 0.113889C10.2436 0.250389 10.6449 0.498639 11.0634 0.843639C11.4684 1.17814 11.9184 1.62814 12.4816 2.19139L13.9036 3.61339C14.8861 4.59589 15.6646 5.37439 16.1911 6.06589C16.7341 6.77614 17.0634 7.46014 17.0634 8.25889C17.0634 9.05839 16.7341 9.74239 16.1919 10.4526C15.6646 11.1441 14.8869 11.9226 13.9036 12.9051L13.8436 12.9651C12.8611 13.9476 12.0826 14.7261 11.3911 15.2526C10.6809 15.7956 9.99611 16.1249 9.19736 16.1249C8.39861 16.1249 7.71461 15.7956 7.00361 15.2534C6.31287 14.7261 5.53436 13.9484 4.55112 12.9651L3.12987 11.5424C2.56737 10.9799 2.11662 10.5291 1.78212 10.1249C1.43712 9.70564 1.18887 9.30439 1.05237 8.82889C0.915866 8.35264 0.913616 7.88089 0.984866 7.34314C1.05312 6.82264 1.19712 6.20164 1.37562 5.42614L1.60062 4.44889C1.75062 3.80164 1.87212 3.27364 2.01687 2.85289C2.16837 2.41264 2.35812 2.04289 2.67012 1.73089C2.98212 1.41889 3.35262 1.22839 3.79212 1.07839C4.21287 0.932889 4.74087 0.811389 5.38811 0.662139L6.36537 0.437139C7.14087 0.257139 7.76187 0.114639 8.28236 0.045639M7.11761 5.05864C6.94178 4.8828 6.70329 4.78402 6.45462 4.78402C6.20594 4.78402 5.96745 4.8828 5.79162 5.05864C5.61578 5.23448 5.51699 5.47297 5.51699 5.72164C5.51699 5.97031 5.61578 6.2088 5.79162 6.38464C5.87868 6.4717 5.98204 6.54077 6.0958 6.58789C6.20956 6.63501 6.33148 6.65926 6.45462 6.65926C6.57775 6.65926 6.69967 6.63501 6.81343 6.58789C6.92719 6.54077 7.03055 6.4717 7.11761 6.38464C7.20468 6.29757 7.27375 6.19421 7.32087 6.08045C7.36799 5.96669 7.39224 5.84477 7.39224 5.72164C7.39224 5.59851 7.36799 5.47658 7.32087 5.36283C7.27375 5.24907 7.20468 5.14571 7.11761 5.05864ZM4.99586 4.26364C5.38265 3.87675 5.90728 3.65937 6.45435 3.65929C7.00142 3.65922 7.52611 3.87648 7.91299 4.26326C8.29987 4.65005 8.51726 5.17468 8.51733 5.72175C8.5174 6.26882 8.30015 6.7935 7.91336 7.18039C7.52648 7.56727 7.00175 7.78462 6.45462 7.78462C5.90748 7.78462 5.38275 7.56727 4.99587 7.18039C4.60898 6.7935 4.39163 6.26878 4.39163 5.72164C4.39163 5.1745 4.60898 4.65052 4.99586 4.26364ZM9.74337 8.14189C9.56996 8.1485 9.40614 8.22314 9.28736 8.34964C8.99636 8.64064 9.07286 8.93089 9.15462 9.01264C9.23711 9.09439 9.52736 9.17014 9.81761 8.87989C10.4056 8.29189 11.4211 8.09689 12.0714 8.74714C12.5761 9.25189 12.5724 9.97639 12.2701 10.5501C12.3445 10.6582 12.3787 10.7889 12.3669 10.9196C12.355 11.0503 12.2979 11.1727 12.2054 11.2657C12.1128 11.3587 11.9907 11.4164 11.86 11.4289C11.7294 11.4413 11.5986 11.4077 11.4901 11.3339C11.1536 11.5185 10.7632 11.5801 10.3861 11.5079C10.3137 11.493 10.245 11.464 10.1838 11.4226C10.1226 11.3811 10.0702 11.3281 10.0295 11.2664C9.98882 11.2046 9.9607 11.1355 9.94674 11.063C9.93277 10.9904 9.93324 10.9158 9.94811 10.8434C9.96299 10.771 9.99197 10.7022 10.0334 10.6411C10.0749 10.5799 10.1279 10.5274 10.1897 10.4868C10.2514 10.4461 10.3205 10.418 10.393 10.404C10.4656 10.39 10.5402 10.3905 10.6126 10.4054C10.7454 10.4331 10.9599 10.3904 11.1436 10.2059C11.4339 9.91489 11.3581 9.62464 11.2764 9.54289C11.1939 9.46114 10.9036 9.38539 10.6134 9.67564C10.0254 10.2636 9.00986 10.4586 8.35961 9.80839C7.85486 9.30364 7.85861 8.57914 8.16086 8.00539C8.08651 7.89729 8.05229 7.76659 8.06411 7.63592C8.07594 7.50525 8.13307 7.38282 8.22562 7.28983C8.31817 7.19683 8.44033 7.13911 8.57094 7.12666C8.70155 7.11421 8.83241 7.1478 8.94086 7.22164C9.19586 7.08589 9.47561 7.01389 9.75461 7.01689C9.9038 7.01828 10.0463 7.07888 10.1508 7.18535C10.2553 7.29183 10.3133 7.43545 10.3119 7.58464C10.3105 7.73382 10.2499 7.87634 10.1434 7.98085C10.0369 8.08535 9.89255 8.14328 9.74337 8.14189Z" fill="#6B38B2"/>
</svg>
