<svg width="29" height="29" viewBox="0 0 29 29" fill="none" xmlns="http://www.w3.org/2000/svg">
<path d="M8.90662 16.7846L8.35562 16.2373L9.63524 14.9516L10.1838 15.499L8.90662 16.7846ZM6.50808 16.0077L4.19895 17.2631L3.33499 15.6706L5.64291 14.4163L6.50808 16.0077ZM3.75549 19.7571L5.47133 21.4645L4.19412 22.749L2.47828 21.0428L3.75549 19.7571ZM6.51774 22.0131C8.26982 22.1774 12.8011 22.0312 17.7093 17.152L18.9877 18.4364C13.6324 23.7616 8.53445 24.0226 6.34858 23.8184L6.51774 22.0131ZM17.7093 17.152C22.3868 12.4999 23.1625 8.58852 23.2592 6.89081L25.0693 6.99352C24.9485 9.12985 23.9878 13.4654 18.9877 18.4364L17.7093 17.152ZM16.0479 9.68448L15.7011 9.3389L16.9771 8.05444L17.3239 8.39881L16.0479 9.68448ZM15.4256 4.9466L16.9481 2.91177L18.3993 3.99927L16.8768 6.0329L15.4256 4.9466ZM22.0726 2.46831L23.9697 4.35331L22.6913 5.63898L20.7954 3.75398L22.0726 2.46831ZM16.6859 9.04165C17.3263 8.39881 17.3263 8.39881 17.3263 8.40123H17.3287L17.3323 8.40606C17.3897 8.46396 17.4412 8.52752 17.4858 8.59577C17.551 8.69244 17.6223 8.81931 17.6827 8.98002C17.8298 9.39487 17.8665 9.84085 17.7891 10.2741C17.6272 11.3194 16.907 12.7005 15.0631 14.5347L13.7847 13.2491C15.5114 11.5332 15.9222 10.4892 15.9983 9.99623C16.0346 9.76181 15.9971 9.64581 15.9862 9.61923C15.979 9.60312 15.979 9.6007 15.9862 9.61198C15.997 9.62865 16.0091 9.64441 16.0225 9.6591L16.0346 9.67119L16.0467 9.68206L16.6859 9.04165ZM15.0631 14.5347C13.218 16.369 11.8296 17.0843 10.7832 17.2438C10.2479 17.326 9.81649 17.2607 9.48904 17.1387C9.30561 17.0716 9.13423 16.9753 8.98153 16.8535L8.92112 16.7991L8.91266 16.7919L8.90903 16.7883L8.90783 16.7859C8.90783 16.7859 8.90662 16.7846 9.54583 16.1418C10.1862 15.499 10.1826 15.4978 10.1826 15.4978L10.1802 15.4954L10.1778 15.4929L10.1705 15.4869L10.1585 15.4748L10.1125 15.4386C10.1013 15.4313 10.1041 15.4321 10.121 15.441C10.1512 15.4519 10.2696 15.4893 10.5077 15.4531C11.0079 15.3757 12.0592 14.9649 13.7847 13.2491L15.0631 14.5347ZM16.9481 2.91056C18.1806 1.26723 20.6021 1.00623 22.0726 2.46831L20.7954 3.75398C20.1526 3.11477 19.0119 3.18123 18.3993 3.99927L16.9481 2.91056ZM23.258 6.89202C23.2822 6.47394 23.09 6.03652 22.6913 5.64019L23.9709 4.35452C24.6198 4.99977 25.1309 5.91327 25.0693 6.99352L23.258 6.89202ZM5.47133 21.4645C5.80241 21.7956 6.16008 21.9817 6.51653 22.0143L6.34858 23.8184C5.46045 23.735 4.73424 23.2879 4.19291 22.7502L5.47133 21.4645ZM15.7011 9.3389C14.5109 8.15594 14.4227 6.28665 15.4244 4.94781L16.8756 6.0341C16.3886 6.6854 16.4611 7.53969 16.9783 8.05565L15.7011 9.3389ZM4.19774 17.2644C3.21054 17.8009 3.05708 19.0648 3.75429 19.7584L2.47587 21.0428C0.856701 19.4321 1.35574 16.746 3.33379 15.6718L4.19774 17.2644ZM8.35562 16.2385C7.89162 15.7769 7.14487 15.6633 6.50687 16.0089L5.6417 14.4175C6.95154 13.7046 8.57553 13.9016 9.63403 14.9528L8.35562 16.2385Z" fill="#6B38B2"/>
</svg>
