<svg width="18" height="18" viewBox="0 0 18 18" fill="none" xmlns="http://www.w3.org/2000/svg">
<path d="M11.7968 2.9128C12.8723 1.8328 14.4458 1.8103 15.3165 2.6848C16.1895 3.5608 16.1663 5.1448 15.0893 6.2248L13.272 8.04955C13.1697 8.15578 13.1132 8.29795 13.1147 8.44544C13.1162 8.59293 13.1755 8.73393 13.28 8.83808C13.3844 8.94223 13.5256 9.00119 13.6731 9.00226C13.8206 9.00333 13.9626 8.94642 14.0685 8.8438L15.8865 7.01905C17.3198 5.5798 17.4998 3.28255 16.1138 1.89055C14.7263 0.497798 12.4335 0.679298 10.9988 2.11855L7.36427 5.7688C5.93102 7.20805 5.75102 9.5053 7.13702 10.8965C7.18879 10.9504 7.25075 10.9934 7.31931 11.023C7.38786 11.0526 7.46163 11.0683 7.53631 11.0691C7.61099 11.0699 7.68508 11.0559 7.75427 11.0278C7.82346 10.9996 7.88635 10.958 7.93929 10.9053C7.99222 10.8527 8.03413 10.79 8.06258 10.7209C8.09102 10.6519 8.10543 10.5778 8.10497 10.5031C8.1045 10.4285 8.08917 10.3546 8.05986 10.2859C8.03055 10.2172 7.98786 10.1551 7.93427 10.103C7.06127 9.22705 7.08527 7.64305 8.16152 6.56305L11.7968 2.9128Z" fill="#6B38B2"/>
<path d="M10.8637 7.10246C10.7583 6.99674 10.6152 6.93722 10.4659 6.93701C10.3166 6.9368 10.1733 6.99591 10.0676 7.10133C9.96188 7.20676 9.90237 7.34986 9.90216 7.49916C9.90195 7.64846 9.96105 7.79174 10.0665 7.89746C10.9395 8.77346 10.9162 10.3567 9.83923 11.4375L6.20398 15.087C5.12773 16.167 3.55423 16.1895 2.68348 15.315C1.81048 14.439 1.83448 12.855 2.91073 11.775L4.72873 9.95021C4.78088 9.89786 4.82221 9.83575 4.85036 9.76743C4.87851 9.69911 4.89292 9.62591 4.89278 9.55202C4.89264 9.47813 4.87795 9.40499 4.84955 9.33677C4.82114 9.26856 4.77958 9.20661 4.72723 9.15446C4.67488 9.10231 4.61277 9.06098 4.54445 9.03283C4.47613 9.00468 4.40293 8.99026 4.32904 8.9904C4.25515 8.99054 4.18201 9.00523 4.11379 9.03364C4.04558 9.06205 3.98363 9.10361 3.93148 9.15596L2.11348 10.9807C0.680228 12.4207 0.500228 14.7172 1.88623 16.1092C3.27373 17.5027 5.56648 17.3205 7.00123 15.8812L10.6365 12.231C12.0697 10.7925 12.2497 8.49371 10.8637 7.10246Z" fill="#6B38B2"/>
</svg>
