<svg width="21" height="21" viewBox="0 0 21 21" fill="none" xmlns="http://www.w3.org/2000/svg">
<g clip-path="url(#clip0_1_11546)">
<path d="M13.0025 4.375C12.9491 4.0775 12.8844 3.78437 12.7969 3.5H16.3695C16.2549 3.591 16.1341 3.67237 16.0283 3.77825L15.4315 4.375H13.0025ZM10.5 11.7819L17.2655 5.01637C18.1186 4.16325 19.5064 4.16325 20.3586 5.01637C21.2074 5.82925 21.2074 7.29662 20.3586 8.1095L13.5931 14.875H10.5V11.7819ZM11.375 14H13.2309L19.74 7.49087C20.2493 7.00262 20.2493 6.12325 19.74 5.635C19.229 5.12313 18.3951 5.12313 17.8841 5.635L11.375 12.1441V14ZM20.125 19.5597C20.125 19.7724 20.013 19.9596 19.8258 20.0594C19.6359 20.1609 19.4215 20.1504 19.243 20.0322L15.4446 17.4991H6.125V13.0646H5.25V18.3741H15.1804L18.7591 20.7603C18.9998 20.9212 19.2789 21.0018 19.558 21.0018C20.3306 21.0166 21.0166 20.3359 21 19.5597V9.9435L20.125 10.8185V19.5597ZM5.6875 11.375H0V5.6875C0 2.5515 2.5515 0 5.6875 0C8.8235 0 11.375 2.5515 11.375 5.6875C11.375 8.8235 8.8235 11.375 5.6875 11.375ZM0.875 10.5H5.6875C8.34138 10.5 10.5 8.34138 10.5 5.6875C10.5 3.03363 8.34138 0.875 5.6875 0.875C3.03363 0.875 0.875 3.03363 0.875 5.6875V10.5ZM7 3.9375C7 4.431 6.727 4.87813 6.28862 5.10475C5.6385 5.43988 5.25 6.0375 5.25 6.7025V7H6.125V6.7025C6.125 6.37175 6.33588 6.06463 6.69025 5.88263C7.42088 5.50462 7.875 4.76 7.875 3.9375C7.875 2.73175 6.89325 1.75 5.6875 1.75C4.48175 1.75 3.5 2.73175 3.5 3.9375H4.375C4.375 3.21388 4.96387 2.625 5.6875 2.625C6.41113 2.625 7 3.21388 7 3.9375ZM6.5625 8.75C6.5625 8.267 6.1705 7.875 5.6875 7.875C5.2045 7.875 4.8125 8.267 4.8125 8.75C4.8125 9.233 5.2045 9.625 5.6875 9.625C6.1705 9.625 6.5625 9.233 6.5625 8.75Z" fill="#6B38B2"/>
</g>
<defs>
<clipPath id="clip0_1_11546">
<rect width="21" height="21" fill="white"/>
</clipPath>
</defs>
</svg>
