<svg width="17" height="18" viewBox="0 0 17 18" fill="none" xmlns="http://www.w3.org/2000/svg">
<path d="M15.5108 6.83114L9.15382 0.54239C8.74207 0.12989 8.15257 -0.0666097 7.57432 0.00989028L2.40757 0.71639C2.20207 0.74489 2.05807 0.93389 2.08657 1.13864C2.11432 1.34339 2.30632 1.48439 2.50807 1.45964L7.67482 0.75314C8.01982 0.70364 8.37532 0.82439 8.62507 1.07339L14.9821 7.36214C15.9991 8.37914 16.0043 10.0389 14.9896 11.0671L14.8471 11.2164C14.6903 10.7086 14.4121 10.2309 14.0116 9.83039L7.65382 3.54239C7.24207 3.12989 6.65107 2.93339 6.07432 3.01064L0.90757 3.71714C0.73657 3.74039 0.60457 3.87689 0.58507 4.04714L0.0113197 9.23414C-0.0509303 9.80339 0.14557 10.3614 0.55132 10.7671L6.86407 17.0116C7.50157 17.6491 8.34832 18.0001 9.24982 18.0001H9.26032C10.1663 17.9971 11.0161 17.6409 11.6521 16.9959L14.0273 14.5899C14.6918 13.9164 15.0151 13.0291 14.9963 12.1471L15.5273 11.5899C16.8263 10.2744 16.8203 8.13989 15.5108 6.83114ZM13.4948 14.0634L11.1196 16.4694C10.6246 16.9711 9.96307 17.2486 9.25882 17.2509H9.25057C8.54932 17.2509 7.89157 16.9779 7.39357 16.4806L1.08007 10.2346C0.83707 9.99164 0.72007 9.65714 0.75682 9.31589L1.29832 4.41989L6.17482 3.75314C6.52132 3.70589 6.87532 3.82439 7.12507 4.07339L13.4821 10.3621C14.4991 11.3791 14.5043 13.0396 13.4948 14.0634ZM5.25082 7.50014C5.25082 7.91414 4.91482 8.25014 4.50082 8.25014C4.08682 8.25014 3.75082 7.91414 3.75082 7.50014C3.75082 7.08614 4.08682 6.75014 4.50082 6.75014C4.91482 6.75014 5.25082 7.08614 5.25082 7.50014Z" fill="#6B38B2"/>
</svg>
