<svg width="18" height="18" viewBox="0 0 18 18" fill="none" xmlns="http://www.w3.org/2000/svg">
<g clip-path="url(#clip0_296_1942)">
<path d="M16.26 6.83114L9.90303 0.54239C9.49128 0.12989 8.90178 -0.0666097 8.32353 0.00989028L3.15678 0.71639C2.95128 0.74489 2.80728 0.93389 2.83578 1.13864C2.86353 1.34339 3.05553 1.48439 3.25728 1.45964L8.42403 0.75314C8.76903 0.70364 9.12453 0.82439 9.37428 1.07339L15.7313 7.36214C16.7483 8.37914 16.7535 10.0389 15.7388 11.0671L15.5963 11.2164C15.4395 10.7086 15.1613 10.2309 14.7608 9.83039L8.40303 3.54239C7.99128 3.12989 7.40028 2.93339 6.82353 3.01064L1.65678 3.71714C1.48578 3.74039 1.35378 3.87689 1.33428 4.04714L0.760526 9.23414C0.698276 9.80339 0.894776 10.3614 1.30053 10.7671L7.61328 17.0116C8.25078 17.6491 9.09753 18.0001 9.99903 18.0001H10.0095C10.9155 17.9971 11.7653 17.6409 12.4013 16.9959L14.7765 14.5899C15.441 13.9164 15.7643 13.0291 15.7455 12.1471L16.2765 11.5899C17.5755 10.2744 17.5695 8.13989 16.26 6.83114ZM14.244 14.0634L11.8688 16.4694C11.3738 16.9711 10.7123 17.2486 10.008 17.2509H9.99978C9.29853 17.2509 8.64078 16.9779 8.14278 16.4806L1.82928 10.2346C1.58628 9.99164 1.46928 9.65714 1.50603 9.31589L2.04753 4.41989L6.92403 3.75314C7.27053 3.70589 7.62453 3.82439 7.87428 4.07339L14.2313 10.3621C15.2483 11.3791 15.2535 13.0396 14.244 14.0634ZM6.00003 7.50014C6.00003 7.91414 5.66403 8.25014 5.25003 8.25014C4.83603 8.25014 4.50003 7.91414 4.50003 7.50014C4.50003 7.08614 4.83603 6.75014 5.25003 6.75014C5.66403 6.75014 6.00003 7.08614 6.00003 7.50014Z" fill="#6B38B2"/>
</g>
<defs>
<clipPath id="clip0_296_1942">
<rect width="18" height="18" fill="white"/>
</clipPath>
</defs>
</svg>
